#N canvas 50 45 1054 757 12;
#X text 16 14 Create a Teensy LC breadboard-based circuit with analog
\, digital \, and/or I2C sensors to get physical \, gestural control
over a Pd patch.;
#X text 466 11 sampler for 4 drumbeats buttons for 4 drumbeats and
1 master switch * +keyboard: see 1_keyname_polyphonic_1x1.pd in class4
proximity sensor for pitch/volume +qwiicVCNL in class6;
#X msg 853 122 close;
#X msg 840 93 devices;
#X floatatom 911 94 5 0 0 0 - - -;
#X msg 911 122 open \$1;
#X obj 840 217 s;
#X floatatom 272 169 5 0 0 1 - - -;
#X floatatom 322 169 5 0 0 1 - - -;
#X floatatom 371 169 5 0 0 1 - - -;
#X obj 840 155 comport 1 9600;
#X floatatom 869 337 5 0 0 0 - - -;
#X obj 272 104 r analog_values:;
#X obj 869 264 r digital_values:;
#X floatatom 422 169 5 0 0 1 - - -;
#X obj 869 300 unpack f;
#X obj 840 184 serial_print any;
#X obj 236 341 tgl 15 0 empty empty empty 17 7 0 10 -262144 -1 -1 0.00195503
1;
#X obj 413 337 tgl 15 0 empty empty empty 17 7 0 10 -262144 -1 -1 0.00293255
1;
#X obj 608 333 tgl 15 0 empty empty empty 17 7 0 10 -262144 -1 -1 0.00293255
1;
#X obj 272 135 unpack f f f f f;
#X floatatom 471 169 5 0 0 1 - - -;
#X obj 509 95 tgl 15 0 empty empty empty 17 7 0 10 -262144 -1 -1 2
1;
#N canvas 0 22 450 278 (subpatch) 0;
#X array soundfile-hh 37095 float 2;
#X coords 0 1 37095 -1 200 140 1;
#X restore 38 576 graph;
#N canvas 0 22 450 278 (subpatch) 0;
#X array soundfile-hho 55466 float 2;
#X coords 0 1 55466 -1 200 140 1;
#X restore 255 576 graph;
#N canvas 0 22 450 278 (subpatch) 0;
#X array soundfile-kick 10299 float 2;
#X coords 0 1 10299 -1 200 140 1;
#X restore 473 576 graph;
#N canvas 0 22 450 278 (subpatch) 0;
#X array soundfile-snare 24012 float 2;
#X coords 0 1 24012 -1 200 140 1;
#X restore 690 575 graph;
#X obj 71 434 tabplay~ soundfile-hh;
#X obj 343 499 dac~;
#X obj 343 466 *~ 0.5;
#X msg 235 396 0;
#X obj 235 429 tabplay~ soundfile-hho;
#X floatatom 526 167 5 0 0 0 - - -;
#X obj 600 98 sampler;
#X obj 235 368 select 1;
#X msg 423 394 0;
#X obj 423 366 select 1;
#X msg 610 394 0;
#X obj 610 366 select 1;
#X obj 423 427 tabplay~ soundfile-kick;
#X obj 610 427 tabplay~ soundfile-snare;
#X msg 509 123 \; pd dsp \$1;
#X obj 71 305 ps.scale 0 1023 0 1;
#X obj 238 304 ps.scale 0 1023 0 1;
#X obj 413 303 ps.scale 0 1023 0 1;
#X obj 603 304 ps.scale 0 1023 0 1;
#X obj 74 358 select 1 0;
#X msg 144 394 stop;
#X connect 2 0 10 0;
#X connect 3 0 10 0;
#X connect 4 0 5 0;
#X connect 5 0 10 0;
#X connect 7 0 42 0;
#X connect 8 0 43 0;
#X connect 9 0 44 0;
#X connect 10 0 16 0;
#X connect 12 0 20 0;
#X connect 13 0 15 0;
#X connect 14 0 45 0;
#X connect 15 0 11 0;
#X connect 16 0 6 0;
#X connect 16 1 6 1;
#X connect 17 0 34 0;
#X connect 18 0 36 0;
#X connect 19 0 38 0;
#X connect 20 0 7 0;
#X connect 20 1 8 0;
#X connect 20 2 9 0;
#X connect 20 3 14 0;
#X connect 20 4 21 0;
#X connect 21 0 22 0;
#X connect 22 0 41 0;
#X connect 27 0 29 0;
#X connect 29 0 28 0;
#X connect 29 0 28 1;
#X connect 30 0 31 0;
#X connect 31 0 29 0;
#X connect 32 0 34 1;
#X connect 32 0 36 1;
#X connect 32 0 38 1;
#X connect 34 0 30 0;
#X connect 35 0 39 0;
#X connect 36 0 35 0;
#X connect 37 0 40 0;
#X connect 38 0 37 0;
#X connect 39 0 29 0;
#X connect 40 0 29 0;
#X connect 42 0 46 0;
#X connect 43 0 17 0;
#X connect 44 0 18 0;
#X connect 45 0 19 0;
#X connect 46 0 27 0;
#X connect 46 1 47 0;
#X connect 47 0 27 0;
