#N canvas 269 39 956 757 12;
#X text 16 14 Create a Teensy LC breadboard-based circuit with analog
\, digital \, and/or I2C sensors to get physical \, gestural control
over a Pd patch.;
#X msg 824 197 close;
#X msg 811 168 devices;
#X floatatom 882 169 5 0 0 0 - - -;
#X msg 882 197 open \$1;
#X obj 811 292 s;
#X floatatom 652 481 5 0 0 1 - - -;
#X floatatom 108 162 5 0 0 0 - - -;
#X obj 811 259 serial_print any;
#X obj 810 84 tgl 15 0 empty empty empty 17 7 0 10 -262144 -1 -1 0
1;
#X obj 177 636 dac~;
#X msg 810 112 \; pd dsp \$1;
#X text 466 11 1 master switch \; 4 buttons needs press/release * +keyboard:
see 1_keyname_polyphonic_1x1.pd in class4 proximity sensor for pitch/volume
+qwiicVCNL in class6;
#X obj 811 230 comport 1 9600;
#X obj 652 417 r digital_values:;
#X obj 108 89 r analog_values:;
#N canvas 814 23 541 459 frequency-convertion 0;
#X floatatom 86 257 5 0 0 0 - - -;
#X obj 86 214 mtof;
#X floatatom 86 163 5 0 0 0 - - -;
#X obj 89 113 hsl 128 15 0 127 0 0 empty empty empty -2 -8 0 10 -262144
-1 -1 62 1;
#X obj 86 326 outlet~;
#X obj 86 51 inlet;
#X obj 86 291 osc~ 400;
#X connect 0 0 6 0;
#X connect 1 0 0 0;
#X connect 2 0 1 0;
#X connect 3 0 2 0;
#X connect 5 0 3 0;
#X connect 6 0 4 0;
#X restore 176 280 pd frequency-convertion;
#X obj 179 246 hsl 128 15 0 127 0 0 empty empty empty -2 -8 0 10 -262144
-1 -1 62 1;
#X floatatom 176 170 5 0 0 0 - - -;
#X obj 177 587 *~;
#X obj 22 245 hsl 128 15 0 1 0 0 empty empty empty -2 -8 0 10 -262144
-1 -1 8181 1;
#X obj 177 433 *~;
#N canvas 162 159 450 540 volume-control 0;
#X floatatom 26 111 5 0 0 0 - - -;
#X obj 26 70 ps.scale 0 1023 0 1;
#X obj 26 182 line 1;
#X msg 26 146 \$1 20;
#X obj 26 31 inlet;
#X obj 26 218 outlet;
#X connect 0 0 3 0;
#X connect 1 0 0 0;
#X connect 2 0 5 0;
#X connect 3 0 2 0;
#X connect 4 0 1 0;
#X restore 19 212 pd volume-control;
#N canvas 716 152 450 300 frequency-control 0;
#X floatatom 26 111 5 0 0 0 - - -;
#X obj 26 182 line 1;
#X msg 26 146 \$1 20;
#X obj 26 31 inlet;
#X obj 26 218 outlet;
#X obj 26 70 ps.scale 0 1023 0 127;
#X connect 0 0 2 0;
#X connect 1 0 4 0;
#X connect 2 0 1 0;
#X connect 3 0 5 0;
#X connect 5 0 0 0;
#X restore 176 213 pd frequency-control;
#N canvas 0 23 617 738 harmonic-series 0;
#X obj 120 35 inlet;
#X floatatom 120 70 5 0 0 0 - - -;
#X obj 22 122 * 1;
#X floatatom 155 149 5 0 0 0 - - -;
#X obj 88 122 * 2;
#X obj 155 121 * 3;
#X obj 22 178 osc~ 100;
#X floatatom 22 150 5 0 0 0 - - -;
#X obj 155 179 osc~ 100;
#X floatatom 88 150 5 0 0 0 - - -;
#X obj 88 179 osc~ 100;
#X floatatom 293 148 5 0 0 0 - - -;
#X obj 293 178 osc~ 100;
#X floatatom 226 149 5 0 0 0 - - -;
#X obj 226 178 osc~ 100;
#X obj 22 212 *~ 1;
#X obj 88 215 *~ 0.7;
#X obj 155 215 *~ 0.5;
#X obj 226 214 *~ 0.4;
#X obj 293 214 *~ 0.3;
#X obj 226 121 * 4;
#X obj 293 120 * 5;
#X floatatom 362 148 5 0 0 0 - - -;
#X obj 362 178 osc~ 100;
#X floatatom 500 147 5 0 0 0 - - -;
#X obj 500 177 osc~ 100;
#X floatatom 433 148 5 0 0 0 - - -;
#X obj 433 177 osc~ 100;
#X obj 362 120 * 6;
#X obj 433 120 * 7;
#X obj 500 119 * 8;
#X obj 362 214 *~ 0.3;
#X obj 433 213 *~ 0.2;
#X obj 500 213 *~ 0.1;
#X obj 130 317 outlet~;
#X obj 130 280 *~ 0.2;
#X connect 0 0 1 0;
#X connect 1 0 5 0;
#X connect 1 0 2 0;
#X connect 1 0 4 0;
#X connect 1 0 20 0;
#X connect 1 0 21 0;
#X connect 1 0 28 0;
#X connect 1 0 29 0;
#X connect 1 0 30 0;
#X connect 2 0 7 0;
#X connect 3 0 8 0;
#X connect 4 0 9 0;
#X connect 5 0 3 0;
#X connect 6 0 15 0;
#X connect 7 0 6 0;
#X connect 8 0 17 0;
#X connect 9 0 10 0;
#X connect 10 0 16 0;
#X connect 11 0 12 0;
#X connect 12 0 19 0;
#X connect 13 0 14 0;
#X connect 14 0 18 0;
#X connect 15 0 35 0;
#X connect 16 0 35 0;
#X connect 17 0 35 0;
#X connect 18 0 35 0;
#X connect 19 0 35 0;
#X connect 20 0 13 0;
#X connect 21 0 11 0;
#X connect 22 0 23 0;
#X connect 23 0 31 0;
#X connect 24 0 25 0;
#X connect 25 0 33 0;
#X connect 26 0 27 0;
#X connect 27 0 32 0;
#X connect 28 0 22 0;
#X connect 29 0 26 0;
#X connect 30 0 24 0;
#X connect 31 0 35 0;
#X connect 32 0 35 0;
#X connect 33 0 35 0;
#X connect 35 0 34 0;
#X restore 364 279 pd harmonic-series;
#X floatatom 364 170 5 0 0 0 - - -;
#X obj 367 245 hsl 128 15 0 127 0 0 empty empty empty -2 -8 0 10 -262144
-1 -1 0 1;
#N canvas 716 152 450 300 frequency-control 0;
#X floatatom 26 111 5 0 0 0 - - -;
#X obj 26 182 line 1;
#X msg 26 146 \$1 20;
#X obj 26 31 inlet;
#X obj 26 218 outlet;
#X obj 26 70 ps.scale 0 1023 0 127;
#X connect 0 0 2 0;
#X connect 1 0 4 0;
#X connect 2 0 1 0;
#X connect 3 0 5 0;
#X connect 5 0 0 0;
#X restore 364 214 pd frequency-control;
#N canvas 0 23 196 675 switch 0;
#X obj 41 55 change;
#X obj 97 210 tgl 15 0 empty empty empty 17 7 0 10 -262144 -1 -1 0
1;
#X obj 97 287 line~;
#X msg 97 245 \$1 100;
#X obj 41 94 sel 1;
#X obj 41 133 f 0;
#X obj 85 133 == 0;
#X floatatom 41 171 5 0 0 0 - - -;
#X obj 41 18 inlet;
#X obj 41 324 outlet;
#X connect 0 0 4 0;
#X connect 1 0 3 0;
#X connect 3 0 2 0;
#X connect 4 0 5 0;
#X connect 5 0 6 0;
#X connect 5 0 7 0;
#X connect 6 0 5 1;
#X connect 7 0 9 0;
#X connect 8 0 0 0;
#X restore 652 517 pd switch;
#X floatatom 734 482 5 0 0 1 - - -;
#N canvas 0 23 1040 675 switch 0;
#X obj 41 55 change;
#X obj 41 94 sel 1;
#X obj 41 133 f 0;
#X obj 85 133 == 0;
#X floatatom 41 171 5 0 0 0 - - -;
#X obj 41 18 inlet;
#X obj 41 206 outlet;
#X connect 0 0 1 0;
#X connect 1 0 2 0;
#X connect 2 0 3 0;
#X connect 2 0 4 0;
#X connect 3 0 2 1;
#X connect 4 0 6 0;
#X connect 5 0 0 0;
#X restore 734 518 pd switch;
#X obj 365 431 *~;
#X floatatom 814 482 5 0 0 1 - - -;
#N canvas 0 23 1040 675 switch 0;
#X obj 41 55 change;
#X obj 41 94 sel 1;
#X obj 41 133 f 0;
#X obj 85 133 == 0;
#X floatatom 41 171 5 0 0 0 - - -;
#X obj 41 18 inlet;
#X obj 41 324 outlet;
#X connect 0 0 1 0;
#X connect 1 0 2 0;
#X connect 2 0 3 0;
#X connect 2 0 4 0;
#X connect 3 0 2 1;
#X connect 4 0 6 0;
#X connect 5 0 0 0;
#X restore 814 518 pd switch;
#N canvas 681 49 759 505 ring-modulation 0;
#X obj 374 131 hsl 128 15 0 0.3 0 0 empty empty empty -2 -8 0 10 -262144
-1 -1 0 1;
#X obj 317 208 line~;
#X text 262 129 volume control;
#X msg 317 174 \$1 1000;
#X obj 65 284 *~ 0.2;
#X floatatom 65 189 5 0 0 0 - - -;
#X obj 65 120 mtof;
#X floatatom 65 84 5 0 0 0 - - -;
#X obj 140 154 + 1;
#X floatatom 140 189 5 0 0 0 - - -;
#X obj 65 234 osc~ 500;
#X obj 140 233 osc~ 501;
#X obj 65 328 outlet~;
#X obj 65 45 inlet;
#X connect 0 0 3 0;
#X connect 3 0 1 0;
#X connect 4 0 12 0;
#X connect 5 0 10 0;
#X connect 6 0 5 0;
#X connect 6 0 8 0;
#X connect 7 0 6 0;
#X connect 8 0 9 0;
#X connect 9 0 11 0;
#X connect 10 0 4 0;
#X connect 11 0 4 0;
#X connect 13 0 7 0;
#X restore 539 279 pd ring-modulation;
#X floatatom 539 169 5 0 0 0 - - -;
#X obj 542 244 hsl 128 15 0 127 0 0 empty empty empty -2 -8 0 10 -262144
-1 -1 50 1;
#N canvas 716 152 450 300 frequency-control 0;
#X floatatom 26 111 5 0 0 0 - - -;
#X obj 26 182 line 1;
#X msg 26 146 \$1 20;
#X obj 26 31 inlet;
#X obj 26 218 outlet;
#X obj 26 70 ps.scale 0 1023 0 127;
#X connect 0 0 2 0;
#X connect 1 0 4 0;
#X connect 2 0 1 0;
#X connect 3 0 5 0;
#X connect 5 0 0 0;
#X restore 539 213 pd frequency-control;
#X obj 536 401 *~;
#X obj 108 125 unpack f f f f;
#X obj 652 448 unpack f f f;
#X obj 652 608 line~;
#X msg 652 578 \$1 100;
#X obj 652 551 tgl 15 0 empty empty empty 17 7 0 10 -262144 -1 -1 1
1;
#X obj 734 606 line~;
#X msg 734 576 \$1 100;
#X obj 734 549 tgl 15 0 empty empty empty 17 7 0 10 -262144 -1 -1 1
1;
#X obj 815 605 line~;
#X msg 815 575 \$1 100;
#X obj 815 548 tgl 15 0 empty empty empty 17 7 0 10 -262144 -1 -1 1
1;
#X text 386 306 metro?;
#X text 39 270 need smoothout?;
#X connect 1 0 13 0;
#X connect 2 0 13 0;
#X connect 3 0 4 0;
#X connect 4 0 13 0;
#X connect 6 0 28 0;
#X connect 7 0 22 0;
#X connect 8 0 5 0;
#X connect 8 1 5 1;
#X connect 9 0 11 0;
#X connect 13 0 8 0;
#X connect 14 0 40 0;
#X connect 15 0 39 0;
#X connect 16 0 21 0;
#X connect 17 0 16 0;
#X connect 18 0 23 0;
#X connect 19 0 10 0;
#X connect 19 0 10 1;
#X connect 20 0 19 1;
#X connect 21 0 19 0;
#X connect 22 0 20 0;
#X connect 23 0 17 0;
#X connect 24 0 31 0;
#X connect 25 0 27 0;
#X connect 26 0 24 0;
#X connect 27 0 26 0;
#X connect 28 0 43 0;
#X connect 29 0 30 0;
#X connect 30 0 46 0;
#X connect 31 0 19 0;
#X connect 32 0 33 0;
#X connect 33 0 49 0;
#X connect 34 0 38 0;
#X connect 35 0 37 0;
#X connect 36 0 34 0;
#X connect 37 0 36 0;
#X connect 38 0 19 0;
#X connect 39 0 7 0;
#X connect 39 1 18 0;
#X connect 39 2 25 0;
#X connect 39 3 35 0;
#X connect 40 0 6 0;
#X connect 40 1 29 0;
#X connect 40 2 32 0;
#X connect 41 0 21 1;
#X connect 42 0 41 0;
#X connect 43 0 42 0;
#X connect 44 0 31 1;
#X connect 45 0 44 0;
#X connect 46 0 45 0;
#X connect 47 0 38 1;
#X connect 48 0 47 0;
#X connect 49 0 48 0;
