#N canvas 0 23 1280 755 12;
#X obj 159 133 dead_alive;
#X obj 245 134 dead_alive;
#X obj 331 134 dead_alive;
#X obj 417 134 dead_alive;
#X obj 504 134 dead_alive;
#X obj 590 134 dead_alive;
#X obj 676 134 dead_alive;
#X obj 762 134 dead_alive;
#X obj 849 134 dead_alive;
#X obj 935 134 dead_alive;
#X obj 935 114 r c110;
#X obj 977 114 r a110;
#X obj 935 154 s a110;
#X obj 159 194 dead_alive;
#X obj 245 194 dead_alive;
#X obj 331 194 dead_alive;
#X obj 417 194 dead_alive;
#X obj 504 194 dead_alive;
#X obj 590 194 dead_alive;
#X obj 676 194 dead_alive;
#X obj 762 194 dead_alive;
#X obj 849 194 dead_alive;
#X obj 935 194 dead_alive;
#X obj 201 174 r a111;
#X obj 160 214 s a111;
#X obj 287 174 r a112;
#X obj 245 214 s a112;
#X obj 245 174 r c112;
#X obj 331 174 r c113;
#X obj 373 174 r a113;
#X obj 331 214 s a113;
#X obj 417 174 r c114;
#X obj 459 174 r a114;
#X obj 417 214 s a114;
#X obj 504 174 r c115;
#X obj 546 174 r a115;
#X obj 504 214 s a115;
#X obj 590 174 r c116;
#X obj 632 174 r a116;
#X obj 590 214 s a116;
#X obj 676 174 r c117;
#X obj 718 174 r a117;
#X obj 676 214 s a117;
#X obj 762 174 r c118;
#X obj 804 174 r a118;
#X obj 762 214 s a118;
#X obj 849 174 r c119;
#X obj 891 174 r a119;
#X obj 849 214 s a119;
#X obj 935 174 r c120;
#X obj 977 174 r a120;
#X obj 935 214 s a120;
#X obj 159 174 r c111;
#X obj 159 254 dead_alive;
#X obj 159 234 r c121;
#X obj 201 234 r a121;
#X obj 159 274 s a121;
#X obj 245 254 dead_alive;
#X obj 331 254 dead_alive;
#X obj 417 254 dead_alive;
#X obj 504 254 dead_alive;
#X obj 590 254 dead_alive;
#X obj 676 254 dead_alive;
#X obj 762 254 dead_alive;
#X obj 849 254 dead_alive;
#X obj 935 254 dead_alive;
#X obj 245 234 r c122;
#X obj 287 234 r a122;
#X obj 245 274 s a122;
#X obj 331 234 r c123;
#X obj 373 234 r a123;
#X obj 331 274 s a123;
#X obj 417 234 r c124;
#X obj 459 234 r a124;
#X obj 417 274 s a124;
#X obj 504 274 s a125;
#X obj 504 234 r c125;
#X obj 546 234 r a125;
#X obj 632 234 r a126;
#X obj 590 274 s a126;
#X obj 590 234 r c126;
#X obj 676 234 r c127;
#X obj 718 234 r a127;
#X obj 676 274 s a127;
#X obj 762 234 r c128;
#X obj 804 234 r a128;
#X obj 762 274 s a128;
#X obj 849 234 r c129;
#X obj 891 234 r a129;
#X obj 849 274 s a129;
#X obj 159 314 dead_alive;
#X obj 245 314 dead_alive;
#X obj 331 314 dead_alive;
#X obj 417 314 dead_alive;
#X obj 504 314 dead_alive;
#X obj 590 314 dead_alive;
#X obj 676 314 dead_alive;
#X obj 762 314 dead_alive;
#X obj 849 314 dead_alive;
#X obj 935 314 dead_alive;
#X obj 201 294 r a131;
#X obj 160 334 s a131;
#X obj 287 294 r a132;
#X obj 245 334 s a132;
#X obj 245 294 r c132;
#X obj 331 294 r c133;
#X obj 373 294 r a133;
#X obj 331 334 s a133;
#X obj 417 294 r c134;
#X obj 459 294 r a134;
#X obj 417 334 s a134;
#X obj 504 294 r c135;
#X obj 546 294 r a135;
#X obj 504 334 s a135;
#X obj 590 294 r c136;
#X obj 632 294 r a136;
#X obj 590 334 s a136;
#X obj 676 294 r c137;
#X obj 718 294 r a137;
#X obj 676 334 s a137;
#X obj 762 294 r c138;
#X obj 804 294 r a138;
#X obj 762 334 s a138;
#X obj 849 294 r c139;
#X obj 891 294 r a139;
#X obj 849 334 s a139;
#X obj 935 294 r c140;
#X obj 977 294 r a140;
#X obj 159 294 r c131;
#X obj 977 234 r a130;
#X obj 159 374 dead_alive;
#X obj 159 354 r c141;
#X obj 201 354 r a141;
#X obj 159 394 s a141;
#X obj 245 374 dead_alive;
#X obj 331 374 dead_alive;
#X obj 417 374 dead_alive;
#X obj 504 374 dead_alive;
#X obj 590 374 dead_alive;
#X obj 676 374 dead_alive;
#X obj 762 374 dead_alive;
#X obj 849 374 dead_alive;
#X obj 935 374 dead_alive;
#X obj 245 354 r c142;
#X obj 287 354 r a142;
#X obj 245 394 s a142;
#X obj 331 354 r c143;
#X obj 373 354 r a143;
#X obj 331 394 s a143;
#X obj 417 354 r c144;
#X obj 459 354 r a144;
#X obj 417 394 s a144;
#X obj 504 394 s a145;
#X obj 504 354 r c145;
#X obj 546 354 r a145;
#X obj 632 354 r a146;
#X obj 590 394 s a146;
#X obj 590 354 r c146;
#X obj 676 354 r c147;
#X obj 718 354 r a147;
#X obj 676 394 s a147;
#X obj 762 354 r c148;
#X obj 804 354 r a148;
#X obj 762 394 s a148;
#X obj 849 354 r c149;
#X obj 891 354 r a149;
#X obj 849 394 s a149;
#X obj 935 354 r c150;
#X obj 977 354 r a150;
#X obj 935 234 r c130;
#X obj 935 274 s a130;
#X obj 935 334 s a140;
#X obj 935 394 s a150;
#X obj 159 433 dead_alive;
#X obj 159 413 r c151;
#X obj 201 413 r a151;
#X obj 159 453 s a151;
#X obj 245 434 dead_alive;
#X obj 331 434 dead_alive;
#X obj 417 434 dead_alive;
#X obj 504 434 dead_alive;
#X obj 590 434 dead_alive;
#X obj 676 434 dead_alive;
#X obj 762 434 dead_alive;
#X obj 849 434 dead_alive;
#X obj 935 434 dead_alive;
#X obj 245 414 r c152;
#X obj 287 414 r a152;
#X obj 245 454 s a152;
#X obj 331 414 r c153;
#X obj 373 414 r a153;
#X obj 331 454 s a153;
#X obj 417 414 r c154;
#X obj 459 414 r a154;
#X obj 417 454 s a154;
#X obj 504 454 s a155;
#X obj 504 414 r c155;
#X obj 546 414 r a155;
#X obj 632 414 r a156;
#X obj 590 454 s a156;
#X obj 590 414 r c156;
#X obj 676 414 r c157;
#X obj 718 414 r a157;
#X obj 676 454 s a157;
#X obj 762 414 r c158;
#X obj 804 414 r a158;
#X obj 762 454 s a158;
#X obj 849 414 r c159;
#X obj 891 414 r a159;
#X obj 849 454 s a159;
#X obj 935 414 r c160;
#X obj 977 414 r a160;
#X obj 935 454 s a160;
#X obj 159 494 dead_alive;
#X obj 245 494 dead_alive;
#X obj 331 494 dead_alive;
#X obj 417 494 dead_alive;
#X obj 504 494 dead_alive;
#X obj 590 494 dead_alive;
#X obj 676 494 dead_alive;
#X obj 762 494 dead_alive;
#X obj 849 494 dead_alive;
#X obj 935 494 dead_alive;
#X obj 201 474 r a161;
#X obj 160 514 s a161;
#X obj 287 474 r a162;
#X obj 245 514 s a162;
#X obj 245 474 r c162;
#X obj 331 474 r c163;
#X obj 373 474 r a163;
#X obj 331 514 s a163;
#X obj 417 474 r c164;
#X obj 459 474 r a164;
#X obj 417 514 s a164;
#X obj 504 474 r c165;
#X obj 546 474 r a165;
#X obj 504 514 s a165;
#X obj 590 474 r c166;
#X obj 632 474 r a166;
#X obj 590 514 s a166;
#X obj 676 474 r c167;
#X obj 718 474 r a167;
#X obj 676 514 s a167;
#X obj 762 474 r c168;
#X obj 804 474 r a168;
#X obj 762 514 s a168;
#X obj 849 474 r c169;
#X obj 891 474 r a169;
#X obj 849 514 s a169;
#X obj 935 474 r c170;
#X obj 977 474 r a170;
#X obj 935 514 s a170;
#X obj 159 474 r c161;
#X obj 159 554 dead_alive;
#X obj 159 534 r c171;
#X obj 201 534 r a171;
#X obj 159 574 s a171;
#X obj 245 554 dead_alive;
#X obj 331 554 dead_alive;
#X obj 417 554 dead_alive;
#X obj 504 554 dead_alive;
#X obj 590 554 dead_alive;
#X obj 676 554 dead_alive;
#X obj 762 554 dead_alive;
#X obj 849 554 dead_alive;
#X obj 935 554 dead_alive;
#X obj 245 534 r c172;
#X obj 287 534 r a172;
#X obj 245 574 s a172;
#X obj 331 534 r c173;
#X obj 373 534 r a173;
#X obj 331 574 s a173;
#X obj 417 534 r c174;
#X obj 459 534 r a174;
#X obj 417 574 s a174;
#X obj 504 574 s a175;
#X obj 504 534 r c175;
#X obj 546 534 r a175;
#X obj 632 534 r a176;
#X obj 590 574 s a176;
#X obj 590 534 r c176;
#X obj 676 534 r c177;
#X obj 718 534 r a177;
#X obj 676 574 s a177;
#X obj 762 534 r c178;
#X obj 804 534 r a178;
#X obj 762 574 s a178;
#X obj 849 534 r c179;
#X obj 891 534 r a179;
#X obj 849 574 s a179;
#X obj 159 614 dead_alive;
#X obj 245 614 dead_alive;
#X obj 331 614 dead_alive;
#X obj 417 614 dead_alive;
#X obj 504 614 dead_alive;
#X obj 590 614 dead_alive;
#X obj 676 614 dead_alive;
#X obj 762 614 dead_alive;
#X obj 849 614 dead_alive;
#X obj 935 614 dead_alive;
#X obj 201 594 r a181;
#X obj 160 634 s a181;
#X obj 287 594 r a182;
#X obj 245 634 s a182;
#X obj 245 594 r c182;
#X obj 331 594 r c183;
#X obj 373 594 r a183;
#X obj 331 634 s a183;
#X obj 417 594 r c184;
#X obj 459 594 r a184;
#X obj 417 634 s a184;
#X obj 504 594 r c185;
#X obj 546 594 r a185;
#X obj 504 634 s a185;
#X obj 590 594 r c186;
#X obj 632 594 r a186;
#X obj 590 634 s a186;
#X obj 676 594 r c187;
#X obj 718 594 r a187;
#X obj 676 634 s a187;
#X obj 762 594 r c188;
#X obj 804 594 r a188;
#X obj 762 634 s a188;
#X obj 849 594 r c189;
#X obj 891 594 r a189;
#X obj 849 634 s a189;
#X obj 159 594 r c181;
#X obj 977 534 r a180;
#X obj 159 674 dead_alive;
#X obj 159 654 r c191;
#X obj 201 654 r a191;
#X obj 159 694 s a191;
#X obj 245 674 dead_alive;
#X obj 331 674 dead_alive;
#X obj 417 674 dead_alive;
#X obj 504 674 dead_alive;
#X obj 590 674 dead_alive;
#X obj 676 674 dead_alive;
#X obj 762 674 dead_alive;
#X obj 849 674 dead_alive;
#X obj 935 674 dead_alive;
#X obj 245 654 r c192;
#X obj 287 654 r a192;
#X obj 245 694 s a192;
#X obj 331 654 r c193;
#X obj 373 654 r a193;
#X obj 331 694 s a193;
#X obj 417 654 r c194;
#X obj 459 654 r a194;
#X obj 417 694 s a194;
#X obj 504 694 s a195;
#X obj 504 654 r c195;
#X obj 546 654 r a195;
#X obj 632 654 r a196;
#X obj 590 694 s a196;
#X obj 590 654 r c196;
#X obj 676 654 r c197;
#X obj 718 654 r a197;
#X obj 676 694 s a197;
#X obj 762 654 r c198;
#X obj 804 654 r a198;
#X obj 762 694 s a198;
#X obj 849 654 r c199;
#X obj 891 654 r a199;
#X obj 849 694 s a199;
#X obj 935 534 r c180;
#X obj 935 574 s a180;
#X obj 935 594 r c190;
#X obj 977 594 r a190;
#X obj 935 634 s a190;
#X obj 935 654 r c200;
#X obj 977 654 r a200;
#X obj 935 694 s a200;
#X obj 159 733 dead_alive;
#X obj 245 734 dead_alive;
#X obj 331 734 dead_alive;
#X obj 417 734 dead_alive;
#X obj 504 734 dead_alive;
#X obj 590 734 dead_alive;
#X obj 676 734 dead_alive;
#X obj 762 734 dead_alive;
#X obj 849 734 dead_alive;
#X obj 935 734 dead_alive;
#X obj 935 714 r c210;
#X obj 977 714 r a210;
#X obj 935 754 s a210;
#X obj 159 794 dead_alive;
#X obj 245 794 dead_alive;
#X obj 331 794 dead_alive;
#X obj 417 794 dead_alive;
#X obj 504 794 dead_alive;
#X obj 590 794 dead_alive;
#X obj 676 794 dead_alive;
#X obj 762 794 dead_alive;
#X obj 849 794 dead_alive;
#X obj 935 794 dead_alive;
#X obj 201 774 r a211;
#X obj 160 814 s a211;
#X obj 287 774 r a212;
#X obj 245 814 s a212;
#X obj 245 774 r c212;
#X obj 331 774 r c213;
#X obj 373 774 r a213;
#X obj 331 814 s a213;
#X obj 417 774 r c214;
#X obj 459 774 r a214;
#X obj 417 814 s a214;
#X obj 504 774 r c215;
#X obj 546 774 r a215;
#X obj 504 814 s a215;
#X obj 590 774 r c216;
#X obj 632 774 r a216;
#X obj 590 814 s a216;
#X obj 676 774 r c217;
#X obj 718 774 r a217;
#X obj 676 814 s a217;
#X obj 762 774 r c218;
#X obj 804 774 r a218;
#X obj 762 814 s a218;
#X obj 849 774 r c219;
#X obj 891 774 r a219;
#X obj 849 814 s a219;
#X obj 935 774 r c220;
#X obj 977 774 r a220;
#X obj 935 814 s a220;
#X obj 159 774 r c211;
#X obj 159 854 dead_alive;
#X obj 159 834 r c221;
#X obj 201 834 r a221;
#X obj 159 874 s a221;
#X obj 245 854 dead_alive;
#X obj 331 854 dead_alive;
#X obj 417 854 dead_alive;
#X obj 504 854 dead_alive;
#X obj 590 854 dead_alive;
#X obj 676 854 dead_alive;
#X obj 762 854 dead_alive;
#X obj 849 854 dead_alive;
#X obj 935 854 dead_alive;
#X obj 245 834 r c222;
#X obj 287 834 r a222;
#X obj 245 874 s a222;
#X obj 331 834 r c223;
#X obj 373 834 r a223;
#X obj 331 874 s a223;
#X obj 417 834 r c224;
#X obj 459 834 r a224;
#X obj 417 874 s a224;
#X obj 504 874 s a225;
#X obj 504 834 r c225;
#X obj 546 834 r a225;
#X obj 632 834 r a226;
#X obj 590 874 s a226;
#X obj 590 834 r c226;
#X obj 676 834 r c227;
#X obj 718 834 r a227;
#X obj 676 874 s a227;
#X obj 762 834 r c228;
#X obj 804 834 r a228;
#X obj 762 874 s a228;
#X obj 849 834 r c229;
#X obj 891 834 r a229;
#X obj 849 874 s a229;
#X obj 159 914 dead_alive;
#X obj 245 914 dead_alive;
#X obj 331 914 dead_alive;
#X obj 417 914 dead_alive;
#X obj 504 914 dead_alive;
#X obj 590 914 dead_alive;
#X obj 676 914 dead_alive;
#X obj 762 914 dead_alive;
#X obj 849 914 dead_alive;
#X obj 935 914 dead_alive;
#X obj 201 894 r a231;
#X obj 160 934 s a231;
#X obj 287 894 r a232;
#X obj 245 934 s a232;
#X obj 245 894 r c232;
#X obj 331 894 r c233;
#X obj 373 894 r a233;
#X obj 331 934 s a233;
#X obj 417 894 r c234;
#X obj 459 894 r a234;
#X obj 417 934 s a234;
#X obj 504 894 r c235;
#X obj 546 894 r a235;
#X obj 504 934 s a235;
#X obj 590 894 r c236;
#X obj 632 894 r a236;
#X obj 590 934 s a236;
#X obj 676 894 r c237;
#X obj 718 894 r a237;
#X obj 676 934 s a237;
#X obj 762 894 r c238;
#X obj 804 894 r a238;
#X obj 762 934 s a238;
#X obj 849 894 r c239;
#X obj 891 894 r a239;
#X obj 849 934 s a239;
#X obj 935 894 r c240;
#X obj 977 894 r a240;
#X obj 159 894 r c231;
#X obj 977 834 r a230;
#X obj 159 974 dead_alive;
#X obj 159 954 r c241;
#X obj 201 954 r a241;
#X obj 159 994 s a241;
#X obj 245 974 dead_alive;
#X obj 331 974 dead_alive;
#X obj 417 974 dead_alive;
#X obj 504 974 dead_alive;
#X obj 590 974 dead_alive;
#X obj 676 974 dead_alive;
#X obj 762 974 dead_alive;
#X obj 849 974 dead_alive;
#X obj 935 974 dead_alive;
#X obj 245 954 r c242;
#X obj 287 954 r a242;
#X obj 245 994 s a242;
#X obj 331 954 r c243;
#X obj 373 954 r a243;
#X obj 331 994 s a243;
#X obj 417 954 r c244;
#X obj 459 954 r a244;
#X obj 417 994 s a244;
#X obj 504 994 s a245;
#X obj 504 954 r c245;
#X obj 546 954 r a245;
#X obj 632 954 r a246;
#X obj 590 994 s a246;
#X obj 590 954 r c246;
#X obj 676 954 r c247;
#X obj 718 954 r a247;
#X obj 676 994 s a247;
#X obj 762 954 r c248;
#X obj 804 954 r a248;
#X obj 762 994 s a248;
#X obj 849 954 r c249;
#X obj 891 954 r a249;
#X obj 849 994 s a249;
#X obj 935 954 r c250;
#X obj 977 954 r a250;
#X obj 935 834 r c230;
#X obj 935 874 s a230;
#X obj 935 934 s a240;
#X obj 935 994 s a250;
#X obj 159 1033 dead_alive;
#X obj 159 1013 r c251;
#X obj 201 1013 r a251;
#X obj 159 1053 s a251;
#X obj 245 1034 dead_alive;
#X obj 331 1034 dead_alive;
#X obj 417 1034 dead_alive;
#X obj 504 1034 dead_alive;
#X obj 590 1034 dead_alive;
#X obj 245 1014 r c252;
#X obj 287 1014 r a252;
#X obj 245 1054 s a252;
#X obj 331 1014 r c253;
#X obj 373 1014 r a253;
#X obj 331 1054 s a253;
#X obj 417 1014 r c254;
#X obj 459 1014 r a254;
#X obj 417 1054 s a254;
#X obj 504 1054 s a255;
#X obj 504 1014 r c255;
#X obj 546 1014 r a255;
#X obj 632 1014 r a256;
#X obj 590 1054 s a256;
#X obj 590 1014 r c256;
#X obj 201 713 r a201;
#X obj 159 713 r c201;
#X obj 159 753 s a201;
#X obj 245 714 r c202;
#X obj 245 754 s a202;
#X obj 331 754 s a203;
#X obj 417 754 s a204;
#X obj 504 754 s a205;
#X obj 590 754 s a206;
#X obj 676 754 s a207;
#X obj 762 755 s a208;
#X obj 849 754 s a209;
#X obj 891 714 r a209;
#X obj 849 714 r c209;
#X obj 804 714 r a208;
#X obj 762 715 r c208;
#X obj 718 714 r a207;
#X obj 676 714 r c207;
#X obj 632 714 r a206;
#X obj 590 714 r c206;
#X obj 546 714 r a205;
#X obj 504 714 r c205;
#X obj 459 714 r a204;
#X obj 417 714 r c204;
#X obj 373 714 r a203;
#X obj 331 714 r c203;
#X obj 287 714 r a202;
#X obj 159 113 r c101;
#X obj 202 113 r a101;
#X obj 245 114 r c102;
#X obj 159 153 s a101;
#X obj 245 154 s a102;
#X obj 331 154 s a103;
#X obj 417 154 s a104;
#X obj 504 154 s a105;
#X obj 590 154 s a106;
#X obj 676 154 s a107;
#X obj 762 154 s a108;
#X obj 849 154 s a109;
#X obj 891 114 r a109;
#X obj 849 114 r c109;
#X obj 804 114 r a108;
#X obj 762 114 r c108;
#X obj 718 114 r a107;
#X obj 676 114 r c107;
#X obj 632 114 r a106;
#X obj 589 114 r c106;
#X obj 546 114 r a105;
#X obj 504 114 r c105;
#X obj 459 114 r a104;
#X obj 417 114 r c104;
#X obj 373 114 r a103;
#X obj 331 114 r c103;
#X obj 287 114 r a102;
#X obj 1045 143 dead_alive;
#X obj 1045 123 r c1;
#X obj 1087 123 r a1;
#X obj 1045 163 s a1;
#X obj 1131 144 dead_alive;
#X obj 1217 144 dead_alive;
#X obj 1303 144 dead_alive;
#X obj 1390 144 dead_alive;
#X obj 1476 144 dead_alive;
#X obj 1562 144 dead_alive;
#X obj 1648 144 dead_alive;
#X obj 1735 144 dead_alive;
#X obj 1821 144 dead_alive;
#X obj 1131 124 r c2;
#X obj 1173 124 r a2;
#X obj 1131 164 s a2;
#X obj 1217 124 r c3;
#X obj 1259 124 r a3;
#X obj 1217 164 s a3;
#X obj 1303 124 r c4;
#X obj 1345 124 r a4;
#X obj 1303 164 s a4;
#X obj 1390 164 s a5;
#X obj 1390 124 r c5;
#X obj 1432 124 r a5;
#X obj 1518 124 r a6;
#X obj 1476 164 s a6;
#X obj 1476 124 r c6;
#X obj 1562 124 r c7;
#X obj 1604 124 r a7;
#X obj 1562 164 s a7;
#X obj 1648 124 r c8;
#X obj 1690 124 r a8;
#X obj 1648 164 s a8;
#X obj 1735 124 r c9;
#X obj 1777 124 r a9;
#X obj 1735 164 s a9;
#X obj 1821 124 r c0;
#X obj 1863 124 r a0;
#X obj 1821 164 s a0;
#X obj 1045 204 dead_alive;
#X obj 1131 204 dead_alive;
#X obj 1217 204 dead_alive;
#X obj 1303 204 dead_alive;
#X obj 1390 204 dead_alive;
#X obj 1476 204 dead_alive;
#X obj 1562 204 dead_alive;
#X obj 1648 204 dead_alive;
#X obj 1735 204 dead_alive;
#X obj 1821 204 dead_alive;
#X obj 1087 184 r a11;
#X obj 1046 224 s a11;
#X obj 1173 184 r a12;
#X obj 1131 224 s a12;
#X obj 1131 184 r c12;
#X obj 1217 184 r c13;
#X obj 1259 184 r a13;
#X obj 1217 224 s a13;
#X obj 1303 184 r c14;
#X obj 1345 184 r a14;
#X obj 1303 224 s a14;
#X obj 1390 184 r c15;
#X obj 1432 184 r a15;
#X obj 1390 224 s a15;
#X obj 1476 184 r c16;
#X obj 1518 184 r a16;
#X obj 1476 224 s a16;
#X obj 1562 184 r c17;
#X obj 1604 184 r a17;
#X obj 1562 224 s a17;
#X obj 1648 184 r c18;
#X obj 1690 184 r a18;
#X obj 1648 224 s a18;
#X obj 1735 184 r c19;
#X obj 1777 184 r a19;
#X obj 1735 224 s a19;
#X obj 1821 184 r c20;
#X obj 1863 184 r a20;
#X obj 1821 224 s a20;
#X obj 1045 184 r c11;
#X obj 1045 264 dead_alive;
#X obj 1045 244 r c21;
#X obj 1087 244 r a21;
#X obj 1045 284 s a21;
#X obj 1131 264 dead_alive;
#X obj 1217 264 dead_alive;
#X obj 1303 264 dead_alive;
#X obj 1390 264 dead_alive;
#X obj 1476 264 dead_alive;
#X obj 1562 264 dead_alive;
#X obj 1648 264 dead_alive;
#X obj 1735 264 dead_alive;
#X obj 1821 264 dead_alive;
#X obj 1131 244 r c22;
#X obj 1173 244 r a22;
#X obj 1131 284 s a22;
#X obj 1217 244 r c23;
#X obj 1259 244 r a23;
#X obj 1217 284 s a23;
#X obj 1303 244 r c24;
#X obj 1345 244 r a24;
#X obj 1303 284 s a24;
#X obj 1390 284 s a25;
#X obj 1390 244 r c25;
#X obj 1432 244 r a25;
#X obj 1518 244 r a26;
#X obj 1476 284 s a26;
#X obj 1476 244 r c26;
#X obj 1562 244 r c27;
#X obj 1604 244 r a27;
#X obj 1562 284 s a27;
#X obj 1648 244 r c28;
#X obj 1690 244 r a28;
#X obj 1648 284 s a28;
#X obj 1735 244 r c29;
#X obj 1777 244 r a29;
#X obj 1735 284 s a29;
#X obj 1045 324 dead_alive;
#X obj 1131 324 dead_alive;
#X obj 1217 324 dead_alive;
#X obj 1303 324 dead_alive;
#X obj 1390 324 dead_alive;
#X obj 1476 324 dead_alive;
#X obj 1562 324 dead_alive;
#X obj 1648 324 dead_alive;
#X obj 1735 324 dead_alive;
#X obj 1821 324 dead_alive;
#X obj 1087 304 r a31;
#X obj 1046 344 s a31;
#X obj 1173 304 r a32;
#X obj 1131 344 s a32;
#X obj 1131 304 r c32;
#X obj 1217 304 r c33;
#X obj 1259 304 r a33;
#X obj 1217 344 s a33;
#X obj 1303 304 r c34;
#X obj 1345 304 r a34;
#X obj 1303 344 s a34;
#X obj 1390 304 r c35;
#X obj 1432 304 r a35;
#X obj 1390 344 s a35;
#X obj 1476 304 r c36;
#X obj 1518 304 r a36;
#X obj 1476 344 s a36;
#X obj 1562 304 r c37;
#X obj 1604 304 r a37;
#X obj 1562 344 s a37;
#X obj 1648 304 r c38;
#X obj 1690 304 r a38;
#X obj 1648 344 s a38;
#X obj 1735 304 r c39;
#X obj 1777 304 r a39;
#X obj 1735 344 s a39;
#X obj 1821 304 r c40;
#X obj 1863 304 r a40;
#X obj 1045 304 r c31;
#X obj 1863 244 r a30;
#X obj 1045 384 dead_alive;
#X obj 1045 364 r c41;
#X obj 1087 364 r a41;
#X obj 1045 404 s a41;
#X obj 1131 384 dead_alive;
#X obj 1217 384 dead_alive;
#X obj 1303 384 dead_alive;
#X obj 1390 384 dead_alive;
#X obj 1476 384 dead_alive;
#X obj 1562 384 dead_alive;
#X obj 1648 384 dead_alive;
#X obj 1735 384 dead_alive;
#X obj 1821 384 dead_alive;
#X obj 1131 364 r c42;
#X obj 1173 364 r a42;
#X obj 1131 404 s a42;
#X obj 1217 364 r c43;
#X obj 1259 364 r a43;
#X obj 1217 404 s a43;
#X obj 1303 364 r c44;
#X obj 1345 364 r a44;
#X obj 1303 404 s a44;
#X obj 1390 404 s a45;
#X obj 1390 364 r c45;
#X obj 1432 364 r a45;
#X obj 1518 364 r a46;
#X obj 1476 404 s a46;
#X obj 1476 364 r c46;
#X obj 1562 364 r c47;
#X obj 1604 364 r a47;
#X obj 1562 404 s a47;
#X obj 1648 364 r c48;
#X obj 1690 364 r a48;
#X obj 1648 404 s a48;
#X obj 1735 364 r c49;
#X obj 1777 364 r a49;
#X obj 1735 404 s a49;
#X obj 1821 364 r c50;
#X obj 1863 364 r a50;
#X obj 1821 244 r c30;
#X obj 1821 284 s a30;
#X obj 1821 344 s a40;
#X obj 1821 404 s a50;
#X obj 1045 443 dead_alive;
#X obj 1045 423 r c51;
#X obj 1087 423 r a51;
#X obj 1045 463 s a51;
#X obj 1131 444 dead_alive;
#X obj 1217 444 dead_alive;
#X obj 1303 444 dead_alive;
#X obj 1390 444 dead_alive;
#X obj 1476 444 dead_alive;
#X obj 1562 444 dead_alive;
#X obj 1648 444 dead_alive;
#X obj 1735 444 dead_alive;
#X obj 1821 444 dead_alive;
#X obj 1131 424 r c52;
#X obj 1173 424 r a52;
#X obj 1131 464 s a52;
#X obj 1217 424 r c53;
#X obj 1259 424 r a53;
#X obj 1217 464 s a53;
#X obj 1303 424 r c54;
#X obj 1345 424 r a54;
#X obj 1303 464 s a54;
#X obj 1390 464 s a55;
#X obj 1390 424 r c55;
#X obj 1432 424 r a55;
#X obj 1518 424 r a56;
#X obj 1476 464 s a56;
#X obj 1476 424 r c56;
#X obj 1562 424 r c57;
#X obj 1604 424 r a57;
#X obj 1562 464 s a57;
#X obj 1648 424 r c58;
#X obj 1690 424 r a58;
#X obj 1648 464 s a58;
#X obj 1735 424 r c59;
#X obj 1777 424 r a59;
#X obj 1735 464 s a59;
#X obj 1821 424 r c60;
#X obj 1863 424 r a60;
#X obj 1821 464 s a60;
#X obj 1045 504 dead_alive;
#X obj 1131 504 dead_alive;
#X obj 1217 504 dead_alive;
#X obj 1303 504 dead_alive;
#X obj 1390 504 dead_alive;
#X obj 1476 504 dead_alive;
#X obj 1562 504 dead_alive;
#X obj 1648 504 dead_alive;
#X obj 1735 504 dead_alive;
#X obj 1821 504 dead_alive;
#X obj 1087 484 r a61;
#X obj 1046 524 s a61;
#X obj 1173 484 r a62;
#X obj 1131 524 s a62;
#X obj 1131 484 r c62;
#X obj 1217 484 r c63;
#X obj 1259 484 r a63;
#X obj 1217 524 s a63;
#X obj 1303 484 r c64;
#X obj 1345 484 r a64;
#X obj 1303 524 s a64;
#X obj 1390 484 r c65;
#X obj 1432 484 r a65;
#X obj 1390 524 s a65;
#X obj 1476 484 r c66;
#X obj 1518 484 r a66;
#X obj 1476 524 s a66;
#X obj 1562 484 r c67;
#X obj 1604 484 r a67;
#X obj 1562 524 s a67;
#X obj 1648 484 r c68;
#X obj 1690 484 r a68;
#X obj 1648 524 s a68;
#X obj 1735 484 r c69;
#X obj 1777 484 r a69;
#X obj 1735 524 s a69;
#X obj 1821 484 r c70;
#X obj 1863 484 r a70;
#X obj 1821 524 s a70;
#X obj 1045 484 r c61;
#X obj 1045 564 dead_alive;
#X obj 1045 544 r c71;
#X obj 1087 544 r a71;
#X obj 1045 584 s a71;
#X obj 1131 564 dead_alive;
#X obj 1217 564 dead_alive;
#X obj 1303 564 dead_alive;
#X obj 1390 564 dead_alive;
#X obj 1476 564 dead_alive;
#X obj 1562 564 dead_alive;
#X obj 1648 564 dead_alive;
#X obj 1735 564 dead_alive;
#X obj 1821 564 dead_alive;
#X obj 1131 544 r c72;
#X obj 1173 544 r a72;
#X obj 1131 584 s a72;
#X obj 1217 544 r c73;
#X obj 1259 544 r a73;
#X obj 1217 584 s a73;
#X obj 1303 544 r c74;
#X obj 1345 544 r a74;
#X obj 1303 584 s a74;
#X obj 1390 584 s a75;
#X obj 1390 544 r c75;
#X obj 1432 544 r a75;
#X obj 1518 544 r a76;
#X obj 1476 584 s a76;
#X obj 1476 544 r c76;
#X obj 1562 544 r c77;
#X obj 1604 544 r a77;
#X obj 1562 584 s a77;
#X obj 1648 544 r c78;
#X obj 1690 544 r a78;
#X obj 1648 584 s a78;
#X obj 1735 544 r c79;
#X obj 1777 544 r a79;
#X obj 1735 584 s a79;
#X obj 1045 624 dead_alive;
#X obj 1131 624 dead_alive;
#X obj 1217 624 dead_alive;
#X obj 1303 624 dead_alive;
#X obj 1390 624 dead_alive;
#X obj 1476 624 dead_alive;
#X obj 1562 624 dead_alive;
#X obj 1648 624 dead_alive;
#X obj 1735 624 dead_alive;
#X obj 1821 624 dead_alive;
#X obj 1087 604 r a81;
#X obj 1046 644 s a81;
#X obj 1173 604 r a82;
#X obj 1131 644 s a82;
#X obj 1131 604 r c82;
#X obj 1217 604 r c83;
#X obj 1259 604 r a83;
#X obj 1217 644 s a83;
#X obj 1303 604 r c84;
#X obj 1345 604 r a84;
#X obj 1303 644 s a84;
#X obj 1390 604 r c85;
#X obj 1432 604 r a85;
#X obj 1390 644 s a85;
#X obj 1476 604 r c86;
#X obj 1518 604 r a86;
#X obj 1476 644 s a86;
#X obj 1562 604 r c87;
#X obj 1604 604 r a87;
#X obj 1562 644 s a87;
#X obj 1648 604 r c88;
#X obj 1690 604 r a88;
#X obj 1648 644 s a88;
#X obj 1735 604 r c89;
#X obj 1777 604 r a89;
#X obj 1735 644 s a89;
#X obj 1045 604 r c81;
#X obj 1863 544 r a80;
#X obj 1045 684 dead_alive;
#X obj 1045 664 r c91;
#X obj 1087 664 r a91;
#X obj 1045 704 s a91;
#X obj 1131 684 dead_alive;
#X obj 1217 684 dead_alive;
#X obj 1303 684 dead_alive;
#X obj 1390 684 dead_alive;
#X obj 1476 684 dead_alive;
#X obj 1562 684 dead_alive;
#X obj 1648 684 dead_alive;
#X obj 1735 684 dead_alive;
#X obj 1821 684 dead_alive;
#X obj 1131 664 r c92;
#X obj 1173 664 r a92;
#X obj 1131 704 s a92;
#X obj 1217 664 r c93;
#X obj 1259 664 r a93;
#X obj 1217 704 s a93;
#X obj 1303 664 r c94;
#X obj 1345 664 r a94;
#X obj 1303 704 s a94;
#X obj 1390 704 s a95;
#X obj 1390 664 r c95;
#X obj 1432 664 r a95;
#X obj 1518 664 r a96;
#X obj 1476 704 s a96;
#X obj 1476 664 r c96;
#X obj 1562 664 r c97;
#X obj 1604 664 r a97;
#X obj 1562 704 s a97;
#X obj 1648 664 r c98;
#X obj 1690 664 r a98;
#X obj 1648 704 s a98;
#X obj 1735 664 r c99;
#X obj 1777 664 r a99;
#X obj 1735 704 s a99;
#X obj 1821 544 r c80;
#X obj 1821 584 s a80;
#X obj 1821 604 r c90;
#X obj 1863 604 r a90;
#X obj 1821 644 s a90;
#X obj 1821 664 r c100;
#X obj 1863 664 r a100;
#X obj 1821 704 s a100;
#X obj 36 18 table gol;
#X obj 36 41 loadbang;
#X msg 36 64;
#X connect 0 0 600 0;
#X connect 1 0 601 0;
#X connect 2 0 602 0;
#X connect 3 0 603 0;
#X connect 4 0 604 0;
#X connect 5 0 605 0;
#X connect 6 0 606 0;
#X connect 7 0 607 0;
#X connect 8 0 608 0;
#X connect 9 0 12 0;
#X connect 10 0 9 0;
#X connect 11 0 9 1;
#X connect 13 0 24 0;
#X connect 14 0 26 0;
#X connect 15 0 30 0;
#X connect 16 0 33 0;
#X connect 17 0 36 0;
#X connect 18 0 39 0;
#X connect 19 0 42 0;
#X connect 20 0 45 0;
#X connect 21 0 48 0;
#X connect 22 0 51 0;
#X connect 23 0 13 1;
#X connect 25 0 14 1;
#X connect 27 0 14 0;
#X connect 28 0 15 0;
#X connect 29 0 15 1;
#X connect 31 0 16 0;
#X connect 32 0 16 1;
#X connect 34 0 17 0;
#X connect 35 0 17 1;
#X connect 37 0 18 0;
#X connect 38 0 18 1;
#X connect 40 0 19 0;
#X connect 41 0 19 1;
#X connect 43 0 20 0;
#X connect 44 0 20 1;
#X connect 46 0 21 0;
#X connect 47 0 21 1;
#X connect 49 0 22 0;
#X connect 50 0 22 1;
#X connect 52 0 13 0;
#X connect 53 0 56 0;
#X connect 54 0 53 0;
#X connect 55 0 53 1;
#X connect 57 0 68 0;
#X connect 58 0 71 0;
#X connect 59 0 74 0;
#X connect 60 0 75 0;
#X connect 61 0 79 0;
#X connect 62 0 83 0;
#X connect 63 0 86 0;
#X connect 64 0 89 0;
#X connect 65 0 170 0;
#X connect 66 0 57 0;
#X connect 67 0 57 1;
#X connect 69 0 58 0;
#X connect 70 0 58 1;
#X connect 72 0 59 0;
#X connect 73 0 59 1;
#X connect 76 0 60 0;
#X connect 77 0 60 1;
#X connect 78 0 61 1;
#X connect 80 0 61 0;
#X connect 81 0 62 0;
#X connect 82 0 62 1;
#X connect 84 0 63 0;
#X connect 85 0 63 1;
#X connect 87 0 64 0;
#X connect 88 0 64 1;
#X connect 90 0 101 0;
#X connect 91 0 103 0;
#X connect 92 0 107 0;
#X connect 93 0 110 0;
#X connect 94 0 113 0;
#X connect 95 0 116 0;
#X connect 96 0 119 0;
#X connect 97 0 122 0;
#X connect 98 0 125 0;
#X connect 99 0 171 0;
#X connect 100 0 90 1;
#X connect 102 0 91 1;
#X connect 104 0 91 0;
#X connect 105 0 92 0;
#X connect 106 0 92 1;
#X connect 108 0 93 0;
#X connect 109 0 93 1;
#X connect 111 0 94 0;
#X connect 112 0 94 1;
#X connect 114 0 95 0;
#X connect 115 0 95 1;
#X connect 117 0 96 0;
#X connect 118 0 96 1;
#X connect 120 0 97 0;
#X connect 121 0 97 1;
#X connect 123 0 98 0;
#X connect 124 0 98 1;
#X connect 126 0 99 0;
#X connect 127 0 99 1;
#X connect 128 0 90 0;
#X connect 129 0 65 1;
#X connect 130 0 133 0;
#X connect 131 0 130 0;
#X connect 132 0 130 1;
#X connect 134 0 145 0;
#X connect 135 0 148 0;
#X connect 136 0 151 0;
#X connect 137 0 152 0;
#X connect 138 0 156 0;
#X connect 139 0 160 0;
#X connect 140 0 163 0;
#X connect 141 0 166 0;
#X connect 142 0 172 0;
#X connect 143 0 134 0;
#X connect 144 0 134 1;
#X connect 146 0 135 0;
#X connect 147 0 135 1;
#X connect 149 0 136 0;
#X connect 150 0 136 1;
#X connect 153 0 137 0;
#X connect 154 0 137 1;
#X connect 155 0 138 1;
#X connect 157 0 138 0;
#X connect 158 0 139 0;
#X connect 159 0 139 1;
#X connect 161 0 140 0;
#X connect 162 0 140 1;
#X connect 164 0 141 0;
#X connect 165 0 141 1;
#X connect 167 0 142 0;
#X connect 168 0 142 1;
#X connect 169 0 65 0;
#X connect 173 0 176 0;
#X connect 174 0 173 0;
#X connect 175 0 173 1;
#X connect 177 0 188 0;
#X connect 178 0 191 0;
#X connect 179 0 194 0;
#X connect 180 0 195 0;
#X connect 181 0 199 0;
#X connect 182 0 203 0;
#X connect 183 0 206 0;
#X connect 184 0 209 0;
#X connect 185 0 212 0;
#X connect 186 0 177 0;
#X connect 187 0 177 1;
#X connect 189 0 178 0;
#X connect 190 0 178 1;
#X connect 192 0 179 0;
#X connect 193 0 179 1;
#X connect 196 0 180 0;
#X connect 197 0 180 1;
#X connect 198 0 181 1;
#X connect 200 0 181 0;
#X connect 201 0 182 0;
#X connect 202 0 182 1;
#X connect 204 0 183 0;
#X connect 205 0 183 1;
#X connect 207 0 184 0;
#X connect 208 0 184 1;
#X connect 210 0 185 0;
#X connect 211 0 185 1;
#X connect 213 0 224 0;
#X connect 214 0 226 0;
#X connect 215 0 230 0;
#X connect 216 0 233 0;
#X connect 217 0 236 0;
#X connect 218 0 239 0;
#X connect 219 0 242 0;
#X connect 220 0 245 0;
#X connect 221 0 248 0;
#X connect 222 0 251 0;
#X connect 223 0 213 1;
#X connect 225 0 214 1;
#X connect 227 0 214 0;
#X connect 228 0 215 0;
#X connect 229 0 215 1;
#X connect 231 0 216 0;
#X connect 232 0 216 1;
#X connect 234 0 217 0;
#X connect 235 0 217 1;
#X connect 237 0 218 0;
#X connect 238 0 218 1;
#X connect 240 0 219 0;
#X connect 241 0 219 1;
#X connect 243 0 220 0;
#X connect 244 0 220 1;
#X connect 246 0 221 0;
#X connect 247 0 221 1;
#X connect 249 0 222 0;
#X connect 250 0 222 1;
#X connect 252 0 213 0;
#X connect 253 0 256 0;
#X connect 254 0 253 0;
#X connect 255 0 253 1;
#X connect 257 0 268 0;
#X connect 258 0 271 0;
#X connect 259 0 274 0;
#X connect 260 0 275 0;
#X connect 261 0 279 0;
#X connect 262 0 283 0;
#X connect 263 0 286 0;
#X connect 264 0 289 0;
#X connect 265 0 366 0;
#X connect 266 0 257 0;
#X connect 267 0 257 1;
#X connect 269 0 258 0;
#X connect 270 0 258 1;
#X connect 272 0 259 0;
#X connect 273 0 259 1;
#X connect 276 0 260 0;
#X connect 277 0 260 1;
#X connect 278 0 261 1;
#X connect 280 0 261 0;
#X connect 281 0 262 0;
#X connect 282 0 262 1;
#X connect 284 0 263 0;
#X connect 285 0 263 1;
#X connect 287 0 264 0;
#X connect 288 0 264 1;
#X connect 290 0 301 0;
#X connect 291 0 303 0;
#X connect 292 0 307 0;
#X connect 293 0 310 0;
#X connect 294 0 313 0;
#X connect 295 0 316 0;
#X connect 296 0 319 0;
#X connect 297 0 322 0;
#X connect 298 0 325 0;
#X connect 299 0 369 0;
#X connect 300 0 290 1;
#X connect 302 0 291 1;
#X connect 304 0 291 0;
#X connect 305 0 292 0;
#X connect 306 0 292 1;
#X connect 308 0 293 0;
#X connect 309 0 293 1;
#X connect 311 0 294 0;
#X connect 312 0 294 1;
#X connect 314 0 295 0;
#X connect 315 0 295 1;
#X connect 317 0 296 0;
#X connect 318 0 296 1;
#X connect 320 0 297 0;
#X connect 321 0 297 1;
#X connect 323 0 298 0;
#X connect 324 0 298 1;
#X connect 326 0 290 0;
#X connect 327 0 265 1;
#X connect 328 0 331 0;
#X connect 329 0 328 0;
#X connect 330 0 328 1;
#X connect 332 0 343 0;
#X connect 333 0 346 0;
#X connect 334 0 349 0;
#X connect 335 0 350 0;
#X connect 336 0 354 0;
#X connect 337 0 358 0;
#X connect 338 0 361 0;
#X connect 339 0 364 0;
#X connect 340 0 372 0;
#X connect 341 0 332 0;
#X connect 342 0 332 1;
#X connect 344 0 333 0;
#X connect 345 0 333 1;
#X connect 347 0 334 0;
#X connect 348 0 334 1;
#X connect 351 0 335 0;
#X connect 352 0 335 1;
#X connect 353 0 336 1;
#X connect 355 0 336 0;
#X connect 356 0 337 0;
#X connect 357 0 337 1;
#X connect 359 0 338 0;
#X connect 360 0 338 1;
#X connect 362 0 339 0;
#X connect 363 0 339 1;
#X connect 365 0 265 0;
#X connect 367 0 299 0;
#X connect 368 0 299 1;
#X connect 370 0 340 0;
#X connect 371 0 340 1;
#X connect 373 0 572 0;
#X connect 374 0 574 0;
#X connect 375 0 575 0;
#X connect 376 0 576 0;
#X connect 377 0 577 0;
#X connect 378 0 578 0;
#X connect 379 0 579 0;
#X connect 380 0 580 0;
#X connect 381 0 581 0;
#X connect 382 0 385 0;
#X connect 383 0 382 0;
#X connect 384 0 382 1;
#X connect 386 0 397 0;
#X connect 387 0 399 0;
#X connect 388 0 403 0;
#X connect 389 0 406 0;
#X connect 390 0 409 0;
#X connect 391 0 412 0;
#X connect 392 0 415 0;
#X connect 393 0 418 0;
#X connect 394 0 421 0;
#X connect 395 0 424 0;
#X connect 396 0 386 1;
#X connect 398 0 387 1;
#X connect 400 0 387 0;
#X connect 401 0 388 0;
#X connect 402 0 388 1;
#X connect 404 0 389 0;
#X connect 405 0 389 1;
#X connect 407 0 390 0;
#X connect 408 0 390 1;
#X connect 410 0 391 0;
#X connect 411 0 391 1;
#X connect 413 0 392 0;
#X connect 414 0 392 1;
#X connect 416 0 393 0;
#X connect 417 0 393 1;
#X connect 419 0 394 0;
#X connect 420 0 394 1;
#X connect 422 0 395 0;
#X connect 423 0 395 1;
#X connect 425 0 386 0;
#X connect 426 0 429 0;
#X connect 427 0 426 0;
#X connect 428 0 426 1;
#X connect 430 0 441 0;
#X connect 431 0 444 0;
#X connect 432 0 447 0;
#X connect 433 0 448 0;
#X connect 434 0 452 0;
#X connect 435 0 456 0;
#X connect 436 0 459 0;
#X connect 437 0 462 0;
#X connect 438 0 543 0;
#X connect 439 0 430 0;
#X connect 440 0 430 1;
#X connect 442 0 431 0;
#X connect 443 0 431 1;
#X connect 445 0 432 0;
#X connect 446 0 432 1;
#X connect 449 0 433 0;
#X connect 450 0 433 1;
#X connect 451 0 434 1;
#X connect 453 0 434 0;
#X connect 454 0 435 0;
#X connect 455 0 435 1;
#X connect 457 0 436 0;
#X connect 458 0 436 1;
#X connect 460 0 437 0;
#X connect 461 0 437 1;
#X connect 463 0 474 0;
#X connect 464 0 476 0;
#X connect 465 0 480 0;
#X connect 466 0 483 0;
#X connect 467 0 486 0;
#X connect 468 0 489 0;
#X connect 469 0 492 0;
#X connect 470 0 495 0;
#X connect 471 0 498 0;
#X connect 472 0 544 0;
#X connect 473 0 463 1;
#X connect 475 0 464 1;
#X connect 477 0 464 0;
#X connect 478 0 465 0;
#X connect 479 0 465 1;
#X connect 481 0 466 0;
#X connect 482 0 466 1;
#X connect 484 0 467 0;
#X connect 485 0 467 1;
#X connect 487 0 468 0;
#X connect 488 0 468 1;
#X connect 490 0 469 0;
#X connect 491 0 469 1;
#X connect 493 0 470 0;
#X connect 494 0 470 1;
#X connect 496 0 471 0;
#X connect 497 0 471 1;
#X connect 499 0 472 0;
#X connect 500 0 472 1;
#X connect 501 0 463 0;
#X connect 502 0 438 1;
#X connect 503 0 506 0;
#X connect 504 0 503 0;
#X connect 505 0 503 1;
#X connect 507 0 518 0;
#X connect 508 0 521 0;
#X connect 509 0 524 0;
#X connect 510 0 525 0;
#X connect 511 0 529 0;
#X connect 512 0 533 0;
#X connect 513 0 536 0;
#X connect 514 0 539 0;
#X connect 515 0 545 0;
#X connect 516 0 507 0;
#X connect 517 0 507 1;
#X connect 519 0 508 0;
#X connect 520 0 508 1;
#X connect 522 0 509 0;
#X connect 523 0 509 1;
#X connect 526 0 510 0;
#X connect 527 0 510 1;
#X connect 528 0 511 1;
#X connect 530 0 511 0;
#X connect 531 0 512 0;
#X connect 532 0 512 1;
#X connect 534 0 513 0;
#X connect 535 0 513 1;
#X connect 537 0 514 0;
#X connect 538 0 514 1;
#X connect 540 0 515 0;
#X connect 541 0 515 1;
#X connect 542 0 438 0;
#X connect 546 0 549 0;
#X connect 547 0 546 0;
#X connect 548 0 546 1;
#X connect 550 0 557 0;
#X connect 551 0 560 0;
#X connect 552 0 563 0;
#X connect 553 0 564 0;
#X connect 554 0 568 0;
#X connect 555 0 550 0;
#X connect 556 0 550 1;
#X connect 558 0 551 0;
#X connect 559 0 551 1;
#X connect 561 0 552 0;
#X connect 562 0 552 1;
#X connect 565 0 553 0;
#X connect 566 0 553 1;
#X connect 567 0 554 1;
#X connect 569 0 554 0;
#X connect 570 0 373 1;
#X connect 571 0 373 0;
#X connect 573 0 374 0;
#X connect 582 0 381 1;
#X connect 583 0 381 0;
#X connect 584 0 380 1;
#X connect 585 0 380 0;
#X connect 586 0 379 1;
#X connect 587 0 379 0;
#X connect 588 0 378 1;
#X connect 589 0 378 0;
#X connect 590 0 377 1;
#X connect 591 0 377 0;
#X connect 592 0 376 1;
#X connect 593 0 376 0;
#X connect 594 0 375 1;
#X connect 595 0 375 0;
#X connect 596 0 374 1;
#X connect 597 0 0 0;
#X connect 598 0 0 1;
#X connect 599 0 1 0;
#X connect 609 0 8 1;
#X connect 610 0 8 0;
#X connect 611 0 7 1;
#X connect 612 0 7 0;
#X connect 613 0 6 1;
#X connect 614 0 6 0;
#X connect 615 0 5 1;
#X connect 616 0 5 0;
#X connect 617 0 4 1;
#X connect 618 0 4 0;
#X connect 619 0 3 1;
#X connect 620 0 3 0;
#X connect 621 0 2 1;
#X connect 622 0 2 0;
#X connect 623 0 1 1;
#X connect 624 0 627 0;
#X connect 625 0 624 0;
#X connect 626 0 624 1;
#X connect 628 0 639 0;
#X connect 629 0 642 0;
#X connect 630 0 645 0;
#X connect 631 0 646 0;
#X connect 632 0 650 0;
#X connect 633 0 654 0;
#X connect 634 0 657 0;
#X connect 635 0 660 0;
#X connect 636 0 663 0;
#X connect 637 0 628 0;
#X connect 638 0 628 1;
#X connect 640 0 629 0;
#X connect 641 0 629 1;
#X connect 643 0 630 0;
#X connect 644 0 630 1;
#X connect 647 0 631 0;
#X connect 648 0 631 1;
#X connect 649 0 632 1;
#X connect 651 0 632 0;
#X connect 652 0 633 0;
#X connect 653 0 633 1;
#X connect 655 0 634 0;
#X connect 656 0 634 1;
#X connect 658 0 635 0;
#X connect 659 0 635 1;
#X connect 661 0 636 0;
#X connect 662 0 636 1;
#X connect 664 0 675 0;
#X connect 665 0 677 0;
#X connect 666 0 681 0;
#X connect 667 0 684 0;
#X connect 668 0 687 0;
#X connect 669 0 690 0;
#X connect 670 0 693 0;
#X connect 671 0 696 0;
#X connect 672 0 699 0;
#X connect 673 0 702 0;
#X connect 674 0 664 1;
#X connect 676 0 665 1;
#X connect 678 0 665 0;
#X connect 679 0 666 0;
#X connect 680 0 666 1;
#X connect 682 0 667 0;
#X connect 683 0 667 1;
#X connect 685 0 668 0;
#X connect 686 0 668 1;
#X connect 688 0 669 0;
#X connect 689 0 669 1;
#X connect 691 0 670 0;
#X connect 692 0 670 1;
#X connect 694 0 671 0;
#X connect 695 0 671 1;
#X connect 697 0 672 0;
#X connect 698 0 672 1;
#X connect 700 0 673 0;
#X connect 701 0 673 1;
#X connect 703 0 664 0;
#X connect 704 0 707 0;
#X connect 705 0 704 0;
#X connect 706 0 704 1;
#X connect 708 0 719 0;
#X connect 709 0 722 0;
#X connect 710 0 725 0;
#X connect 711 0 726 0;
#X connect 712 0 730 0;
#X connect 713 0 734 0;
#X connect 714 0 737 0;
#X connect 715 0 740 0;
#X connect 716 0 821 0;
#X connect 717 0 708 0;
#X connect 718 0 708 1;
#X connect 720 0 709 0;
#X connect 721 0 709 1;
#X connect 723 0 710 0;
#X connect 724 0 710 1;
#X connect 727 0 711 0;
#X connect 728 0 711 1;
#X connect 729 0 712 1;
#X connect 731 0 712 0;
#X connect 732 0 713 0;
#X connect 733 0 713 1;
#X connect 735 0 714 0;
#X connect 736 0 714 1;
#X connect 738 0 715 0;
#X connect 739 0 715 1;
#X connect 741 0 752 0;
#X connect 742 0 754 0;
#X connect 743 0 758 0;
#X connect 744 0 761 0;
#X connect 745 0 764 0;
#X connect 746 0 767 0;
#X connect 747 0 770 0;
#X connect 748 0 773 0;
#X connect 749 0 776 0;
#X connect 750 0 822 0;
#X connect 751 0 741 1;
#X connect 753 0 742 1;
#X connect 755 0 742 0;
#X connect 756 0 743 0;
#X connect 757 0 743 1;
#X connect 759 0 744 0;
#X connect 760 0 744 1;
#X connect 762 0 745 0;
#X connect 763 0 745 1;
#X connect 765 0 746 0;
#X connect 766 0 746 1;
#X connect 768 0 747 0;
#X connect 769 0 747 1;
#X connect 771 0 748 0;
#X connect 772 0 748 1;
#X connect 774 0 749 0;
#X connect 775 0 749 1;
#X connect 777 0 750 0;
#X connect 778 0 750 1;
#X connect 779 0 741 0;
#X connect 780 0 716 1;
#X connect 781 0 784 0;
#X connect 782 0 781 0;
#X connect 783 0 781 1;
#X connect 785 0 796 0;
#X connect 786 0 799 0;
#X connect 787 0 802 0;
#X connect 788 0 803 0;
#X connect 789 0 807 0;
#X connect 790 0 811 0;
#X connect 791 0 814 0;
#X connect 792 0 817 0;
#X connect 793 0 823 0;
#X connect 794 0 785 0;
#X connect 795 0 785 1;
#X connect 797 0 786 0;
#X connect 798 0 786 1;
#X connect 800 0 787 0;
#X connect 801 0 787 1;
#X connect 804 0 788 0;
#X connect 805 0 788 1;
#X connect 806 0 789 1;
#X connect 808 0 789 0;
#X connect 809 0 790 0;
#X connect 810 0 790 1;
#X connect 812 0 791 0;
#X connect 813 0 791 1;
#X connect 815 0 792 0;
#X connect 816 0 792 1;
#X connect 818 0 793 0;
#X connect 819 0 793 1;
#X connect 820 0 716 0;
#X connect 824 0 827 0;
#X connect 825 0 824 0;
#X connect 826 0 824 1;
#X connect 828 0 839 0;
#X connect 829 0 842 0;
#X connect 830 0 845 0;
#X connect 831 0 846 0;
#X connect 832 0 850 0;
#X connect 833 0 854 0;
#X connect 834 0 857 0;
#X connect 835 0 860 0;
#X connect 836 0 863 0;
#X connect 837 0 828 0;
#X connect 838 0 828 1;
#X connect 840 0 829 0;
#X connect 841 0 829 1;
#X connect 843 0 830 0;
#X connect 844 0 830 1;
#X connect 847 0 831 0;
#X connect 848 0 831 1;
#X connect 849 0 832 1;
#X connect 851 0 832 0;
#X connect 852 0 833 0;
#X connect 853 0 833 1;
#X connect 855 0 834 0;
#X connect 856 0 834 1;
#X connect 858 0 835 0;
#X connect 859 0 835 1;
#X connect 861 0 836 0;
#X connect 862 0 836 1;
#X connect 864 0 875 0;
#X connect 865 0 877 0;
#X connect 866 0 881 0;
#X connect 867 0 884 0;
#X connect 868 0 887 0;
#X connect 869 0 890 0;
#X connect 870 0 893 0;
#X connect 871 0 896 0;
#X connect 872 0 899 0;
#X connect 873 0 902 0;
#X connect 874 0 864 1;
#X connect 876 0 865 1;
#X connect 878 0 865 0;
#X connect 879 0 866 0;
#X connect 880 0 866 1;
#X connect 882 0 867 0;
#X connect 883 0 867 1;
#X connect 885 0 868 0;
#X connect 886 0 868 1;
#X connect 888 0 869 0;
#X connect 889 0 869 1;
#X connect 891 0 870 0;
#X connect 892 0 870 1;
#X connect 894 0 871 0;
#X connect 895 0 871 1;
#X connect 897 0 872 0;
#X connect 898 0 872 1;
#X connect 900 0 873 0;
#X connect 901 0 873 1;
#X connect 903 0 864 0;
#X connect 904 0 907 0;
#X connect 905 0 904 0;
#X connect 906 0 904 1;
#X connect 908 0 919 0;
#X connect 909 0 922 0;
#X connect 910 0 925 0;
#X connect 911 0 926 0;
#X connect 912 0 930 0;
#X connect 913 0 934 0;
#X connect 914 0 937 0;
#X connect 915 0 940 0;
#X connect 916 0 1017 0;
#X connect 917 0 908 0;
#X connect 918 0 908 1;
#X connect 920 0 909 0;
#X connect 921 0 909 1;
#X connect 923 0 910 0;
#X connect 924 0 910 1;
#X connect 927 0 911 0;
#X connect 928 0 911 1;
#X connect 929 0 912 1;
#X connect 931 0 912 0;
#X connect 932 0 913 0;
#X connect 933 0 913 1;
#X connect 935 0 914 0;
#X connect 936 0 914 1;
#X connect 938 0 915 0;
#X connect 939 0 915 1;
#X connect 941 0 952 0;
#X connect 942 0 954 0;
#X connect 943 0 958 0;
#X connect 944 0 961 0;
#X connect 945 0 964 0;
#X connect 946 0 967 0;
#X connect 947 0 970 0;
#X connect 948 0 973 0;
#X connect 949 0 976 0;
#X connect 950 0 1020 0;
#X connect 951 0 941 1;
#X connect 953 0 942 1;
#X connect 955 0 942 0;
#X connect 956 0 943 0;
#X connect 957 0 943 1;
#X connect 959 0 944 0;
#X connect 960 0 944 1;
#X connect 962 0 945 0;
#X connect 963 0 945 1;
#X connect 965 0 946 0;
#X connect 966 0 946 1;
#X connect 968 0 947 0;
#X connect 969 0 947 1;
#X connect 971 0 948 0;
#X connect 972 0 948 1;
#X connect 974 0 949 0;
#X connect 975 0 949 1;
#X connect 977 0 941 0;
#X connect 978 0 916 1;
#X connect 979 0 982 0;
#X connect 980 0 979 0;
#X connect 981 0 979 1;
#X connect 983 0 994 0;
#X connect 984 0 997 0;
#X connect 985 0 1000 0;
#X connect 986 0 1001 0;
#X connect 987 0 1005 0;
#X connect 988 0 1009 0;
#X connect 989 0 1012 0;
#X connect 990 0 1015 0;
#X connect 991 0 1023 0;
#X connect 992 0 983 0;
#X connect 993 0 983 1;
#X connect 995 0 984 0;
#X connect 996 0 984 1;
#X connect 998 0 985 0;
#X connect 999 0 985 1;
#X connect 1002 0 986 0;
#X connect 1003 0 986 1;
#X connect 1004 0 987 1;
#X connect 1006 0 987 0;
#X connect 1007 0 988 0;
#X connect 1008 0 988 1;
#X connect 1010 0 989 0;
#X connect 1011 0 989 1;
#X connect 1013 0 990 0;
#X connect 1014 0 990 1;
#X connect 1016 0 916 0;
#X connect 1018 0 950 0;
#X connect 1019 0 950 1;
#X connect 1021 0 991 0;
#X connect 1022 0 991 1;
#X connect 1025 0 1026 0;
