#N canvas 0 23 1280 755 12;
#X obj 273 170 bng 15 250 50 0 empty empty empty 17 7 0 10 -262144
-1 -1;
#X obj 262 191 s on;
#X obj 332 50 tgl 15 0 a1 a1 empty 17 7 0 10 -1 -262144 -1 0 1;
#X obj 348 50 tgl 15 0 a2 a2 empty 17 7 0 10 -1 -262144 -1 0 1;
#X obj 364 50 tgl 15 0 a3 a3 empty 17 7 0 10 -1 -262144 -1 0 1;
#X obj 380 50 tgl 15 0 a4 a4 empty 17 7 0 10 -1 -262144 -1 0 1;
#X obj 396 50 tgl 15 0 a5 a5 empty 17 7 0 10 -1 -262144 -1 0 1;
#X obj 412 50 tgl 15 0 a6 a6 empty 17 7 0 10 -1 -262144 -1 0 1;
#X obj 428 50 tgl 15 0 a7 a7 empty 17 7 0 10 -1 -262144 -1 0 1;
#X obj 444 50 tgl 15 0 a8 a8 empty 17 7 0 10 -1 -262144 -1 0 1;
#X obj 460 50 tgl 15 0 a9 a9 empty 17 7 0 10 -1 -262144 -1 0 1;
#X obj 476 50 tgl 15 0 a10 a10 empty 17 7 0 10 -1 -262144 -1 0 1;
#X obj 492 50 tgl 15 0 a11 a11 empty 17 7 0 10 -1 -262144 -1 0 1;
#X obj 508 50 tgl 15 0 a12 a12 empty 17 7 0 10 -1 -262144 -1 0 1;
#X obj 524 50 tgl 15 0 a13 a13 empty 17 7 0 10 -1 -262144 -1 0 1;
#X obj 540 50 tgl 15 0 a14 a14 empty 17 7 0 10 -1 -262144 -1 0 1;
#X obj 556 50 tgl 15 0 a15 a15 empty 17 7 0 10 -1 -262144 -1 0 1;
#X obj 572 50 tgl 15 0 a16 a16 empty 17 7 0 10 -1 -262144 -1 0 1;
#X obj 332 66 tgl 15 0 a17 a17 empty 17 7 0 10 -1 -262144 -1 0 1;
#X obj 348 66 tgl 15 0 a18 a18 empty 17 7 0 10 -1 -262144 -1 0 1;
#X obj 364 66 tgl 15 0 a19 a19 empty 17 7 0 10 -1 -262144 -1 0 1;
#X obj 380 66 tgl 15 0 a20 a20 empty 17 7 0 10 -1 -262144 -1 0 1;
#X obj 396 66 tgl 15 0 a21 a21 empty 17 7 0 10 -1 -262144 -1 0 1;
#X obj 412 66 tgl 15 0 a22 a22 empty 17 7 0 10 -1 -262144 -1 0 1;
#X obj 428 66 tgl 15 0 a23 a23 empty 17 7 0 10 -1 -262144 -1 0 1;
#X obj 444 66 tgl 15 0 a24 a24 empty 17 7 0 10 -1 -262144 -1 0 1;
#X obj 460 66 tgl 15 0 a25 a25 empty 17 7 0 10 -1 -262144 -1 0 1;
#X obj 476 66 tgl 15 0 a26 a26 empty 17 7 0 10 -1 -262144 -1 0 1;
#X obj 492 66 tgl 15 0 a27 a27 empty 17 7 0 10 -1 -262144 -1 0 1;
#X obj 508 66 tgl 15 0 a28 a28 empty 17 7 0 10 -1 -262144 -1 0 1;
#X obj 524 66 tgl 15 0 a29 a29 empty 17 7 0 10 -1 -262144 -1 0 1;
#X obj 540 66 tgl 15 0 a30 a30 empty 17 7 0 10 -1 -262144 -1 0 1;
#X obj 556 66 tgl 15 0 a31 a31 empty 17 7 0 10 -1 -262144 -1 0 1;
#X obj 572 66 tgl 15 0 a32 a32 empty 17 7 0 10 -1 -262144 -1 0 1;
#X obj 332 82 tgl 15 0 a33 a33 empty 17 7 0 10 -1 -262144 -1 0 1;
#X obj 348 82 tgl 15 0 a34 a34 empty 17 7 0 10 -1 -262144 -1 0 1;
#X obj 364 82 tgl 15 0 a35 a35 empty 17 7 0 10 -1 -262144 -1 0 1;
#X obj 380 82 tgl 15 0 a36 a36 empty 17 7 0 10 -1 -262144 -1 0 1;
#X obj 396 82 tgl 15 0 a37 a37 empty 17 7 0 10 -1 -262144 -1 0 1;
#X obj 412 82 tgl 15 0 a38 a38 empty 17 7 0 10 -1 -262144 -1 0 1;
#X obj 428 82 tgl 15 0 a39 a39 empty 17 7 0 10 -1 -262144 -1 0 1;
#X obj 444 82 tgl 15 0 a40 a40 empty 17 7 0 10 -1 -262144 -1 0 1;
#X obj 460 82 tgl 15 0 a41 a41 empty 17 7 0 10 -1 -262144 -1 0 1;
#X obj 476 82 tgl 15 0 a42 a42 empty 17 7 0 10 -1 -262144 -1 0 1;
#X obj 492 82 tgl 15 0 a43 a43 empty 17 7 0 10 -1 -262144 -1 0 1;
#X obj 508 82 tgl 15 0 a44 a44 empty 17 7 0 10 -1 -262144 -1 0 1;
#X obj 524 82 tgl 15 0 a45 a45 empty 17 7 0 10 -1 -262144 -1 0 1;
#X obj 540 82 tgl 15 0 a46 a46 empty 17 7 0 10 -1 -262144 -1 0 1;
#X obj 556 82 tgl 15 0 a47 a47 empty 17 7 0 10 -1 -262144 -1 0 1;
#X obj 572 82 tgl 15 0 a48 a48 empty 17 7 0 10 -1 -262144 -1 0 1;
#X obj 332 98 tgl 15 0 a49 a49 empty 17 7 0 10 -1 -262144 -1 0 1;
#X obj 348 98 tgl 15 0 a50 a50 empty 17 7 0 10 -1 -262144 -1 0 1;
#X obj 364 98 tgl 15 0 a51 a51 empty 17 7 0 10 -1 -262144 -1 0 1;
#X obj 380 98 tgl 15 0 a52 a52 empty 17 7 0 10 -1 -262144 -1 0 1;
#X obj 396 98 tgl 15 0 a53 a53 empty 17 7 0 10 -1 -262144 -1 0 1;
#X obj 412 98 tgl 15 0 a54 a54 empty 17 7 0 10 -1 -262144 -1 0 1;
#X obj 428 98 tgl 15 0 a55 a55 empty 17 7 0 10 -1 -262144 -1 0 1;
#X obj 444 98 tgl 15 0 a56 a56 empty 17 7 0 10 -1 -262144 -1 0 1;
#X obj 460 98 tgl 15 0 a57 a57 empty 17 7 0 10 -1 -262144 -1 0 1;
#X obj 476 98 tgl 15 0 a58 a58 empty 17 7 0 10 -1 -262144 -1 0 1;
#X obj 492 98 tgl 15 0 a59 a59 empty 17 7 0 10 -1 -262144 -1 0 1;
#X obj 508 98 tgl 15 0 a60 a60 empty 17 7 0 10 -1 -262144 -1 0 1;
#X obj 524 98 tgl 15 0 a61 a61 empty 17 7 0 10 -1 -262144 -1 0 1;
#X obj 540 98 tgl 15 0 a62 a62 empty 17 7 0 10 -1 -262144 -1 0 1;
#X obj 556 98 tgl 15 0 a63 a63 empty 17 7 0 10 -1 -262144 -1 0 1;
#X obj 572 98 tgl 15 0 a64 a64 empty 17 7 0 10 -1 -262144 -1 0 1;
#X obj 332 114 tgl 15 0 a65 a65 empty 17 7 0 10 -1 -262144 -1 0 1;
#X obj 348 114 tgl 15 0 a66 a66 empty 17 7 0 10 -1 -262144 -1 0 1;
#X obj 364 114 tgl 15 0 a67 a67 empty 17 7 0 10 -1 -262144 -1 0 1;
#X obj 380 114 tgl 15 0 a68 a68 empty 17 7 0 10 -1 -262144 -1 0 1;
#X obj 396 114 tgl 15 0 a69 a69 empty 17 7 0 10 -1 -262144 -1 0 1;
#X obj 412 114 tgl 15 0 a70 a70 empty 17 7 0 10 -1 -262144 -1 0 1;
#X obj 428 114 tgl 15 0 a71 a71 empty 17 7 0 10 -1 -262144 -1 0 1;
#X obj 444 114 tgl 15 0 a72 a72 empty 17 7 0 10 -1 -262144 -1 0 1;
#X obj 460 114 tgl 15 0 a73 a73 empty 17 7 0 10 -1 -262144 -1 0 1;
#X obj 476 114 tgl 15 0 a74 a74 empty 17 7 0 10 -1 -262144 -1 0 1;
#X obj 492 114 tgl 15 0 a75 a75 empty 17 7 0 10 -1 -262144 -1 0 1;
#X obj 508 114 tgl 15 0 a76 a76 empty 17 7 0 10 -1 -262144 -1 0 1;
#X obj 524 114 tgl 15 0 a77 a77 empty 17 7 0 10 -1 -262144 -1 0 1;
#X obj 540 114 tgl 15 0 a78 a78 empty 17 7 0 10 -1 -262144 -1 0 1;
#X obj 556 114 tgl 15 0 a79 a79 empty 17 7 0 10 -1 -262144 -1 0 1;
#X obj 572 114 tgl 15 0 a80 a80 empty 17 7 0 10 -1 -262144 -1 0 1;
#X obj 332 130 tgl 15 0 a81 a81 empty 17 7 0 10 -1 -262144 -1 0 1;
#X obj 348 130 tgl 15 0 a82 a82 empty 17 7 0 10 -1 -262144 -1 0 1;
#X obj 364 130 tgl 15 0 a83 a83 empty 17 7 0 10 -1 -262144 -1 0 1;
#X obj 380 130 tgl 15 0 a84 a84 empty 17 7 0 10 -1 -262144 -1 0 1;
#X obj 396 130 tgl 15 0 a85 a85 empty 17 7 0 10 -1 -262144 -1 0 1;
#X obj 412 130 tgl 15 0 a86 a86 empty 17 7 0 10 -1 -262144 -1 0 1;
#X obj 428 130 tgl 15 0 a87 a87 empty 17 7 0 10 -1 -262144 -1 0 1;
#X obj 444 130 tgl 15 0 a88 a88 empty 17 7 0 10 -1 -262144 -1 0 1;
#X obj 460 130 tgl 15 0 a89 a89 empty 17 7 0 10 -1 -262144 -1 0 1;
#X obj 476 130 tgl 15 0 a90 a90 empty 17 7 0 10 -1 -262144 -1 0 1;
#X obj 492 130 tgl 15 0 a91 a91 empty 17 7 0 10 -1 -262144 -1 0 1;
#X obj 508 130 tgl 15 0 a92 a92 empty 17 7 0 10 -1 -262144 -1 0 1;
#X obj 524 130 tgl 15 0 a93 a93 empty 17 7 0 10 -1 -262144 -1 0 1;
#X obj 540 130 tgl 15 0 a94 a94 empty 17 7 0 10 -1 -262144 -1 0 1;
#X obj 556 130 tgl 15 0 a95 a95 empty 17 7 0 10 -1 -262144 -1 0 1;
#X obj 572 130 tgl 15 0 a96 a96 empty 17 7 0 10 -1 -262144 -1 0 1;
#X obj 332 146 tgl 15 0 a97 a97 empty 17 7 0 10 -1 -262144 -1 0 1;
#X obj 348 146 tgl 15 0 a98 a98 empty 17 7 0 10 -1 -262144 -1 0 1;
#X obj 364 146 tgl 15 0 a99 a99 empty 17 7 0 10 -1 -262144 -1 0 1;
#X obj 380 146 tgl 15 0 a100 a100 empty 17 7 0 10 -1 -262144 -1 0 1
;
#X obj 396 146 tgl 15 0 a101 a101 empty 17 7 0 10 -1 -262144 -1 0 1
;
#X obj 412 146 tgl 15 0 a102 a102 empty 17 7 0 10 -1 -262144 -1 0 1
;
#X obj 428 146 tgl 15 0 a103 a103 empty 17 7 0 10 -1 -262144 -1 0 1
;
#X obj 444 146 tgl 15 0 a104 a104 empty 17 7 0 10 -1 -262144 -1 0 1
;
#X obj 460 146 tgl 15 0 a105 a105 empty 17 7 0 10 -1 -262144 -1 0 1
;
#X obj 476 146 tgl 15 0 a106 a106 empty 17 7 0 10 -1 -262144 -1 0 1
;
#X obj 492 146 tgl 15 0 a107 a107 empty 17 7 0 10 -1 -262144 -1 0 1
;
#X obj 508 146 tgl 15 0 a108 a108 empty 17 7 0 10 -1 -262144 -1 0 1
;
#X obj 524 146 tgl 15 0 a109 a109 empty 17 7 0 10 -1 -262144 -1 0 1
;
#X obj 540 146 tgl 15 0 a110 a110 empty 17 7 0 10 -1 -262144 -1 0 1
;
#X obj 556 146 tgl 15 0 a111 a111 empty 17 7 0 10 -1 -262144 -1 0 1
;
#X obj 572 146 tgl 15 0 a112 a112 empty 17 7 0 10 -1 -262144 -1 0 1
;
#X obj 332 162 tgl 15 0 a113 a113 empty 17 7 0 10 -1 -262144 -1 0 1
;
#X obj 348 162 tgl 15 0 a114 a114 empty 17 7 0 10 -1 -262144 -1 0 1
;
#X obj 364 162 tgl 15 0 a115 a115 empty 17 7 0 10 -1 -262144 -1 0 1
;
#X obj 380 162 tgl 15 0 a116 a116 empty 17 7 0 10 -1 -262144 -1 0 1
;
#X obj 396 162 tgl 15 0 a117 a117 empty 17 7 0 10 -1 -262144 -1 0 1
;
#X obj 412 162 tgl 15 0 a118 a118 empty 17 7 0 10 -1 -262144 -1 0 1
;
#X obj 428 162 tgl 15 0 a119 a119 empty 17 7 0 10 -1 -262144 -1 0 1
;
#X obj 444 162 tgl 15 0 a120 a120 empty 17 7 0 10 -1 -262144 -1 0 1
;
#X obj 460 162 tgl 15 0 a121 a121 empty 17 7 0 10 -1 -262144 -1 0 1
;
#X obj 476 162 tgl 15 0 a122 a122 empty 17 7 0 10 -1 -262144 -1 0 1
;
#X obj 492 162 tgl 15 0 a123 a123 empty 17 7 0 10 -1 -262144 -1 0 1
;
#X obj 508 162 tgl 15 0 a124 a124 empty 17 7 0 10 -1 -262144 -1 0 1
;
#X obj 524 162 tgl 15 0 a125 a125 empty 17 7 0 10 -1 -262144 -1 0 1
;
#X obj 540 162 tgl 15 0 a126 a126 empty 17 7 0 10 -1 -262144 -1 0 1
;
#X obj 556 162 tgl 15 0 a127 a127 empty 17 7 0 10 -1 -262144 -1 0 1
;
#X obj 572 162 tgl 15 0 a128 a128 empty 17 7 0 10 -1 -262144 -1 0 1
;
#X obj 332 178 tgl 15 0 a129 a129 empty 17 7 0 10 -1 -262144 -1 0 1
;
#X obj 348 178 tgl 15 0 a130 a130 empty 17 7 0 10 -1 -262144 -1 0 1
;
#X obj 364 178 tgl 15 0 a131 a131 empty 17 7 0 10 -1 -262144 -1 0 1
;
#X obj 380 178 tgl 15 0 a132 a132 empty 17 7 0 10 -1 -262144 -1 0 1
;
#X obj 396 178 tgl 15 0 a133 a133 empty 17 7 0 10 -1 -262144 -1 0 1
;
#X obj 412 178 tgl 15 0 a134 a134 empty 17 7 0 10 -1 -262144 -1 0 1
;
#X obj 428 178 tgl 15 0 a135 a135 empty 17 7 0 10 -1 -262144 -1 0 1
;
#X obj 444 178 tgl 15 0 a136 a136 empty 17 7 0 10 -1 -262144 -1 0 1
;
#X obj 460 178 tgl 15 0 a137 a137 empty 17 7 0 10 -1 -262144 -1 0 1
;
#X obj 476 178 tgl 15 0 a138 a138 empty 17 7 0 10 -1 -262144 -1 0 1
;
#X obj 492 178 tgl 15 0 a139 a139 empty 17 7 0 10 -1 -262144 -1 0 1
;
#X obj 508 178 tgl 15 0 a140 a140 empty 17 7 0 10 -1 -262144 -1 0 1
;
#X obj 524 178 tgl 15 0 a141 a141 empty 17 7 0 10 -1 -262144 -1 0 1
;
#X obj 540 178 tgl 15 0 a142 a142 empty 17 7 0 10 -1 -262144 -1 0 1
;
#X obj 556 178 tgl 15 0 a143 a143 empty 17 7 0 10 -1 -262144 -1 0 1
;
#X obj 572 178 tgl 15 0 a144 a144 empty 17 7 0 10 -1 -262144 -1 0 1
;
#X obj 332 194 tgl 15 0 a145 a145 empty 17 7 0 10 -1 -262144 -1 0 1
;
#X obj 348 194 tgl 15 0 a146 a146 empty 17 7 0 10 -1 -262144 -1 0 1
;
#X obj 364 194 tgl 15 0 a147 a147 empty 17 7 0 10 -1 -262144 -1 0 1
;
#X obj 380 194 tgl 15 0 a148 a148 empty 17 7 0 10 -1 -262144 -1 0 1
;
#X obj 396 194 tgl 15 0 a149 a149 empty 17 7 0 10 -1 -262144 -1 0 1
;
#X obj 412 194 tgl 15 0 a150 a150 empty 17 7 0 10 -1 -262144 -1 0 1
;
#X obj 428 194 tgl 15 0 a151 a151 empty 17 7 0 10 -1 -262144 -1 0 1
;
#X obj 444 194 tgl 15 0 a152 a152 empty 17 7 0 10 -1 -262144 -1 0 1
;
#X obj 460 194 tgl 15 0 a153 a153 empty 17 7 0 10 -1 -262144 -1 0 1
;
#X obj 476 194 tgl 15 0 a154 a154 empty 17 7 0 10 -1 -262144 -1 0 1
;
#X obj 492 194 tgl 15 0 a155 a155 empty 17 7 0 10 -1 -262144 -1 0 1
;
#X obj 508 194 tgl 15 0 a156 a156 empty 17 7 0 10 -1 -262144 -1 0 1
;
#X obj 524 194 tgl 15 0 a157 a157 empty 17 7 0 10 -1 -262144 -1 0 1
;
#X obj 540 194 tgl 15 0 a158 a158 empty 17 7 0 10 -1 -262144 -1 0 1
;
#X obj 556 194 tgl 15 0 a159 a159 empty 17 7 0 10 -1 -262144 -1 0 1
;
#X obj 572 194 tgl 15 0 a160 a160 empty 17 7 0 10 -1 -262144 -1 0 1
;
#X obj 332 210 tgl 15 0 a161 a161 empty 17 7 0 10 -1 -262144 -1 0 1
;
#X obj 348 210 tgl 15 0 a162 a162 empty 17 7 0 10 -1 -262144 -1 0 1
;
#X obj 364 210 tgl 15 0 a163 a163 empty 17 7 0 10 -1 -262144 -1 0 1
;
#X obj 380 210 tgl 15 0 a164 a164 empty 17 7 0 10 -1 -262144 -1 0 1
;
#X obj 396 210 tgl 15 0 a165 a165 empty 17 7 0 10 -1 -262144 -1 0 1
;
#X obj 412 210 tgl 15 0 a166 a166 empty 17 7 0 10 -1 -262144 -1 0 1
;
#X obj 428 210 tgl 15 0 a167 a167 empty 17 7 0 10 -1 -262144 -1 0 1
;
#X obj 444 210 tgl 15 0 a168 a168 empty 17 7 0 10 -1 -262144 -1 0 1
;
#X obj 460 210 tgl 15 0 a169 a169 empty 17 7 0 10 -1 -262144 -1 0 1
;
#X obj 476 210 tgl 15 0 a170 a170 empty 17 7 0 10 -1 -262144 -1 0 1
;
#X obj 492 210 tgl 15 0 a171 a171 empty 17 7 0 10 -1 -262144 -1 0 1
;
#X obj 508 210 tgl 15 0 a172 a172 empty 17 7 0 10 -1 -262144 -1 0 1
;
#X obj 524 210 tgl 15 0 a173 a173 empty 17 7 0 10 -1 -262144 -1 0 1
;
#X obj 540 210 tgl 15 0 a174 a174 empty 17 7 0 10 -1 -262144 -1 0 1
;
#X obj 556 210 tgl 15 0 a175 a175 empty 17 7 0 10 -1 -262144 -1 0 1
;
#X obj 572 210 tgl 15 0 a176 a176 empty 17 7 0 10 -1 -262144 -1 0 1
;
#X obj 332 226 tgl 15 0 a177 a177 empty 17 7 0 10 -1 -262144 -1 0 1
;
#X obj 348 226 tgl 15 0 a178 a178 empty 17 7 0 10 -1 -262144 -1 0 1
;
#X obj 364 226 tgl 15 0 a179 a179 empty 17 7 0 10 -1 -262144 -1 0 1
;
#X obj 380 226 tgl 15 0 a180 a180 empty 17 7 0 10 -1 -262144 -1 0 1
;
#X obj 396 226 tgl 15 0 a181 a181 empty 17 7 0 10 -1 -262144 -1 0 1
;
#X obj 412 226 tgl 15 0 a182 a182 empty 17 7 0 10 -1 -262144 -1 0 1
;
#X obj 428 226 tgl 15 0 a183 a183 empty 17 7 0 10 -1 -262144 -1 0 1
;
#X obj 444 226 tgl 15 0 a184 a184 empty 17 7 0 10 -1 -262144 -1 0 1
;
#X obj 460 226 tgl 15 0 a185 a185 empty 17 7 0 10 -1 -262144 -1 0 1
;
#X obj 476 226 tgl 15 0 a186 a186 empty 17 7 0 10 -1 -262144 -1 0 1
;
#X obj 492 226 tgl 15 0 a187 a187 empty 17 7 0 10 -1 -262144 -1 0 1
;
#X obj 508 226 tgl 15 0 a188 a188 empty 17 7 0 10 -1 -262144 -1 0 1
;
#X obj 524 226 tgl 15 0 a189 a189 empty 17 7 0 10 -1 -262144 -1 0 1
;
#X obj 540 226 tgl 15 0 a190 a190 empty 17 7 0 10 -1 -262144 -1 0 1
;
#X obj 556 226 tgl 15 0 a191 a191 empty 17 7 0 10 -1 -262144 -1 0 1
;
#X obj 572 226 tgl 15 0 a192 a192 empty 17 7 0 10 -1 -262144 -1 0 1
;
#X obj 332 242 tgl 15 0 a193 a193 empty 17 7 0 10 -1 -262144 -1 0 1
;
#X obj 348 242 tgl 15 0 a194 a194 empty 17 7 0 10 -1 -262144 -1 0 1
;
#X obj 364 242 tgl 15 0 a195 a195 empty 17 7 0 10 -1 -262144 -1 0 1
;
#X obj 380 242 tgl 15 0 a196 a196 empty 17 7 0 10 -1 -262144 -1 0 1
;
#X obj 396 242 tgl 15 0 a197 a197 empty 17 7 0 10 -1 -262144 -1 0 1
;
#X obj 412 242 tgl 15 0 a198 a198 empty 17 7 0 10 -1 -262144 -1 0 1
;
#X obj 428 242 tgl 15 0 a199 a199 empty 17 7 0 10 -1 -262144 -1 0 1
;
#X obj 444 242 tgl 15 0 a200 a200 empty 17 7 0 10 -1 -262144 -1 0 1
;
#X obj 460 242 tgl 15 0 a201 a201 empty 17 7 0 10 -1 -262144 -1 0 1
;
#X obj 476 242 tgl 15 0 a202 a202 empty 17 7 0 10 -1 -262144 -1 0 1
;
#X obj 492 242 tgl 15 0 a203 a203 empty 17 7 0 10 -1 -262144 -1 0 1
;
#X obj 508 242 tgl 15 0 a204 a204 empty 17 7 0 10 -1 -262144 -1 0 1
;
#X obj 524 242 tgl 15 0 a205 a205 empty 17 7 0 10 -1 -262144 -1 0 1
;
#X obj 540 242 tgl 15 0 a206 a206 empty 17 7 0 10 -1 -262144 -1 0 1
;
#X obj 556 242 tgl 15 0 a207 a207 empty 17 7 0 10 -1 -262144 -1 0 1
;
#X obj 572 242 tgl 15 0 a208 a208 empty 17 7 0 10 -1 -262144 -1 0 1
;
#X obj 332 258 tgl 15 0 a209 a209 empty 17 7 0 10 -1 -262144 -1 0 1
;
#X obj 348 258 tgl 15 0 a210 a210 empty 17 7 0 10 -1 -262144 -1 0 1
;
#X obj 364 258 tgl 15 0 a211 a211 empty 17 7 0 10 -1 -262144 -1 0 1
;
#X obj 380 258 tgl 15 0 a212 a212 empty 17 7 0 10 -1 -262144 -1 0 1
;
#X obj 396 258 tgl 15 0 a213 a213 empty 17 7 0 10 -1 -262144 -1 0 1
;
#X obj 412 258 tgl 15 0 a214 a214 empty 17 7 0 10 -1 -262144 -1 0 1
;
#X obj 428 258 tgl 15 0 a215 a215 empty 17 7 0 10 -1 -262144 -1 0 1
;
#X obj 444 258 tgl 15 0 a216 a216 empty 17 7 0 10 -1 -262144 -1 0 1
;
#X obj 460 258 tgl 15 0 a217 a217 empty 17 7 0 10 -1 -262144 -1 0 1
;
#X obj 476 258 tgl 15 0 a218 a218 empty 17 7 0 10 -1 -262144 -1 0 1
;
#X obj 492 258 tgl 15 0 a219 a219 empty 17 7 0 10 -1 -262144 -1 0 1
;
#X obj 508 258 tgl 15 0 a220 a220 empty 17 7 0 10 -1 -262144 -1 0 1
;
#X obj 524 258 tgl 15 0 a221 a221 empty 17 7 0 10 -1 -262144 -1 0 1
;
#X obj 540 258 tgl 15 0 a222 a222 empty 17 7 0 10 -1 -262144 -1 0 1
;
#X obj 556 258 tgl 15 0 a223 a223 empty 17 7 0 10 -1 -262144 -1 0 1
;
#X obj 572 258 tgl 15 0 a224 a224 empty 17 7 0 10 -1 -262144 -1 0 1
;
#X obj 332 274 tgl 15 0 a225 a225 empty 17 7 0 10 -1 -262144 -1 0 1
;
#X obj 348 274 tgl 15 0 a226 a226 empty 17 7 0 10 -1 -262144 -1 0 1
;
#X obj 364 274 tgl 15 0 a227 a227 empty 17 7 0 10 -1 -262144 -1 0 1
;
#X obj 380 274 tgl 15 0 a228 a228 empty 17 7 0 10 -1 -262144 -1 0 1
;
#X obj 396 274 tgl 15 0 a229 a229 empty 17 7 0 10 -1 -262144 -1 0 1
;
#X obj 412 274 tgl 15 0 a230 a230 empty 17 7 0 10 -1 -262144 -1 0 1
;
#X obj 428 274 tgl 15 0 a231 a231 empty 17 7 0 10 -1 -262144 -1 0 1
;
#X obj 444 274 tgl 15 0 a232 a232 empty 17 7 0 10 -1 -262144 -1 0 1
;
#X obj 460 274 tgl 15 0 a233 a233 empty 17 7 0 10 -1 -262144 -1 0 1
;
#X obj 476 274 tgl 15 0 a234 a234 empty 17 7 0 10 -1 -262144 -1 0 1
;
#X obj 492 274 tgl 15 0 a235 a235 empty 17 7 0 10 -1 -262144 -1 0 1
;
#X obj 508 274 tgl 15 0 a236 a236 empty 17 7 0 10 -1 -262144 -1 0 1
;
#X obj 524 274 tgl 15 0 a237 a237 empty 17 7 0 10 -1 -262144 -1 0 1
;
#X obj 540 274 tgl 15 0 a238 a238 empty 17 7 0 10 -1 -262144 -1 0 1
;
#X obj 556 274 tgl 15 0 a239 a239 empty 17 7 0 10 -1 -262144 -1 0 1
;
#X obj 572 274 tgl 15 0 a240 a240 empty 17 7 0 10 -1 -262144 -1 0 1
;
#X obj 332 290 tgl 15 0 a241 a241 empty 17 7 0 10 -1 -262144 -1 0 1
;
#X obj 348 290 tgl 15 0 a242 a242 empty 17 7 0 10 -1 -262144 -1 0 1
;
#X obj 364 290 tgl 15 0 a243 a243 empty 17 7 0 10 -1 -262144 -1 0 1
;
#X obj 380 290 tgl 15 0 a244 a244 empty 17 7 0 10 -1 -262144 -1 0 1
;
#X obj 396 290 tgl 15 0 a245 a245 empty 17 7 0 10 -1 -262144 -1 0 1
;
#X obj 412 290 tgl 15 0 a246 a246 empty 17 7 0 10 -1 -262144 -1 0 1
;
#X obj 428 290 tgl 15 0 a247 a247 empty 17 7 0 10 -1 -262144 -1 0 1
;
#X obj 444 290 tgl 15 0 a248 a248 empty 17 7 0 10 -1 -262144 -1 0 1
;
#X obj 460 290 tgl 15 0 a249 a249 empty 17 7 0 10 -1 -262144 -1 0 1
;
#X obj 476 290 tgl 15 0 a250 a250 empty 17 7 0 10 -1 -262144 -1 0 1
;
#X obj 492 290 tgl 15 0 a251 a251 empty 17 7 0 10 -1 -262144 -1 0 1
;
#X obj 508 290 tgl 15 0 a252 a252 empty 17 7 0 10 -1 -262144 -1 0 1
;
#X obj 524 290 tgl 15 0 a253 a253 empty 17 7 0 10 -1 -262144 -1 0 1
;
#X obj 540 290 tgl 15 0 a254 a254 empty 17 7 0 10 -1 -262144 -1 0 1
;
#X obj 556 290 tgl 15 0 a255 a255 empty 17 7 0 10 -1 -262144 -1 0 1
;
#X obj 572 290 tgl 15 0 a256 a256 empty 17 7 0 10 -1 -262144 -1 0 1
;
#N canvas 242 76 1044 665 256JFC 0;
#X obj 159 133 dead_alive;
#X obj 245 134 dead_alive;
#X obj 331 134 dead_alive;
#X obj 417 134 dead_alive;
#X obj 504 134 dead_alive;
#X obj 590 134 dead_alive;
#X obj 676 134 dead_alive;
#X obj 762 134 dead_alive;
#X obj 849 134 dead_alive;
#X obj 935 134 dead_alive;
#X obj 935 114 r c110;
#X obj 977 114 r a110;
#X obj 935 154 s a110;
#X obj 159 194 dead_alive;
#X obj 245 194 dead_alive;
#X obj 331 194 dead_alive;
#X obj 417 194 dead_alive;
#X obj 504 194 dead_alive;
#X obj 590 194 dead_alive;
#X obj 676 194 dead_alive;
#X obj 762 194 dead_alive;
#X obj 849 194 dead_alive;
#X obj 935 194 dead_alive;
#X obj 201 174 r a111;
#X obj 160 214 s a111;
#X obj 287 174 r a112;
#X obj 245 214 s a112;
#X obj 245 174 r c112;
#X obj 331 174 r c113;
#X obj 373 174 r a113;
#X obj 331 214 s a113;
#X obj 417 174 r c114;
#X obj 459 174 r a114;
#X obj 417 214 s a114;
#X obj 504 174 r c115;
#X obj 546 174 r a115;
#X obj 504 214 s a115;
#X obj 590 174 r c116;
#X obj 632 174 r a116;
#X obj 590 214 s a116;
#X obj 676 174 r c117;
#X obj 718 174 r a117;
#X obj 676 214 s a117;
#X obj 762 174 r c118;
#X obj 804 174 r a118;
#X obj 762 214 s a118;
#X obj 849 174 r c119;
#X obj 891 174 r a119;
#X obj 849 214 s a119;
#X obj 935 174 r c120;
#X obj 977 174 r a120;
#X obj 935 214 s a120;
#X obj 159 174 r c111;
#X obj 159 254 dead_alive;
#X obj 159 234 r c121;
#X obj 201 234 r a121;
#X obj 159 274 s a121;
#X obj 245 254 dead_alive;
#X obj 331 254 dead_alive;
#X obj 417 254 dead_alive;
#X obj 504 254 dead_alive;
#X obj 590 254 dead_alive;
#X obj 676 254 dead_alive;
#X obj 762 254 dead_alive;
#X obj 849 254 dead_alive;
#X obj 935 254 dead_alive;
#X obj 245 234 r c122;
#X obj 287 234 r a122;
#X obj 245 274 s a122;
#X obj 331 234 r c123;
#X obj 373 234 r a123;
#X obj 331 274 s a123;
#X obj 417 234 r c124;
#X obj 459 234 r a124;
#X obj 417 274 s a124;
#X obj 504 274 s a125;
#X obj 504 234 r c125;
#X obj 546 234 r a125;
#X obj 632 234 r a126;
#X obj 590 274 s a126;
#X obj 590 234 r c126;
#X obj 676 234 r c127;
#X obj 718 234 r a127;
#X obj 676 274 s a127;
#X obj 762 234 r c128;
#X obj 804 234 r a128;
#X obj 762 274 s a128;
#X obj 849 234 r c129;
#X obj 891 234 r a129;
#X obj 849 274 s a129;
#X obj 159 314 dead_alive;
#X obj 245 314 dead_alive;
#X obj 331 314 dead_alive;
#X obj 417 314 dead_alive;
#X obj 504 314 dead_alive;
#X obj 590 314 dead_alive;
#X obj 676 314 dead_alive;
#X obj 762 314 dead_alive;
#X obj 849 314 dead_alive;
#X obj 935 314 dead_alive;
#X obj 201 294 r a131;
#X obj 160 334 s a131;
#X obj 287 294 r a132;
#X obj 245 334 s a132;
#X obj 245 294 r c132;
#X obj 331 294 r c133;
#X obj 373 294 r a133;
#X obj 331 334 s a133;
#X obj 417 294 r c134;
#X obj 459 294 r a134;
#X obj 417 334 s a134;
#X obj 504 294 r c135;
#X obj 546 294 r a135;
#X obj 504 334 s a135;
#X obj 590 294 r c136;
#X obj 632 294 r a136;
#X obj 590 334 s a136;
#X obj 676 294 r c137;
#X obj 718 294 r a137;
#X obj 676 334 s a137;
#X obj 762 294 r c138;
#X obj 804 294 r a138;
#X obj 762 334 s a138;
#X obj 849 294 r c139;
#X obj 891 294 r a139;
#X obj 849 334 s a139;
#X obj 935 294 r c140;
#X obj 977 294 r a140;
#X obj 159 294 r c131;
#X obj 977 234 r a130;
#X obj 159 374 dead_alive;
#X obj 159 354 r c141;
#X obj 201 354 r a141;
#X obj 159 394 s a141;
#X obj 245 374 dead_alive;
#X obj 331 374 dead_alive;
#X obj 417 374 dead_alive;
#X obj 504 374 dead_alive;
#X obj 590 374 dead_alive;
#X obj 676 374 dead_alive;
#X obj 762 374 dead_alive;
#X obj 849 374 dead_alive;
#X obj 935 374 dead_alive;
#X obj 245 354 r c142;
#X obj 287 354 r a142;
#X obj 245 394 s a142;
#X obj 331 354 r c143;
#X obj 373 354 r a143;
#X obj 331 394 s a143;
#X obj 417 354 r c144;
#X obj 459 354 r a144;
#X obj 417 394 s a144;
#X obj 504 394 s a145;
#X obj 504 354 r c145;
#X obj 546 354 r a145;
#X obj 632 354 r a146;
#X obj 590 394 s a146;
#X obj 590 354 r c146;
#X obj 676 354 r c147;
#X obj 718 354 r a147;
#X obj 676 394 s a147;
#X obj 762 354 r c148;
#X obj 804 354 r a148;
#X obj 762 394 s a148;
#X obj 849 354 r c149;
#X obj 891 354 r a149;
#X obj 849 394 s a149;
#X obj 935 354 r c150;
#X obj 977 354 r a150;
#X obj 935 234 r c130;
#X obj 935 274 s a130;
#X obj 935 334 s a140;
#X obj 935 394 s a150;
#X obj 159 433 dead_alive;
#X obj 159 413 r c151;
#X obj 201 413 r a151;
#X obj 159 453 s a151;
#X obj 245 434 dead_alive;
#X obj 331 434 dead_alive;
#X obj 417 434 dead_alive;
#X obj 504 434 dead_alive;
#X obj 590 434 dead_alive;
#X obj 676 434 dead_alive;
#X obj 762 434 dead_alive;
#X obj 849 434 dead_alive;
#X obj 935 434 dead_alive;
#X obj 245 414 r c152;
#X obj 287 414 r a152;
#X obj 245 454 s a152;
#X obj 331 414 r c153;
#X obj 373 414 r a153;
#X obj 331 454 s a153;
#X obj 417 414 r c154;
#X obj 459 414 r a154;
#X obj 417 454 s a154;
#X obj 504 454 s a155;
#X obj 504 414 r c155;
#X obj 546 414 r a155;
#X obj 632 414 r a156;
#X obj 590 454 s a156;
#X obj 590 414 r c156;
#X obj 676 414 r c157;
#X obj 718 414 r a157;
#X obj 676 454 s a157;
#X obj 762 414 r c158;
#X obj 804 414 r a158;
#X obj 762 454 s a158;
#X obj 849 414 r c159;
#X obj 891 414 r a159;
#X obj 849 454 s a159;
#X obj 935 414 r c160;
#X obj 977 414 r a160;
#X obj 935 454 s a160;
#X obj 159 494 dead_alive;
#X obj 245 494 dead_alive;
#X obj 331 494 dead_alive;
#X obj 417 494 dead_alive;
#X obj 504 494 dead_alive;
#X obj 590 494 dead_alive;
#X obj 676 494 dead_alive;
#X obj 762 494 dead_alive;
#X obj 849 494 dead_alive;
#X obj 935 494 dead_alive;
#X obj 201 474 r a161;
#X obj 160 514 s a161;
#X obj 287 474 r a162;
#X obj 245 514 s a162;
#X obj 245 474 r c162;
#X obj 331 474 r c163;
#X obj 373 474 r a163;
#X obj 331 514 s a163;
#X obj 417 474 r c164;
#X obj 459 474 r a164;
#X obj 417 514 s a164;
#X obj 504 474 r c165;
#X obj 546 474 r a165;
#X obj 504 514 s a165;
#X obj 590 474 r c166;
#X obj 632 474 r a166;
#X obj 590 514 s a166;
#X obj 676 474 r c167;
#X obj 718 474 r a167;
#X obj 676 514 s a167;
#X obj 762 474 r c168;
#X obj 804 474 r a168;
#X obj 762 514 s a168;
#X obj 849 474 r c169;
#X obj 891 474 r a169;
#X obj 849 514 s a169;
#X obj 935 474 r c170;
#X obj 977 474 r a170;
#X obj 935 514 s a170;
#X obj 159 474 r c161;
#X obj 159 554 dead_alive;
#X obj 159 534 r c171;
#X obj 201 534 r a171;
#X obj 159 574 s a171;
#X obj 245 554 dead_alive;
#X obj 331 554 dead_alive;
#X obj 417 554 dead_alive;
#X obj 504 554 dead_alive;
#X obj 590 554 dead_alive;
#X obj 676 554 dead_alive;
#X obj 762 554 dead_alive;
#X obj 849 554 dead_alive;
#X obj 935 554 dead_alive;
#X obj 245 534 r c172;
#X obj 287 534 r a172;
#X obj 245 574 s a172;
#X obj 331 534 r c173;
#X obj 373 534 r a173;
#X obj 331 574 s a173;
#X obj 417 534 r c174;
#X obj 459 534 r a174;
#X obj 417 574 s a174;
#X obj 504 574 s a175;
#X obj 504 534 r c175;
#X obj 546 534 r a175;
#X obj 632 534 r a176;
#X obj 590 574 s a176;
#X obj 590 534 r c176;
#X obj 676 534 r c177;
#X obj 718 534 r a177;
#X obj 676 574 s a177;
#X obj 762 534 r c178;
#X obj 804 534 r a178;
#X obj 762 574 s a178;
#X obj 849 534 r c179;
#X obj 891 534 r a179;
#X obj 849 574 s a179;
#X obj 159 614 dead_alive;
#X obj 245 614 dead_alive;
#X obj 331 614 dead_alive;
#X obj 417 614 dead_alive;
#X obj 504 614 dead_alive;
#X obj 590 614 dead_alive;
#X obj 676 614 dead_alive;
#X obj 762 614 dead_alive;
#X obj 849 614 dead_alive;
#X obj 935 614 dead_alive;
#X obj 201 594 r a181;
#X obj 160 634 s a181;
#X obj 287 594 r a182;
#X obj 245 634 s a182;
#X obj 245 594 r c182;
#X obj 331 594 r c183;
#X obj 373 594 r a183;
#X obj 331 634 s a183;
#X obj 417 594 r c184;
#X obj 459 594 r a184;
#X obj 417 634 s a184;
#X obj 504 594 r c185;
#X obj 546 594 r a185;
#X obj 504 634 s a185;
#X obj 590 594 r c186;
#X obj 632 594 r a186;
#X obj 590 634 s a186;
#X obj 676 594 r c187;
#X obj 718 594 r a187;
#X obj 676 634 s a187;
#X obj 762 594 r c188;
#X obj 804 594 r a188;
#X obj 762 634 s a188;
#X obj 849 594 r c189;
#X obj 891 594 r a189;
#X obj 849 634 s a189;
#X obj 159 594 r c181;
#X obj 977 534 r a180;
#X obj 159 674 dead_alive;
#X obj 159 654 r c191;
#X obj 201 654 r a191;
#X obj 159 694 s a191;
#X obj 245 674 dead_alive;
#X obj 331 674 dead_alive;
#X obj 417 674 dead_alive;
#X obj 504 674 dead_alive;
#X obj 590 674 dead_alive;
#X obj 676 674 dead_alive;
#X obj 762 674 dead_alive;
#X obj 849 674 dead_alive;
#X obj 935 674 dead_alive;
#X obj 245 654 r c192;
#X obj 287 654 r a192;
#X obj 245 694 s a192;
#X obj 331 654 r c193;
#X obj 373 654 r a193;
#X obj 331 694 s a193;
#X obj 417 654 r c194;
#X obj 459 654 r a194;
#X obj 417 694 s a194;
#X obj 504 694 s a195;
#X obj 504 654 r c195;
#X obj 546 654 r a195;
#X obj 632 654 r a196;
#X obj 590 694 s a196;
#X obj 590 654 r c196;
#X obj 676 654 r c197;
#X obj 718 654 r a197;
#X obj 676 694 s a197;
#X obj 762 654 r c198;
#X obj 804 654 r a198;
#X obj 762 694 s a198;
#X obj 849 654 r c199;
#X obj 891 654 r a199;
#X obj 849 694 s a199;
#X obj 935 534 r c180;
#X obj 935 574 s a180;
#X obj 935 594 r c190;
#X obj 977 594 r a190;
#X obj 935 634 s a190;
#X obj 935 654 r c200;
#X obj 977 654 r a200;
#X obj 935 694 s a200;
#X obj 159 733 dead_alive;
#X obj 245 734 dead_alive;
#X obj 331 734 dead_alive;
#X obj 417 734 dead_alive;
#X obj 504 734 dead_alive;
#X obj 590 734 dead_alive;
#X obj 676 734 dead_alive;
#X obj 762 734 dead_alive;
#X obj 849 734 dead_alive;
#X obj 935 734 dead_alive;
#X obj 935 714 r c210;
#X obj 977 714 r a210;
#X obj 935 754 s a210;
#X obj 159 794 dead_alive;
#X obj 245 794 dead_alive;
#X obj 331 794 dead_alive;
#X obj 417 794 dead_alive;
#X obj 504 794 dead_alive;
#X obj 590 794 dead_alive;
#X obj 676 794 dead_alive;
#X obj 762 794 dead_alive;
#X obj 849 794 dead_alive;
#X obj 935 794 dead_alive;
#X obj 201 774 r a211;
#X obj 160 814 s a211;
#X obj 287 774 r a212;
#X obj 245 814 s a212;
#X obj 245 774 r c212;
#X obj 331 774 r c213;
#X obj 373 774 r a213;
#X obj 331 814 s a213;
#X obj 417 774 r c214;
#X obj 459 774 r a214;
#X obj 417 814 s a214;
#X obj 504 774 r c215;
#X obj 546 774 r a215;
#X obj 504 814 s a215;
#X obj 590 774 r c216;
#X obj 632 774 r a216;
#X obj 590 814 s a216;
#X obj 676 774 r c217;
#X obj 718 774 r a217;
#X obj 676 814 s a217;
#X obj 762 774 r c218;
#X obj 804 774 r a218;
#X obj 762 814 s a218;
#X obj 849 774 r c219;
#X obj 891 774 r a219;
#X obj 849 814 s a219;
#X obj 935 774 r c220;
#X obj 977 774 r a220;
#X obj 935 814 s a220;
#X obj 159 774 r c211;
#X obj 159 854 dead_alive;
#X obj 159 834 r c221;
#X obj 201 834 r a221;
#X obj 159 874 s a221;
#X obj 245 854 dead_alive;
#X obj 331 854 dead_alive;
#X obj 417 854 dead_alive;
#X obj 504 854 dead_alive;
#X obj 590 854 dead_alive;
#X obj 676 854 dead_alive;
#X obj 762 854 dead_alive;
#X obj 849 854 dead_alive;
#X obj 935 854 dead_alive;
#X obj 245 834 r c222;
#X obj 287 834 r a222;
#X obj 245 874 s a222;
#X obj 331 834 r c223;
#X obj 373 834 r a223;
#X obj 331 874 s a223;
#X obj 417 834 r c224;
#X obj 459 834 r a224;
#X obj 417 874 s a224;
#X obj 504 874 s a225;
#X obj 504 834 r c225;
#X obj 546 834 r a225;
#X obj 632 834 r a226;
#X obj 590 874 s a226;
#X obj 590 834 r c226;
#X obj 676 834 r c227;
#X obj 718 834 r a227;
#X obj 676 874 s a227;
#X obj 762 834 r c228;
#X obj 804 834 r a228;
#X obj 762 874 s a228;
#X obj 849 834 r c229;
#X obj 891 834 r a229;
#X obj 849 874 s a229;
#X obj 159 914 dead_alive;
#X obj 245 914 dead_alive;
#X obj 331 914 dead_alive;
#X obj 417 914 dead_alive;
#X obj 504 914 dead_alive;
#X obj 590 914 dead_alive;
#X obj 676 914 dead_alive;
#X obj 762 914 dead_alive;
#X obj 849 914 dead_alive;
#X obj 935 914 dead_alive;
#X obj 201 894 r a231;
#X obj 160 934 s a231;
#X obj 287 894 r a232;
#X obj 245 934 s a232;
#X obj 245 894 r c232;
#X obj 331 894 r c233;
#X obj 373 894 r a233;
#X obj 331 934 s a233;
#X obj 417 894 r c234;
#X obj 459 894 r a234;
#X obj 417 934 s a234;
#X obj 504 894 r c235;
#X obj 546 894 r a235;
#X obj 504 934 s a235;
#X obj 590 894 r c236;
#X obj 632 894 r a236;
#X obj 590 934 s a236;
#X obj 676 894 r c237;
#X obj 718 894 r a237;
#X obj 676 934 s a237;
#X obj 762 894 r c238;
#X obj 804 894 r a238;
#X obj 762 934 s a238;
#X obj 849 894 r c239;
#X obj 891 894 r a239;
#X obj 849 934 s a239;
#X obj 935 894 r c240;
#X obj 977 894 r a240;
#X obj 159 894 r c231;
#X obj 977 834 r a230;
#X obj 159 974 dead_alive;
#X obj 159 954 r c241;
#X obj 201 954 r a241;
#X obj 159 994 s a241;
#X obj 245 974 dead_alive;
#X obj 331 974 dead_alive;
#X obj 417 974 dead_alive;
#X obj 504 974 dead_alive;
#X obj 590 974 dead_alive;
#X obj 676 974 dead_alive;
#X obj 762 974 dead_alive;
#X obj 849 974 dead_alive;
#X obj 935 974 dead_alive;
#X obj 245 954 r c242;
#X obj 287 954 r a242;
#X obj 245 994 s a242;
#X obj 331 954 r c243;
#X obj 373 954 r a243;
#X obj 331 994 s a243;
#X obj 417 954 r c244;
#X obj 459 954 r a244;
#X obj 417 994 s a244;
#X obj 504 994 s a245;
#X obj 504 954 r c245;
#X obj 546 954 r a245;
#X obj 632 954 r a246;
#X obj 590 994 s a246;
#X obj 590 954 r c246;
#X obj 676 954 r c247;
#X obj 718 954 r a247;
#X obj 676 994 s a247;
#X obj 762 954 r c248;
#X obj 804 954 r a248;
#X obj 762 994 s a248;
#X obj 849 954 r c249;
#X obj 891 954 r a249;
#X obj 849 994 s a249;
#X obj 935 954 r c250;
#X obj 977 954 r a250;
#X obj 935 834 r c230;
#X obj 935 874 s a230;
#X obj 935 934 s a240;
#X obj 935 994 s a250;
#X obj 159 1033 dead_alive;
#X obj 159 1013 r c251;
#X obj 201 1013 r a251;
#X obj 159 1053 s a251;
#X obj 245 1034 dead_alive;
#X obj 331 1034 dead_alive;
#X obj 417 1034 dead_alive;
#X obj 504 1034 dead_alive;
#X obj 590 1034 dead_alive;
#X obj 245 1014 r c252;
#X obj 287 1014 r a252;
#X obj 245 1054 s a252;
#X obj 331 1014 r c253;
#X obj 373 1014 r a253;
#X obj 331 1054 s a253;
#X obj 417 1014 r c254;
#X obj 459 1014 r a254;
#X obj 417 1054 s a254;
#X obj 504 1054 s a255;
#X obj 504 1014 r c255;
#X obj 546 1014 r a255;
#X obj 632 1014 r a256;
#X obj 590 1054 s a256;
#X obj 590 1014 r c256;
#X obj 201 713 r a201;
#X obj 159 713 r c201;
#X obj 159 753 s a201;
#X obj 245 714 r c202;
#X obj 245 754 s a202;
#X obj 331 754 s a203;
#X obj 417 754 s a204;
#X obj 504 754 s a205;
#X obj 590 754 s a206;
#X obj 676 754 s a207;
#X obj 762 755 s a208;
#X obj 849 754 s a209;
#X obj 891 714 r a209;
#X obj 849 714 r c209;
#X obj 804 714 r a208;
#X obj 762 715 r c208;
#X obj 718 714 r a207;
#X obj 676 714 r c207;
#X obj 632 714 r a206;
#X obj 590 714 r c206;
#X obj 546 714 r a205;
#X obj 504 714 r c205;
#X obj 459 714 r a204;
#X obj 417 714 r c204;
#X obj 373 714 r a203;
#X obj 331 714 r c203;
#X obj 287 714 r a202;
#X obj 159 113 r c101;
#X obj 202 113 r a101;
#X obj 245 114 r c102;
#X obj 159 153 s a101;
#X obj 245 154 s a102;
#X obj 331 154 s a103;
#X obj 417 154 s a104;
#X obj 504 154 s a105;
#X obj 590 154 s a106;
#X obj 676 154 s a107;
#X obj 762 154 s a108;
#X obj 849 154 s a109;
#X obj 891 114 r a109;
#X obj 849 114 r c109;
#X obj 804 114 r a108;
#X obj 762 114 r c108;
#X obj 718 114 r a107;
#X obj 676 114 r c107;
#X obj 632 114 r a106;
#X obj 589 114 r c106;
#X obj 546 114 r a105;
#X obj 504 114 r c105;
#X obj 459 114 r a104;
#X obj 417 114 r c104;
#X obj 373 114 r a103;
#X obj 331 114 r c103;
#X obj 287 114 r a102;
#X obj 1045 143 dead_alive;
#X obj 1045 123 r c1;
#X obj 1087 123 r a1;
#X obj 1045 163 s a1;
#X obj 1131 144 dead_alive;
#X obj 1217 144 dead_alive;
#X obj 1303 144 dead_alive;
#X obj 1390 144 dead_alive;
#X obj 1476 144 dead_alive;
#X obj 1562 144 dead_alive;
#X obj 1648 144 dead_alive;
#X obj 1735 144 dead_alive;
#X obj 1821 144 dead_alive;
#X obj 1131 124 r c2;
#X obj 1173 124 r a2;
#X obj 1131 164 s a2;
#X obj 1217 124 r c3;
#X obj 1259 124 r a3;
#X obj 1217 164 s a3;
#X obj 1303 124 r c4;
#X obj 1345 124 r a4;
#X obj 1303 164 s a4;
#X obj 1390 164 s a5;
#X obj 1390 124 r c5;
#X obj 1432 124 r a5;
#X obj 1518 124 r a6;
#X obj 1476 164 s a6;
#X obj 1476 124 r c6;
#X obj 1562 124 r c7;
#X obj 1604 124 r a7;
#X obj 1562 164 s a7;
#X obj 1648 124 r c8;
#X obj 1690 124 r a8;
#X obj 1648 164 s a8;
#X obj 1735 124 r c9;
#X obj 1777 124 r a9;
#X obj 1735 164 s a9;
#X obj 1045 204 dead_alive;
#X obj 1131 204 dead_alive;
#X obj 1217 204 dead_alive;
#X obj 1303 204 dead_alive;
#X obj 1390 204 dead_alive;
#X obj 1476 204 dead_alive;
#X obj 1562 204 dead_alive;
#X obj 1648 204 dead_alive;
#X obj 1735 204 dead_alive;
#X obj 1821 204 dead_alive;
#X obj 1087 184 r a11;
#X obj 1046 224 s a11;
#X obj 1173 184 r a12;
#X obj 1131 224 s a12;
#X obj 1131 184 r c12;
#X obj 1217 184 r c13;
#X obj 1259 184 r a13;
#X obj 1217 224 s a13;
#X obj 1303 184 r c14;
#X obj 1345 184 r a14;
#X obj 1303 224 s a14;
#X obj 1390 184 r c15;
#X obj 1432 184 r a15;
#X obj 1390 224 s a15;
#X obj 1476 184 r c16;
#X obj 1518 184 r a16;
#X obj 1476 224 s a16;
#X obj 1562 184 r c17;
#X obj 1604 184 r a17;
#X obj 1562 224 s a17;
#X obj 1648 184 r c18;
#X obj 1690 184 r a18;
#X obj 1648 224 s a18;
#X obj 1735 184 r c19;
#X obj 1777 184 r a19;
#X obj 1735 224 s a19;
#X obj 1821 184 r c20;
#X obj 1863 184 r a20;
#X obj 1821 224 s a20;
#X obj 1045 184 r c11;
#X obj 1045 264 dead_alive;
#X obj 1045 244 r c21;
#X obj 1087 244 r a21;
#X obj 1045 284 s a21;
#X obj 1131 264 dead_alive;
#X obj 1217 264 dead_alive;
#X obj 1303 264 dead_alive;
#X obj 1390 264 dead_alive;
#X obj 1476 264 dead_alive;
#X obj 1562 264 dead_alive;
#X obj 1648 264 dead_alive;
#X obj 1735 264 dead_alive;
#X obj 1821 264 dead_alive;
#X obj 1131 244 r c22;
#X obj 1173 244 r a22;
#X obj 1131 284 s a22;
#X obj 1217 244 r c23;
#X obj 1259 244 r a23;
#X obj 1217 284 s a23;
#X obj 1303 244 r c24;
#X obj 1345 244 r a24;
#X obj 1303 284 s a24;
#X obj 1390 284 s a25;
#X obj 1390 244 r c25;
#X obj 1432 244 r a25;
#X obj 1518 244 r a26;
#X obj 1476 284 s a26;
#X obj 1476 244 r c26;
#X obj 1562 244 r c27;
#X obj 1604 244 r a27;
#X obj 1562 284 s a27;
#X obj 1648 244 r c28;
#X obj 1690 244 r a28;
#X obj 1648 284 s a28;
#X obj 1735 244 r c29;
#X obj 1777 244 r a29;
#X obj 1735 284 s a29;
#X obj 1045 324 dead_alive;
#X obj 1131 324 dead_alive;
#X obj 1217 324 dead_alive;
#X obj 1303 324 dead_alive;
#X obj 1390 324 dead_alive;
#X obj 1476 324 dead_alive;
#X obj 1562 324 dead_alive;
#X obj 1648 324 dead_alive;
#X obj 1735 324 dead_alive;
#X obj 1821 324 dead_alive;
#X obj 1087 304 r a31;
#X obj 1046 344 s a31;
#X obj 1173 304 r a32;
#X obj 1131 344 s a32;
#X obj 1131 304 r c32;
#X obj 1217 304 r c33;
#X obj 1259 304 r a33;
#X obj 1217 344 s a33;
#X obj 1303 304 r c34;
#X obj 1345 304 r a34;
#X obj 1303 344 s a34;
#X obj 1390 304 r c35;
#X obj 1432 304 r a35;
#X obj 1390 344 s a35;
#X obj 1476 304 r c36;
#X obj 1518 304 r a36;
#X obj 1476 344 s a36;
#X obj 1562 304 r c37;
#X obj 1604 304 r a37;
#X obj 1562 344 s a37;
#X obj 1648 304 r c38;
#X obj 1690 304 r a38;
#X obj 1648 344 s a38;
#X obj 1735 304 r c39;
#X obj 1777 304 r a39;
#X obj 1735 344 s a39;
#X obj 1821 304 r c40;
#X obj 1863 304 r a40;
#X obj 1045 304 r c31;
#X obj 1863 244 r a30;
#X obj 1045 384 dead_alive;
#X obj 1045 364 r c41;
#X obj 1087 364 r a41;
#X obj 1045 404 s a41;
#X obj 1131 384 dead_alive;
#X obj 1217 384 dead_alive;
#X obj 1303 384 dead_alive;
#X obj 1390 384 dead_alive;
#X obj 1476 384 dead_alive;
#X obj 1562 384 dead_alive;
#X obj 1648 384 dead_alive;
#X obj 1735 384 dead_alive;
#X obj 1821 384 dead_alive;
#X obj 1131 364 r c42;
#X obj 1173 364 r a42;
#X obj 1131 404 s a42;
#X obj 1217 364 r c43;
#X obj 1259 364 r a43;
#X obj 1217 404 s a43;
#X obj 1303 364 r c44;
#X obj 1345 364 r a44;
#X obj 1303 404 s a44;
#X obj 1390 404 s a45;
#X obj 1390 364 r c45;
#X obj 1432 364 r a45;
#X obj 1518 364 r a46;
#X obj 1476 404 s a46;
#X obj 1476 364 r c46;
#X obj 1562 364 r c47;
#X obj 1604 364 r a47;
#X obj 1562 404 s a47;
#X obj 1648 364 r c48;
#X obj 1690 364 r a48;
#X obj 1648 404 s a48;
#X obj 1735 364 r c49;
#X obj 1777 364 r a49;
#X obj 1735 404 s a49;
#X obj 1821 364 r c50;
#X obj 1863 364 r a50;
#X obj 1821 244 r c30;
#X obj 1821 284 s a30;
#X obj 1821 344 s a40;
#X obj 1821 404 s a50;
#X obj 1045 443 dead_alive;
#X obj 1045 423 r c51;
#X obj 1087 423 r a51;
#X obj 1045 463 s a51;
#X obj 1131 444 dead_alive;
#X obj 1217 444 dead_alive;
#X obj 1303 444 dead_alive;
#X obj 1390 444 dead_alive;
#X obj 1476 444 dead_alive;
#X obj 1562 444 dead_alive;
#X obj 1648 444 dead_alive;
#X obj 1735 444 dead_alive;
#X obj 1821 444 dead_alive;
#X obj 1131 424 r c52;
#X obj 1173 424 r a52;
#X obj 1131 464 s a52;
#X obj 1217 424 r c53;
#X obj 1259 424 r a53;
#X obj 1217 464 s a53;
#X obj 1303 424 r c54;
#X obj 1345 424 r a54;
#X obj 1303 464 s a54;
#X obj 1390 464 s a55;
#X obj 1390 424 r c55;
#X obj 1432 424 r a55;
#X obj 1518 424 r a56;
#X obj 1476 464 s a56;
#X obj 1476 424 r c56;
#X obj 1562 424 r c57;
#X obj 1604 424 r a57;
#X obj 1562 464 s a57;
#X obj 1648 424 r c58;
#X obj 1690 424 r a58;
#X obj 1648 464 s a58;
#X obj 1735 424 r c59;
#X obj 1777 424 r a59;
#X obj 1735 464 s a59;
#X obj 1821 424 r c60;
#X obj 1863 424 r a60;
#X obj 1821 464 s a60;
#X obj 1045 504 dead_alive;
#X obj 1131 504 dead_alive;
#X obj 1217 504 dead_alive;
#X obj 1303 504 dead_alive;
#X obj 1390 504 dead_alive;
#X obj 1476 504 dead_alive;
#X obj 1562 504 dead_alive;
#X obj 1648 504 dead_alive;
#X obj 1735 504 dead_alive;
#X obj 1821 504 dead_alive;
#X obj 1087 484 r a61;
#X obj 1046 524 s a61;
#X obj 1173 484 r a62;
#X obj 1131 524 s a62;
#X obj 1131 484 r c62;
#X obj 1217 484 r c63;
#X obj 1259 484 r a63;
#X obj 1217 524 s a63;
#X obj 1303 484 r c64;
#X obj 1345 484 r a64;
#X obj 1303 524 s a64;
#X obj 1390 484 r c65;
#X obj 1432 484 r a65;
#X obj 1390 524 s a65;
#X obj 1476 484 r c66;
#X obj 1518 484 r a66;
#X obj 1476 524 s a66;
#X obj 1562 484 r c67;
#X obj 1604 484 r a67;
#X obj 1562 524 s a67;
#X obj 1648 484 r c68;
#X obj 1690 484 r a68;
#X obj 1648 524 s a68;
#X obj 1735 484 r c69;
#X obj 1777 484 r a69;
#X obj 1735 524 s a69;
#X obj 1821 484 r c70;
#X obj 1863 484 r a70;
#X obj 1821 524 s a70;
#X obj 1045 484 r c61;
#X obj 1045 564 dead_alive;
#X obj 1045 544 r c71;
#X obj 1087 544 r a71;
#X obj 1045 584 s a71;
#X obj 1131 564 dead_alive;
#X obj 1217 564 dead_alive;
#X obj 1303 564 dead_alive;
#X obj 1390 564 dead_alive;
#X obj 1476 564 dead_alive;
#X obj 1562 564 dead_alive;
#X obj 1648 564 dead_alive;
#X obj 1735 564 dead_alive;
#X obj 1821 564 dead_alive;
#X obj 1131 544 r c72;
#X obj 1173 544 r a72;
#X obj 1131 584 s a72;
#X obj 1217 544 r c73;
#X obj 1259 544 r a73;
#X obj 1217 584 s a73;
#X obj 1303 544 r c74;
#X obj 1345 544 r a74;
#X obj 1303 584 s a74;
#X obj 1390 584 s a75;
#X obj 1390 544 r c75;
#X obj 1432 544 r a75;
#X obj 1518 544 r a76;
#X obj 1476 584 s a76;
#X obj 1476 544 r c76;
#X obj 1562 544 r c77;
#X obj 1604 544 r a77;
#X obj 1562 584 s a77;
#X obj 1648 544 r c78;
#X obj 1690 544 r a78;
#X obj 1648 584 s a78;
#X obj 1735 544 r c79;
#X obj 1777 544 r a79;
#X obj 1735 584 s a79;
#X obj 1045 624 dead_alive;
#X obj 1131 624 dead_alive;
#X obj 1217 624 dead_alive;
#X obj 1303 624 dead_alive;
#X obj 1390 624 dead_alive;
#X obj 1476 624 dead_alive;
#X obj 1562 624 dead_alive;
#X obj 1648 624 dead_alive;
#X obj 1735 624 dead_alive;
#X obj 1821 624 dead_alive;
#X obj 1087 604 r a81;
#X obj 1046 644 s a81;
#X obj 1173 604 r a82;
#X obj 1131 644 s a82;
#X obj 1131 604 r c82;
#X obj 1217 604 r c83;
#X obj 1259 604 r a83;
#X obj 1217 644 s a83;
#X obj 1303 604 r c84;
#X obj 1345 604 r a84;
#X obj 1303 644 s a84;
#X obj 1390 604 r c85;
#X obj 1432 604 r a85;
#X obj 1390 644 s a85;
#X obj 1476 604 r c86;
#X obj 1518 604 r a86;
#X obj 1476 644 s a86;
#X obj 1562 604 r c87;
#X obj 1604 604 r a87;
#X obj 1562 644 s a87;
#X obj 1648 604 r c88;
#X obj 1690 604 r a88;
#X obj 1648 644 s a88;
#X obj 1735 604 r c89;
#X obj 1777 604 r a89;
#X obj 1735 644 s a89;
#X obj 1045 604 r c81;
#X obj 1863 544 r a80;
#X obj 1045 684 dead_alive;
#X obj 1045 664 r c91;
#X obj 1087 664 r a91;
#X obj 1045 704 s a91;
#X obj 1131 684 dead_alive;
#X obj 1217 684 dead_alive;
#X obj 1303 684 dead_alive;
#X obj 1390 684 dead_alive;
#X obj 1476 684 dead_alive;
#X obj 1562 684 dead_alive;
#X obj 1648 684 dead_alive;
#X obj 1735 684 dead_alive;
#X obj 1821 684 dead_alive;
#X obj 1131 664 r c92;
#X obj 1173 664 r a92;
#X obj 1131 704 s a92;
#X obj 1217 664 r c93;
#X obj 1259 664 r a93;
#X obj 1217 704 s a93;
#X obj 1303 664 r c94;
#X obj 1345 664 r a94;
#X obj 1303 704 s a94;
#X obj 1390 704 s a95;
#X obj 1390 664 r c95;
#X obj 1432 664 r a95;
#X obj 1518 664 r a96;
#X obj 1476 704 s a96;
#X obj 1476 664 r c96;
#X obj 1562 664 r c97;
#X obj 1604 664 r a97;
#X obj 1562 704 s a97;
#X obj 1648 664 r c98;
#X obj 1690 664 r a98;
#X obj 1648 704 s a98;
#X obj 1735 664 r c99;
#X obj 1777 664 r a99;
#X obj 1735 704 s a99;
#X obj 1821 544 r c80;
#X obj 1821 584 s a80;
#X obj 1821 604 r c90;
#X obj 1863 604 r a90;
#X obj 1821 644 s a90;
#X obj 1821 664 r c100;
#X obj 1863 664 r a100;
#X obj 1821 704 s a100;
#X obj -46 41 loadbang;
#X msg -46 64 \; c1 1 \; c2 2 \; c3 3 \; c4 4 \; c5 5 \; c6 6 \; c7
7 \; c8 8 \; c9 9 \; c10 10 \; c11 11 \; c12 12 \; c13 13 \; c14 14
\; c15 15 \; c16 16 \; c17 17 \; c18 18 \; c19 19 \; c20 20 \; c21
21 \; c22 22 \; c23 23 \; c24 24 \; c25 25 \; c26 26 \; c27 27 \; c28
28 \; c29 29 \; c30 30 \; c31 31 \; c32 32 \; c33 33 \; c34 34 \; c35
35 \; c36 36 \; c37 37 \; c38 38 \; c39 39 \; c40 40 \; c41 41 \; c42
42 \; c43 43 \; c44 44 \; c45 45 \; c46 46 \; c47 47 \; c48 48 \; c49
49 \; c50 50 \; c51 51 \; c52 52 \; c53 53 \; c54 54 \; c55 55 \; c56
56 \; c57 57 \; c58 58 \; c59 59 \; c60 60 \; c61 61 \; c62 62 \; c63
63 \; c64 64 \; c65 65 \; c66 66 \; c67 67 \; c68 68 \; c69 69 \; c70
70 \; c71 71 \; c72 72 \; c73 73 \; c74 74 \; c75 75 \; c76 76 \; c77
77 \; c78 78 \; c79 79 \; c80 80 \; c81 81 \; c82 82 \; c83 83 \; c84
84 \; c85 85 \; c86 86 \; c87 87 \; c88 88 \; c89 89 \; c90 90 \; c91
91 \; c92 92 \; c93 93 \; c94 94 \; c95 95 \; c96 96 \; c97 97 \; c98
98 \; c99 99 \; c100 100 \; c101 101 \; c102 102 \; c103 103 \; c104
104 \; c105 105 \; c106 106 \; c107 107 \; c108 108 \; c109 109 \;
c110 110 \; c111 111 \; c112 112 \; c113 113 \; c114 114 \; c115 115
\; c116 116 \; c117 117 \; c118 118 \; c119 119 \; c120 120 \; c121
121 \; c122 122 \; c123 123 \; c124 124 \; c125 125 \; c126 126 \;
c127 127 \; c128 128 \; c129 129 \; c130 130 \; c131 131 \; c132 132
\; c133 133 \; c134 134 \; c135 135 \; c136 136 \; c137 137 \; c138
138 \; c139 139 \; c140 140 \; c141 141 \; c142 142 \; c143 143 \;
c144 144 \; c145 145 \; c146 146 \; c147 147 \; c148 148 \; c149 149
\; c150 150 \; c151 151 \; c152 152 \; c153 153 \; c154 154 \; c155
155 \; c156 156 \; c157 157 \; c158 158 \; c159 159 \; c160 160 \;
c161 161 \; c162 162 \; c163 163 \; c164 164 \; c165 165 \; c166 166
\; c167 167 \; c168 168 \; c169 169 \; c170 170 \; c171 171 \; c172
172 \; c173 173 \; c174 174 \; c175 175 \; c176 176 \; c177 177 \;
c178 178 \; c179 179 \; c180 180 \; c181 181 \; c182 182 \; c183 183
\; c184 184 \; c185 185 \; c186 186 \; c187 187 \; c188 188 \; c189
189 \; c190 190 \; c191 191 \; c192 192 \; c193 193 \; c194 194 \;
c195 195 \; c196 196 \; c197 197 \; c198 198 \; c199 199 \; c200 200
\; c201 201 \; c202 202 \; c203 203 \; c204 204 \; c205 205 \; c206
206 \; c207 207 \; c208 208 \; c209 209 \; c210 210 \; c211 211 \;
c212 212 \; c213 213 \; c214 214 \; c215 215 \; c216 216 \; c217 217
\; c218 218 \; c219 219 \; c220 220 \; c221 221 \; c222 222 \; c223
223 \; c224 224 \; c225 225 \; c226 226 \; c227 227 \; c228 228 \;
c229 229 \; c230 230 \; c231 231 \; c232 232 \; c233 233 \; c234 234
\; c235 235 \; c236 236 \; c237 237 \; c238 238 \; c239 239 \; c240
240 \; c241 241 \; c242 242 \; c243 243 \; c244 244 \; c245 245 \;
c246 246 \; c247 247 \; c248 248 \; c249 249 \; c250 250 \; c251 251
\; c252 252 \; c253 253 \; c254 254 \; c255 255 \; c256 256;
#X obj 1821 124 r c10;
#X obj 1863 124 r a10;
#X obj 1821 164 s a10;
#X msg 85 63 \; a1 0 \; a2 0 \; a3 0 \; a4 0 \; a5 0 \; a6 0 \; a7
0 \; a8 0 \; a9 0 \; a10 0 \; a11 0 \; a12 0 \; a13 0 \; a14 0 \; a15
0 \; a16 0 \; a17 0 \; a18 0 \; a19 0 \; a20 0 \; a21 0 \; a22 0 \;
a23 0 \; a24 0 \; a25 0 \; a26 0 \; a27 0 \; a28 0 \; a29 0 \; a30
0 \; a31 0 \; a32 0 \; a33 0 \; a34 0 \; a35 0 \; a36 0 \; a37 0 \;
a38 0 \; a39 0 \; a40 0 \; a41 0 \; a42 0 \; a43 0 \; a44 0 \; a45
0 \; a46 0 \; a47 0 \; a48 0 \; a49 0 \; a50 0 \; a51 0 \; a52 0 \;
a53 0 \; a54 0 \; a55 0 \; a56 0 \; a57 0 \; a58 0 \; a59 0 \; a60
0 \; a61 0 \; a62 0 \; a63 0 \; a64 0 \; a65 0 \; a66 0 \; a67 0 \;
a68 0 \; a69 0 \; a70 0 \; a71 0 \; a72 0 \; a73 0 \; a74 0 \; a75
0 \; a76 0 \; a77 0 \; a78 0 \; a79 0 \; a80 0 \; a81 0 \; a82 0 \;
a83 0 \; a84 0 \; a85 0 \; a86 0 \; a87 0 \; a88 0 \; a89 0 \; a90
0 \; a91 0 \; a92 0 \; a93 0 \; a94 0 \; a95 0 \; a96 0 \; a97 0 \;
a98 0 \; a99 0 \; a100 0 \; a101 0 \; a102 0 \; a103 0 \; a104 0 \;
a105 0 \; a106 0 \; a107 0 \; a108 0 \; a109 0 \; a110 0 \; a111 0
\; a112 0 \; a113 0 \; a114 0 \; a115 0 \; a116 0 \; a117 0 \; a118
0 \; a119 0 \; a120 0 \; a121 0 \; a122 0 \; a123 0 \; a124 0 \; a125
0 \; a126 0 \; a127 0 \; a128 0 \; a129 0 \; a130 0 \; a131 0 \; a132
0 \; a133 0 \; a134 0 \; a135 0 \; a136 0 \; a137 0 \; a138 0 \; a139
0 \; a140 0 \; a141 0 \; a142 0 \; a143 0 \; a144 0 \; a145 0 \; a146
0 \; a147 0 \; a148 0 \; a149 0 \; a150 0 \; a151 0 \; a152 0 \; a153
0 \; a154 0 \; a155 0 \; a156 0 \; a157 0 \; a158 0 \; a159 0 \; a160
0 \; a161 0 \; a162 0 \; a163 0 \; a164 0 \; a165 0 \; a166 0 \; a167
0 \; a168 0 \; a169 0 \; a170 0 \; a171 0 \; a172 0 \; a173 0 \; a174
0 \; a175 0 \; a176 0 \; a177 0 \; a178 0 \; a179 0 \; a180 0 \; a181
0 \; a182 0 \; a183 0 \; a184 0 \; a185 0 \; a186 0 \; a187 0 \; a188
0 \; a189 0 \; a190 0 \; a191 0 \; a192 0 \; a193 0 \; a194 0 \; a195
0 \; a196 0 \; a197 0 \; a198 0 \; a199 0 \; a200 0 \; a201 0 \; a202
0 \; a203 0 \; a204 0 \; a205 0 \; a206 0 \; a207 0 \; a208 0 \; a209
0 \; a210 0 \; a211 0 \; a212 0 \; a213 0 \; a214 0 \; a215 0 \; a216
0 \; a217 0 \; a218 0 \; a219 0 \; a220 0 \; a221 0 \; a222 0 \; a223
0 \; a224 0 \; a225 0 \; a226 0 \; a227 0 \; a228 0 \; a229 0 \; a230
0 \; a231 0 \; a232 0 \; a233 0 \; a234 0 \; a235 0 \; a236 0 \; a237
0 \; a238 0 \; a239 0 \; a240 0 \; a241 0 \; a242 0 \; a243 0 \; a244
0 \; a245 0 \; a246 0 \; a247 0 \; a248 0 \; a249 0 \; a250 0 \; a251
0 \; a252 0 \; a253 0 \; a254 0 \; a255 0 \; a256 0;
#X obj 65 26 r all_on;
#X obj 129 27 r all_off;
#X obj -45 -4 r load;
#X obj -46 18 table gol 256;
#X msg 23 65 \; a1 1 \; a2 1 \; a3 1 \; a4 1 \; a5 1 \; a6 1 \; a7
1 \; a8 1 \; a9 1 \; a10 1 \; a11 1 \; a12 1 \; a13 1 \; a14 1 \; a15
1 \; a16 1 \; a17 1 \; a18 1 \; a19 1 \; a20 1 \; a21 1 \; a22 1 \;
a23 1 \; a24 1 \; a25 1 \; a26 1 \; a27 1 \; a28 1 \; a29 1 \; a30
1 \; a31 1 \; a32 1 \; a33 1 \; a34 1 \; a35 1 \; a36 1 \; a37 1 \;
a38 1 \; a39 1 \; a40 1 \; a41 1 \; a42 1 \; a43 1 \; a44 1 \; a45
1 \; a46 1 \; a47 1 \; a48 1 \; a49 1 \; a50 1 \; a51 1 \; a52 1 \;
a53 1 \; a54 1 \; a55 1 \; a56 1 \; a57 1 \; a58 1 \; a59 1 \; a60
1 \; a61 1 \; a62 1 \; a63 1 \; a64 1 \; a65 1 \; a66 1 \; a67 1 \;
a68 1 \; a69 1 \; a70 1 \; a71 1 \; a72 1 \; a73 1 \; a74 1 \; a75
1 \; a76 1 \; a77 1 \; a78 1 \; a79 1 \; a80 1 \; a81 1 \; a82 1 \;
a83 1 \; a84 1 \; a85 1 \; a86 1 \; a87 1 \; a88 1 \; a89 1 \; a90
1 \; a91 1 \; a92 1 \; a93 1 \; a94 1 \; a95 1 \; a96 1 \; a97 1 \;
a98 1 \; a99 1 \; a100 1 \; a101 1 \; a102 1 \; a103 1 \; a104 1 \;
a105 1 \; a106 1 \; a107 1 \; a108 1 \; a109 1 \; a110 1 \; a111 1
\; a112 1 \; a113 1 \; a114 1 \; a115 1 \; a116 1 \; a117 1 \; a118
1 \; a119 1 \; a120 1 \; a121 1 \; a122 1 \; a123 1 \; a124 1 \; a125
1 \; a126 1 \; a127 1 \; a128 1 \; a129 1 \; a130 1 \; a131 1 \; a132
1 \; a133 1 \; a134 1 \; a135 1 \; a136 1 \; a137 1 \; a138 1 \; a139
1 \; a140 1 \; a141 1 \; a142 1 \; a143 1 \; a144 1 \; a145 1 \; a146
1 \; a147 1 \; a148 1 \; a149 1 \; a150 1 \; a151 1 \; a152 1 \; a153
1 \; a154 1 \; a155 1 \; a156 1 \; a157 1 \; a158 1 \; a159 1 \; a160
1 \; a161 1 \; a162 1 \; a163 1 \; a164 1 \; a165 1 \; a166 1 \; a167
1 \; a168 1 \; a169 1 \; a170 1 \; a171 1 \; a172 1 \; a173 1 \; a174
1 \; a175 1 \; a176 1 \; a177 1 \; a178 1 \; a179 1 \; a180 1 \; a181
1 \; a182 1 \; a183 1 \; a184 1 \; a185 1 \; a186 1 \; a187 1 \; a188
1 \; a189 1 \; a190 1 \; a191 1 \; a192 1 \; a193 1 \; a194 1 \; a195
1 \; a196 1 \; a197 1 \; a198 1 \; a199 1 \; a200 1 \; a201 1 \; a202
1 \; a203 1 \; a204 1 \; a205 1 \; a206 1 \; a207 1 \; a208 1 \; a209
1 \; a210 1 \; a211 1 \; a212 1 \; a213 1 \; a214 1 \; a215 1 \; a216
1 \; a217 1 \; a218 1 \; a219 1 \; a220 1 \; a221 1 \; a222 1 \; a223
1 \; a224 1 \; a225 1 \; a226 1 \; a227 1 \; a228 1 \; a229 1 \; a230
1 \; a231 1 \; a232 1 \; a233 1 \; a234 1 \; a235 1 \; a236 1 \; a237
1 \; a238 1 \; a239 1 \; a240 1 \; a241 1 \; a242 1 \; a243 1 \; a244
1 \; a245 1 \; a246 1 \; a247 1 \; a248 1 \; a249 1 \; a250 1 \; a251
1 \; a252 1 \; a253 1 \; a254 1 \; a255 1 \; a256 1;
#X connect 0 0 600 0;
#X connect 1 0 601 0;
#X connect 2 0 602 0;
#X connect 3 0 603 0;
#X connect 4 0 604 0;
#X connect 5 0 605 0;
#X connect 6 0 606 0;
#X connect 7 0 607 0;
#X connect 8 0 608 0;
#X connect 9 0 12 0;
#X connect 10 0 9 0;
#X connect 11 0 9 1;
#X connect 13 0 24 0;
#X connect 14 0 26 0;
#X connect 15 0 30 0;
#X connect 16 0 33 0;
#X connect 17 0 36 0;
#X connect 18 0 39 0;
#X connect 19 0 42 0;
#X connect 20 0 45 0;
#X connect 21 0 48 0;
#X connect 22 0 51 0;
#X connect 23 0 13 1;
#X connect 25 0 14 1;
#X connect 27 0 14 0;
#X connect 28 0 15 0;
#X connect 29 0 15 1;
#X connect 31 0 16 0;
#X connect 32 0 16 1;
#X connect 34 0 17 0;
#X connect 35 0 17 1;
#X connect 37 0 18 0;
#X connect 38 0 18 1;
#X connect 40 0 19 0;
#X connect 41 0 19 1;
#X connect 43 0 20 0;
#X connect 44 0 20 1;
#X connect 46 0 21 0;
#X connect 47 0 21 1;
#X connect 49 0 22 0;
#X connect 50 0 22 1;
#X connect 52 0 13 0;
#X connect 53 0 56 0;
#X connect 54 0 53 0;
#X connect 55 0 53 1;
#X connect 57 0 68 0;
#X connect 58 0 71 0;
#X connect 59 0 74 0;
#X connect 60 0 75 0;
#X connect 61 0 79 0;
#X connect 62 0 83 0;
#X connect 63 0 86 0;
#X connect 64 0 89 0;
#X connect 65 0 170 0;
#X connect 66 0 57 0;
#X connect 67 0 57 1;
#X connect 69 0 58 0;
#X connect 70 0 58 1;
#X connect 72 0 59 0;
#X connect 73 0 59 1;
#X connect 76 0 60 0;
#X connect 77 0 60 1;
#X connect 78 0 61 1;
#X connect 80 0 61 0;
#X connect 81 0 62 0;
#X connect 82 0 62 1;
#X connect 84 0 63 0;
#X connect 85 0 63 1;
#X connect 87 0 64 0;
#X connect 88 0 64 1;
#X connect 90 0 101 0;
#X connect 91 0 103 0;
#X connect 92 0 107 0;
#X connect 93 0 110 0;
#X connect 94 0 113 0;
#X connect 95 0 116 0;
#X connect 96 0 119 0;
#X connect 97 0 122 0;
#X connect 98 0 125 0;
#X connect 99 0 171 0;
#X connect 100 0 90 1;
#X connect 102 0 91 1;
#X connect 104 0 91 0;
#X connect 105 0 92 0;
#X connect 106 0 92 1;
#X connect 108 0 93 0;
#X connect 109 0 93 1;
#X connect 111 0 94 0;
#X connect 112 0 94 1;
#X connect 114 0 95 0;
#X connect 115 0 95 1;
#X connect 117 0 96 0;
#X connect 118 0 96 1;
#X connect 120 0 97 0;
#X connect 121 0 97 1;
#X connect 123 0 98 0;
#X connect 124 0 98 1;
#X connect 126 0 99 0;
#X connect 127 0 99 1;
#X connect 128 0 90 0;
#X connect 129 0 65 1;
#X connect 130 0 133 0;
#X connect 131 0 130 0;
#X connect 132 0 130 1;
#X connect 134 0 145 0;
#X connect 135 0 148 0;
#X connect 136 0 151 0;
#X connect 137 0 152 0;
#X connect 138 0 156 0;
#X connect 139 0 160 0;
#X connect 140 0 163 0;
#X connect 141 0 166 0;
#X connect 142 0 172 0;
#X connect 143 0 134 0;
#X connect 144 0 134 1;
#X connect 146 0 135 0;
#X connect 147 0 135 1;
#X connect 149 0 136 0;
#X connect 150 0 136 1;
#X connect 153 0 137 0;
#X connect 154 0 137 1;
#X connect 155 0 138 1;
#X connect 157 0 138 0;
#X connect 158 0 139 0;
#X connect 159 0 139 1;
#X connect 161 0 140 0;
#X connect 162 0 140 1;
#X connect 164 0 141 0;
#X connect 165 0 141 1;
#X connect 167 0 142 0;
#X connect 168 0 142 1;
#X connect 169 0 65 0;
#X connect 173 0 176 0;
#X connect 174 0 173 0;
#X connect 175 0 173 1;
#X connect 177 0 188 0;
#X connect 178 0 191 0;
#X connect 179 0 194 0;
#X connect 180 0 195 0;
#X connect 181 0 199 0;
#X connect 182 0 203 0;
#X connect 183 0 206 0;
#X connect 184 0 209 0;
#X connect 185 0 212 0;
#X connect 186 0 177 0;
#X connect 187 0 177 1;
#X connect 189 0 178 0;
#X connect 190 0 178 1;
#X connect 192 0 179 0;
#X connect 193 0 179 1;
#X connect 196 0 180 0;
#X connect 197 0 180 1;
#X connect 198 0 181 1;
#X connect 200 0 181 0;
#X connect 201 0 182 0;
#X connect 202 0 182 1;
#X connect 204 0 183 0;
#X connect 205 0 183 1;
#X connect 207 0 184 0;
#X connect 208 0 184 1;
#X connect 210 0 185 0;
#X connect 211 0 185 1;
#X connect 213 0 224 0;
#X connect 214 0 226 0;
#X connect 215 0 230 0;
#X connect 216 0 233 0;
#X connect 217 0 236 0;
#X connect 218 0 239 0;
#X connect 219 0 242 0;
#X connect 220 0 245 0;
#X connect 221 0 248 0;
#X connect 222 0 251 0;
#X connect 223 0 213 1;
#X connect 225 0 214 1;
#X connect 227 0 214 0;
#X connect 228 0 215 0;
#X connect 229 0 215 1;
#X connect 231 0 216 0;
#X connect 232 0 216 1;
#X connect 234 0 217 0;
#X connect 235 0 217 1;
#X connect 237 0 218 0;
#X connect 238 0 218 1;
#X connect 240 0 219 0;
#X connect 241 0 219 1;
#X connect 243 0 220 0;
#X connect 244 0 220 1;
#X connect 246 0 221 0;
#X connect 247 0 221 1;
#X connect 249 0 222 0;
#X connect 250 0 222 1;
#X connect 252 0 213 0;
#X connect 253 0 256 0;
#X connect 254 0 253 0;
#X connect 255 0 253 1;
#X connect 257 0 268 0;
#X connect 258 0 271 0;
#X connect 259 0 274 0;
#X connect 260 0 275 0;
#X connect 261 0 279 0;
#X connect 262 0 283 0;
#X connect 263 0 286 0;
#X connect 264 0 289 0;
#X connect 265 0 366 0;
#X connect 266 0 257 0;
#X connect 267 0 257 1;
#X connect 269 0 258 0;
#X connect 270 0 258 1;
#X connect 272 0 259 0;
#X connect 273 0 259 1;
#X connect 276 0 260 0;
#X connect 277 0 260 1;
#X connect 278 0 261 1;
#X connect 280 0 261 0;
#X connect 281 0 262 0;
#X connect 282 0 262 1;
#X connect 284 0 263 0;
#X connect 285 0 263 1;
#X connect 287 0 264 0;
#X connect 288 0 264 1;
#X connect 290 0 301 0;
#X connect 291 0 303 0;
#X connect 292 0 307 0;
#X connect 293 0 310 0;
#X connect 294 0 313 0;
#X connect 295 0 316 0;
#X connect 296 0 319 0;
#X connect 297 0 322 0;
#X connect 298 0 325 0;
#X connect 299 0 369 0;
#X connect 300 0 290 1;
#X connect 302 0 291 1;
#X connect 304 0 291 0;
#X connect 305 0 292 0;
#X connect 306 0 292 1;
#X connect 308 0 293 0;
#X connect 309 0 293 1;
#X connect 311 0 294 0;
#X connect 312 0 294 1;
#X connect 314 0 295 0;
#X connect 315 0 295 1;
#X connect 317 0 296 0;
#X connect 318 0 296 1;
#X connect 320 0 297 0;
#X connect 321 0 297 1;
#X connect 323 0 298 0;
#X connect 324 0 298 1;
#X connect 326 0 290 0;
#X connect 327 0 265 1;
#X connect 328 0 331 0;
#X connect 329 0 328 0;
#X connect 330 0 328 1;
#X connect 332 0 343 0;
#X connect 333 0 346 0;
#X connect 334 0 349 0;
#X connect 335 0 350 0;
#X connect 336 0 354 0;
#X connect 337 0 358 0;
#X connect 338 0 361 0;
#X connect 339 0 364 0;
#X connect 340 0 372 0;
#X connect 341 0 332 0;
#X connect 342 0 332 1;
#X connect 344 0 333 0;
#X connect 345 0 333 1;
#X connect 347 0 334 0;
#X connect 348 0 334 1;
#X connect 351 0 335 0;
#X connect 352 0 335 1;
#X connect 353 0 336 1;
#X connect 355 0 336 0;
#X connect 356 0 337 0;
#X connect 357 0 337 1;
#X connect 359 0 338 0;
#X connect 360 0 338 1;
#X connect 362 0 339 0;
#X connect 363 0 339 1;
#X connect 365 0 265 0;
#X connect 367 0 299 0;
#X connect 368 0 299 1;
#X connect 370 0 340 0;
#X connect 371 0 340 1;
#X connect 373 0 572 0;
#X connect 374 0 574 0;
#X connect 375 0 575 0;
#X connect 376 0 576 0;
#X connect 377 0 577 0;
#X connect 378 0 578 0;
#X connect 379 0 579 0;
#X connect 380 0 580 0;
#X connect 381 0 581 0;
#X connect 382 0 385 0;
#X connect 383 0 382 0;
#X connect 384 0 382 1;
#X connect 386 0 397 0;
#X connect 387 0 399 0;
#X connect 388 0 403 0;
#X connect 389 0 406 0;
#X connect 390 0 409 0;
#X connect 391 0 412 0;
#X connect 392 0 415 0;
#X connect 393 0 418 0;
#X connect 394 0 421 0;
#X connect 395 0 424 0;
#X connect 396 0 386 1;
#X connect 398 0 387 1;
#X connect 400 0 387 0;
#X connect 401 0 388 0;
#X connect 402 0 388 1;
#X connect 404 0 389 0;
#X connect 405 0 389 1;
#X connect 407 0 390 0;
#X connect 408 0 390 1;
#X connect 410 0 391 0;
#X connect 411 0 391 1;
#X connect 413 0 392 0;
#X connect 414 0 392 1;
#X connect 416 0 393 0;
#X connect 417 0 393 1;
#X connect 419 0 394 0;
#X connect 420 0 394 1;
#X connect 422 0 395 0;
#X connect 423 0 395 1;
#X connect 425 0 386 0;
#X connect 426 0 429 0;
#X connect 427 0 426 0;
#X connect 428 0 426 1;
#X connect 430 0 441 0;
#X connect 431 0 444 0;
#X connect 432 0 447 0;
#X connect 433 0 448 0;
#X connect 434 0 452 0;
#X connect 435 0 456 0;
#X connect 436 0 459 0;
#X connect 437 0 462 0;
#X connect 438 0 543 0;
#X connect 439 0 430 0;
#X connect 440 0 430 1;
#X connect 442 0 431 0;
#X connect 443 0 431 1;
#X connect 445 0 432 0;
#X connect 446 0 432 1;
#X connect 449 0 433 0;
#X connect 450 0 433 1;
#X connect 451 0 434 1;
#X connect 453 0 434 0;
#X connect 454 0 435 0;
#X connect 455 0 435 1;
#X connect 457 0 436 0;
#X connect 458 0 436 1;
#X connect 460 0 437 0;
#X connect 461 0 437 1;
#X connect 463 0 474 0;
#X connect 464 0 476 0;
#X connect 465 0 480 0;
#X connect 466 0 483 0;
#X connect 467 0 486 0;
#X connect 468 0 489 0;
#X connect 469 0 492 0;
#X connect 470 0 495 0;
#X connect 471 0 498 0;
#X connect 472 0 544 0;
#X connect 473 0 463 1;
#X connect 475 0 464 1;
#X connect 477 0 464 0;
#X connect 478 0 465 0;
#X connect 479 0 465 1;
#X connect 481 0 466 0;
#X connect 482 0 466 1;
#X connect 484 0 467 0;
#X connect 485 0 467 1;
#X connect 487 0 468 0;
#X connect 488 0 468 1;
#X connect 490 0 469 0;
#X connect 491 0 469 1;
#X connect 493 0 470 0;
#X connect 494 0 470 1;
#X connect 496 0 471 0;
#X connect 497 0 471 1;
#X connect 499 0 472 0;
#X connect 500 0 472 1;
#X connect 501 0 463 0;
#X connect 502 0 438 1;
#X connect 503 0 506 0;
#X connect 504 0 503 0;
#X connect 505 0 503 1;
#X connect 507 0 518 0;
#X connect 508 0 521 0;
#X connect 509 0 524 0;
#X connect 510 0 525 0;
#X connect 511 0 529 0;
#X connect 512 0 533 0;
#X connect 513 0 536 0;
#X connect 514 0 539 0;
#X connect 515 0 545 0;
#X connect 516 0 507 0;
#X connect 517 0 507 1;
#X connect 519 0 508 0;
#X connect 520 0 508 1;
#X connect 522 0 509 0;
#X connect 523 0 509 1;
#X connect 526 0 510 0;
#X connect 527 0 510 1;
#X connect 528 0 511 1;
#X connect 530 0 511 0;
#X connect 531 0 512 0;
#X connect 532 0 512 1;
#X connect 534 0 513 0;
#X connect 535 0 513 1;
#X connect 537 0 514 0;
#X connect 538 0 514 1;
#X connect 540 0 515 0;
#X connect 541 0 515 1;
#X connect 542 0 438 0;
#X connect 546 0 549 0;
#X connect 547 0 546 0;
#X connect 548 0 546 1;
#X connect 550 0 557 0;
#X connect 551 0 560 0;
#X connect 552 0 563 0;
#X connect 553 0 564 0;
#X connect 554 0 568 0;
#X connect 555 0 550 0;
#X connect 556 0 550 1;
#X connect 558 0 551 0;
#X connect 559 0 551 1;
#X connect 561 0 552 0;
#X connect 562 0 552 1;
#X connect 565 0 553 0;
#X connect 566 0 553 1;
#X connect 567 0 554 1;
#X connect 569 0 554 0;
#X connect 570 0 373 1;
#X connect 571 0 373 0;
#X connect 573 0 374 0;
#X connect 582 0 381 1;
#X connect 583 0 381 0;
#X connect 584 0 380 1;
#X connect 585 0 380 0;
#X connect 586 0 379 1;
#X connect 587 0 379 0;
#X connect 588 0 378 1;
#X connect 589 0 378 0;
#X connect 590 0 377 1;
#X connect 591 0 377 0;
#X connect 592 0 376 1;
#X connect 593 0 376 0;
#X connect 594 0 375 1;
#X connect 595 0 375 0;
#X connect 596 0 374 1;
#X connect 597 0 0 0;
#X connect 598 0 0 1;
#X connect 599 0 1 0;
#X connect 609 0 8 1;
#X connect 610 0 8 0;
#X connect 611 0 7 1;
#X connect 612 0 7 0;
#X connect 613 0 6 1;
#X connect 614 0 6 0;
#X connect 615 0 5 1;
#X connect 616 0 5 0;
#X connect 617 0 4 1;
#X connect 618 0 4 0;
#X connect 619 0 3 1;
#X connect 620 0 3 0;
#X connect 621 0 2 1;
#X connect 622 0 2 0;
#X connect 623 0 1 1;
#X connect 624 0 627 0;
#X connect 625 0 624 0;
#X connect 626 0 624 1;
#X connect 628 0 639 0;
#X connect 629 0 642 0;
#X connect 630 0 645 0;
#X connect 631 0 646 0;
#X connect 632 0 650 0;
#X connect 633 0 654 0;
#X connect 634 0 657 0;
#X connect 635 0 660 0;
#X connect 636 0 1025 0;
#X connect 637 0 628 0;
#X connect 638 0 628 1;
#X connect 640 0 629 0;
#X connect 641 0 629 1;
#X connect 643 0 630 0;
#X connect 644 0 630 1;
#X connect 647 0 631 0;
#X connect 648 0 631 1;
#X connect 649 0 632 1;
#X connect 651 0 632 0;
#X connect 652 0 633 0;
#X connect 653 0 633 1;
#X connect 655 0 634 0;
#X connect 656 0 634 1;
#X connect 658 0 635 0;
#X connect 659 0 635 1;
#X connect 661 0 672 0;
#X connect 662 0 674 0;
#X connect 663 0 678 0;
#X connect 664 0 681 0;
#X connect 665 0 684 0;
#X connect 666 0 687 0;
#X connect 667 0 690 0;
#X connect 668 0 693 0;
#X connect 669 0 696 0;
#X connect 670 0 699 0;
#X connect 671 0 661 1;
#X connect 673 0 662 1;
#X connect 675 0 662 0;
#X connect 676 0 663 0;
#X connect 677 0 663 1;
#X connect 679 0 664 0;
#X connect 680 0 664 1;
#X connect 682 0 665 0;
#X connect 683 0 665 1;
#X connect 685 0 666 0;
#X connect 686 0 666 1;
#X connect 688 0 667 0;
#X connect 689 0 667 1;
#X connect 691 0 668 0;
#X connect 692 0 668 1;
#X connect 694 0 669 0;
#X connect 695 0 669 1;
#X connect 697 0 670 0;
#X connect 698 0 670 1;
#X connect 700 0 661 0;
#X connect 701 0 704 0;
#X connect 702 0 701 0;
#X connect 703 0 701 1;
#X connect 705 0 716 0;
#X connect 706 0 719 0;
#X connect 707 0 722 0;
#X connect 708 0 723 0;
#X connect 709 0 727 0;
#X connect 710 0 731 0;
#X connect 711 0 734 0;
#X connect 712 0 737 0;
#X connect 713 0 818 0;
#X connect 714 0 705 0;
#X connect 715 0 705 1;
#X connect 717 0 706 0;
#X connect 718 0 706 1;
#X connect 720 0 707 0;
#X connect 721 0 707 1;
#X connect 724 0 708 0;
#X connect 725 0 708 1;
#X connect 726 0 709 1;
#X connect 728 0 709 0;
#X connect 729 0 710 0;
#X connect 730 0 710 1;
#X connect 732 0 711 0;
#X connect 733 0 711 1;
#X connect 735 0 712 0;
#X connect 736 0 712 1;
#X connect 738 0 749 0;
#X connect 739 0 751 0;
#X connect 740 0 755 0;
#X connect 741 0 758 0;
#X connect 742 0 761 0;
#X connect 743 0 764 0;
#X connect 744 0 767 0;
#X connect 745 0 770 0;
#X connect 746 0 773 0;
#X connect 747 0 819 0;
#X connect 748 0 738 1;
#X connect 750 0 739 1;
#X connect 752 0 739 0;
#X connect 753 0 740 0;
#X connect 754 0 740 1;
#X connect 756 0 741 0;
#X connect 757 0 741 1;
#X connect 759 0 742 0;
#X connect 760 0 742 1;
#X connect 762 0 743 0;
#X connect 763 0 743 1;
#X connect 765 0 744 0;
#X connect 766 0 744 1;
#X connect 768 0 745 0;
#X connect 769 0 745 1;
#X connect 771 0 746 0;
#X connect 772 0 746 1;
#X connect 774 0 747 0;
#X connect 775 0 747 1;
#X connect 776 0 738 0;
#X connect 777 0 713 1;
#X connect 778 0 781 0;
#X connect 779 0 778 0;
#X connect 780 0 778 1;
#X connect 782 0 793 0;
#X connect 783 0 796 0;
#X connect 784 0 799 0;
#X connect 785 0 800 0;
#X connect 786 0 804 0;
#X connect 787 0 808 0;
#X connect 788 0 811 0;
#X connect 789 0 814 0;
#X connect 790 0 820 0;
#X connect 791 0 782 0;
#X connect 792 0 782 1;
#X connect 794 0 783 0;
#X connect 795 0 783 1;
#X connect 797 0 784 0;
#X connect 798 0 784 1;
#X connect 801 0 785 0;
#X connect 802 0 785 1;
#X connect 803 0 786 1;
#X connect 805 0 786 0;
#X connect 806 0 787 0;
#X connect 807 0 787 1;
#X connect 809 0 788 0;
#X connect 810 0 788 1;
#X connect 812 0 789 0;
#X connect 813 0 789 1;
#X connect 815 0 790 0;
#X connect 816 0 790 1;
#X connect 817 0 713 0;
#X connect 821 0 824 0;
#X connect 822 0 821 0;
#X connect 823 0 821 1;
#X connect 825 0 836 0;
#X connect 826 0 839 0;
#X connect 827 0 842 0;
#X connect 828 0 843 0;
#X connect 829 0 847 0;
#X connect 830 0 851 0;
#X connect 831 0 854 0;
#X connect 832 0 857 0;
#X connect 833 0 860 0;
#X connect 834 0 825 0;
#X connect 835 0 825 1;
#X connect 837 0 826 0;
#X connect 838 0 826 1;
#X connect 840 0 827 0;
#X connect 841 0 827 1;
#X connect 844 0 828 0;
#X connect 845 0 828 1;
#X connect 846 0 829 1;
#X connect 848 0 829 0;
#X connect 849 0 830 0;
#X connect 850 0 830 1;
#X connect 852 0 831 0;
#X connect 853 0 831 1;
#X connect 855 0 832 0;
#X connect 856 0 832 1;
#X connect 858 0 833 0;
#X connect 859 0 833 1;
#X connect 861 0 872 0;
#X connect 862 0 874 0;
#X connect 863 0 878 0;
#X connect 864 0 881 0;
#X connect 865 0 884 0;
#X connect 866 0 887 0;
#X connect 867 0 890 0;
#X connect 868 0 893 0;
#X connect 869 0 896 0;
#X connect 870 0 899 0;
#X connect 871 0 861 1;
#X connect 873 0 862 1;
#X connect 875 0 862 0;
#X connect 876 0 863 0;
#X connect 877 0 863 1;
#X connect 879 0 864 0;
#X connect 880 0 864 1;
#X connect 882 0 865 0;
#X connect 883 0 865 1;
#X connect 885 0 866 0;
#X connect 886 0 866 1;
#X connect 888 0 867 0;
#X connect 889 0 867 1;
#X connect 891 0 868 0;
#X connect 892 0 868 1;
#X connect 894 0 869 0;
#X connect 895 0 869 1;
#X connect 897 0 870 0;
#X connect 898 0 870 1;
#X connect 900 0 861 0;
#X connect 901 0 904 0;
#X connect 902 0 901 0;
#X connect 903 0 901 1;
#X connect 905 0 916 0;
#X connect 906 0 919 0;
#X connect 907 0 922 0;
#X connect 908 0 923 0;
#X connect 909 0 927 0;
#X connect 910 0 931 0;
#X connect 911 0 934 0;
#X connect 912 0 937 0;
#X connect 913 0 1014 0;
#X connect 914 0 905 0;
#X connect 915 0 905 1;
#X connect 917 0 906 0;
#X connect 918 0 906 1;
#X connect 920 0 907 0;
#X connect 921 0 907 1;
#X connect 924 0 908 0;
#X connect 925 0 908 1;
#X connect 926 0 909 1;
#X connect 928 0 909 0;
#X connect 929 0 910 0;
#X connect 930 0 910 1;
#X connect 932 0 911 0;
#X connect 933 0 911 1;
#X connect 935 0 912 0;
#X connect 936 0 912 1;
#X connect 938 0 949 0;
#X connect 939 0 951 0;
#X connect 940 0 955 0;
#X connect 941 0 958 0;
#X connect 942 0 961 0;
#X connect 943 0 964 0;
#X connect 944 0 967 0;
#X connect 945 0 970 0;
#X connect 946 0 973 0;
#X connect 947 0 1017 0;
#X connect 948 0 938 1;
#X connect 950 0 939 1;
#X connect 952 0 939 0;
#X connect 953 0 940 0;
#X connect 954 0 940 1;
#X connect 956 0 941 0;
#X connect 957 0 941 1;
#X connect 959 0 942 0;
#X connect 960 0 942 1;
#X connect 962 0 943 0;
#X connect 963 0 943 1;
#X connect 965 0 944 0;
#X connect 966 0 944 1;
#X connect 968 0 945 0;
#X connect 969 0 945 1;
#X connect 971 0 946 0;
#X connect 972 0 946 1;
#X connect 974 0 938 0;
#X connect 975 0 913 1;
#X connect 976 0 979 0;
#X connect 977 0 976 0;
#X connect 978 0 976 1;
#X connect 980 0 991 0;
#X connect 981 0 994 0;
#X connect 982 0 997 0;
#X connect 983 0 998 0;
#X connect 984 0 1002 0;
#X connect 985 0 1006 0;
#X connect 986 0 1009 0;
#X connect 987 0 1012 0;
#X connect 988 0 1020 0;
#X connect 989 0 980 0;
#X connect 990 0 980 1;
#X connect 992 0 981 0;
#X connect 993 0 981 1;
#X connect 995 0 982 0;
#X connect 996 0 982 1;
#X connect 999 0 983 0;
#X connect 1000 0 983 1;
#X connect 1001 0 984 1;
#X connect 1003 0 984 0;
#X connect 1004 0 985 0;
#X connect 1005 0 985 1;
#X connect 1007 0 986 0;
#X connect 1008 0 986 1;
#X connect 1010 0 987 0;
#X connect 1011 0 987 1;
#X connect 1013 0 913 0;
#X connect 1015 0 947 0;
#X connect 1016 0 947 1;
#X connect 1018 0 988 0;
#X connect 1019 0 988 1;
#X connect 1021 0 1022 0;
#X connect 1023 0 636 0;
#X connect 1024 0 636 1;
#X connect 1027 0 1031 0;
#X connect 1028 0 1026 0;
#X connect 1029 0 1022 0;
#X restore 259 61 pd 256JFC;
#X obj 185 90 s all_on;
#X obj 252 90 s all_off;
#X obj 207 111 bng 15 250 50 0 empty empty empty 17 7 0 10 -262144
-1 -1;
#X obj 273 111 bng 15 250 50 0 empty empty empty 17 7 0 10 -262144
-1 -1;
#X obj 179 211 metro 500;
#X floatatom 259 212 5 0 0 0 - - -;
#X obj 127 193 hsl 128 15 0 1000 0 0 empty empty empty -2 -8 0 10 -262144
-1 -1 0 1;
#X obj 205 170 tgl 15 0 empty empty empty 17 7 0 10 -4160 -262144 -1
0 1;
#X obj 133 211 s on;
#X obj 130 59 s load;
#X obj 159 111 bng 15 250 50 0 empty empty empty 17 7 0 10 -262144
-1 -1;
#X msg 191 53 \; pd dsp 1;
#X obj 259 270 s glide;
#X floatatom 259 250 5 0 0 0 - - -;
#X obj 134 270 s pitch;
#X floatatom 134 250 5 0 0 0 - - -;
#X obj 190 270 s hip_ass;
#X floatatom 190 250 5 0 0 0 - - -;
#X text 251 152 run once;
#X text 199 152 run!;
#X text 254 124 all off;
#X text 189 125 all on;
#X obj 110 111 bng 15 250 50 0 empty empty empty 17 7 0 10 -262144
-1 -1;
#X obj 64 212 loadbang;
#X msg 134 231 58;
#X msg 190 231 5;
#X msg 259 231 5;
#X text 57 190 tempo :);
#X obj 110 93 t b b b b;
#X obj 142 170 bng 15 250 50 0 empty empty empty 17 7 0 10 -2434 -262144
-1;
#X text 27 163 press to start!;
#X connect 0 0 1 0;
#X connect 261 0 259 0;
#X connect 262 0 260 0;
#X connect 263 0 267 0;
#X connect 264 0 263 1;
#X connect 265 0 264 0;
#X connect 266 0 263 0;
#X connect 269 0 268 0;
#X connect 272 0 271 0;
#X connect 274 0 273 0;
#X connect 276 0 275 0;
#X connect 281 0 270 0;
#X connect 282 0 283 0;
#X connect 282 0 284 0;
#X connect 282 0 285 0;
#X connect 283 0 274 0;
#X connect 284 0 276 0;
#X connect 285 0 272 0;
#X connect 287 0 262 0;
#X connect 287 1 261 0;
#X connect 287 2 269 0;
#X connect 287 3 281 0;
#X connect 288 0 287 0;
