#N canvas 0 23 980 755 12;
#X obj 20 114 - 17;
#X floatatom 863 317 5 0 0 0 - - -;
#X obj 613 249 == 3;
#X floatatom 613 295 5 0 0 0 - - -;
#X obj 711 248 != 3;
#X obj 752 271 t b f;
#X obj 752 248 != 2;
#X floatatom 716 295 5 0 0 0 - - -;
#X obj 716 317 &&;
#X obj 613 317 &&;
#X floatatom 886 361 5 0 0 0 - - -;
#X floatatom 843 362 5 0 0 0 - - -;
#X msg 831 318 0;
#X msg 903 317 1;
#X obj 843 339 ==;
#X obj 886 338 ==;
#X obj 512 27 inlet;
#X obj 1029 436 outlet;
#X obj 306 160 t b f;
#X obj 306 183 +;
#X obj 20 265 t b f;
#X obj 20 287 +;
#X obj 346 266 t b f;
#X obj 306 288 +;
#X obj 20 368 t b f;
#X obj 20 392 +;
#X obj 155 373 t b f;
#X obj 155 397 +;
#X obj 306 369 t b f;
#X obj 306 393 +;
#X obj 160 116 - 16;
#X obj 305 115 - 15;
#X obj 20 219 - 1;
#X obj 306 221 + 1;
#X obj 306 326 + 17;
#X obj 155 330 + 16;
#X obj 20 325 + 15;
#X obj 20 159 t b f;
#X obj 20 181 +;
#X floatatom 479 198 5 0 0 0 - - -;
#X obj 480 108 tabwrite gol;
#X obj 20 135 tabread gol;
#X obj 307 347 tabread gol;
#X obj 155 351 tabread gol;
#X obj 20 346 tabread gol;
#X obj 306 242 tabread gol;
#X obj 153 52 inlet, f 7;
#X obj 20 241 tabread gol;
#X obj 161 138 tabread gol;
#X obj 305 138 tabread gol;
#X floatatom 191 330 5 0 0 0 - - -;
#X floatatom 76 171 5 0 0 0 - - -;
#X text 443 176 no. of neighbors;
#X obj 1095 319 s on;
#X obj 1004 327 bng 15 250 50 0 empty empty empty 17 7 0 10 -262144
-1 -1;
#X obj 686 361 ||;
#X obj 716 339 t b f;
#X obj 650 387 f;
#X obj 770 390 delay 200;
#X obj 770 368 r on;
#X obj 777 417 spigot;
#X floatatom 252 313 5 0 0 0 - - -;
#X obj 163 243 tgl 15 0 empty empty empty 17 7 0 10 -262144 -1 -1 1
1;
#X obj 189 218 tgl 15 0 empty empty empty 17 7 0 10 -262144 -1 -1 1
1;
#X obj 163 218 tgl 15 0 empty empty empty 17 7 0 10 -262144 -1 -1 1
1;
#X obj 137 218 tgl 15 0 empty empty empty 17 7 0 10 -262144 -1 -1 1
1;
#X obj 137 243 tgl 15 0 empty empty empty 17 7 0 10 -262144 -1 -1 1
1;
#X obj 137 268 tgl 15 0 empty empty empty 17 7 0 10 -262144 -1 -1 1
1;
#X obj 163 268 tgl 15 0 empty empty empty 17 7 0 10 -262144 -1 -1 1
1;
#X obj 189 268 tgl 15 0 empty empty empty 17 7 0 10 -262144 -1 -1 1
1;
#X obj 189 242 tgl 15 0 empty empty empty 17 7 0 10 -262144 -1 -1 1
1;
#X floatatom 686 410 5 0 0 0 - - -;
#X text 722 224 if alive;
#X text 604 225 if dead;
#X obj 716 272 &&;
#X floatatom 805 271 5 0 0 0 - - -;
#X floatatom 670 271 5 0 0 0 - - -;
#X obj 907 208 loadbang;
#X floatatom 174 166 5 0 0 0 - - -;
#X floatatom 686 384 5 0 0 0 - - -;
#X msg 885 405 bang;
#X obj 886 433 tgl 15 0 empty empty empty 17 7 0 10 -262144 -1 -1 1
1;
#X msg 305 91 set gol;
#X msg 18 90 set gol;
#X obj 18 59 loadbang;
#X obj 155 24 r on;
#X floatatom 306 265 5 0 0 0 - - -;
#X floatatom 479 85 5 0 0 0 - - -;
#X obj 373 495 mtof;
#X floatatom 363 522 5 0 0 0 - - -;
#X obj 514 357 -;
#X msg 459 293 8;
#X obj 503 597 line~;
#X floatatom 494 504 5 0 0 0 - - -;
#X obj 472 463 r glide;
#X floatatom 530 290 5 0 0 0 - - -;
#X obj 349 391 / 4;
#X floatatom 579 373 5 0 0 0 - - -;
#X floatatom 561 440 5 0 0 0 - - -;
#X obj 477 546 pack f 100;
#X obj 555 464 t b f;
#X obj 405 372 r pitch;
#X obj 381 464 +;
#X floatatom 580 530 5 0 0 0 - - -;
#X floatatom 416 487 5 0 0 0 - - -;
#X obj 359 562 osc~ 0;
#X obj 537 494 /;
#X obj 350 638 dac~;
#X obj 356 611 *~;
#X obj 516 381 / 8;
#X obj 568 420 *;
#X connect 0 0 41 0;
#X connect 1 0 15 0;
#X connect 1 0 14 0;
#X connect 1 0 97 0;
#X connect 2 0 3 0;
#X connect 3 0 9 0;
#X connect 4 0 74 0;
#X connect 4 0 76 0;
#X connect 5 0 74 0;
#X connect 5 1 74 1;
#X connect 6 0 5 0;
#X connect 6 0 75 0;
#X connect 7 0 8 0;
#X connect 8 0 56 0;
#X connect 9 0 55 0;
#X connect 10 0 8 1;
#X connect 11 0 9 1;
#X connect 12 0 14 1;
#X connect 13 0 15 1;
#X connect 14 0 11 0;
#X connect 15 0 10 0;
#X connect 16 0 1 0;
#X connect 16 0 62 0;
#X connect 16 0 87 0;
#X connect 18 0 19 0;
#X connect 18 1 19 1;
#X connect 19 0 39 0;
#X connect 20 0 21 0;
#X connect 20 1 21 1;
#X connect 21 0 25 0;
#X connect 22 0 23 0;
#X connect 22 1 23 1;
#X connect 23 0 19 0;
#X connect 24 0 25 0;
#X connect 24 1 25 1;
#X connect 25 0 27 0;
#X connect 26 0 27 0;
#X connect 26 1 27 1;
#X connect 27 0 29 0;
#X connect 28 0 29 0;
#X connect 28 1 29 1;
#X connect 29 0 23 0;
#X connect 30 0 48 0;
#X connect 31 0 49 0;
#X connect 32 0 47 0;
#X connect 33 0 45 0;
#X connect 34 0 42 0;
#X connect 35 0 43 0;
#X connect 35 0 50 0;
#X connect 36 0 44 0;
#X connect 37 0 38 0;
#X connect 37 1 38 1;
#X connect 38 0 21 0;
#X connect 39 0 2 0;
#X connect 39 0 4 0;
#X connect 39 0 6 0;
#X connect 39 0 95 0;
#X connect 39 0 91 0;
#X connect 41 0 37 0;
#X connect 41 0 65 0;
#X connect 42 0 28 0;
#X connect 42 0 69 0;
#X connect 43 0 26 0;
#X connect 43 0 68 0;
#X connect 44 0 24 0;
#X connect 44 0 67 0;
#X connect 45 0 22 0;
#X connect 45 0 70 0;
#X connect 45 0 86 0;
#X connect 46 0 51 0;
#X connect 46 0 61 0;
#X connect 46 0 40 1;
#X connect 47 0 20 0;
#X connect 47 0 66 0;
#X connect 48 0 38 0;
#X connect 48 0 64 0;
#X connect 48 0 78 0;
#X connect 49 0 18 0;
#X connect 49 0 63 0;
#X connect 51 0 30 0;
#X connect 51 0 0 0;
#X connect 51 0 32 0;
#X connect 54 0 53 0;
#X connect 55 0 57 0;
#X connect 55 0 79 0;
#X connect 56 0 55 0;
#X connect 56 1 55 1;
#X connect 57 0 60 1;
#X connect 57 0 71 0;
#X connect 58 0 60 0;
#X connect 59 0 58 0;
#X connect 60 0 80 0;
#X connect 61 0 31 0;
#X connect 61 0 33 0;
#X connect 61 0 34 0;
#X connect 61 0 35 0;
#X connect 61 0 36 0;
#X connect 61 0 96 0;
#X connect 74 0 7 0;
#X connect 77 0 13 0;
#X connect 77 0 12 0;
#X connect 80 0 17 0;
#X connect 80 0 81 0;
#X connect 82 0 49 0;
#X connect 82 0 45 0;
#X connect 82 0 42 0;
#X connect 82 0 87 0;
#X connect 83 0 41 0;
#X connect 83 0 47 0;
#X connect 83 0 44 0;
#X connect 83 0 48 0;
#X connect 83 0 43 0;
#X connect 84 0 83 0;
#X connect 84 0 82 0;
#X connect 85 0 0 0;
#X connect 85 0 31 0;
#X connect 85 0 32 0;
#X connect 85 0 36 0;
#X connect 85 0 35 0;
#X connect 85 0 34 0;
#X connect 85 0 33 0;
#X connect 85 0 30 0;
#X connect 87 0 40 0;
#X connect 88 0 89 0;
#X connect 89 0 105 0;
#X connect 90 0 109 0;
#X connect 91 0 90 0;
#X connect 92 0 108 1;
#X connect 93 0 105 1;
#X connect 94 0 93 0;
#X connect 95 0 90 1;
#X connect 96 0 102 0;
#X connect 96 0 110 1;
#X connect 97 0 110 0;
#X connect 98 0 100 0;
#X connect 99 0 92 0;
#X connect 100 0 106 0;
#X connect 100 1 106 1;
#X connect 101 0 102 1;
#X connect 102 0 104 0;
#X connect 102 0 88 0;
#X connect 105 0 108 0;
#X connect 106 0 99 0;
#X connect 106 0 103 0;
#X connect 108 0 107 0;
#X connect 108 0 107 1;
#X connect 109 0 106 0;
#X connect 110 0 98 0;
#X coords 0 0 0.5 0.5 0 0 0;
