#N canvas 0 23 1440 809 12;
#X obj 184 122 tgl 15 0 empty empty empty 17 7 0 10 -262144 -1 -1 1
1;
#X obj 184 202 bng 30 250 50 0 empty empty empty 17 7 0 10 -262144
-1 -1;
#X obj 269 773 dac~;
#X obj 263 619 *~;
#X floatatom 290 386 5 0 0 0 - - -;
#X obj 288 500 osc~ 200;
#X obj 303 570 line~;
#X obj 752 38 bng 15 250 50 0 empty empty empty 17 7 0 10 -262144 -1
-1;
#X obj 752 78 f 1;
#X obj 799 77 + 1;
#X msg 789 38 1;
#X obj 187 246 tgl 15 0 empty empty empty 17 7 0 10 -262144 -1 -1 1
1;
#X floatatom 196 267 5 0 0 0 - - -;
#X floatatom 760 201 5 0 0 0 - - -;
#X obj 655 286 bng 15 250 50 0 empty empty empty 17 7 0 10 -262144
-1 -1;
#X obj 584 285 bng 15 250 50 0 empty empty empty 17 7 0 10 -262144
-1 -1;
#X obj 607 286 bng 15 250 50 0 empty empty empty 17 7 0 10 -262144
-1 -1;
#X obj 630 286 bng 15 250 50 0 empty empty empty 17 7 0 10 -262144
-1 -1;
#X obj 564 285 bng 15 250 50 0 empty empty empty 17 7 0 10 -262144
-1 -1;
#X text 10 25 /节奏区/;
#X text 171 469 /音调区/, f 7;
#X text 901 43 /旋律区/;
#X obj 698 284 bng 15 250 50 0 empty empty empty 17 7 0 10 -262144
-1 -1;
#X obj 678 285 bng 15 250 50 0 empty empty empty 17 7 0 10 -262144
-1 -1;
#X obj 723 285 bng 15 250 50 0 empty empty empty 17 7 0 10 -262144
-1 -1;
#X floatatom 753 104 5 0 0 0 - - -;
#X obj 303 519 tgl 15 0 empty empty empty 17 7 0 10 -262144 -1 -1 1
1;
#X obj 306 452 line~;
#X text 31 183 the reason for having this toggle: I have to output
something and send that sth to \$1 but why is it a toggle not a number
box?;
#X obj 409 482 hsl 128 15 0 1000 0 0 empty empty empty -2 -8 0 10 -262144
-1 -1 3323 1;
#X obj 410 447 line;
#X floatatom 657 513 5 0 0 0 - - -;
#X obj 657 630 clip 0 1;
#X floatatom 657 662 5 0 0 0 - - -;
#X obj 657 598 / 100;
#X msg 1356 768 \; pd dsp \$1;
#X obj 1356 729 tgl 30 0 empty empty empty 17 7 0 10 -262144 -1 -1
1 1;
#X msg 773 538 \$1 1000;
#X obj 656 566 line;
#X msg 717 453 10;
#X text 701 565 why is there clicking sound when the volume changes
gradually????;
#N canvas 0 22 450 278 (subpatch) 0;
#X array array1 100 float 3;
#A 0 0.168326 0.165833 0.163109 0.160159 0.156987 0.153597 0.149993
0.146181 0.142165 0.137953 0.133548 0.128958 0.124189 0.119248 0.11414
0.108873 0.103456 0.0978944 0.092197 0.0863717 0.0804263 0.0743693
0.0682089 0.0619539 0.0556128 0.0491944 0.0427077 0.0361617 0.0295655
0.0229281 0.016259 0.00956719 0.00286211 -0.00384695 -0.0105507 -0.0172398
-0.023905 -0.030537 -0.0371266 -0.0436646 -0.0501421 -0.0565496 -0.0628785
-0.0691201 -0.0752656 -0.0813065 -0.0872345 -0.0930413 -0.0987188 -0.104259
-0.109655 -0.114898 -0.119982 -0.124899 -0.129642 -0.134205 -0.138582
-0.142767 -0.146753 -0.150535 -0.154108 -0.157468 -0.160608 -0.163525
-0.166215 -0.168675 -0.1709 -0.172887 -0.174634 -0.176137 -0.177397
-0.17841 -0.179175 -0.179691 -0.179957 -0.179974 -0.17974 -0.179257
-0.178525 -0.177545 -0.176318 -0.174846 -0.173132 -0.171177 -0.168984
-0.166556 -0.163897 -0.161011 -0.1579 -0.154571 -0.151026 -0.147272
-0.143313 -0.139155 -0.134804 -0.130265 -0.125545 -0.12065 -0.115588
-0.110365;
#X coords 0 1 100 -1 200 140 1;
#X restore 46 615 graph;
#X obj 68 495 bng 15 250 50 0 empty empty empty 0 -6 0 8 -262144 -1
-1;
#X text 92 494 graph;
#X obj 68 464 metro 100;
#X obj 67 403 tgl 30 0 empty empty empty 17 7 0 10 -262144 -1 -1 1
1;
#X obj 68 538 tabwrite~ array1;
#X text 748 537 or;
#X obj 658 536 pack f 1000;
#X floatatom 717 501 5 0 0 0 - - -;
#X obj 1252 235 inlet;
#X floatatom 1098 518 5 0 0 0 - - -;
#X obj 1101 472 hsl 100 30 0 1000 0 0 empty empty frequency -2 -10
0 12 -262144 -1 -1 0 1;
#X obj 1254 284 tgl 15 0 empty empty empty 17 7 0 10 -262144 -1 -1
1 1;
#X floatatom 1314 283 5 0 0 0 - - -;
#X obj 1254 364 bng 30 250 50 0 empty empty empty 17 7 0 10 -262144
-1 -1;
#X obj 1180 691 *~;
#X msg 303 540 \$1 5;
#X obj 317 95 expr 1000/($f1/60);
#X floatatom 317 62 5 0 0 0 - - -;
#X floatatom 317 146 5 0 0 0 - - -;
#X msg 448 22 300;
#X msg 480 22 400;
#X obj 317 122 * 0.25;
#X text 463 85 basic BPM to MS conversion, f 15;
#X msg 317 22 15;
#X msg 351 22 30;
#X msg 382 22 100;
#X msg 414 22 150;
#X obj 753 289 bng 15 250 50 0 empty empty empty 17 7 0 10 -262144
-1 -1;
#X floatatom 425 353 5 0 0 0 - - -;
#X obj 424 384 mtof;
#X msg 539 306 60;
#X msg 611 315 67;
#X msg 672 315 71;
#X msg 763 309 69;
#X msg 636 442 50;
#X msg 576 450 10;
#X msg 684 440 60;
#X obj 776 286 bng 15 250 50 0 empty empty empty 17 7 0 10 -262144
-1 -1;
#X obj 804 290 bng 15 250 50 0 empty empty empty 17 7 0 10 -262144
-1 -1;
#X obj 824 290 bng 15 250 50 0 empty empty empty 17 7 0 10 -262144
-1 -1;
#X obj 845 288 bng 15 250 50 0 empty empty empty 17 7 0 10 -262144
-1 -1;
#X obj 869 288 bng 15 250 50 0 empty empty empty 17 7 0 10 -262144
-1 -1;
#X msg 881 321 70;
#X msg 920 329 71;
#X obj 758 141 mod 16;
#X obj 568 255 select 0 1 2 3 4 5 6 7 8 9 10 11 12 13 14 15;
#X obj 899 292 bng 15 250 50 0 empty empty empty 17 7 0 10 -262144
-1 -1;
#X obj 930 288 bng 15 250 50 0 empty empty empty 17 7 0 10 -262144
-1 -1;
#X obj 1255 334 metro 500;
#X obj 185 172 metro 500;
#X obj 1098 547 phasor~ 350;
#X msg 835 460 50;
#X msg 307 424 \$1 10;
#X msg 834 318 69.3;
#X text 522 23 这是一个可以调整节奏快慢的区域，这块其实可没有
, f 14;
#X obj 1252 404 tgl 15 0 empty empty note_on/off 17 7 0 10 -262144
-1 -1 1 1;
#X floatatom 1274 469 5 0 0 1 attack_ms - -;
#X floatatom 1306 491 5 0 0 1 decay_ms - -;
#X floatatom 1332 517 5 0 0 1 sustain_% - -;
#X floatatom 1359 546 5 0 0 1 release_ms - -;
#X obj 1254 581 adsr~ 10 10 80 50;
#X text 803 141 mod constrains the value that comes into it;
#X text 963 318 frequency;
#X text 760 449 volume;
#X text 360 424 glide for frequency;
#X obj 1405 279 loadbang;
#X obj 1287 433 r a1;
#X obj 1351 428 r a2;
#X obj 1405 452 r a3;
#X obj 1435 493 r a4;
#X msg 1406 312 \; a1 100 \; a2 500 \; a3 50 \; a4 900;
#X obj 262 689 *~ 0.6;
#X obj 1175 736 *~ 0.05;
#X connect 0 0 91 0;
#X connect 1 0 11 0;
#X connect 1 0 7 0;
#X connect 3 0 113 0;
#X connect 4 0 94 0;
#X connect 5 0 3 0;
#X connect 6 0 3 1;
#X connect 7 0 8 0;
#X connect 8 0 9 0;
#X connect 8 0 25 0;
#X connect 9 0 8 1;
#X connect 10 0 8 1;
#X connect 11 0 12 0;
#X connect 12 0 5 0;
#X connect 13 0 87 0;
#X connect 16 0 73 0;
#X connect 16 0 76 0;
#X connect 18 0 77 0;
#X connect 18 0 72 0;
#X connect 22 0 74 0;
#X connect 23 0 78 0;
#X connect 24 0 39 0;
#X connect 25 0 86 0;
#X connect 26 0 57 0;
#X connect 27 0 5 0;
#X connect 30 0 29 0;
#X connect 31 0 48 0;
#X connect 32 0 33 0;
#X connect 33 0 113 1;
#X connect 34 0 32 0;
#X connect 36 0 35 0;
#X connect 38 0 34 0;
#X connect 39 0 31 0;
#X connect 42 0 46 0;
#X connect 44 0 42 0;
#X connect 45 0 44 0;
#X connect 48 0 38 0;
#X connect 49 0 48 1;
#X connect 50 0 53 0;
#X connect 51 0 92 0;
#X connect 52 0 51 0;
#X connect 53 0 90 0;
#X connect 54 0 90 1;
#X connect 55 0 97 0;
#X connect 56 0 114 0;
#X connect 57 0 6 0;
#X connect 58 0 63 0;
#X connect 59 0 58 0;
#X connect 60 0 91 1;
#X connect 61 0 59 0;
#X connect 62 0 59 0;
#X connect 63 0 60 0;
#X connect 65 0 59 0;
#X connect 66 0 59 0;
#X connect 67 0 59 0;
#X connect 68 0 59 0;
#X connect 69 0 75 0;
#X connect 70 0 71 0;
#X connect 71 0 4 0;
#X connect 72 0 70 0;
#X connect 73 0 70 0;
#X connect 74 0 70 0;
#X connect 75 0 70 0;
#X connect 76 0 31 0;
#X connect 77 0 31 0;
#X connect 78 0 31 0;
#X connect 83 0 95 0;
#X connect 84 0 70 0;
#X connect 85 0 70 0;
#X connect 86 0 13 0;
#X connect 87 0 18 0;
#X connect 87 1 15 0;
#X connect 87 2 16 0;
#X connect 87 3 17 0;
#X connect 87 4 14 0;
#X connect 87 5 23 0;
#X connect 87 6 22 0;
#X connect 87 7 24 0;
#X connect 87 8 69 0;
#X connect 87 9 79 0;
#X connect 87 10 80 0;
#X connect 87 11 81 0;
#X connect 87 12 82 0;
#X connect 87 13 83 0;
#X connect 87 14 88 0;
#X connect 87 15 89 0;
#X connect 88 0 84 0;
#X connect 89 0 85 0;
#X connect 90 0 55 0;
#X connect 91 0 1 0;
#X connect 92 0 56 0;
#X connect 93 0 31 0;
#X connect 94 0 27 0;
#X connect 94 0 30 0;
#X connect 95 0 70 0;
#X connect 95 0 93 0;
#X connect 97 0 102 0;
#X connect 98 0 102 1;
#X connect 99 0 102 2;
#X connect 100 0 102 3;
#X connect 101 0 102 4;
#X connect 102 0 56 1;
#X connect 107 0 112 0;
#X connect 108 0 98 0;
#X connect 109 0 99 0;
#X connect 110 0 100 0;
#X connect 111 0 101 0;
#X connect 113 0 2 0;
#X connect 113 0 46 0;
#X connect 114 0 2 1;
