#N canvas 77 23 981 705 12;
#X obj 453 477 line~;
#X msg 453 450 \$1 20;
#X obj 456 397 hsl 128 15 0 20 0 0 empty empty empty -2 -6 0 8 -262144
-1 -1 0 1;
#X obj 226 580 dac~;
#X obj 453 423 / 20;
#N canvas 0 22 450 278 (subpatch) 0;
#X array soundfile-tom14 16768 float 2;
#X coords 0 1 16768 -1 200 140 1 0 0;
#X restore 43 39 graph;
#X obj 628 49 loadbang;
#X obj 623 137 soundfiler;
#N canvas 0 23 450 300 sampleConversion 0;
#X obj 274 16 inlet;
#X floatatom 274 56 10 0 0 1 number_of_samples - -;
#X obj 153 159 / 44.1;
#X floatatom 153 191 10 0 0 1 milliseconds - -;
#X text 207 156 < sampling rate (by default 44.1 KHz);
#X obj 132 263 pack f f;
#X obj 153 222 t b f;
#X obj 43 202 f;
#X obj 31 120 t f f;
#X text 83 116 < using trigger to make sure order of events happens
correctly;
#X text 202 220 < using trigger to make sure order of events happens
correctly;
#X text 204 264 < pack to format message;
#X obj 87 320 outlet;
#X obj 515 331 outlet;
#X connect 0 0 1 0;
#X connect 1 0 8 0;
#X connect 1 0 13 0;
#X connect 2 0 3 0;
#X connect 3 0 6 0;
#X connect 5 0 12 0;
#X connect 6 0 7 0;
#X connect 6 1 5 1;
#X connect 7 0 5 0;
#X connect 8 0 2 0;
#X connect 8 1 7 1;
#X restore 623 172 pd sampleConversion;
#X msg 623 207 set \$1 \$2;
#X msg 501 82 read -resize 2067__twistedlemon__mattel-tom14.wav soundfile-tom14
, f 65;
#X msg 623 242 12288 278.639;
#X obj 42 428 line~;
#X obj 42 457 tabread4~ soundfile-tom14;
#X obj 47 199 tgl 15 0 empty empty empty 17 7 0 10 -262144 -1 -1 0
1;
#X obj 42 482 *~ 1;
#X obj 227 529 *~;
#X text 521 468 y-coord;
#X text 506 450 master vol control;
#X msg 501 109 read -resize 2038__twistedlemon__mattel-bd3.wav soundfile-bd3
, f 65;
#N canvas 0 22 450 278 (subpatch) 0;
#X array soundfile-bd3 12288 float 2;
#X coords 0 1 12288 -1 200 140 1 0 0;
#X restore 275 38 graph;
#X obj 120 322 select 0 1 2 3 4 5 6 7;
#X obj 227 427 line~;
#X obj 227 481 *~ 1;
#X obj 227 455 tabread4~ soundfile-bd3;
#X msg 42 397 0 \, 16768 380.227;
#X msg 240 400 0 \, 12288 278.639;
#X obj 47 227 metro 400;
#X obj 47 322 mod 8;
#X obj 47 259 f;
#X obj 88 259 + 1;
#X floatatom 47 289 5 0 0 0 - - -;
#X obj 671 421 cos~;
#X obj 670 392 +~;
#X obj 762 326 phasor~;
#X floatatom 762 287 5 0 0 0 - - -;
#X obj 696 509 *~ 0.7;
#X obj 697 548 dac~;
#X connect 0 0 16 1;
#X connect 1 0 0 0;
#X connect 2 0 4 0;
#X connect 4 0 1 0;
#X connect 6 0 10 0;
#X connect 6 0 19 0;
#X connect 7 0 8 0;
#X connect 8 0 9 0;
#X connect 9 0 11 0;
#X connect 10 0 7 0;
#X connect 12 0 13 0;
#X connect 13 0 15 0;
#X connect 14 0 27 0;
#X connect 15 0 16 0;
#X connect 16 0 3 0;
#X connect 16 0 3 1;
#X connect 19 0 7 0;
#X connect 21 0 25 0;
#X connect 21 2 25 0;
#X connect 21 3 26 0;
#X connect 21 4 25 0;
#X connect 21 5 26 0;
#X connect 21 6 25 0;
#X connect 21 7 26 0;
#X connect 22 0 24 0;
#X connect 23 0 16 0;
#X connect 24 0 23 0;
#X connect 25 0 12 0;
#X connect 26 0 22 0;
#X connect 27 0 29 0;
#X connect 28 0 21 0;
#X connect 29 0 30 0;
#X connect 29 0 31 0;
#X connect 30 0 29 1;
#X connect 31 0 28 0;
#X connect 32 0 36 0;
#X connect 33 0 32 0;
#X connect 34 0 33 1;
#X connect 35 0 34 0;
#X connect 36 0 37 0;
#X connect 36 0 37 1;
