#N canvas 625 42 815 765 12;
#X obj 267 126 tgl 15 0 empty empty empty 17 7 0 10 -262144 -1 -1 1
1;
#X obj 267 221 bng 15 250 50 0 empty empty empty 17 7 0 10 -262144
-1 -1;
#X obj 267 169 metro 200;
#X floatatom 346 51 5 0 0 0 - - -;
#X floatatom 346 124 5 0 0 0 - - -;
#X obj 346 86 expr 1000 / ($f1/60);
#X obj 164 389 osc~ 440;
#X obj 624 202 tgl 15 0 empty empty empty 17 7 0 10 -262144 -1 -1 1
1;
#X msg 624 234 \; pd dsp \$1;
#X obj 259 559 dac~;
#X floatatom 164 346 5 0 0 0 - - -;
#X floatatom 371 355 5 0 0 0 - - -;
#X floatatom 371 425 5 0 0 0 - - -;
#X obj 374 320 hsl 128 15 0 100 0 0 empty empty empty -2 -8 0 10 -262144
-1 -1 7300 1;
#X obj 259 462 *~;
#X obj 297 221 tgl 15 0 empty empty empty 17 7 0 10 -262144 -1 -1 0
1;
#X floatatom 297 252 5 0 0 0 - - -;
#X obj 297 424 line~;
#X obj 349 16 hsl 128 15 1 400 0 0 empty empty empty -2 -8 0 10 -262144
-1 -1 2100 1;
#X text 519 320 hslider 0-100 for volume;
#X text 517 14 hsider 1-400 for bpm;
#X text 518 88 bpm conversion;
#X obj 164 303 mtof;
#X floatatom 46 163 5 0 0 0 - - -;
#X obj 49 121 hsl 128 15 0 127 0 0 empty empty empty -2 -8 0 10 -262144
-1 -1 6700 1;
#X text 44 94 frequency convertion;
#X obj 46 209 mod 12;
#X obj 191 602 select 0 1 2 3 4 5 6 7 8 9 10 11;
#X msg 63 645 C;
#X msg 104 645 C#;
#X msg 148 645 D;
#X msg 189 645 D#;
#X msg 231 645 E;
#X msg 276 644 F;
#X msg 325 644 F#;
#X msg 369 644 G;
#X msg 410 644 G#;
#X msg 452 644 A;
#X msg 497 643 A#;
#X msg 544 643 B;
#X obj 63 683 bng 15 250 50 0 empty empty empty 17 7 0 10 -262144 -1
-1;
#X obj 104 683 bng 15 250 50 0 empty empty empty 17 7 0 10 -262144
-1 -1;
#X obj 148 683 bng 15 250 50 0 empty empty empty 17 7 0 10 -262144
-1 -1;
#X obj 190 683 bng 15 250 50 0 empty empty empty 17 7 0 10 -262144
-1 -1;
#X obj 231 683 bng 15 250 50 0 empty empty empty 17 7 0 10 -262144
-1 -1;
#X obj 276 683 bng 15 250 50 0 empty empty empty 17 7 0 10 -262144
-1 -1;
#X obj 325 684 bng 15 250 50 0 empty empty empty 17 7 0 10 -262144
-1 -1;
#X obj 369 684 bng 15 250 50 0 empty empty empty 17 7 0 10 -262144
-1 -1;
#X obj 410 684 bng 15 250 50 0 empty empty empty 17 7 0 10 -262144
-1 -1;
#X obj 452 684 bng 15 250 50 0 empty empty empty 17 7 0 10 -262144
-1 -1;
#X obj 497 684 bng 15 250 50 0 empty empty empty 17 7 0 10 -262144
-1 -1;
#X obj 545 684 bng 15 250 50 0 empty empty empty 17 7 0 10 -262144
-1 -1;
#X obj 63 713 print C;
#X obj 105 738 print C#;
#X obj 148 712 print D;
#X obj 190 737 print D#;
#X obj 231 710 print E;
#X obj 276 737 print F;
#X obj 545 738 print B;
#X obj 497 712 print A#;
#X obj 452 738 print A;
#X obj 410 712 print G#;
#X obj 370 737 print G;
#X obj 325 712 print F#;
#X obj 371 392 * 0.01;
#X obj 259 513 *~;
#X obj 371 495 line~;
#X msg 371 462 \$1 20;
#X msg 297 391 \$1 20;
#X connect 0 0 2 0;
#X connect 2 0 1 0;
#X connect 2 0 15 0;
#X connect 3 0 5 0;
#X connect 4 0 2 1;
#X connect 5 0 4 0;
#X connect 6 0 14 0;
#X connect 7 0 8 0;
#X connect 10 0 6 0;
#X connect 11 0 64 0;
#X connect 12 0 67 0;
#X connect 13 0 11 0;
#X connect 14 0 65 0;
#X connect 15 0 16 0;
#X connect 16 0 68 0;
#X connect 17 0 14 1;
#X connect 18 0 3 0;
#X connect 22 0 10 0;
#X connect 23 0 26 0;
#X connect 23 0 22 0;
#X connect 24 0 23 0;
#X connect 26 0 27 0;
#X connect 27 0 28 0;
#X connect 27 1 29 0;
#X connect 27 2 30 0;
#X connect 27 3 31 0;
#X connect 27 4 32 0;
#X connect 27 5 33 0;
#X connect 27 6 34 0;
#X connect 27 7 35 0;
#X connect 27 8 36 0;
#X connect 27 9 37 0;
#X connect 27 10 38 0;
#X connect 27 11 39 0;
#X connect 28 0 40 0;
#X connect 29 0 41 0;
#X connect 30 0 42 0;
#X connect 31 0 43 0;
#X connect 32 0 44 0;
#X connect 33 0 45 0;
#X connect 34 0 46 0;
#X connect 35 0 47 0;
#X connect 36 0 48 0;
#X connect 37 0 49 0;
#X connect 38 0 50 0;
#X connect 39 0 51 0;
#X connect 40 0 52 0;
#X connect 41 0 53 0;
#X connect 42 0 54 0;
#X connect 43 0 55 0;
#X connect 44 0 56 0;
#X connect 45 0 57 0;
#X connect 46 0 63 0;
#X connect 47 0 62 0;
#X connect 48 0 61 0;
#X connect 49 0 60 0;
#X connect 50 0 59 0;
#X connect 51 0 58 0;
#X connect 64 0 12 0;
#X connect 65 0 9 0;
#X connect 65 0 9 1;
#X connect 66 0 65 1;
#X connect 67 0 66 0;
#X connect 68 0 17 0;
