#N canvas 919 77 450 462 12;
#N canvas 873 197 450 528 int_v_f 0;
#X floatatom 40 44 5 0 0 0 - - -;
#X text 114 31 decimal: shift + click and drag type to change: enter
;
#X msg 38 135 10.35;
#X msg 109 135 10.5;
#X msg 173 135 10.75;
#X msg 247 135 11.05;
#X floatatom 149 192 5 0 0 0 - - -;
#X obj 150 241 int;
#X floatatom 150 295 5 0 0 0 - - -;
#X text 220 240 convert float to int round down;
#X obj 52 407 int 33;
#X obj 242 402 float 33.3;
#X obj 52 366 bng 15 250 50 0 empty empty empty 17 7 0 10 -262144 -1
-1;
#X obj 242 363 bng 15 250 50 0 empty empty empty 17 7 0 10 -262144
-1 -1;
#X floatatom 91 365 5 0 0 0 - - -;
#X floatatom 309 362 5 0 0 0 - - -;
#X floatatom 52 450 5 0 0 0 - - -;
#X floatatom 242 443 5 0 0 0 - - -;
#X text 157 417 store;
#X connect 2 0 6 0;
#X connect 3 0 6 0;
#X connect 4 0 6 0;
#X connect 5 0 6 0;
#X connect 6 0 7 0;
#X connect 7 0 8 0;
#X connect 10 0 16 0;
#X connect 11 0 17 0;
#X connect 12 0 10 0;
#X connect 13 0 11 0;
#X connect 14 0 10 1;
#X connect 15 0 11 1;
#X restore 104 97 pd int_v_f;
#X text 219 96 comparing int and float;
#N canvas 967 103 450 633 arithmetic 0;
#X floatatom 26 25 5 0 0 0 - - -;
#X floatatom 110 25 5 0 0 0 - - -;
#X obj 66 63 -;
#X floatatom 66 98 5 0 0 0 - - -;
#X text 44 132 subtraction;
#X floatatom 210 24 5 0 0 0 - - -;
#X floatatom 297 23 5 0 0 0 - - -;
#X floatatom 250 96 5 0 0 0 - - -;
#X text 239 129 division;
#X obj 250 61 /;
#X floatatom 22 205 5 0 0 0 - - -;
#X obj 22 327 expr ($f1 -32) * 5 / 9;
#X floatatom 22 285 5 0 0 0 - - -;
#X obj 22 244 expr (1.8 * $f1) + 32;
#X floatatom 22 369 5 0 0 0 - - -;
#X text 221 282 expression 表达式 celsius to fahrenheit;
#X obj 26 435 bng 15 250 50 0 empty empty empty 17 7 0 10 -262144 -1
-1;
#X text 56 432 increase;
#X obj 26 502 f 1;
#X obj 26 540 t f f;
#X obj 95 519 + 1;
#X msg 93 465 1;
#X floatatom 58 580 5 0 0 0 - - -;
#X text 159 523 a counter made with addition;
#X text 157 461 reset to 0 but it's a cold inlet thus only reflect
when hit bang again;
#X connect 0 0 2 0;
#X connect 1 0 2 1;
#X connect 2 0 3 0;
#X connect 5 0 9 0;
#X connect 6 0 9 1;
#X connect 9 0 7 0;
#X connect 10 0 13 0;
#X connect 11 0 14 0;
#X connect 12 0 11 0;
#X connect 13 0 12 0;
#X connect 16 0 18 0;
#X connect 18 0 19 0;
#X connect 19 0 20 0;
#X connect 19 1 22 0;
#X connect 20 0 18 1;
#X connect 21 0 18 1;
#X restore 103 141 pd arithmetic;
#X text 220 140 Pd works right to left;
#N canvas 922 176 450 524 relational 0;
#X floatatom 26 82 5 0 0 0 - - -;
#X obj 63 124 ==;
#X floatatom 106 82 5 0 0 0 - - -;
#X floatatom 63 168 5 0 0 0 - - -;
#X obj 63 212 tgl 15 0 empty empty empty 17 7 0 10 -262144 -1 -1 1
1;
#X text 130 124 equal?;
#X text 129 167 1 - true \; 0 - false;
#X text 24 17 ! Pd works right to left;
#X floatatom 52 296 5 0 0 0 - - -;
#X obj 52 342 mod 10;
#X floatatom 52 388 5 0 0 0 - - -;
#X text 23 427 a cycle of 0-9;
#X floatatom 270 296 5 0 0 0 - - -;
#X floatatom 270 388 5 0 0 0 - - -;
#X obj 270 342 div 10;
#X text 210 426 divide without remainder;
#X connect 0 0 1 0;
#X connect 1 0 3 0;
#X connect 2 0 1 1;
#X connect 3 0 4 0;
#X connect 8 0 9 0;
#X connect 9 0 10 0;
#X connect 12 0 14 0;
#X connect 14 0 13 0;
#X restore 102 189 pd relational;
#X text 219 188 Pd works right to left;
#N canvas 941 149 450 463 random 0;
#X obj 32 40 bng 15 250 50 0 empty empty empty 17 7 0 10 -262144 -1
-1;
#X obj 32 60 random 4;
#X floatatom 32 83 5 0 0 0 - - -;
#X text 136 58 generate a random number from 0-3;
#X obj 33 151 bng 15 250 50 0 empty empty empty 17 7 0 10 -262144 -1
-1;
#X obj 33 171 random 4;
#X text 137 169 generate a random number from 0-3;
#X floatatom 33 217 5 0 0 0 - - -;
#X obj 33 194 + 1;
#X text 137 196 add 1 to change range to 1-4;
#X obj 33 281 bng 15 250 50 0 empty empty empty 17 7 0 10 -262144 -1
-1;
#X floatatom 33 347 5 0 0 0 - - -;
#X obj 33 301 random 401;
#X obj 33 324 / 100;
#X text 144 323 divide by 100 to get a float from 0-4;
#X connect 0 0 1 0;
#X connect 1 0 2 0;
#X connect 4 0 5 0;
#X connect 5 0 8 0;
#X connect 8 0 7 0;
#X connect 10 0 12 0;
#X connect 12 0 13 0;
#X connect 13 0 11 0;
#X restore 102 240 pd random;
#N canvas 974 23 450 791 number_ranges 0;
#X floatatom 23 32 5 0 0 0 - - -;
#X obj 23 54 clip 0 100;
#X floatatom 23 77 5 0 0 0 - - -;
#X text 135 45 lower bound: 0 upper bound: 100;
#X msg 207 142 0;
#X msg 271 141 9;
#X msg 27 142 1;
#X msg 83 143 1;
#X msg 142 142 1;
#X obj 144 198 change;
#X obj 145 243 print;
#X text 256 196 remove redundancy;
#X floatatom 25 283 5 0 0 0 - - -;
#X obj 25 328 moses 10;
#X floatatom 25 379 5 0 0 0 - - -;
#X floatatom 78 379 5 0 0 0 - - -;
#X text 141 325 anything beofre the argument goes to left outlet \;
everything after goes to the right;
#X floatatom 26 434 5 0 0 0 - - -;
#X obj 25 479 split 10 40;
#X floatatom 26 526 5 0 0 0 - - -;
#X msg 26 598 33 44;
#X msg 102 598 55 22;
#X obj 26 651 swap;
#X floatatom 26 706 5 0 0 0 - - -;
#X floatatom 108 706 5 0 0 0 - - -;
#X text 158 648 swap numbers;
#X text 155 479 need extension?;
#X connect 0 0 1 0;
#X connect 1 0 2 0;
#X connect 4 0 9 0;
#X connect 5 0 9 0;
#X connect 6 0 9 0;
#X connect 7 0 9 0;
#X connect 8 0 9 0;
#X connect 9 0 10 0;
#X connect 12 0 13 0;
#X connect 13 0 14 0;
#X connect 13 1 15 0;
#X connect 20 0 22 0;
#X connect 21 0 22 0;
#X connect 22 0 23 0;
#X connect 22 1 24 0;
#X restore 101 291 pd number_ranges;
