#N canvas 891 176 450 300 12;
#X obj 132 59 osc~ 440;
#X text 236 58 ocillator at 440 Hz;
#X obj 132 255 dac~;
#X text 237 254 digital to analog converter send sound toward speakers
;
#X obj 132 210 *~ 0.2;
#X text 239 206 volume control;
#X msg 228 171 0;
#X msg 296 172 0.2;
#X floatatom 132 19 5 0 0 0 - - -;
#X msg 14 89 \; pd dsp \$1;
#X obj 14 22 tgl 15 0 empty empty empty 17 7 0 10 -262144 -1 -1 0 1
;
#X floatatom 48 59 5 0 0 0 - - -;
#X text 16 117 turn sound on and off;
#X floatatom 193 95 5 0 0 0 - - -;
#X obj 193 117 clip 0 1;
#X floatatom 193 143 5 0 0 0 - - -;
#X text 275 115 value in range of 0-1;
#X connect 0 0 4 0;
#X connect 4 0 2 0;
#X connect 4 0 2 1;
#X connect 6 0 4 1;
#X connect 7 0 4 1;
#X connect 8 0 0 0;
#X connect 10 0 11 0;
#X connect 10 0 9 0;
#X connect 13 0 14 0;
#X connect 14 0 15 0;
#X connect 15 0 4 1;
