#N canvas 1989 62 1754 1035 12;
#X obj 59 109 osc~;
#X obj 61 35 hsl 128 15 0 900 0 0 empty empty empty -2 -8 0 10 -262144
-1 -1 0 1;
#X obj 57 159 dac~;
#X obj 122 114 phasor~;
#X obj 120 76 * 0.7;
#X obj 580 81 metro 1000;
#X obj 581 45 tgl 15 0 empty empty empty 17 7 0 10 -262144 -1 -1 0
1;
#X obj 645 43 hsl 128 15 0 1500 0 0 empty empty empty -2 -8 0 10 -262144
-1 -1 1300 1;
#X text 638 25 tempo slider;
#X obj 664 693 line~;
#X obj 626 422 bng 15 250 50 0 empty empty empty 17 7 0 10 -262144
-1 -1;
#X obj 648 422 bng 15 250 50 0 empty empty empty 17 7 0 10 -262144
-1 -1;
#X obj 670 422 bng 15 250 50 0 empty empty empty 17 7 0 10 -262144
-1 -1;
#X obj 693 422 bng 15 250 50 0 empty empty empty 17 7 0 10 -262144
-1 -1;
#X obj 715 422 bng 15 250 50 0 empty empty empty 17 7 0 10 -262144
-1 -1;
#X obj 737 422 bng 15 250 50 0 empty empty empty 17 7 0 10 -262144
-1 -1;
#X obj 759 422 bng 15 250 50 0 empty empty empty 17 7 0 10 -262144
-1 -1;
#X obj 780 422 bng 15 250 50 0 empty empty empty 17 7 0 10 -262144
-1 -1;
#X obj 801 422 bng 15 250 50 0 empty empty empty 17 7 0 10 -262144
-1 -1;
#X obj 589 171 f 1;
#X text 45 250 same metronome feed into 2 selects;
#X obj 642 170 + 1;
#X obj 583 132 bng 15 250 50 0 empty empty empty 17 7 0 10 -262144
-1 -1;
#X msg 614 131 1;
#X floatatom 589 198 5 0 0 0 - - -;
#X floatatom 589 250 5 0 0 0 - - -;
#X floatatom 626 466 5 0 0 0 - - -;
#X floatatom 668 466 5 0 0 0 - - -;
#X floatatom 710 466 5 0 0 0 - - -;
#X floatatom 752 466 5 0 0 0 - - -;
#X floatatom 795 467 5 0 0 0 - - -;
#X floatatom 837 467 5 0 0 0 - - -;
#X floatatom 879 467 5 0 0 0 - - -;
#X floatatom 921 468 5 0 0 0 - - -;
#X floatatom 963 467 5 0 0 0 - - -;
#X obj 627 614 osc~ 200;
#X obj 631 809 dac~;
#X obj 626 383 select 0 1 2 3 4 5 6 7 8 9 10;
#X obj 820 421 bng 15 250 50 0 empty empty empty 17 7 0 10 -262144
-1 -1;
#X obj 839 421 bng 15 250 50 0 empty empty empty 17 7 0 10 -262144
-1 -1;
#X floatatom 1003 467 5 0 0 0 - - -;
#X floatatom 1043 467 5 0 0 0 - - -;
#X obj 589 224 mod 11;
#X obj 628 737 *~;
#X obj 663 641 tgl 15 0 empty empty empty 17 7 0 10 -262144 -1 -1 1
1;
#X msg 664 665 \$1 100;
#X text 715 665 how to modify this in relation to tempo slider?;
#X obj 699 571 hsl 128 15 0 4 0 0 empty empty empty -2 -8 0 10 -262144
-1 -1 2200 1;
#X obj 623 571 *;
#X text 758 553 osc slider;
#X obj 365 383 select 0 1 2 3 4 5 6 7 8 9 10;
#X obj 1354 351 select 0 1 2 3 4 5 6 7 8 9 10;
#X obj 353 420 bng 15 250 50 0 empty empty empty 17 7 0 10 -262144
-1 -1;
#X obj 375 420 bng 15 250 50 0 empty empty empty 17 7 0 10 -262144
-1 -1;
#X obj 397 420 bng 15 250 50 0 empty empty empty 17 7 0 10 -262144
-1 -1;
#X obj 420 420 bng 15 250 50 0 empty empty empty 17 7 0 10 -262144
-1 -1;
#X obj 442 420 bng 15 250 50 0 empty empty empty 17 7 0 10 -262144
-1 -1;
#X obj 464 420 bng 15 250 50 0 empty empty empty 17 7 0 10 -262144
-1 -1;
#X obj 486 420 bng 15 250 50 0 empty empty empty 17 7 0 10 -262144
-1 -1;
#X obj 507 420 bng 15 250 50 0 empty empty empty 17 7 0 10 -262144
-1 -1;
#X obj 528 420 bng 15 250 50 0 empty empty empty 17 7 0 10 -262144
-1 -1;
#X floatatom 151 468 5 0 0 0 - - -;
#X floatatom 193 468 5 0 0 0 - - -;
#X floatatom 236 468 5 0 0 0 - - -;
#X floatatom 277 468 5 0 0 0 - - -;
#X floatatom 320 469 5 0 0 0 - - -;
#X floatatom 362 469 5 0 0 0 - - -;
#X floatatom 404 469 5 0 0 0 - - -;
#X floatatom 446 470 5 0 0 0 - - -;
#X floatatom 488 469 5 0 0 0 - - -;
#X obj 547 419 bng 15 250 50 0 empty empty empty 17 7 0 10 -262144
-1 -1;
#X obj 566 419 bng 15 250 50 0 empty empty empty 17 7 0 10 -262144
-1 -1;
#X floatatom 528 469 5 0 0 0 - - -;
#X floatatom 568 469 5 0 0 0 - - -;
#N canvas 0 22 450 278 (subpatch) 0;
#X coords 0 1 100 -1 200 140 1;
#X restore 1353 202 graph;
#X obj 456 575 hsl 128 15 0 800 0 0 empty empty empty -2 -8 0 10 -262144
-1 -1 4100 1;
#X obj 992 311 select 0 1 2 3;
#X obj 554 699 line~;
#X obj 517 620 osc~ 200;
#X obj 521 815 dac~;
#X obj 518 743 *~;
#X obj 553 647 tgl 15 0 empty empty empty 17 7 0 10 -262144 -1 -1 1
1;
#X msg 554 671 \$1 100;
#X obj 402 573 +;
#X text 507 557 osc slider;
#X obj 993 238 mod 4;
#X floatatom 992 274 5 0 0 0 - - -;
#X obj 992 350 bng 15 250 50 0 empty empty empty 17 7 0 10 -262144
-1 -1;
#X obj 1013 350 bng 15 250 50 0 empty empty empty 17 7 0 10 -262144
-1 -1;
#X obj 1032 349 bng 15 250 50 0 empty empty empty 17 7 0 10 -262144
-1 -1;
#X obj 1053 350 bng 15 250 50 0 empty empty empty 17 7 0 10 -262144
-1 -1;
#X connect 0 0 2 0;
#X connect 0 0 2 1;
#X connect 1 0 0 0;
#X connect 1 0 4 0;
#X connect 3 0 2 0;
#X connect 4 0 3 0;
#X connect 5 0 22 0;
#X connect 6 0 5 0;
#X connect 7 0 5 1;
#X connect 9 0 43 1;
#X connect 10 0 26 0;
#X connect 11 0 27 0;
#X connect 12 0 28 0;
#X connect 13 0 29 0;
#X connect 14 0 30 0;
#X connect 15 0 31 0;
#X connect 16 0 32 0;
#X connect 17 0 33 0;
#X connect 18 0 34 0;
#X connect 19 0 21 0;
#X connect 19 0 24 0;
#X connect 21 0 19 1;
#X connect 22 0 19 0;
#X connect 23 0 19 1;
#X connect 24 0 42 0;
#X connect 24 0 85 0;
#X connect 25 0 37 0;
#X connect 25 0 50 0;
#X connect 26 0 48 0;
#X connect 27 0 48 0;
#X connect 28 0 48 0;
#X connect 29 0 48 0;
#X connect 30 0 48 0;
#X connect 31 0 48 0;
#X connect 32 0 48 0;
#X connect 33 0 48 0;
#X connect 34 0 48 0;
#X connect 35 0 43 0;
#X connect 37 0 10 0;
#X connect 37 1 11 0;
#X connect 37 2 12 0;
#X connect 37 3 13 0;
#X connect 37 4 14 0;
#X connect 37 5 15 0;
#X connect 37 6 16 0;
#X connect 37 7 17 0;
#X connect 37 8 18 0;
#X connect 37 9 38 0;
#X connect 37 10 39 0;
#X connect 38 0 40 0;
#X connect 39 0 41 0;
#X connect 40 0 48 0;
#X connect 41 0 48 0;
#X connect 42 0 25 0;
#X connect 43 0 36 1;
#X connect 43 0 36 0;
#X connect 44 0 45 0;
#X connect 45 0 9 0;
#X connect 47 0 48 1;
#X connect 48 0 35 0;
#X connect 50 0 52 0;
#X connect 50 1 53 0;
#X connect 50 2 54 0;
#X connect 50 3 55 0;
#X connect 50 4 56 0;
#X connect 50 5 57 0;
#X connect 50 6 58 0;
#X connect 50 7 59 0;
#X connect 50 8 60 0;
#X connect 50 9 70 0;
#X connect 50 10 71 0;
#X connect 52 0 61 0;
#X connect 53 0 62 0;
#X connect 54 0 63 0;
#X connect 55 0 64 0;
#X connect 56 0 65 0;
#X connect 57 0 66 0;
#X connect 58 0 67 0;
#X connect 59 0 68 0;
#X connect 60 0 69 0;
#X connect 61 0 83 0;
#X connect 62 0 83 0;
#X connect 63 0 83 0;
#X connect 64 0 83 0;
#X connect 65 0 83 0;
#X connect 66 0 83 0;
#X connect 67 0 83 0;
#X connect 68 0 83 0;
#X connect 69 0 83 0;
#X connect 70 0 72 0;
#X connect 71 0 73 0;
#X connect 72 0 83 0;
#X connect 73 0 83 0;
#X connect 75 0 83 1;
#X connect 76 0 87 0;
#X connect 76 1 88 0;
#X connect 76 2 89 0;
#X connect 76 3 90 0;
#X connect 77 0 80 1;
#X connect 78 0 80 0;
#X connect 80 0 79 0;
#X connect 80 0 79 1;
#X connect 81 0 82 0;
#X connect 82 0 77 0;
#X connect 83 0 78 0;
#X connect 85 0 86 0;
#X connect 86 0 76 0;
