#N canvas 147 83 668 707 12;
#X obj 67 583 dac~;
#X obj 30 488 osc~;
#X floatatom 27 413 5 0 0 0 - - -;
#X obj 35 320 bng 50 250 50 0 empty empty empty 17 7 0 10 -257985 -159808
-159808;
#X msg 12 100 \; pd dsp \$1;
#X obj 16 33 tgl 30 0 empty empty empty 17 7 0 10 -262144 -1 -1 0 1
;
#X obj 216 266 metro 500;
#X obj 267 182 expr 1000/($f1/60);
#X floatatom 267 149 5 0 0 0 - - -;
#X floatatom 267 233 5 0 0 0 - - -;
#X msg 332 109 134;
#X msg 267 109 60;
#X msg 301 109 110;
#X msg 364 109 200;
#X obj 299 326 + 1;
#X msg 236 503 60;
#X obj 271 629 s note;
#X floatatom 293 362 5 0 0 0 - - -;
#X obj 285 297 f 0;
#X msg 312 263 0;
#X obj 47 239 tgl 15 0 empty empty empty 17 7 0 10 -262144 -1 -1 0
1;
#X obj 33 532 *~ 0.5;
#X obj 39 291 metro 200;
#X obj 138 497 osc~;
#X floatatom 127 414 5 0 0 0 - - -;
#X floatatom 125 320 5 0 0 0 - - -;
#X obj 141 290 hsl 80 15 5 500 0 0 empty empty empty -2 -8 0 10 -159808
-257985 -257985 0 1;
#X obj 61 466 line~;
#X obj 174 468 line~;
#X msg 171 441 \$1 20;
#X msg 60 436 \$1 20;
#X obj 140 531 *~ 0.2;
#X obj 294 391 mod 5;
#X msg 267 503 67;
#X obj 486 119 r note;
#X obj 299 426 hradio 20 1 0 5 empty empty empty 0 0 0 20 -4160 -260097
-1 0;
#X floatatom 485 157 5 0 0 0 - - -;
#X obj 484 188 mtof;
#X floatatom 485 219 5 0 0 0 - - -;
#X obj 485 294 line~;
#X obj 482 543 dac~;
#X obj 483 334 phasor~ 440;
#X obj 554 387 *~ 2;
#X obj 554 430 -~ 1;
#X obj 482 495 *~ 0.2;
#X msg 487 256 \$1 5;
#X obj 213 215 tgl 15 0 empty empty empty 17 7 0 10 -262144 -1 -1 0
1;
#X obj 229 478 select 0 2, f 11;
#X msg 322 508 64;
#X msg 384 508 62;
#X obj 350 467 select 3 4;
#X msg 416 508 64;
#X obj 21 384 random 500;
#X obj 129 383 random 1500;
#X text 398 235;
#X connect 1 0 21 0;
#X connect 2 0 30 0;
#X connect 3 0 52 0;
#X connect 3 0 53 0;
#X connect 5 0 4 0;
#X connect 6 0 18 0;
#X connect 7 0 9 0;
#X connect 8 0 7 0;
#X connect 9 0 6 1;
#X connect 10 0 8 0;
#X connect 11 0 8 0;
#X connect 12 0 8 0;
#X connect 13 0 8 0;
#X connect 14 0 18 1;
#X connect 15 0 16 0;
#X connect 17 0 32 0;
#X connect 18 0 14 0;
#X connect 18 0 17 0;
#X connect 19 0 18 1;
#X connect 20 0 22 0;
#X connect 21 0 0 0;
#X connect 22 0 3 0;
#X connect 23 0 31 0;
#X connect 24 0 29 0;
#X connect 25 0 22 1;
#X connect 26 0 25 0;
#X connect 27 0 1 0;
#X connect 28 0 23 0;
#X connect 29 0 28 0;
#X connect 30 0 27 0;
#X connect 31 0 0 1;
#X connect 32 0 35 0;
#X connect 33 0 16 0;
#X connect 34 0 36 0;
#X connect 35 0 47 0;
#X connect 35 0 50 0;
#X connect 36 0 37 0;
#X connect 37 0 38 0;
#X connect 38 0 45 0;
#X connect 39 0 41 0;
#X connect 41 0 44 0;
#X connect 42 0 43 0;
#X connect 44 0 40 0;
#X connect 44 0 40 1;
#X connect 45 0 39 0;
#X connect 46 0 6 0;
#X connect 47 0 15 0;
#X connect 47 1 33 0;
#X connect 49 0 16 0;
#X connect 50 0 49 0;
#X connect 50 1 51 0;
#X connect 51 0 16 0;
#X connect 52 0 2 0;
#X connect 53 0 24 0;
