#N canvas -18 23 1601 942 12;
#X text 545 109 Bb = [70] \, Bb+8 = [82] \, F = [65] \, Eb = [63] \,
Bb+8 = [82] \, Bb = [70] \, Bb = [70] \, D = [74] \, Bb+8 = [82] \,
C+8 = [84] \, Bb+8 = [82] \, F = [65] \, Eb = [63];
#X text 709 88 Note to Number;
#X obj 490 272 tgl 30 0 empty empty empty 17 7 0 10 -260161 -4160 -4160
0 1;
#X msg 135 131 \; pd dsp \$1;
#X obj 135 83 tgl 15 0 empty empty empty 17 7 0 10 -262144 -1 -1 0
1;
#X text 42 48 control of DSP in code board;
#X obj 233 575 f 0, f 4;
#X obj 305 579 + 1;
#X floatatom 193 696 5 0 0 0 - - -;
#X text 178 870 Bb;
#X text 226 870 Bb+8;
#X text 279 870 F;
#X text 324 869 Eb;
#X text 384 867 D;
#X text 432 866 C;
#X msg 405 470 1, f 5;
#X text 456 468 <--Reset;
#X floatatom 234 618 5 0 0 0 - - -;
#X obj 772 1324 dac~;
#X obj 153 1115 mtof;
#X msg 181 837 70;
#X msg 229 838 82;
#X msg 379 838 74;
#X msg 427 836 84;
#X msg 276 839 77;
#X msg 325 838 75;
#X obj 237 478 metro 1000;
#X obj 587 480 metro 250;
#X obj 165 537 bng 15 250 50 0 empty empty empty 17 7 0 10 -262144
-1 -1;
#X obj 549 539 bng 15 250 50 0 empty empty empty 17 7 0 10 -262144
-1 -1;
#X msg 582 838 70;
#X msg 627 835 77;
#X msg 669 836 75;
#X msg 716 835 74;
#X obj 591 593 f 0, f 4;
#X obj 663 597 + 1;
#X floatatom 593 710 5 0 0 0 - - -;
#X floatatom 592 636 5 0 0 0 - - -;
#X obj 593 669 mod 7;
#X obj 235 651 mod 14;
#X obj 185 746 select 0 1 2 3 4 5 6 7 8 9 10 11 12 13;
#X obj 586 774 select 0 1 2 3 4 5 6;
#X obj 566 1108 mtof;
#X text 579 437 Sub theme 1;
#X obj 856 484 metro 250;
#X obj 840 559 bng 15 250 50 0 empty empty empty 17 7 0 10 -262144
-1 -1;
#X obj 860 597 f 0, f 4;
#X obj 932 601 + 1;
#X floatatom 862 714 5 0 0 0 - - -;
#X floatatom 861 640 5 0 0 0 - - -;
#X msg 890 830 63;
#X obj 862 673 mod 2;
#X obj 860 768 select 0 1;
#X obj 871 936 mtof;
#X text 852 443 Sub theme 2;
#X obj 837 1078 phasor~;
#X obj 925 1072 osc~;
#N canvas 783 114 618 436 my 0;
#X obj 82 50 inlet;
#X obj 90 374 outlet~;
#X obj 87 187 osc~;
#X obj 186 244 osc~;
#X obj 280 257 osc~;
#X obj 504 237 phasor~;
#X obj 227 200 * 1.015;
#X obj 303 200 * 0.503;
#X obj 528 184 * 1.4965;
#X obj 488 294 *~ 0.1;
#X obj 358 256 osc~;
#X obj 381 199 * 0.503;
#X connect 0 0 7 0;
#X connect 0 0 8 0;
#X connect 0 0 6 0;
#X connect 0 0 2 0;
#X connect 0 0 11 0;
#X connect 2 0 1 0;
#X connect 3 0 1 0;
#X connect 4 0 1 0;
#X connect 5 0 9 0;
#X connect 6 0 3 1;
#X connect 7 0 4 0;
#X connect 8 0 5 0;
#X connect 9 0 1 0;
#X connect 10 0 1 0;
#X connect 11 0 10 0;
#X coords 0 0 1 1 85 60 0;
#X restore 154 1162 pd my own oscs;
#N canvas 817 243 450 372 env 0;
#X obj 70 30 inlet;
#X obj 88 80 bng 15 250 50 0 empty empty empty 17 7 0 10 -262144 -1
-1;
#X msg 66 134 1 3;
#X obj 67 177 line~;
#X obj 65 221 *~;
#X text 114 237 square the output?;
#X obj 233 31 inlet;
#X obj 71 289 outlet~;
#X floatatom 225 78 5 0 0 0 - - -;
#X text 264 74 decay time?;
#X obj 142 135 pack 0 100;
#X obj 142 103 del 30;
#X connect 0 0 1 0;
#X connect 1 0 2 0;
#X connect 1 0 11 0;
#X connect 2 0 3 0;
#X connect 3 0 4 0;
#X connect 3 0 4 1;
#X connect 4 0 7 0;
#X connect 6 0 8 0;
#X connect 8 0 11 1;
#X connect 10 0 3 0;
#X connect 11 0 10 0;
#X restore 288 1144 pd env;
#X obj 154 1077 t f b, f 19;
#X floatatom 153 1000 5 0 0 0 - - -;
#X text 387 1086 <--decay time;
#X obj 252 1243 *~;
#X floatatom 15 1351 5 0 0 0 - - -;
#X floatatom 311 1212 5 0 0 0 - - -;
#X obj 280 927 s A;
#X obj 149 946 r A, f 5;
#X obj 561 948 r B;
#X obj 647 905 s B;
#N canvas 783 114 618 436 my 0;
#X obj 82 50 inlet;
#X obj 90 374 outlet~;
#X obj 87 187 osc~;
#X obj 186 244 osc~;
#X obj 280 257 osc~;
#X obj 504 237 phasor~;
#X obj 227 200 * 1.015;
#X obj 303 200 * 0.503;
#X obj 488 294 *~ 0.1;
#X obj 358 256 osc~;
#X obj 381 199 * 0.503;
#X obj 528 184 * 2;
#X connect 0 0 7 0;
#X connect 0 0 6 0;
#X connect 0 0 2 0;
#X connect 0 0 10 0;
#X connect 0 0 11 0;
#X connect 2 0 1 0;
#X connect 3 0 1 0;
#X connect 4 0 1 0;
#X connect 5 0 8 0;
#X connect 6 0 3 1;
#X connect 7 0 4 0;
#X connect 8 0 1 0;
#X connect 9 0 1 0;
#X connect 10 0 9 0;
#X connect 11 0 5 0;
#X coords 0 0 1 1 85 60 0;
#X restore 567 1154 pd my own oscs;
#X obj 565 1071 t f b, f 13;
#N canvas 817 243 450 372 env 0;
#X obj 70 30 inlet;
#X obj 88 80 bng 15 250 50 0 empty empty empty 17 7 0 10 -262144 -1
-1;
#X msg 66 134 1 3;
#X obj 67 177 line~;
#X obj 65 221 *~;
#X text 114 237 square the output?;
#X obj 233 31 inlet;
#X obj 71 289 outlet~;
#X floatatom 225 78 5 0 0 0 - - -;
#X text 264 74 decay time?;
#X obj 142 135 pack 0 250;
#X obj 142 103 del 100;
#X connect 0 0 1 0;
#X connect 1 0 2 0;
#X connect 1 0 11 0;
#X connect 2 0 3 0;
#X connect 3 0 4 0;
#X connect 3 0 4 1;
#X connect 4 0 7 0;
#X connect 6 0 8 0;
#X connect 8 0 11 1;
#X connect 10 0 3 0;
#X connect 11 0 10 0;
#X restore 695 1145 pd env;
#X floatatom 565 997 5 0 0 0 - - -;
#X text 349 1212 <--volume;
#X obj 567 1225 *~;
#X floatatom 667 1201 5 0 0 0 - - -;
#X floatatom 344 1089 5 0 0 0 - - -;
#X text 142 442 Main Theme Row;
#X text 581 863 Bb;
#X text 630 865 F;
#X text 667 864 Eb;
#X text 722 866 D;
#X text 24 948 I swaped A & B;
#X obj 1129 730 select 0 1 2 3 4 5;
#X msg 1052 807 70;
#X msg 1185 805 77;
#X msg 1143 805 75;
#X msg 1100 806 74;
#X msg 1276 803 84;
#X msg 1230 804 82;
#X text 1057 840 Bb;
#X text 1109 842 D;
#X text 1148 843 Eb;
#X text 1195 842 F;
#X text 1231 844 Bb+8;
#X text 1288 845 C;
#X obj 1119 764 bng 15 250 50 0 empty empty empty 17 7 0 10 -260246
-2681 -2548;
#X obj 1143 766 bng 15 250 50 0 empty empty empty 17 7 0 10 -260246
-2681 -2548;
#X obj 1170 767 bng 15 250 50 0 empty empty empty 17 7 0 10 -260246
-2681 -2548;
#X obj 1194 767 bng 15 250 50 0 empty empty empty 17 7 0 10 -260246
-2681 -2548;
#X obj 1221 768 bng 15 250 50 0 empty empty empty 17 7 0 10 -260246
-2681 -2548;
#X obj 1245 768 bng 15 250 50 0 empty empty empty 17 7 0 10 -260246
-2681 -2548;
#X obj 1107 946 r C;
#X obj 1164 896 s C;
#X obj 1147 677 random 6, f 7;
#X obj 1106 586 bng 15 250 50 0 empty empty empty 17 7 0 10 -262144
-1 -1;
#X obj 1110 1091 mtof;
#X obj 1109 1054 t f b, f 13;
#N canvas 817 243 450 372 env 0;
#X obj 70 30 inlet;
#X obj 88 80 bng 15 250 50 0 empty empty empty 17 7 0 10 -262144 -1
-1;
#X msg 66 134 1 3;
#X obj 67 177 line~;
#X obj 65 221 *~;
#X text 114 237 square the output?;
#X obj 233 31 inlet;
#X obj 71 289 outlet~;
#X floatatom 225 78 5 0 0 0 - - -;
#X text 264 74 decay time?;
#X obj 142 135 pack 0 250;
#X obj 142 103 del 100;
#X connect 0 0 1 0;
#X connect 1 0 2 0;
#X connect 1 0 11 0;
#X connect 2 0 3 0;
#X connect 3 0 4 0;
#X connect 3 0 4 1;
#X connect 4 0 7 0;
#X connect 6 0 8 0;
#X connect 8 0 11 1;
#X connect 10 0 3 0;
#X connect 11 0 10 0;
#X restore 1256 1140 pd env;
#X floatatom 1109 980 5 0 0 0 - - -;
#X obj 1111 1208 *~;
#X msg 1293 1076 250;
#X msg 749 1093 50;
#N canvas 783 113 618 436 my 0;
#X obj 82 50 inlet;
#X obj 90 374 outlet~;
#X obj 87 175 osc~;
#X obj 186 244 osc~;
#X obj 280 257 osc~;
#X obj 504 237 phasor~;
#X obj 227 200 * 1.015;
#X obj 358 256 osc~;
#X obj 363 198 * 0.503;
#X obj 454 191 * 0.25015;
#X obj 303 200 * 1.01;
#X obj 528 184 * 2;
#X obj 431 258 phasor~;
#X obj 86 281 *~ 0.5;
#X obj 201 314 *~ 0.1;
#X obj 412 298 *~ 0.1;
#X connect 0 0 6 0;
#X connect 0 0 2 0;
#X connect 0 0 8 0;
#X connect 0 0 9 0;
#X connect 0 0 10 0;
#X connect 0 0 11 0;
#X connect 2 0 13 0;
#X connect 3 0 14 0;
#X connect 4 0 14 0;
#X connect 5 0 15 0;
#X connect 6 0 3 1;
#X connect 7 0 14 0;
#X connect 8 0 7 0;
#X connect 9 0 12 0;
#X connect 10 0 4 0;
#X connect 11 0 5 0;
#X connect 12 0 15 0;
#X connect 13 0 1 0;
#X connect 14 0 1 0;
#X connect 15 0 1 0;
#X coords 0 0 1 1 85 60 0;
#X restore 1111 1137 pd my own oscs 2;
#X text 1134 310 want this row to be a continuous random melody;
#X obj 1291 457 random 4;
#X obj 1296 491 select 0 1 2 3;
#X msg 1284 533 250;
#X msg 1330 532 500;
#X msg 1246 530 125;
#X msg 1376 533 1000;
#X obj 1202 393 metro 500;
#X obj 1155 495 metro;
#X floatatom 1246 584 5 0 0 0 - - -;
#X text 1321 589 randomized metro;
#X obj 1011 407 tgl 30 0 empty empty empty 17 7 0 10 -261682 -4160
-4160 0 1;
#X obj 828 1190 *~ 0.05;
#X msg 842 828 51;
#X text 758 343 delay random theme;
#X text 1131 451 Random theme;
#X text 466 222 Toggle fro All [Start Button];
#X text 986 364 Toggle for [Random T];
#X text 1288 767 <--Keep track of the Notes;
#X obj 781 368 pipe 7000;
#X text 659 48 UNDERTALE MAIN THEME RECREATION;
#X obj 908 1188 *~ 0.4;
#X obj 156 1039 hsl 128 15 0 127 0 0 empty empty empty -2 -8 0 10 -262144
-1 -1 7400 1;
#X obj 566 1035 hsl 128 15 0 127 0 0 empty empty empty -2 -8 0 10 -262144
-1 -1 7000 1;
#X obj 1111 1024 hsl 128 15 0 127 0 0 empty empty empty -2 -8 0 10
-262144 -1 -1 8400 1;
#X connect 2 0 26 0;
#X connect 2 0 27 0;
#X connect 2 0 44 0;
#X connect 2 0 133 0;
#X connect 4 0 3 0;
#X connect 6 0 7 0;
#X connect 6 0 17 0;
#X connect 7 0 6 1;
#X connect 8 0 40 0;
#X connect 15 0 6 1;
#X connect 15 0 34 1;
#X connect 15 0 46 1;
#X connect 17 0 39 0;
#X connect 19 0 57 0;
#X connect 20 0 65 0;
#X connect 21 0 65 0;
#X connect 22 0 65 0;
#X connect 23 0 65 0;
#X connect 24 0 65 0;
#X connect 25 0 65 0;
#X connect 26 0 6 0;
#X connect 26 0 28 0;
#X connect 27 0 29 0;
#X connect 27 0 34 0;
#X connect 30 0 68 0;
#X connect 31 0 68 0;
#X connect 32 0 68 0;
#X connect 33 0 68 0;
#X connect 34 0 35 0;
#X connect 34 0 37 0;
#X connect 35 0 34 1;
#X connect 36 0 41 0;
#X connect 37 0 38 0;
#X connect 38 0 36 0;
#X connect 39 0 8 0;
#X connect 40 0 20 0;
#X connect 40 1 21 0;
#X connect 40 2 24 0;
#X connect 40 3 25 0;
#X connect 40 4 21 0;
#X connect 40 5 20 0;
#X connect 40 6 20 0;
#X connect 40 7 22 0;
#X connect 40 8 21 0;
#X connect 40 9 23 0;
#X connect 40 10 21 0;
#X connect 40 11 24 0;
#X connect 40 12 25 0;
#X connect 40 13 20 0;
#X connect 41 0 30 0;
#X connect 41 1 31 0;
#X connect 41 2 32 0;
#X connect 41 3 30 0;
#X connect 41 4 33 0;
#X connect 41 5 33 0;
#X connect 41 6 32 0;
#X connect 42 0 69 0;
#X connect 44 0 45 0;
#X connect 44 0 46 0;
#X connect 46 0 47 0;
#X connect 46 0 49 0;
#X connect 47 0 46 1;
#X connect 48 0 52 0;
#X connect 49 0 51 0;
#X connect 50 0 53 0;
#X connect 51 0 48 0;
#X connect 52 0 127 0;
#X connect 52 1 50 0;
#X connect 53 0 56 0;
#X connect 53 0 55 0;
#X connect 55 0 126 0;
#X connect 56 0 135 0;
#X connect 57 0 62 0;
#X connect 58 0 62 1;
#X connect 59 0 19 0;
#X connect 59 1 58 0;
#X connect 60 0 136 0;
#X connect 62 0 18 0;
#X connect 64 0 62 1;
#X connect 66 0 72 0;
#X connect 67 0 60 0;
#X connect 69 0 74 0;
#X connect 70 0 42 0;
#X connect 70 1 71 0;
#X connect 71 0 74 1;
#X connect 72 0 137 0;
#X connect 74 0 18 0;
#X connect 75 0 74 1;
#X connect 76 0 58 1;
#X connect 83 0 96 0;
#X connect 83 1 97 0;
#X connect 83 2 98 0;
#X connect 83 3 99 0;
#X connect 83 4 100 0;
#X connect 83 5 101 0;
#X connect 84 0 103 0;
#X connect 85 0 103 0;
#X connect 86 0 103 0;
#X connect 87 0 103 0;
#X connect 88 0 103 0;
#X connect 89 0 103 0;
#X connect 96 0 84 0;
#X connect 97 0 87 0;
#X connect 98 0 86 0;
#X connect 99 0 85 0;
#X connect 100 0 89 0;
#X connect 101 0 88 0;
#X connect 102 0 109 0;
#X connect 104 0 83 0;
#X connect 106 0 113 0;
#X connect 107 0 106 0;
#X connect 107 1 108 0;
#X connect 108 0 110 1;
#X connect 109 0 138 0;
#X connect 110 0 18 1;
#X connect 111 0 108 1;
#X connect 112 0 71 1;
#X connect 113 0 110 0;
#X connect 115 0 116 0;
#X connect 116 0 119 0;
#X connect 116 1 117 0;
#X connect 116 2 118 0;
#X connect 116 3 120 0;
#X connect 117 0 123 0;
#X connect 118 0 123 0;
#X connect 119 0 123 0;
#X connect 120 0 123 0;
#X connect 121 0 115 0;
#X connect 122 0 105 0;
#X connect 122 0 104 0;
#X connect 123 0 122 1;
#X connect 125 0 122 0;
#X connect 125 0 121 0;
#X connect 126 0 18 1;
#X connect 127 0 53 0;
#X connect 133 0 125 0;
#X connect 135 0 18 1;
#X connect 136 0 59 0;
#X connect 137 0 70 0;
#X connect 138 0 107 0;
