#N canvas 366 23 1074 821 12;
#X obj 24 236 metro 500;
#X obj 326 754 dac~;
#X obj 336 515 line~;
#X msg 335 494 \$1 100;
#X obj 332 466 tgl 15 0 empty empty empty 17 7 0 10 -262144 -1 -1 0
1;
#X obj 25 297 tgl 15 0 empty empty empty 17 7 0 10 -262144 -1 -1 0
1;
#X floatatom 29 331 5 0 0 0 - - -;
#X obj 24 207 tgl 15 0 empty empty empty 17 7 0 10 -262144 -1 -1 0
1;
#X obj 25 264 bng 20 250 50 0 empty empty empty 17 7 0 10 -262144 -1
-1;
#X floatatom 310 361 5 0 0 0 - - -;
#X obj 311 548 *~;
#X obj 320 41 bng 15 250 50 0 empty empty empty 17 7 0 10 -262144 -1
-1;
#X msg 351 39 1;
#X obj 320 73 f 1, f 4;
#X floatatom 320 110 5 0 0 0 - - -;
#X obj 321 141 mod 8;
#X floatatom 321 169 5 0 0 0 - - -;
#X obj 373 72 + 1;
#X obj 319 250 select 0 1 2 3 4 5 6 7;
#X obj 23 13 tgl 30 0 empty empty empty 17 7 0 10 -262144 -1 -1 0 1
;
#X msg 22 58 \; pd dsp \$1;
#X floatatom 407 565 5 0 1 0 - - -;
#X floatatom 470 571 5 0 0 0 - - -;
#X obj 410 605 pack f 20;
#X obj 408 650 line~;
#X obj 415 378 vsl 30 128 0 1 0 0 empty empty empty 0 -9 0 10 -262144
-1 -262130 0 1;
#X obj 184 645 *~ 0.25;
#X msg 308 325 0;
#X msg 441 325 7;
#X obj 304 413 mtof;
#X floatatom 268 451 5 0 0 0 - - -;
#X msg 416 326 8;
#X obj 290 494 osc~;
#X obj 305 381 + 60;
#X msg 331 325 2;
#X msg 361 327 4;
#X msg 379 326 5;
#X msg 403 326 7;
#X obj 86 597 delwrite~ delay 500;
#X obj 126 688 delread~ delay 600;
#X obj 672 175 select 0 1 2 3 4 5 6 7;
#X floatatom 715 267 5 0 0 0 - - -;
#X obj 709 319 mtof;
#X floatatom 712 346 5 0 0 0 - - -;
#X obj 723 402 osc~;
#X obj 724 432 *~, f 4;
#X msg 456 325 8;
#X obj 710 287 + 80;
#X obj 732 486 *~ 0.1;
#X obj 315 226 hradio 15 1 0 8 empty empty empty 0 -8 0 10 -262144
-1 -1 3;
#X obj 677 143 hradio 15 1 0 8 empty empty empty 0 -8 0 10 -262144
-1 -1 3;
#X msg 646 229 6;
#X msg 696 230 4;
#X msg 739 232 11;
#X msg 779 231 6;
#X msg 99 147 250;
#X msg 97 120 500;
#X floatatom 98 171 5 0 0 0 - - -;
#X connect 0 0 8 0;
#X connect 2 0 10 1;
#X connect 3 0 2 0;
#X connect 4 0 3 0;
#X connect 5 0 6 0;
#X connect 7 0 0 0;
#X connect 8 0 5 0;
#X connect 8 0 11 0;
#X connect 9 0 33 0;
#X connect 10 0 26 0;
#X connect 10 0 38 0;
#X connect 11 0 13 0;
#X connect 12 0 13 1;
#X connect 13 0 14 0;
#X connect 13 0 17 0;
#X connect 14 0 15 0;
#X connect 15 0 16 0;
#X connect 16 0 49 0;
#X connect 16 0 50 0;
#X connect 17 0 13 1;
#X connect 18 0 28 0;
#X connect 18 1 27 0;
#X connect 18 2 35 0;
#X connect 18 3 31 0;
#X connect 18 4 36 0;
#X connect 18 5 37 0;
#X connect 18 6 34 0;
#X connect 18 7 46 0;
#X connect 19 0 20 0;
#X connect 21 0 23 0;
#X connect 22 0 23 1;
#X connect 23 0 24 0;
#X connect 24 0 10 1;
#X connect 24 0 45 1;
#X connect 25 0 21 0;
#X connect 26 0 1 0;
#X connect 26 0 38 0;
#X connect 27 0 9 0;
#X connect 28 0 9 0;
#X connect 29 0 30 0;
#X connect 30 0 32 0;
#X connect 32 0 10 0;
#X connect 33 0 29 0;
#X connect 34 0 9 0;
#X connect 35 0 9 0;
#X connect 36 0 9 0;
#X connect 37 0 9 0;
#X connect 39 0 1 1;
#X connect 39 0 26 0;
#X connect 40 0 51 0;
#X connect 40 2 52 0;
#X connect 40 4 53 0;
#X connect 40 6 54 0;
#X connect 41 0 47 0;
#X connect 42 0 43 0;
#X connect 43 0 44 0;
#X connect 44 0 45 0;
#X connect 45 0 48 0;
#X connect 45 0 38 0;
#X connect 47 0 42 0;
#X connect 49 0 18 0;
#X connect 50 0 40 0;
#X connect 51 0 41 0;
#X connect 52 0 41 0;
#X connect 53 0 41 0;
#X connect 54 0 41 0;
#X connect 55 0 0 1;
#X connect 56 0 0 1;
#X connect 57 0 0 1;
