#N canvas 698 429 1321 1120 12;
#X obj 217 504 dac~;
#X msg 46 252 \; pd dsp \$1;
#X obj 46 199 tgl 30 0 empty empty empty 17 7 0 10 -262144 -1 -1 1
1;
#X obj 219 440 *~;
#X obj 233 265 line~;
#X floatatom 284 199 5 0 0 1 glide - -;
#X obj 233 305 phasor~ 440;
#X obj 233 352 *~ 2;
#X obj 233 395 -~ 1;
#X obj 367 374 tgl 15 0 empty empty note_on/off 17 7 0 10 -262144 -1
-1 0 1;
#X floatatom 442 397 5 0 0 1 attack_ms - -;
#X floatatom 448 422 5 0 0 1 decay_ms - -;
#X floatatom 482 447 5 0 0 1 sustain_% - -;
#X floatatom 517 483 5 0 0 1 release_ms - -;
#X obj 373 496 adsr~ 10 10 80 50, f 18;
#X obj 224 466 *~ 0.5;
#X obj 421 179 metro 500;
#X obj 368 74 tgl 15 0 empty empty empty 17 7 0 10 -262144 -1 -1 0
1;
#X obj 508 91 expr 1000/($f1/60);
#X floatatom 508 58 5 0 0 0 - - -;
#X floatatom 508 142 5 0 0 0 - - -;
#X msg 573 18 134;
#X msg 508 18 60;
#X msg 542 18 110;
#X msg 605 18 200;
#X msg 639 18 300;
#X obj 363 244 sel 0;
#X msg 360 275 0;
#X obj 233 140 mtof;
#X floatatom 233 169 5 0 0 0 - - -;
#X obj 236 104 hsl 128 15 0 127 0 0 empty empty empty -2 -8 0 10 -262144
-1 -1 11000 1;
#X obj 573 212 + 1;
#X floatatom 534 299 5 0 0 0 - - -;
#X obj 602 402 s note;
#X obj 233 48 r note;
#X obj 233 223 pack f 50;
#X msg 671 18 400;
#X floatatom 233 79 5 0 0 0 - - -;
#X obj 527 273 mod 8;
#X floatatom 527 237 5 0 0 0 - - -;
#X obj 524 208 f 0;
#X msg 527 185 0;
#X obj 538 327 select 0 1 2 3 4 5 6 7, f 43;
#X msg 569 353 70;
#X msg 697 353 55;
#X msg 761 353 75;
#X msg 633 353 70;
#X msg 729 353 75;
#X msg 665 353 55;
#X msg 601 353 70;
#X msg 538 353 70;
#X obj 508 118 * 0.5;
#X connect 2 0 1 0;
#X connect 3 0 15 0;
#X connect 4 0 6 0;
#X connect 5 0 35 1;
#X connect 6 0 7 0;
#X connect 7 0 8 0;
#X connect 8 0 3 0;
#X connect 9 0 14 0;
#X connect 10 0 14 1;
#X connect 11 0 14 2;
#X connect 12 0 14 3;
#X connect 13 0 14 4;
#X connect 14 0 3 1;
#X connect 15 0 0 0;
#X connect 15 0 0 1;
#X connect 16 0 9 0;
#X connect 16 0 40 0;
#X connect 17 0 16 0;
#X connect 17 0 26 0;
#X connect 18 0 51 0;
#X connect 19 0 18 0;
#X connect 20 0 16 1;
#X connect 21 0 19 0;
#X connect 22 0 19 0;
#X connect 23 0 19 0;
#X connect 24 0 19 0;
#X connect 25 0 19 0;
#X connect 26 0 27 0;
#X connect 27 0 9 0;
#X connect 28 0 29 0;
#X connect 29 0 35 0;
#X connect 30 0 28 0;
#X connect 31 0 40 1;
#X connect 32 0 42 0;
#X connect 34 0 37 0;
#X connect 35 0 4 0;
#X connect 36 0 19 0;
#X connect 37 0 30 0;
#X connect 38 0 32 0;
#X connect 39 0 38 0;
#X connect 40 0 31 0;
#X connect 40 0 39 0;
#X connect 41 0 40 1;
#X connect 42 0 50 0;
#X connect 42 1 43 0;
#X connect 42 2 49 0;
#X connect 42 3 46 0;
#X connect 42 4 48 0;
#X connect 42 5 44 0;
#X connect 42 6 47 0;
#X connect 42 7 45 0;
#X connect 43 0 33 0;
#X connect 44 0 33 0;
#X connect 45 0 33 0;
#X connect 46 0 33 0;
#X connect 47 0 33 0;
#X connect 48 0 33 0;
#X connect 49 0 33 0;
#X connect 50 0 33 0;
#X connect 51 0 20 0;
