#N canvas 1043 793 1232 1001 12;
#X obj 61 656 tabread \$0-myMelody;
#X floatatom 62 629 5 0 0 0 - - -;
#X floatatom 61 692 5 0 0 0 - - -;
#X obj 62 575 f;
#X obj 110 575 + 1;
#X obj 61 813 *~ 0.3;
#X obj 61 780 osc~;
#X obj 88 857 dac~;
#X floatatom 122 501 5 0 0 0 - - -;
#X floatatom 61 752 5 0 0 0 - - -;
#X obj 61 721 mtof;
#X floatatom 148 560 5 0 0 0 - - -;
#X obj 64 473 bng 25 250 50 0 empty start Start 30 12 0 14 -4034 -1
-1;
#X obj 292 472 bng 25 250 50 0 empty start Stop 30 12 0 14 -257985
-1 -1;
#X msg 290 512 0;
#N canvas 0 22 450 278 (subpatch) 0;
#X array \$0-myMelody 25 float 3;
#A 0 89 91.5 94 64 60.5 70.5 94.5 100.5 99 70.5 57 55 91.5 89 80 54
53 60 80 80 85 85.5 56 61.5 63;
#X coords 0 127 25 0 200 127 1 0 0;
#X restore 66 302 graph;
#X msg 266 641 \; pd dsp \$1;
#X obj 266 601 tgl 30 0 empty empty empty 17 7 0 10 -262144 -1 -1 0
1;
#X obj 110 597 mod 20;
#X text 90 859;
#X obj 63 532 metro 150;
#X connect 0 0 2 0;
#X connect 1 0 0 0;
#X connect 2 0 10 0;
#X connect 3 0 4 0;
#X connect 3 0 1 0;
#X connect 4 0 18 0;
#X connect 5 0 7 1;
#X connect 5 0 7 0;
#X connect 6 0 5 0;
#X connect 8 0 20 1;
#X connect 9 0 6 0;
#X connect 10 0 9 0;
#X connect 11 0 18 1;
#X connect 12 0 20 0;
#X connect 13 0 14 0;
#X connect 14 0 20 0;
#X connect 17 0 16 0;
#X connect 18 0 3 1;
#X connect 20 0 3 0;
