#N canvas 25 23 1427 933 12;
#X floatatom 387 469 5 0 0 0 - - -;
#X obj 374 880 dac~;
#X obj 387 249 tgl 15 0 empty empty empty 17 7 0 10 -262144 -1 -1 0
1;
#X msg 33 52 \; pd dsp \$1;
#X obj 34 24 tgl 15 0 empty empty empty 17 7 0 10 -262144 -1 -1 0 1
;
#X obj 387 325 bng 30 250 50 0 empty empty empty 17 7 0 10 -4032 -1
-1;
#X obj 387 287 metro 500;
#X obj 596 51 tgl 15 0 empty empty empty 17 7 0 10 -262144 -1 -1 0
1;
#X obj 596 132 bng 30 250 50 0 empty empty empty 17 7 0 10 -4032 -1
-1;
#X floatatom 695 181 5 0 1000 0 - - -;
#X obj 779 145 + 1;
#X obj 695 146 f 1;
#X msg 780 116 1;
#X obj 703 361 bng 15 250 50 0 empty empty empty 17 7 0 10 -262144
-1 -1;
#X obj 724 361 bng 15 250 50 0 empty empty empty 17 7 0 10 -262144
-1 -1;
#X obj 744 361 bng 15 250 50 0 empty empty empty 17 7 0 10 -262144
-1 -1;
#X obj 764 361 bng 15 250 50 0 empty empty empty 17 7 0 10 -262144
-1 -1;
#X obj 785 361 bng 15 250 50 0 empty empty empty 17 7 0 10 -262144
-1 -1;
#X obj 804 361 bng 15 250 50 0 empty empty empty 17 7 0 10 -262144
-1 -1;
#X floatatom 859 633 5 0 0 0 - - -;
#X floatatom 448 251 5 0 0 0 - - -;
#X floatatom 165 492 5 0 0 0 - - -;
#X obj 712 295 hradio 21 1 0 15 empty empty empty 0 -8 0 10 -262144
-1 -1 9;
#X floatatom 708 265 5 0 0 0 - - -;
#X obj 823 362 bng 15 250 50 0 empty empty empty 17 7 0 10 -262144
-1 -1;
#X obj 843 362 bng 15 250 50 0 empty empty empty 17 7 0 10 -262144
-1 -1;
#X obj 862 362 bng 15 250 50 0 empty empty empty 17 7 0 10 -262144
-1 -1;
#X obj 883 362 bng 15 250 50 0 empty empty empty 17 7 0 10 -262144
-1 -1;
#X obj 903 362 bng 15 250 50 0 empty empty empty 17 7 0 10 -262144
-1 -1;
#X obj 922 362 bng 15 250 50 0 empty empty empty 17 7 0 10 -262144
-1 -1;
#X obj 944 360 bng 15 250 50 0 empty empty empty 17 7 0 10 -262144
-1 -1;
#X obj 964 361 bng 15 250 50 0 empty empty empty 17 7 0 10 -262144
-1 -1;
#X obj 983 361 bng 15 250 50 0 empty empty empty 17 7 0 10 -262144
-1 -1;
#X obj 1003 360 bng 15 250 50 0 empty empty empty 17 7 0 10 -262144
-1 -1;
#X obj 1023 359 bng 15 250 50 0 empty empty empty 17 7 0 10 -262144
-1 -1;
#X obj 694 211 mod 16;
#X obj 710 330 select 0 1 2 3 4 5 6 7 8 9 10 11 12 13 14 15;
#X msg 194 590 0;
#X floatatom 656 52 5 0 0 0 - - -;
#X obj 166 311 vsl 15 128 100 200 0 0 empty empty empty 0 -9 0 10 -258113
-1 -1 2400 1;
#X obj 700 525 f;
#X obj 741 525 f;
#X obj 782 525 f;
#X obj 820 526 f;
#X obj 859 526 f;
#X obj 900 526 f;
#X obj 941 524 f;
#X obj 980 525 f;
#X obj 1019 523 f;
#X obj 714 386 vsl 15 128 0 300 0 0 empty empty empty 0 -9 0 10 -4034
-1 -1 7800 1;
#X obj 755 384 vsl 15 128 0 300 0 0 empty empty empty 0 -9 0 10 -4034
-1 -1 8600 1;
#X obj 795 387 vsl 15 128 0 300 0 0 empty empty empty 0 -9 0 10 -4034
-1 -1 7900 1;
#X obj 835 387 vsl 15 128 0 300 0 0 empty empty empty 0 -9 0 10 -4034
-1 -1 9900 1;
#X obj 873 387 vsl 15 128 0 300 0 0 empty empty empty 0 -9 0 10 -4034
-1 -1 8000 1;
#X obj 915 390 vsl 15 128 0 300 0 0 empty empty empty 0 -9 0 10 -4034
-1 -1 10300 1;
#X obj 955 387 vsl 15 128 0 300 0 0 empty empty empty 0 -9 0 10 -4034
-1 -1 8200 1;
#X obj 992 388 vsl 15 128 0 300 0 0 empty empty empty 0 -9 0 10 -4034
-1 -1 9800 1;
#X obj 1033 385 vsl 15 128 0 400 0 0 empty empty empty 0 -9 0 10 -4034
-1 -1 7200 1;
#X msg 470 825 0;
#X obj 385 810 *~ 0.9;
#X msg 470 859 0.9;
#X obj 423 703 tgl 15 0 empty empty empty 17 7 0 10 -262144 -1 -1 1
1;
#X obj 899 723 tgl 15 0 empty empty empty 17 7 0 10 -262144 -1 -1 1
1;
#X floatatom 31 492 5 0 0 0 - - -;
#X msg 66 587 0;
#X obj 33 314 vsl 15 128 100 200 0 0 empty empty empty 0 -9 0 10 -258113
-1 -1 6700 1;
#X obj 35 643 *~ 0.2;
#X msg 85 615 0.2;
#X msg 212 617 0.2;
#X obj 163 646 *~ 0.2;
#X obj 32 529 osc~ 300;
#X obj 166 531 osc~ 440;
#X obj 388 432 + 5;
#X obj 386 636 osc~ 300;
#X obj 384 741 *~ 0.5;
#X obj 596 89 metro 500;
#X obj 860 676 osc~ 100;
#X obj 388 386 random 150;
#X obj 858 750 *~ 0.4;
#X connect 0 0 73 0;
#X connect 2 0 6 0;
#X connect 4 0 3 0;
#X connect 5 0 77 0;
#X connect 6 0 5 0;
#X connect 7 0 75 0;
#X connect 8 0 11 0;
#X connect 9 0 35 0;
#X connect 10 0 11 1;
#X connect 11 0 10 0;
#X connect 11 0 9 0;
#X connect 12 0 11 1;
#X connect 13 0 40 0;
#X connect 15 0 41 0;
#X connect 17 0 42 0;
#X connect 19 0 76 0;
#X connect 20 0 6 1;
#X connect 21 0 71 0;
#X connect 22 0 36 0;
#X connect 23 0 22 0;
#X connect 24 0 43 0;
#X connect 26 0 44 0;
#X connect 28 0 45 0;
#X connect 30 0 46 0;
#X connect 32 0 47 0;
#X connect 34 0 48 0;
#X connect 35 0 23 0;
#X connect 36 0 13 0;
#X connect 36 1 14 0;
#X connect 36 2 15 0;
#X connect 36 3 16 0;
#X connect 36 4 17 0;
#X connect 36 5 18 0;
#X connect 36 6 24 0;
#X connect 36 7 25 0;
#X connect 36 8 26 0;
#X connect 36 9 27 0;
#X connect 36 10 28 0;
#X connect 36 11 29 0;
#X connect 36 12 30 0;
#X connect 36 13 31 0;
#X connect 36 14 32 0;
#X connect 36 15 33 0;
#X connect 36 16 34 0;
#X connect 37 0 69 1;
#X connect 38 0 75 1;
#X connect 39 0 21 0;
#X connect 40 0 19 0;
#X connect 41 0 19 0;
#X connect 42 0 19 0;
#X connect 43 0 19 0;
#X connect 44 0 19 0;
#X connect 45 0 19 0;
#X connect 46 0 19 0;
#X connect 47 0 19 0;
#X connect 48 0 19 0;
#X connect 49 0 40 1;
#X connect 50 0 41 1;
#X connect 51 0 42 1;
#X connect 52 0 43 1;
#X connect 53 0 44 1;
#X connect 54 0 45 1;
#X connect 55 0 46 1;
#X connect 57 0 48 1;
#X connect 58 0 59 1;
#X connect 59 0 1 0;
#X connect 59 0 1 1;
#X connect 60 0 59 1;
#X connect 61 0 74 1;
#X connect 62 0 78 1;
#X connect 63 0 70 0;
#X connect 64 0 66 1;
#X connect 65 0 63 0;
#X connect 66 0 59 0;
#X connect 67 0 66 1;
#X connect 68 0 69 1;
#X connect 69 0 59 0;
#X connect 70 0 66 0;
#X connect 71 0 69 0;
#X connect 72 0 0 0;
#X connect 73 0 74 0;
#X connect 74 0 59 0;
#X connect 75 0 8 0;
#X connect 76 0 78 0;
#X connect 77 0 72 0;
#X connect 78 0 59 0;
