#N canvas 539 130 900 786 12;
#X obj 551 751 loadbang;
#X obj 551 829 table tryphrase;
#X obj 90 95 tgl 15 0 empty empty empty 17 7 0 10 -262144 -1 -1 0 1
;
#X floatatom 401 297 5 0 0 0 - - -;
#X obj 91 214 f;
#X obj 153 207 + 1;
#X obj 233 187 f;
#X obj 295 180 + 1;
#X msg 551 774 \; tryphrase 0 67 70 74 76 78 70 67 76 74 70 78 76;
#X obj 782 39 notein;
#X obj 776 145 mtof;
#X floatatom 779 81 5 0 0 0 - - -;
#X floatatom 774 206 5 0 0 0 - - -;
#X obj 185 842 makenote 100 125;
#X obj 189 896 noteout 2;
#X obj 232 727 tabread tryphrase;
#X obj 190 753 sel 0 1 2 3 4 5 6 7 8 9 10 11 12 13;
#X obj 189 789 67;
#X obj 224 793 70;
#X obj 259 791 74;
#X obj 291 794 76;
#X obj 323 794 78;
#X obj 353 795 70;
#X obj 389 794 67;
#X obj 422 795 76;
#X obj 461 796 74;
#X obj 459 852 70;
#X obj 492 849 78;
#X obj 501 793 76;
#X msg 393 185 \; pd dsp \$1;
#X obj 393 132 tgl 30 0 empty empty empty 17 7 0 10 -262144 -1 -1 0
1;
#X obj 274 516 mtof;
#X floatatom 273 549 5 0 0 0 - - -;
#X obj 1695 795 osc~;
#X obj 1698 861 *~;
#X obj 1731 843 tgl 15 0 empty empty empty 17 7 0 10 -262144 -1 -1
0 1;
#X obj 1697 889 dac~;
#X obj 1705 805 osc~;
#X obj 1708 871 *~;
#X obj 1741 853 tgl 15 0 empty empty empty 17 7 0 10 -262144 -1 -1
0 1;
#X obj 1707 899 dac~;
#X obj 1715 815 osc~;
#X obj 1718 881 *~;
#X obj 1751 863 tgl 15 0 empty empty empty 17 7 0 10 -262144 -1 -1
0 1;
#X obj 1717 909 dac~;
#X obj 274 593 osc~;
#X obj 272 638 *~;
#X obj 268 678 dac~;
#X msg 330 617 0.5;
#X floatatom -25 605 5 0 0 0 - - -;
#X obj -26 694 *~;
#X obj 91 131 metro 248;
#X obj 219 133 metro 250;
#X msg 467 380 64;
#X obj -25 649 osc~;
#X obj 405 328 select 0 1 2 3 4 5 6 7 8 9 11 12 13 14 15 16 17 18 19
20 21 22 23;
#X msg 373 377 62;
#X msg 383 388 64;
#X msg 386 403 65;
#X msg 402 408 64;
#X msg 427 396 69;
#X msg 486 371 65;
#X msg 523 393 61;
#X msg 544 399 64;
#X msg 561 391 65;
#X msg 613 372 69;
#X msg 648 375 64;
#X msg 720 390 58;
#X msg 733 412 62;
#X msg 761 389 65;
#X msg 781 413 64;
#X msg 796 383 69;
#X msg 857 395 64;
#X msg 900 398 65;
#X obj 295 209 mod 24;
#X msg 583 386 64;
#X msg 683 381 65;
#X msg 458 393 69;
#X msg 616 386 69;
#X msg 812 395 69;
#X obj 153 236 mod 24;
#X floatatom 91 297 5 0 0 0 - - -;
#X obj -36 516 mtof;
#X msg 157 380 64;
#X obj 95 328 select 0 1 2 3 4 5 6 7 8 9 11 12 13 14 15 16 17 18 19
20 21 22 23;
#X msg 63 377 62;
#X msg 73 388 64;
#X msg 76 403 65;
#X msg 92 408 64;
#X msg 117 396 69;
#X msg 176 371 65;
#X msg 213 393 61;
#X msg 234 399 64;
#X msg 251 391 65;
#X msg 303 372 69;
#X msg 338 375 64;
#X msg 410 390 58;
#X msg 423 412 62;
#X msg 451 389 65;
#X msg 471 413 64;
#X msg 486 383 69;
#X msg 547 395 64;
#X msg 590 398 65;
#X msg 273 386 64;
#X msg 373 381 65;
#X msg 148 393 69;
#X msg 306 386 69;
#X msg 502 395 69;
#X connect 0 0 8 0;
#X connect 2 0 48 0;
#X connect 2 0 51 0;
#X connect 2 0 52 0;
#X connect 3 0 55 0;
#X connect 4 0 5 0;
#X connect 4 0 81 0;
#X connect 5 0 80 0;
#X connect 6 0 7 0;
#X connect 6 0 3 0;
#X connect 7 0 74 0;
#X connect 9 0 11 0;
#X connect 10 0 12 0;
#X connect 11 0 10 0;
#X connect 13 0 14 0;
#X connect 13 1 14 1;
#X connect 16 0 17 0;
#X connect 16 1 18 0;
#X connect 16 2 19 0;
#X connect 16 3 20 0;
#X connect 16 5 21 0;
#X connect 16 6 23 0;
#X connect 16 7 24 0;
#X connect 16 8 25 0;
#X connect 16 9 26 0;
#X connect 16 10 27 0;
#X connect 16 11 28 0;
#X connect 17 0 13 0;
#X connect 30 0 29 0;
#X connect 31 0 32 0;
#X connect 32 0 45 0;
#X connect 33 0 34 0;
#X connect 34 0 36 0;
#X connect 35 0 34 1;
#X connect 37 0 38 0;
#X connect 38 0 40 0;
#X connect 39 0 38 1;
#X connect 41 0 42 0;
#X connect 42 0 44 0;
#X connect 43 0 42 1;
#X connect 45 0 46 0;
#X connect 46 0 47 1;
#X connect 48 0 46 1;
#X connect 48 0 50 1;
#X connect 49 0 54 0;
#X connect 50 0 47 0;
#X connect 51 0 4 0;
#X connect 52 0 6 0;
#X connect 53 0 31 0;
#X connect 54 0 50 0;
#X connect 55 0 56 0;
#X connect 55 1 57 0;
#X connect 55 2 58 0;
#X connect 55 3 59 0;
#X connect 55 4 60 0;
#X connect 55 5 77 0;
#X connect 55 6 53 0;
#X connect 55 7 61 0;
#X connect 55 8 62 0;
#X connect 55 9 63 0;
#X connect 55 10 64 0;
#X connect 55 11 75 0;
#X connect 55 12 65 0;
#X connect 55 13 78 0;
#X connect 55 14 66 0;
#X connect 55 15 76 0;
#X connect 55 16 67 0;
#X connect 55 17 68 0;
#X connect 55 18 69 0;
#X connect 55 19 70 0;
#X connect 55 20 71 0;
#X connect 55 21 71 0;
#X connect 55 22 72 0;
#X connect 55 23 73 0;
#X connect 56 0 31 0;
#X connect 57 0 31 0;
#X connect 58 0 31 0;
#X connect 59 0 31 0;
#X connect 60 0 31 0;
#X connect 61 0 31 0;
#X connect 62 0 31 0;
#X connect 63 0 31 0;
#X connect 64 0 31 0;
#X connect 65 0 31 0;
#X connect 66 0 31 0;
#X connect 67 0 31 0;
#X connect 68 0 31 0;
#X connect 69 0 31 0;
#X connect 70 0 31 0;
#X connect 71 0 31 0;
#X connect 72 0 31 0;
#X connect 73 0 31 0;
#X connect 74 0 6 1;
#X connect 75 0 31 0;
#X connect 76 0 31 0;
#X connect 77 0 31 0;
#X connect 78 0 31 0;
#X connect 79 0 31 0;
#X connect 80 0 4 1;
#X connect 81 0 84 0;
#X connect 82 0 49 0;
#X connect 83 0 82 0;
#X connect 84 0 85 0;
#X connect 84 1 86 0;
#X connect 84 2 87 0;
#X connect 84 3 88 0;
#X connect 84 4 89 0;
#X connect 84 5 105 0;
#X connect 84 6 83 0;
#X connect 84 7 90 0;
#X connect 84 8 91 0;
#X connect 84 9 92 0;
#X connect 84 10 93 0;
#X connect 84 11 103 0;
#X connect 84 12 94 0;
#X connect 84 13 106 0;
#X connect 84 14 95 0;
#X connect 84 15 104 0;
#X connect 84 16 96 0;
#X connect 84 17 97 0;
#X connect 84 18 98 0;
#X connect 84 19 99 0;
#X connect 84 20 100 0;
#X connect 84 21 100 0;
#X connect 84 22 101 0;
#X connect 84 23 102 0;
#X connect 85 0 82 0;
#X connect 86 0 82 0;
#X connect 87 0 82 0;
#X connect 88 0 82 0;
#X connect 89 0 82 0;
#X connect 90 0 82 0;
#X connect 91 0 82 0;
#X connect 92 0 82 0;
#X connect 93 0 82 0;
#X connect 94 0 82 0;
#X connect 95 0 82 0;
#X connect 96 0 82 0;
#X connect 97 0 82 0;
#X connect 98 0 82 0;
#X connect 99 0 82 0;
#X connect 100 0 82 0;
#X connect 101 0 82 0;
#X connect 102 0 82 0;
#X connect 103 0 82 0;
#X connect 104 0 82 0;
#X connect 105 0 82 0;
#X connect 106 0 82 0;
#X connect 107 0 82 0;
