#N canvas 431 156 688 778 12;
#X obj 92 106 metro 500;
#X obj 92 141 bng 20 250 50 0 empty empty empty 17 7 0 10 -261867 -1317
-1;
#X obj 60 79 tgl 15 0 empty empty Toggle_1 17 7 0 10 -1317 -1 -1317
0 1;
#X obj 92 174 tgl 15 0 empty empty empty 17 7 0 10 -262144 -1 -1 0
1;
#X floatatom 106 213 5 0 0 0 - - -;
#X floatatom 149 75 5 0 0 0 - - -;
#X obj 242 56 bng 15 250 50 0 empty empty empty 17 7 0 10 -262144 -1
-1;
#X obj 245 84 f 1;
#X obj 305 81 + 1;
#X msg 296 44 1;
#X floatatom 247 121 5 0 0 0 - - -;
#X floatatom 274 188 5 0 0 0 - - -;
#X obj 277 257 bng 15 250 50 0 empty empty empty 17 7 0 10 -261867
-1317 -1;
#X obj 318 257 bng 15 250 50 0 empty empty empty 17 7 0 10 -261867
-1317 -1;
#X obj 341 256 bng 15 250 50 0 empty empty empty 17 7 0 10 -261867
-1317 -1;
#X obj 360 259 bng 15 250 50 0 empty empty empty 17 7 0 10 -261867
-1317 -1;
#X obj 384 259 bng 15 250 50 0 empty empty empty 17 7 0 10 -261867
-1317 -1;
#X obj 406 258 bng 15 250 50 0 empty empty empty 17 7 0 10 -261867
-1317 -1;
#X obj 297 251 bng 15 250 50 0 empty empty empty 17 7 0 10 -261867
-1317 -1;
#X obj 287 562 osc~ 300;
#X obj 324 735 dac~;
#X obj 293 407 mtof;
#X floatatom 293 374 0 0 0 0 - - -;
#X floatatom 293 434 0 0 0 0 - - -;
#X msg 268 304 60;
#X msg 316 303 67;
#X msg 361 303 69;
#X msg 420 332 65;
#X msg 466 334 64;
#X msg 509 333 62;
#X obj 430 260 bng 15 250 50 0 empty empty empty 17 7 0 10 -261867
-1317 -1;
#X obj 471 259 bng 15 250 50 0 empty empty empty 17 7 0 10 -261867
-1317 -1;
#X obj 494 258 bng 15 250 50 0 empty empty empty 17 7 0 10 -261867
-1317 -1;
#X obj 513 261 bng 15 250 50 0 empty empty empty 17 7 0 10 -261867
-1317 -1;
#X obj 537 261 bng 15 250 50 0 empty empty empty 17 7 0 10 -261867
-1317 -1;
#X obj 559 260 bng 15 250 50 0 empty empty empty 17 7 0 10 -261867
-1317 -1;
#X obj 450 261 bng 15 250 50 0 empty empty empty 17 7 0 10 -261867
-1317 -1;
#X msg 287 336 60;
#X msg 337 335 67;
#X msg 378 335 69;
#X msg 399 304 67;
#X msg 447 307 65;
#X msg 488 308 64;
#X msg 531 308 62;
#X msg 557 331 60;
#X obj 302 519 line~;
#X obj 367 616 line~;
#X obj 371 564 tgl 15 0 empty empty empty 17 7 0 10 -262144 -1 -1 0
1;
#X obj 279 217 select 0 1 2 3 4 5 6 7 8 9 10 11 12 13 14;
#X obj 259 159 mod 15;
#X msg 304 485 \$1 5;
#X obj 298 647 *~;
#X obj 312 687 *~ 0.1;
#X msg 368 591 \$1 5;
#X obj 401 431 metro 500;
#X obj 401 465 bng 20 250 50 0 empty empty empty 17 7 0 10 -261867
-1317 -1;
#X obj 377 397 tgl 15 0 empty empty Toggle_2 17 7 0 10 -1317 -1 -1317
0 1;
#X obj 391 499 tgl 15 0 empty empty Toggle_3 17 7 0 10 -1317 -1 -1317
0 1;
#X floatatom 414 548 5 0 0 0 - - -;
#X floatatom 458 400 5 0 0 0 - - -;
#X obj 100 42 hsl 128 15 0 500 0 0 empty empty empty -2 -8 0 10 -261867
-1317 -1317 12700 1;
#X obj 452 374 hsl 128 15 0 500 0 0 empty empty empty -2 -8 0 10 -261867
-1317 -1317 6300 1;
#X obj 499 443 vsl 15 128 0 3 0 0 empty empty Volume 0 -9 0 10 -261867
-1317 -1317 0 1;
#X connect 0 0 1 0;
#X connect 1 0 3 0;
#X connect 1 0 6 0;
#X connect 2 0 0 0;
#X connect 3 0 4 0;
#X connect 5 0 0 1;
#X connect 6 0 7 0;
#X connect 7 0 8 0;
#X connect 7 0 10 0;
#X connect 8 0 7 1;
#X connect 9 0 7 1;
#X connect 10 0 49 0;
#X connect 11 0 48 0;
#X connect 12 0 24 0;
#X connect 13 0 25 0;
#X connect 14 0 38 0;
#X connect 15 0 26 0;
#X connect 16 0 39 0;
#X connect 17 0 40 0;
#X connect 18 0 37 0;
#X connect 19 0 51 0;
#X connect 21 0 23 0;
#X connect 22 0 21 0;
#X connect 23 0 50 0;
#X connect 24 0 22 0;
#X connect 25 0 22 0;
#X connect 26 0 22 0;
#X connect 27 0 22 0;
#X connect 28 0 22 0;
#X connect 29 0 22 0;
#X connect 30 0 27 0;
#X connect 31 0 28 0;
#X connect 32 0 42 0;
#X connect 33 0 29 0;
#X connect 34 0 43 0;
#X connect 35 0 44 0;
#X connect 36 0 41 0;
#X connect 37 0 22 0;
#X connect 38 0 22 0;
#X connect 39 0 22 0;
#X connect 40 0 22 0;
#X connect 41 0 22 0;
#X connect 42 0 22 0;
#X connect 43 0 22 0;
#X connect 44 0 22 0;
#X connect 45 0 19 0;
#X connect 46 0 51 1;
#X connect 47 0 53 0;
#X connect 48 0 12 0;
#X connect 48 1 18 0;
#X connect 48 2 13 0;
#X connect 48 3 14 0;
#X connect 48 4 15 0;
#X connect 48 5 16 0;
#X connect 48 6 17 0;
#X connect 48 8 30 0;
#X connect 48 9 36 0;
#X connect 48 10 31 0;
#X connect 48 11 32 0;
#X connect 48 12 33 0;
#X connect 48 13 34 0;
#X connect 48 14 35 0;
#X connect 49 0 11 0;
#X connect 50 0 45 0;
#X connect 51 0 52 0;
#X connect 52 0 20 0;
#X connect 53 0 46 0;
#X connect 54 0 55 0;
#X connect 55 0 57 0;
#X connect 56 0 54 0;
#X connect 57 0 62 0;
#X connect 58 0 47 0;
#X connect 59 0 54 1;
#X connect 60 0 5 0;
#X connect 61 0 59 0;
#X connect 62 0 58 0;
