#N canvas 470 212 865 678 12;
#X obj 306 622 dac~;
#X obj 239 41 loadbang;
#X msg 109 42 1;
#X msg 161 42 0;
#X obj 109 125 bng 15 250 50 0 empty empty empty 17 7 0 10 -262144
-1 -1;
#X obj 109 187 f 1;
#X obj 166 191 + 1;
#X obj 109 224 t f f;
#X msg 151 149 1;
#X floatatom 140 257 5 0 0 0 - - -;
#X obj 141 294 select 1 2 3 4 5 6 7 8;
#X msg 117 351 739.99;
#X msg 180 350 466.16;
#X floatatom 110 406 5 0 0 0 - - -;
#X msg 240 350 369.99;
#X obj 112 459 phasor~ \$1;
#X msg 300 351 554.37;
#X msg 363 352 466.16;
#X msg 423 352 698.46;
#X msg 486 350 369.99;
#X msg 546 352 622.25;
#X obj 110 83 metro 200;
#X obj 303 82 metro 1600;
#X obj 303 119 bng 15 250 50 0 empty empty empty 17 7 0 10 -262144
-1 -1;
#X obj 200 459 osc~ \$1;
#X obj 292 533 *~;
#X obj 504 502 line~;
#X obj 503 477 pack f 20;
#X floatatom 505 447 5 0 0 0 - - -;
#X floatatom 577 447 5 0 0 0 - - -;
#X obj 510 408 hsl 128 15 0 1 0 0 empty empty empty -2 -8 0 10 -262144
-1 -1 500 1;
#X connect 2 0 21 0;
#X connect 2 0 22 0;
#X connect 3 0 21 0;
#X connect 3 0 22 0;
#X connect 4 0 5 0;
#X connect 5 0 7 0;
#X connect 6 0 5 1;
#X connect 7 0 6 0;
#X connect 7 1 9 0;
#X connect 8 0 5 1;
#X connect 9 0 10 0;
#X connect 10 0 11 0;
#X connect 10 1 12 0;
#X connect 10 2 14 0;
#X connect 10 3 16 0;
#X connect 10 4 17 0;
#X connect 10 5 18 0;
#X connect 10 6 19 0;
#X connect 10 7 20 0;
#X connect 11 0 13 0;
#X connect 12 0 13 0;
#X connect 13 0 15 0;
#X connect 13 0 24 0;
#X connect 14 0 13 0;
#X connect 15 0 25 0;
#X connect 16 0 13 0;
#X connect 17 0 13 0;
#X connect 18 0 13 0;
#X connect 19 0 13 0;
#X connect 20 0 13 0;
#X connect 21 0 4 0;
#X connect 22 0 23 0;
#X connect 23 0 8 0;
#X connect 24 0 25 0;
#X connect 25 0 0 0;
#X connect 25 0 0 1;
#X connect 26 0 25 1;
#X connect 27 0 26 0;
#X connect 28 0 27 0;
#X connect 30 0 28 0;
