#N canvas 427 29 1052 776 12;
#X text 38 35 Use a combination of control and audio objects to create
a patch that has both sample-based and synthesized sound as distinct
"voices \, " one that is rhythmic/percussive and one that is tonal
(e.g. melody or texture). You may adapt from any examples given so
far in the class and draw from the assigned readings.;
#X obj 806 38 bng 15 250 50 0 empty empty empty 17 7 0 10 -262144 -1
-1;
#X obj 806 70 openpanel;
#X obj 73 224 soundfiler;
#X msg 806 103 read -resize \$1 soundfile;
#N canvas 379 104 450 300 sampleConversion 0;
#X obj 274 16 inlet;
#X floatatom 274 56 10 0 0 1 number_of_samples - -;
#X obj 153 159 / 44.1;
#X floatatom 153 191 10 0 0 1 milliseconds - -;
#X text 207 156 < sampling rate (by default 44.1 KHz);
#X obj 132 263 pack f f;
#X obj 153 222 t b f;
#X obj 43 202 f;
#X obj 31 120 t f f;
#X text 83 116 < using trigger to make sure order of events happens
correctly;
#X text 202 220 < using trigger to make sure order of events happens
correctly;
#X text 204 264 < pack to format message;
#X obj 87 320 outlet;
#X obj 515 331 outlet;
#X connect 0 0 1 0;
#X connect 1 0 8 0;
#X connect 1 0 13 0;
#X connect 2 0 3 0;
#X connect 3 0 6 0;
#X connect 5 0 12 0;
#X connect 6 0 7 0;
#X connect 6 1 5 1;
#X connect 7 0 5 0;
#X connect 8 0 2 0;
#X connect 8 1 7 1;
#X restore 73 257 pd sampleConversion;
#X text 237 261 taken from example 3_tabread4z_line.pd;
#X msg 73 319 49725 1127.55;
#X obj 92 434 line~;
#X obj 93 547 dac~;
#X msg 73 287 set \$1 \$2;
#X msg 558 69 \; pd dsp \$1;
#X obj 558 46 tgl 15 0 empty empty empty 17 7 0 10 -262144 -1 -1 1
1;
#X obj 73 143 loadbang;
#X obj 752 102 print;
#X obj 92 504 *~ 0.3;
#X msg 152 386 0 \, 26252 595.283;
#X text 549 110 master switch;
#N canvas 0 22 450 278 (subpatch) 0;
#X array soundfile-d07 26252 float 2;
#X coords 0 1 26252 -1 200 140 1;
#X restore 300 412 graph;
#X msg 73 177 read -resize ../musicradar-8-bit-bonanza-samples/Bitty\ Noises/CS_Noise\ D-07.wav
soundfile-d07;
#X msg 285 133 read -resize ../musicradar-8-bit-bonanza-samples/Bitty\ Noises/CS_Noise\ B-03.wav
soundfile-b03;
#X msg 283 218 read -resize ../musicradar-8-bit-bonanza-samples/Bitty\ Noises/CS_Noise\ B-05.wav
soundfile-b05;
#N canvas 0 22 450 278 (subpatch) 0;
#X array soundfile-b05 24276 float 2;
#X coords 0 1 24276 -1 200 140 1;
#X restore 300 595 graph;
#N canvas 0 22 450 278 (subpatch) 0;
#X array soundfile-b03 37492 float 2;
#X coords 0 1 37492 -1 200 140 1;
#X restore 822 406 graph;
#X obj 92 470 tabread4~ soundfile-d07;
#X obj 99 622 line~;
#X obj 100 735 dac~;
#X obj 99 692 *~ 0.3;
#X obj 619 425 line~;
#X obj 620 538 dac~;
#X obj 619 495 *~ 0.3;
#X obj 626 613 line~;
#X obj 627 726 dac~;
#X obj 626 683 *~ 0.3;
#N canvas 0 22 450 278 (subpatch) 0;
#X array soundfile-c14 49725 float 2;
#X coords 0 1 49725 -1 200 140 1 0 0;
#X restore 823 587 graph;
#X msg 659 364 0 \, 37492 850.159;
#X msg 136 591 0 \, 24276 550.476;
#X obj 99 658 tabread4~ soundfile-b05;
#X obj 619 461 tabread4~ soundfile-b03;
#X obj 626 649 tabread4~ soundfile-c14;
#X msg 497 177 read -resize ../musicradar-8-bit-bonanza-samples/Bitty\ Noises/CS_Noise\ C-14.wav
soundfile-c14;
#X msg 676 566 0 \, 49725 1127.55;
#X msg 152 411 0 \, 26252 1190.57;
#X msg 152 363 0 \, 26252 297.642;
#X msg 658 393 0 \, 37492 1700.32;
#X msg 657 336 0 \, 37492 425.079;
#X msg 137 567 0 \, 24276 1100.95;
#X msg 138 543 0 \, 24276 275.238;
#X msg 677 542 0 \, 49725 563.775;
#X msg 676 591 0 \, 49725 2255.1;
#X connect 1 0 2 0;
#X connect 2 0 4 0;
#X connect 2 0 14 0;
#X connect 3 0 5 0;
#X connect 5 0 10 0;
#X connect 8 0 24 0;
#X connect 10 0 7 0;
#X connect 12 0 11 0;
#X connect 13 0 19 0;
#X connect 13 0 20 0;
#X connect 13 0 21 0;
#X connect 13 0 40 0;
#X connect 15 0 9 0;
#X connect 15 0 9 1;
#X connect 16 0 8 0;
#X connect 19 0 3 0;
#X connect 20 0 3 0;
#X connect 21 0 3 0;
#X connect 24 0 15 0;
#X connect 25 0 37 0;
#X connect 27 0 26 0;
#X connect 27 0 26 1;
#X connect 28 0 38 0;
#X connect 30 0 29 0;
#X connect 30 0 29 1;
#X connect 31 0 39 0;
#X connect 33 0 32 0;
#X connect 33 0 32 1;
#X connect 35 0 28 0;
#X connect 36 0 25 0;
#X connect 37 0 27 0;
#X connect 38 0 30 0;
#X connect 39 0 33 0;
#X connect 40 0 3 0;
#X connect 41 0 31 0;
#X connect 42 0 8 0;
#X connect 43 0 8 0;
#X connect 44 0 28 0;
#X connect 45 0 28 0;
#X connect 46 0 25 0;
#X connect 47 0 25 0;
#X connect 48 0 31 0;
#X connect 49 0 31 0;
