#N canvas 0 23 1600 776 12;
#X text 38 35 Use a combination of control and audio objects to create
a patch that has both sample-based and synthesized sound as distinct
"voices \, " one that is rhythmic/percussive and one that is tonal
(e.g. melody or texture). You may adapt from any examples given so
far in the class and draw from the assigned readings.;
#X obj 772 589 line~;
#X msg 543 67 \; pd dsp \$1;
#X obj 543 44 tgl 15 0 empty empty Master_Switch 17 7 0 10 -262144
-1 -1 0 1;
#X obj 772 615 tabread4~ soundfile-d07;
#X obj 298 600 line~;
#X obj 55 604 line~;
#X obj 538 594 line~;
#X obj 298 626 tabread4~ soundfile-b05;
#X obj 55 632 tabread4~ soundfile-b03;
#X obj 538 622 tabread4~ soundfile-c14;
#X obj 776 43 bng 15 250 50 0 empty empty empty 17 7 0 10 -262144 -1
-1;
#X obj 776 75 openpanel;
#X msg 776 108 read -resize \$1 soundfile;
#X obj 722 107 print;
#X text 825 45 print the file path;
#X obj 42 229 soundfiler;
#N canvas 379 104 450 300 sampleConversion 0;
#X obj 274 16 inlet;
#X floatatom 274 56 10 0 0 1 number_of_samples - -;
#X obj 153 159 / 44.1;
#X floatatom 153 191 10 0 0 1 milliseconds - -;
#X text 207 156 < sampling rate (by default 44.1 KHz);
#X obj 132 263 pack f f;
#X obj 153 222 t b f;
#X obj 43 202 f;
#X obj 31 120 t f f;
#X text 83 116 < using trigger to make sure order of events happens
correctly;
#X text 202 220 < using trigger to make sure order of events happens
correctly;
#X text 204 264 < pack to format message;
#X obj 87 320 outlet;
#X obj 515 331 outlet;
#X connect 0 0 1 0;
#X connect 1 0 8 0;
#X connect 1 0 13 0;
#X connect 2 0 3 0;
#X connect 3 0 6 0;
#X connect 5 0 12 0;
#X connect 6 0 7 0;
#X connect 6 1 5 1;
#X connect 7 0 5 0;
#X connect 8 0 2 0;
#X connect 8 1 7 1;
#X restore 42 262 pd sampleConversion;
#X text 206 266 taken from example 3_tabread4z_line.pd;
#X msg 42 324 12672 287.347;
#X msg 42 292 set \$1 \$2;
#X obj 42 148 loadbang;
#N canvas 0 22 450 278 (subpatch) 0;
#X array soundfile-b03 12672 float 2;
#X coords 0 1 12672 -1 200 140 1;
#X restore 48 384 graph;
#N canvas 0 22 450 278 (subpatch) 0;
#X array soundfile-c14 13952 float 2;
#X coords 0 1 13952 -1 200 140 1 0 0;
#X restore 523 385 graph;
#N canvas 0 22 450 278 (subpatch) 0;
#X array soundfile-d07 13696 float 2;
#X coords 0 1 13696 -1 200 140 1;
#X restore 760 384 graph;
#N canvas 0 22 450 278 (subpatch) 0;
#X array soundfile-b05 12288 float 2;
#X coords 0 1 12288 -1 200 140 1;
#X restore 283 385 graph;
#X obj 729 233 tgl 15 0 empty empty empty 17 7 0 10 -262144 -1 -1 1
1;
#X obj 729 257 metro 100;
#X floatatom 789 232 5 0 0 0 - - -;
#X obj 729 283 random 16;
#X msg 497 182 read -resize ../mattel-synso-drummachine/2071__twistedlemon__mattel-tom18.wav
soundfile-c14, f 77;
#X msg 590 545 0 \, 13952 563.775;
#X msg 589 569 0 \, 13952 1127.55;
#X msg 589 594 0 \, 13952 316.372;
#X text 716 595 x;
#X msg 42 176 read -resize ../mattel-synso-drummachine/2062__twistedlemon__mattel-tom09.wav
soundfile-d07;
#X msg 820 563 0 \, 13696 595.283;
#X msg 820 588 0 \, 13696 1190.57;
#X msg 820 540 0 \, 13696 310.567;
#X text 960 541 x;
#X msg 258 125 read -resize ../mattel-synso-drummachine/2046__twistedlemon__mattel-hh2.wav
soundfile-b03;
#X msg 112 605 0 \, 12672 287.347;
#X msg 114 576 0 \, 12672 850.159;
#X msg 111 548 0 \, 12672 425.079;
#X text 237 606 x;
#X msg 252 223 read -resize ../mattel-synso-drummachine/2038__twistedlemon__mattel-bd3.wav
soundfile-b05;
#X msg 347 576 0 \, 12288 1100.95;
#X msg 346 600 0 \, 12288 550.476;
#X msg 348 552 0 \, 12288 278.639;
#X text 480 551 x;
#X obj 488 714 *~;
#X obj 729 314 select 0 1 2 3 4 5 6 7 8 9 10 11 12 13 14 15 16;
#X obj 487 749 dac~;
#X obj 640 696 hsl 128 15 0 2 0 0 empty empty empty -2 -8 0 10 -262144
-1 -1 0 1;
#X msg 637 721 \$1 20;
#X obj 637 749 line~;
#X obj 298 653 *~ 1;
#X obj 55 661 *~ 1;
#X obj 1178 81 ring-modulation;
#X obj 538 651 *~ 1;
#X obj 772 642 *~ 1;
#X obj 1178 160 harmonic-series;
#X connect 1 0 4 0;
#X connect 3 0 2 0;
#X connect 4 0 60 0;
#X connect 5 0 8 0;
#X connect 6 0 9 0;
#X connect 7 0 10 0;
#X connect 8 0 56 0;
#X connect 9 0 57 0;
#X connect 10 0 59 0;
#X connect 11 0 12 0;
#X connect 12 0 13 0;
#X connect 12 0 14 0;
#X connect 16 0 17 0;
#X connect 17 0 20 0;
#X connect 20 0 19 0;
#X connect 21 0 35 0;
#X connect 21 0 45 0;
#X connect 21 0 30 0;
#X connect 21 0 40 0;
#X connect 26 0 27 0;
#X connect 27 0 29 0;
#X connect 28 0 27 1;
#X connect 29 0 51 0;
#X connect 30 0 16 0;
#X connect 31 0 7 0;
#X connect 32 0 7 0;
#X connect 33 0 7 0;
#X connect 35 0 16 0;
#X connect 36 0 1 0;
#X connect 37 0 1 0;
#X connect 38 0 1 0;
#X connect 40 0 16 0;
#X connect 41 0 6 0;
#X connect 42 0 6 0;
#X connect 43 0 6 0;
#X connect 45 0 16 0;
#X connect 46 0 5 0;
#X connect 47 0 5 0;
#X connect 48 0 5 0;
#X connect 50 0 52 0;
#X connect 50 0 52 1;
#X connect 51 0 32 0;
#X connect 51 2 48 0;
#X connect 51 3 37 0;
#X connect 51 4 43 0;
#X connect 51 5 36 0;
#X connect 51 6 47 0;
#X connect 51 9 41 0;
#X connect 51 10 31 0;
#X connect 51 12 33 0;
#X connect 51 13 42 0;
#X connect 51 15 46 0;
#X connect 53 0 54 0;
#X connect 54 0 55 0;
#X connect 55 0 50 1;
#X connect 56 0 50 0;
#X connect 57 0 50 0;
#X connect 59 0 50 0;
#X connect 60 0 50 0;
