#N canvas 24 132 827 585 12;
#X text 38 35 Use a combination of control and audio objects to create
a patch that has both sample-based and synthesized sound as distinct
"voices \, " one that is rhythmic/percussive and one that is tonal
(e.g. melody or texture). You may adapt from any examples given so
far in the class and draw from the assigned readings.;
#X obj 73 151 bng 15 250 50 0 empty empty empty 17 7 0 10 -262144 -1
-1;
#X obj 73 183 openpanel;
#X obj 72 245 soundfiler;
#X msg 72 212 read -resize \$1 soundfile;
#N canvas 0 22 450 278 (subpatch) 0;
#X array soundfile 48117 float 2;
#X coords 0 1 48117 -1 200 140 1;
#X restore 540 143 graph;
#N canvas 0 23 450 300 sampleConversion 0;
#X obj 274 16 inlet;
#X floatatom 274 56 10 0 0 1 number_of_samples - -;
#X obj 153 159 / 44.1;
#X floatatom 153 191 10 0 0 1 milliseconds - -;
#X text 207 156 < sampling rate (by default 44.1 KHz);
#X obj 132 263 pack f f;
#X obj 153 222 t b f;
#X obj 43 202 f;
#X obj 31 120 t f f;
#X text 83 116 < using trigger to make sure order of events happens
correctly;
#X text 202 220 < using trigger to make sure order of events happens
correctly;
#X text 204 264 < pack to format message;
#X obj 87 320 outlet;
#X obj 515 331 outlet;
#X connect 0 0 1 0;
#X connect 1 0 8 0;
#X connect 1 0 13 0;
#X connect 2 0 3 0;
#X connect 3 0 6 0;
#X connect 5 0 12 0;
#X connect 6 0 7 0;
#X connect 6 1 5 1;
#X connect 7 0 5 0;
#X connect 8 0 2 0;
#X connect 8 1 7 1;
#X restore 74 280 pd sampleConversion;
#X text 237 280 taken from example 3_tabread4z_line.pd;
#X msg 76 356 4.81178e+06 109111;
#X obj 74 403 line~;
#X msg 22 381 0;
#X obj 76 460 tabread4~ soundfile;
#X obj 79 511 *~ 0.7;
#X obj 79 564 dac~;
#X msg 73 317 set \$1 \$2;
#X msg 318 555 \; pd dsp \$1;
#X obj 318 532 tgl 15 0 empty empty empty 17 7 0 10 -262144 -1 -1 1
1;
#X text 340 528 <- turn on sound;
#X msg 172 377 0 \, 4.81178e+06 59111;
#X connect 1 0 2 0;
#X connect 2 0 4 0;
#X connect 3 0 6 0;
#X connect 4 0 3 0;
#X connect 6 0 14 0;
#X connect 8 0 9 0;
#X connect 9 0 11 0;
#X connect 10 0 9 0;
#X connect 11 0 12 0;
#X connect 12 0 13 0;
#X connect 12 0 13 1;
#X connect 14 0 8 0;
#X connect 16 0 15 0;
#X connect 18 0 9 0;
