#N canvas 0 23 1498 750 12;
#X obj 276 126 hsl 128 15 0 100 0 0 empty empty empty -2 -8 0 10 -262144
-1 -1 5100 1;
#X floatatom 136 224 5 0 0 0 - - -;
#X obj 38 276 * 1;
#X floatatom 171 303 5 0 0 0 - - -;
#X obj 104 276 * 2;
#X obj 171 275 * 3;
#X obj 38 332 osc~ 100;
#X floatatom 38 304 5 0 0 0 - - -;
#X obj 171 333 osc~ 100;
#X floatatom 104 304 5 0 0 0 - - -;
#X obj 104 333 osc~ 100;
#X floatatom 309 302 5 0 0 0 - - -;
#X obj 309 332 osc~ 100;
#X floatatom 242 303 5 0 0 0 - - -;
#X obj 242 332 osc~ 100;
#X obj 38 366 *~ 1;
#X obj 104 369 *~ 0.7;
#X obj 171 369 *~ 0.5;
#X obj 242 368 *~ 0.4;
#X obj 309 368 *~ 0.3;
#X obj 242 275 * 4;
#X obj 309 274 * 5;
#X floatatom 378 302 5 0 0 0 - - -;
#X obj 378 332 osc~ 100;
#X floatatom 516 301 5 0 0 0 - - -;
#X obj 516 331 osc~ 100;
#X floatatom 449 302 5 0 0 0 - - -;
#X obj 449 331 osc~ 100;
#X obj 378 274 * 6;
#X obj 449 274 * 7;
#X obj 516 273 * 8;
#X text 49 37 harmonic series - result of additive series of frequencies
;
#X obj 378 368 *~ 0.3;
#X obj 449 367 *~ 0.2;
#X obj 516 367 *~ 0.1;
#X obj 277 155 hsl 128 15 0 100 0 0 empty empty empty -2 -8 0 10 -262144
-1 -1 0 1;
#X obj 659 288 * 0.01;
#X obj 659 364 line~;
#X obj 146 434 *~;
#X msg 659 327 \$1 20;
#X text 112 126 fundamental frequency;
#X text 161 153 volume control;
#X obj 146 490 dac~;
#X connect 0 0 1 0;
#X connect 1 0 5 0;
#X connect 1 0 2 0;
#X connect 1 0 4 0;
#X connect 1 0 20 0;
#X connect 1 0 21 0;
#X connect 1 0 28 0;
#X connect 1 0 29 0;
#X connect 1 0 30 0;
#X connect 2 0 7 0;
#X connect 3 0 8 0;
#X connect 4 0 9 0;
#X connect 5 0 3 0;
#X connect 6 0 15 0;
#X connect 7 0 6 0;
#X connect 8 0 17 0;
#X connect 9 0 10 0;
#X connect 10 0 16 0;
#X connect 11 0 12 0;
#X connect 12 0 19 0;
#X connect 13 0 14 0;
#X connect 14 0 18 0;
#X connect 15 0 38 0;
#X connect 16 0 38 0;
#X connect 17 0 38 0;
#X connect 18 0 38 0;
#X connect 19 0 38 0;
#X connect 20 0 13 0;
#X connect 21 0 11 0;
#X connect 22 0 23 0;
#X connect 23 0 32 0;
#X connect 24 0 25 0;
#X connect 25 0 34 0;
#X connect 26 0 27 0;
#X connect 27 0 33 0;
#X connect 28 0 22 0;
#X connect 29 0 26 0;
#X connect 30 0 24 0;
#X connect 32 0 38 0;
#X connect 33 0 38 0;
#X connect 34 0 38 0;
#X connect 35 0 36 0;
#X connect 36 0 39 0;
#X connect 37 0 38 1;
#X connect 38 0 42 0;
#X connect 38 0 42 1;
#X connect 39 0 37 0;
#X coords 0 -1 1 1 320 80 1 100 100;
