#N canvas 990 226 450 300 12;
#X obj 39 289 dac~;
#X obj 38 176 osc~ 440;
#X obj 112 176 osc~ 441;
#X obj 275 131 hsl 128 15 0 0.3 0 0 empty empty empty -2 -8 0 10 -262144
-1 -1 0 1;
#X obj 218 208 line~;
#X obj 38 226 *~;
#X text 163 129 volume control;
#X msg 218 174 \$1 1000;
#X connect 1 0 5 0;
#X connect 2 0 5 0;
#X connect 3 0 7 0;
#X connect 4 0 5 1;
#X connect 5 0 0 0;
#X connect 5 0 0 1;
#X connect 7 0 4 0;
#X coords 0 -1 1 1 320 60 1 100 100;
