#N canvas 0 23 1440 776 12;
#X obj 754 592 line~;
#X msg 543 67 \; pd dsp \$1;
#X obj 543 44 tgl 15 0 empty empty Master_Switch 17 7 0 10 -262144
-1 -1 1 1;
#X obj 289 605 line~;
#X obj 55 604 line~;
#X obj 512 603 line~;
#X obj 714 18 bng 15 250 50 0 empty empty Print_File_Path 17 7 0 10
-262144 -1 -1;
#X obj 714 50 openpanel;
#X msg 714 83 read -resize \$1 soundfile;
#X obj 660 82 print;
#X obj 49 319 soundfiler;
#N canvas 379 104 450 300 sampleConversion 0;
#X obj 274 16 inlet;
#X floatatom 274 56 10 0 0 1 number_of_samples - -;
#X obj 153 159 / 44.1;
#X floatatom 153 191 10 0 0 1 milliseconds - -;
#X text 207 156 < sampling rate (by default 44.1 KHz);
#X obj 132 263 pack f f;
#X obj 153 222 t b f;
#X obj 43 202 f;
#X obj 31 120 t f f;
#X text 83 116 < using trigger to make sure order of events happens
correctly;
#X text 202 220 < using trigger to make sure order of events happens
correctly;
#X text 204 264 < pack to format message;
#X obj 87 320 outlet;
#X obj 515 331 outlet;
#X connect 0 0 1 0;
#X connect 1 0 8 0;
#X connect 1 0 13 0;
#X connect 2 0 3 0;
#X connect 3 0 6 0;
#X connect 5 0 12 0;
#X connect 6 0 7 0;
#X connect 6 1 5 1;
#X connect 7 0 5 0;
#X connect 8 0 2 0;
#X connect 8 1 7 1;
#X restore 49 352 pd sampleConversion;
#X text 213 356 taken from example 3_tabread4z_line.pd;
#X msg 49 414 14080 319.274;
#X msg 49 382 set \$1 \$2;
#X obj 49 238 loadbang;
#N canvas 0 22 450 278 (subpatch) 0;
#X array soundfile-tom18 13952 float 2;
#X coords 0 1 13952 -1 200 140 1 0 0;
#X restore 1161 195 graph;
#X obj 276 134 tgl 15 0 empty empty empty 17 7 0 10 -262144 -1 -1 0
1;
#X obj 48 453 metro 100;
#X floatatom 274 161 5 100 500 0 - - -;
#X msg 563 578 0 \, 13952 1127.55;
#X msg 563 603 0 \, 13952 316.372;
#X text 716 595 x;
#X msg 802 543 0 \, 13696 310.567;
#X text 933 543 x;
#X msg 112 605 0 \, 12672 287.347;
#X msg 114 576 0 \, 12672 850.159;
#X text 237 606 x;
#X msg 338 581 0 \, 12288 1100.95;
#X msg 337 605 0 \, 12288 550.476;
#X msg 339 557 0 \, 12288 278.639;
#X text 469 555 x;
#X obj 488 714 *~;
#X obj 487 749 dac~;
#X obj 279 187 hsl 128 15 0 2 0 0 empty empty empty -2 -8 0 10 -262144
-1 -1 100 1;
#X msg 637 721 \$1 20;
#X obj 637 749 line~;
#X obj 289 658 *~ 1;
#X obj 55 661 *~ 1;
#X obj 512 660 *~ 1;
#X obj 754 645 *~ 1;
#N canvas 0 22 450 278 (subpatch) 0;
#X array soundfile-hh2 12672 float 2;
#X coords 0 1 12672 -1 200 140 1 0 0;
#X restore 935 22 graph;
#N canvas 0 22 450 278 (subpatch) 0;
#X array soundfile-bd3 12288 float 2;
#X coords 0 1 12288 -1 200 140 1 0 0;
#X restore 1052 369 graph;
#N canvas 0 22 450 278 (subpatch) 0;
#X array soundfile-tom08 14080 float 2;
#X coords 0 1 14080 -1 200 140 1 0 0;
#X restore 1159 21 graph;
#N canvas 0 22 450 278 (subpatch) 0;
#X array soundfile-tom09 13696 float 2;
#X coords 0 1 13696 -1 200 140 1 0 0;
#X restore 935 194 graph;
#X obj 754 618 tabread4~ soundfile-tom09;
#X obj 512 631 tabread4~ soundfile-tom18;
#X obj 289 631 tabread4~ soundfile-bd3;
#X obj 54 632 tabread4~ soundfile-hh2;
#X msg 211 232 read -resize 2046__twistedlemon__mattel-hh2.wav soundfile-hh2
, f 64;
#X msg 209 255 read -resize 2062__twistedlemon__mattel-tom09.wav soundfile-tom09
, f 65;
#X msg 210 279 read -resize 2061__twistedlemon__mattel-tom08.wav soundfile-tom08
, f 65;
#X msg 209 303 read -resize 2071__twistedlemon__mattel-tom18.wav soundfile-tom18
, f 65;
#X msg 209 327 read -resize 2038__twistedlemon__mattel-bd3.wav soundfile-bd3
, f 65;
#X obj 1014 605 line~;
#X obj 1014 658 *~ 1;
#X obj 1014 631 tabread4~ soundfile-tom08;
#X msg 1062 556 0 \, 14080 319.274;
#X msg 1063 579 0 \, 13696 95.283;
#X msg 802 566 0 \, 13696 1395.28;
#X text 1212 537 x;
#X text 163 186 volume control;
#X text 190 133 metro bang;
#X text 120 159 metro number control;
#X obj 300 435 select 0 1 2 3 4 5 6 7 8 9 10 11 12 13 14 15;
#X obj 48 544 random 16;
#X obj 73 487 f;
#X obj 114 487 + 1;
#X floatatom 73 517 5 0 0 0 - - -;
#X connect 0 0 45 0;
#X connect 2 0 1 0;
#X connect 3 0 47 0;
#X connect 4 0 48 0;
#X connect 5 0 46 0;
#X connect 6 0 7 0;
#X connect 7 0 8 0;
#X connect 7 0 9 0;
#X connect 10 0 11 0;
#X connect 11 0 14 0;
#X connect 14 0 13 0;
#X connect 15 0 53 0;
#X connect 15 0 49 0;
#X connect 15 0 52 0;
#X connect 15 0 50 0;
#X connect 15 0 51 0;
#X connect 17 0 18 0;
#X connect 18 0 65 0;
#X connect 18 0 66 0;
#X connect 19 0 18 1;
#X connect 20 0 5 0;
#X connect 21 0 5 0;
#X connect 23 0 0 0;
#X connect 25 0 4 0;
#X connect 26 0 4 0;
#X connect 28 0 3 0;
#X connect 29 0 3 0;
#X connect 30 0 3 0;
#X connect 32 0 33 0;
#X connect 32 0 33 1;
#X connect 34 0 35 0;
#X connect 35 0 36 0;
#X connect 36 0 32 1;
#X connect 37 0 32 0;
#X connect 38 0 32 0;
#X connect 39 0 32 0;
#X connect 40 0 32 0;
#X connect 45 0 40 0;
#X connect 46 0 39 0;
#X connect 47 0 37 0;
#X connect 48 0 38 0;
#X connect 49 0 10 0;
#X connect 50 0 10 0;
#X connect 51 0 10 0;
#X connect 52 0 10 0;
#X connect 53 0 10 0;
#X connect 54 0 56 0;
#X connect 55 0 32 0;
#X connect 56 0 55 0;
#X connect 57 0 54 0;
#X connect 58 0 54 0;
#X connect 59 0 0 0;
#X connect 64 0 26 0;
#X connect 64 2 21 0;
#X connect 64 3 57 0;
#X connect 64 4 28 0;
#X connect 64 5 23 0;
#X connect 64 6 59 0;
#X connect 64 8 30 0;
#X connect 64 9 20 0;
#X connect 64 10 29 0;
#X connect 64 11 25 0;
#X connect 64 13 58 0;
#X connect 65 0 64 0;
#X connect 66 0 67 0;
#X connect 66 0 68 0;
#X connect 67 0 66 1;
#X coords 0 -1 1 1 320 120 1 100 100;
