#N canvas 757 214 445 477 12;
#X obj 75 69 ctlin 1;
#X floatatom 75 102 5 0 0 0 - - -;
#X floatatom 187 102 5 0 0 0 - - -;
#X obj 187 69 ctlin 51;
#X obj 187 136 / 127;
#X floatatom 187 175 5 0 0 0 - - -;
#X obj 187 214 tgl 15 0 empty empty empty 17 7 0 10 -262144 -1 -1 0
1;
#X obj 187 289 tgl 15 0 empty empty empty 17 7 0 10 -262144 -1 -1 0
1;
#X obj 75 136 / 127;
#X floatatom 75 173 5 0 0 0 - - -;
#X text 225 211 momentary;
#X obj 187 253 select 1;
#X obj 74 208 pack f 200;
#X floatatom 141 173 5 0 0 0 - - -;
#X obj 74 247 line;
#X obj 77 321 hsl 128 15 0 1 0 0 empty empty empty -2 -8 0 10 -262144
-1 -1 3900 1;
#X floatatom 74 365 5 0 0 0 - - -;
#X floatatom 136 401 5 0 0 0 - - -;
#X floatatom 192 402 5 0 0 0 - - -;
#X obj 136 363 < 0.5;
#X obj 192 363 > 0.5;
#X connect 0 0 1 0;
#X connect 1 0 8 0;
#X connect 2 0 4 0;
#X connect 3 0 2 0;
#X connect 4 0 5 0;
#X connect 5 0 6 0;
#X connect 6 0 11 0;
#X connect 8 0 9 0;
#X connect 9 0 12 0;
#X connect 11 0 7 0;
#X connect 12 0 14 0;
#X connect 13 0 12 1;
#X connect 14 0 15 0;
#X connect 15 0 16 0;
#X connect 16 0 19 0;
#X connect 16 0 20 0;
#X connect 19 0 17 0;
#X connect 20 0 18 0;
