#N canvas 703 236 450 518 12;
#X obj 62 63 ctlin 1;
#X floatatom 62 97 5 0 0 0 - - -;
#X floatatom 149 100 5 0 0 0 - - -;
#X obj 149 61 ctlin 2;
#X obj 90 378 *~ 0.2;
#X obj 91 422 dac~;
#X obj 90 340 *~;
#X obj 149 292 line~;
#X obj 149 127 / 127;
#X msg 150 237 \$1 50;
#X obj 62 126 / 127;
#X obj 62 292 osc~ 300;
#X obj 62 266 line~;
#X msg 62 238 \$1 50;
#X obj 62 186 + 100;
#X floatatom 62 212 5 0 0 0 - - -;
#X obj 62 157 * 900;
#X connect 0 0 1 0;
#X connect 1 0 10 0;
#X connect 2 0 8 0;
#X connect 3 0 2 0;
#X connect 4 0 5 0;
#X connect 4 0 5 1;
#X connect 6 0 4 0;
#X connect 7 0 6 1;
#X connect 8 0 9 0;
#X connect 9 0 7 0;
#X connect 10 0 16 0;
#X connect 11 0 6 0;
#X connect 12 0 11 0;
#X connect 13 0 12 0;
#X connect 14 0 15 0;
#X connect 15 0 13 0;
#X connect 16 0 14 0;
