#N canvas 838 257 693 489 12;
#X obj 43 123 *~ 0.5;
#X obj 121 256 dac~;
#X obj 43 73 osc~ 440;
#X obj 118 72 osc~ 441;
#X msg 120 105 0;
#X obj 204 70 osc~ 440;
#X obj 279 69 osc~ 1;
#X obj 204 109 *~;
#X msg 279 99 0;
#X msg 120 134 0.5;
#X obj 204 143 *~ 0.5;
#X msg 279 125 0.5;
#X connect 0 0 1 0;
#X connect 0 0 1 1;
#X connect 2 0 0 0;
#X connect 3 0 0 0;
#X connect 4 0 0 1;
#X connect 5 0 7 0;
#X connect 6 0 7 1;
#X connect 7 0 10 0;
#X connect 8 0 10 1;
#X connect 9 0 0 1;
#X connect 10 0 1 0;
#X connect 10 0 1 1;
#X connect 11 0 10 1;
