#N canvas 0 24 777 400 10;
#X obj 285 23 notein 1;
#X obj 16 150 unpack 0 0;
#X obj 117 149 unpack 0 0;
#X obj 220 151 unpack 0 0;
#X obj 317 151 unpack 0 0;
#X obj 409 150 unpack 0 0;
#X obj 506 152 unpack 0 0;
#X obj 609 152 unpack 0 0;
#X obj 318 296 /~ 7;
#X obj 317 348 dac~ 1 2;
#X obj 285 57 sevenvoice;
#X obj 16 211 organ;
#X text 391 21 == a 7 voices polyphonic midi organ ==;
#X obj 117 210 organ;
#X obj 220 212 organ;
#X obj 317 214 organ;
#X obj 409 208 organ;
#X obj 506 206 organ;
#X obj 609 202 organ;
#X connect 0 0 10 0;
#X connect 0 1 10 1;
#X connect 1 0 11 0;
#X connect 1 1 11 1;
#X connect 2 0 13 0;
#X connect 2 1 13 1;
#X connect 3 0 14 0;
#X connect 3 1 14 1;
#X connect 4 0 15 0;
#X connect 4 1 15 1;
#X connect 5 0 16 0;
#X connect 5 1 16 1;
#X connect 6 0 17 0;
#X connect 6 1 17 1;
#X connect 7 0 18 0;
#X connect 7 1 18 1;
#X connect 8 0 9 0;
#X connect 8 0 9 1;
#X connect 10 0 1 0;
#X connect 10 1 2 0;
#X connect 10 2 3 0;
#X connect 10 3 4 0;
#X connect 10 4 5 0;
#X connect 10 5 6 0;
#X connect 10 6 7 0;
#X connect 11 0 8 0;
#X connect 13 0 8 0;
#X connect 14 0 8 0;
#X connect 15 0 8 0;
#X connect 16 0 8 0;
#X connect 17 0 8 0;
#X connect 18 0 8 0;
