#N canvas 0 24 777 400 10;
#X obj 225 161 osc~;
#X obj 478 160 osc~;
#X obj 374 162 osc~;
#X obj 274 162 osc~;
#X obj 323 162 osc~;
#X obj 424 161 osc~;
#X obj 179 69 mtof;
#X floatatom 241 68 2 0 0 0 - - -;
#X floatatom 290 68 2 0 0 0 - - -;
#X floatatom 339 69 2 0 0 0 - - -;
#X floatatom 390 70 2 0 0 0 - - -;
#X floatatom 440 71 2 0 0 0 - - -;
#X floatatom 494 71 2 0 0 0 - - -;
#X obj 166 163 osc~;
#X obj 359 328 *~;
#X obj 225 127 * 2;
#X obj 274 127 * 4;
#X obj 323 126 * 8;
#X obj 374 127 * 16;
#X obj 424 127 * 32;
#X obj 478 125 * 64;
#X obj 250 199 /~ 2;
#X obj 298 199 /~ 4;
#X obj 345 198 /~ 8;
#X obj 394 198 /~ 16;
#X obj 448 198 /~ 32;
#X obj 501 197 /~ 64;
#X obj 557 198 / 127;
#X obj 358 371 outlet~;
#X obj 557 24 inlet;
#X obj 179 25 inlet;
#X text 228 24 <- midi note number;
#X text 605 25 <- midi note velocity;
#X text 540 68 <- tuning (organ);
#X text 15 332 == a hammond-like monophonic organ sound ==;
#X connect 0 0 21 0;
#X connect 1 0 26 0;
#X connect 2 0 24 0;
#X connect 3 0 22 0;
#X connect 4 0 23 0;
#X connect 5 0 25 0;
#X connect 6 0 13 0;
#X connect 6 0 15 0;
#X connect 6 0 16 0;
#X connect 6 0 17 0;
#X connect 6 0 18 0;
#X connect 6 0 19 0;
#X connect 6 0 20 0;
#X connect 7 0 15 1;
#X connect 7 0 21 1;
#X connect 8 0 16 1;
#X connect 8 0 22 1;
#X connect 9 0 17 1;
#X connect 9 0 23 1;
#X connect 10 0 18 1;
#X connect 10 0 24 1;
#X connect 11 0 19 1;
#X connect 11 0 25 1;
#X connect 12 0 20 1;
#X connect 12 0 26 1;
#X connect 13 0 14 0;
#X connect 14 0 28 0;
#X connect 15 0 0 0;
#X connect 16 0 3 0;
#X connect 17 0 4 0;
#X connect 18 0 2 0;
#X connect 19 0 5 0;
#X connect 20 0 1 0;
#X connect 21 0 14 0;
#X connect 22 0 14 0;
#X connect 23 0 14 0;
#X connect 24 0 14 0;
#X connect 25 0 14 0;
#X connect 26 0 14 0;
#X connect 27 0 14 1;
#X connect 29 0 27 0;
#X connect 30 0 6 0;
