#N canvas 0 24 777 400 10;
#X obj 299 92 poly 7 1;
#X obj 299 154 route 1 2 3 4 5 6 7;
#X obj 299 120 pack 0 0 0;
#X obj 294 242 outlet;
#X obj 353 242 outlet;
#X obj 418 242 outlet;
#X obj 479 242 outlet;
#X obj 540 242 outlet;
#X obj 181 242 outlet;
#X obj 239 242 outlet;
#X obj 350 31 inlet;
#X obj 299 31 inlet;
#X text 185 32 midi note ->;
#X text 418 31 <- midi velocity;
#X text 466 152 <- add voices here (8..16);
#X text 248 296 == a (7 voices) polyphonic midi router ==;
#X text 20 243 (7) packed note/vel ->;
#X connect 0 0 2 0;
#X connect 0 1 2 1;
#X connect 0 2 2 2;
#X connect 1 0 8 0;
#X connect 1 1 9 0;
#X connect 1 2 3 0;
#X connect 1 3 4 0;
#X connect 1 4 5 0;
#X connect 1 5 6 0;
#X connect 1 6 7 0;
#X connect 2 0 1 0;
#X connect 10 0 0 1;
#X connect 11 0 0 0;
