#N canvas 212 125 1028 656 10;
#X obj 605 281 bng 15 250 50 0 empty empty empty 17 7 0 10 -262144
-1 -1;
#X obj 605 217 tgl 15 0 empty empty empty 17 7 0 10 -262144 -1 -1 1
1;
#X obj 605 255 metro 50;
#X msg 661 255 info;
#X obj 732 368 route hand tool;
#N canvas 323 22 793 547 flags 0;
#X obj 109 135 tgl 15 0 empty to_general general 17 7 0 10 -262144
-1 -1 0 1;
#X obj 109 177 tgl 15 0 empty to_palm_position palm_position 17 7 0
10 -262144 -1 -1 1 1;
#X obj 110 312 tgl 15 0 empty to_fingers_position position 17 7 0 10
-262144 -1 -1 0 1;
#X obj 219 164 tgl 15 0 empty to_tools_position position 17 7 0 10
-262144 -1 -1 0 1;
#X obj 110 344 tgl 15 0 empty to_fingers_size size 17 7 0 10 -262144
-1 -1 0 1;
#X obj 219 196 tgl 15 0 empty to_tools_size size 17 7 0 10 -262144
-1 -1 0 1;
#X obj 219 180 tgl 15 0 empty to_tools_velocity velocity 17 7 0 10
-262144 -1 -1 0 1;
#X obj 110 328 tgl 15 0 empty to_fingers_velocity velocity 17 7 0 10
-262144 -1 -1 0 1;
#X obj 109 162 tgl 15 0 empty to_direction direction 17 7 0 10 -262144
-1 -1 0 1;
#X obj 109 220 tgl 15 0 empty to_sphere_radius sphere_radius 17 7 0
10 -262144 -1 -1 1 1;
#X obj 109 235 tgl 15 0 empty to_sphere_center sphere_center 17 7 0
10 -262144 -1 -1 0 1;
#X obj 109 250 tgl 15 0 empty to_finger_count finger_count 17 7 0 10
-262144 -1 -1 1 1;
#X obj 109 265 tgl 15 0 empty to_tool_count tool_count 17 7 0 10 -262144
-1 -1 0 1;
#X obj 109 191 tgl 15 0 empty to_palm_velocity palm_velocity 17 7 0
10 -262144 -1 -1 0 1;
#X obj 109 206 tgl 15 0 empty to_palm_normal palm_normal 17 7 0 10
-262144 -1 -1 0 1;
#X obj -49 463 outlet;
#X msg -49 133 general \$1;
#X msg -50 177 hands_direction \$1;
#X msg -48 236 hands_sphere_radius \$1;
#X msg -48 251 hands_sphere_center \$1;
#X msg -48 266 hands_finger_count \$1;
#X msg -48 280 hands_tool_count \$1;
#X msg -50 192 hands_palm_position \$1;
#X msg -49 206 hands_palm_velocity \$1;
#X msg -48 220 hands_palm_normal \$1;
#X msg -49 359 fingers_size \$1;
#X obj 359 427 list prepend gestures;
#X obj 359 450 list trim;
#X msg 356 210 tools_size \$1;
#X msg -49 327 fingers_position \$1;
#X msg -49 345 fingers_velocity \$1;
#X msg 356 179 tools_position \$1;
#X msg 356 194 tools_velocity \$1;
#X msg 359 312 TYPE_CIRCLE \$1;
#X msg 359 343 TYPE_KEY_TAP \$1;
#X msg 359 358 TYPE_SCREEN_TAP \$1;
#X msg 359 328 TYPE_SWIPE \$1;
#X obj 220 296 tgl 15 0 empty to_gestures_circle circle 17 7 0 10 -262144
-1 -1 0 1;
#X obj 220 326 tgl 15 0 empty to_gestures_key_tap key_tap 17 7 0 10
-262144 -1 -1 0 1;
#X obj 220 341 tgl 15 0 empty to_gestures_screen_tap screen_tap 17
7 0 10 -262144 -1 -1 0 1;
#X obj 220 311 tgl 15 0 empty to_gestures_swipe swipe 17 7 0 10 -262144
-1 -1 0 1;
#X obj 110 299 tgl 15 0 empty to_fingers_direction direction 17 7 0
10 -262144 -1 -1 0 1;
#X msg -49 310 fingers_direction \$1;
#X text 108 147 hands;
#X text 108 279 fingers;
#X text 218 277 gestures;
#X text 218 131 tools;
#X obj 219 148 tgl 15 0 empty to_tools_direction direction 17 7 0 10
-262144 -1 -1 0 1;
#X msg 356 163 tools_direction \$1;
#X obj 218 110 tgl 15 0 empty empty all_on/off 17 7 0 10 -258113 -1
-1 0 1;
#X msg 544 128 \; to_general \$1 \; to_direction \$1 \; to_palm_position
\$1 \; to_palm_velocity \$1 \; to_palm_normal \$1 \; to_sphere_radius
\$1 \; to_sphere_center \$1 \; to_finger_count \$1 \; to_tool_count
\$1 \; to_fingers_direction \$1 \; to_fingers_position \$1 \; to_fingers_velocity
\$1 \; to_fingers_size \$1 \; to_tools_direction \$1 \; to_tools_position
\$1 \; to_tools_velocity \$1 \; to_tools_size \$1 \; to_gestures_circle
\$1 \; to_gestures_swipe \$1 \; to_gestures_key_tap \$1 \; to_gestures_screen_tap
\$1 \;;
#X connect 0 0 16 0;
#X connect 1 0 22 0;
#X connect 2 0 29 0;
#X connect 3 0 31 0;
#X connect 4 0 25 0;
#X connect 5 0 28 0;
#X connect 6 0 32 0;
#X connect 7 0 30 0;
#X connect 8 0 17 0;
#X connect 9 0 18 0;
#X connect 10 0 19 0;
#X connect 11 0 20 0;
#X connect 12 0 21 0;
#X connect 13 0 23 0;
#X connect 14 0 24 0;
#X connect 16 0 15 0;
#X connect 17 0 15 0;
#X connect 18 0 15 0;
#X connect 19 0 15 0;
#X connect 20 0 15 0;
#X connect 21 0 15 0;
#X connect 22 0 15 0;
#X connect 23 0 15 0;
#X connect 24 0 15 0;
#X connect 25 0 15 0;
#X connect 26 0 27 0;
#X connect 27 0 15 0;
#X connect 28 0 15 0;
#X connect 29 0 15 0;
#X connect 30 0 15 0;
#X connect 31 0 15 0;
#X connect 32 0 15 0;
#X connect 33 0 26 0;
#X connect 34 0 26 0;
#X connect 35 0 26 0;
#X connect 36 0 26 0;
#X connect 37 0 33 0;
#X connect 38 0 34 0;
#X connect 39 0 35 0;
#X connect 40 0 36 0;
#X connect 41 0 42 0;
#X connect 42 0 15 0;
#X connect 47 0 48 0;
#X connect 48 0 15 0;
#X connect 49 0 50 0;
#X coords 0 -1 1 1 250 270 1 100 100;
#X restore 703 30 pd flags;
#X obj 813 344 s gesture;
#X obj 732 393 s hand;
#X obj 629 344 s general;
#X obj 777 392 s tool;
#X obj 703 327 leapmotion;
#X obj 31 28 input;
#X msg 593 68 \; pd dsp \$1;
#X obj 593 45 tgl 15 0 empty empty Master_Switch 17 7 0 10 -262144
-1 -1 0 1;
#X connect 0 0 10 0;
#X connect 1 0 2 0;
#X connect 2 0 0 0;
#X connect 3 0 10 0;
#X connect 4 0 7 0;
#X connect 4 1 9 0;
#X connect 5 0 10 0;
#X connect 10 0 8 0;
#X connect 10 1 4 0;
#X connect 10 2 6 0;
#X connect 13 0 12 0;
#X coords 0 656 1 655 510 320 0;
