#N canvas -9 -9 1920 1026 10;
#X obj 244 266 osc~;
#X obj 496 265 osc~;
#X obj 392 265 osc~;
#X obj 292 266 osc~;
#X obj 341 265 osc~;
#X obj 442 264 osc~;
#X obj 197 174 mtof;
#X floatatom 259 175 2 0 0 0 - - -;
#X floatatom 307 174 2 0 0 0 - - -;
#X floatatom 356 174 2 0 0 0 - - -;
#X floatatom 413 176 2 0 0 0 - - -;
#X floatatom 463 177 2 0 0 0 - - -;
#X floatatom 517 178 2 0 0 0 - - -;
#X obj 199 265 osc~;
#X obj 377 433 *~;
#X obj 244 232 * 2;
#X obj 292 232 * 4;
#X obj 341 232 * 8;
#X obj 392 232 * 16;
#X obj 442 232 * 32;
#X obj 496 232 * 64;
#X obj 268 304 /~ 2;
#X obj 316 304 /~ 4;
#X obj 363 303 /~ 8;
#X obj 412 303 /~ 16;
#X obj 466 303 /~ 32;
#X obj 519 302 /~ 64;
#X obj 200 141 hsl 128 15 0 127 0 0 empty empty empty -2 -8 0 10 -262144
-1 -1 14600 1;
#X text 35 282 monophonic organ sound;
#X obj 377 466 dac~;
#X text 558 173 organ tuning;
#X obj 356 141 r finger-ct;
#X obj 560 141 s finger-ct;
#X floatatom 559 113 5 0 0 0 - - -;
#X floatatom 197 114 5 0 0 0 - - -;
#X obj 578 302 line~;
#X msg 578 275 \$1 20;
#X obj 581 214 hsl 128 15 0 20 0 0 empty empty empty -2 -6 0 8 -262144
-1 -1 2000 1;
#X obj 578 249 / 200;
#X floatatom 198 233 5 0 0 0 - - -;
#X obj 196 39 bng 15 250 50 0 empty empty empty 17 7 0 10 -262144 -1
-1;
#X obj 196 59 metro 100;
#X obj 196 86 random 128;
#X connect 0 0 21 0;
#X connect 1 0 26 0;
#X connect 2 0 24 0;
#X connect 3 0 22 0;
#X connect 4 0 23 0;
#X connect 5 0 25 0;
#X connect 6 0 15 0;
#X connect 6 0 16 0;
#X connect 6 0 17 0;
#X connect 6 0 18 0;
#X connect 6 0 19 0;
#X connect 6 0 20 0;
#X connect 6 0 39 0;
#X connect 7 0 15 1;
#X connect 7 0 21 1;
#X connect 8 0 16 1;
#X connect 8 0 22 1;
#X connect 9 0 17 1;
#X connect 9 0 23 1;
#X connect 10 0 18 1;
#X connect 10 0 24 1;
#X connect 11 0 19 1;
#X connect 11 0 25 1;
#X connect 12 0 20 1;
#X connect 12 0 26 1;
#X connect 13 0 14 0;
#X connect 14 0 29 0;
#X connect 14 0 29 1;
#X connect 15 0 0 0;
#X connect 16 0 3 0;
#X connect 17 0 4 0;
#X connect 18 0 2 0;
#X connect 19 0 5 0;
#X connect 20 0 1 0;
#X connect 21 0 14 0;
#X connect 22 0 14 0;
#X connect 23 0 14 0;
#X connect 24 0 14 0;
#X connect 25 0 14 0;
#X connect 26 0 14 0;
#X connect 27 0 6 0;
#X connect 31 0 7 0;
#X connect 31 0 8 0;
#X connect 31 0 9 0;
#X connect 31 0 10 0;
#X connect 31 0 11 0;
#X connect 31 0 12 0;
#X connect 33 0 32 0;
#X connect 34 0 27 0;
#X connect 35 0 14 1;
#X connect 36 0 35 0;
#X connect 37 0 38 0;
#X connect 38 0 36 0;
#X connect 39 0 13 0;
#X connect 40 0 41 0;
#X connect 41 0 42 0;
#X connect 42 0 34 0;
