#N canvas 372 225 1441 756 10;
#X obj 226 161 osc~;
#X obj 478 160 osc~;
#X obj 374 160 osc~;
#X obj 274 161 osc~;
#X obj 323 160 osc~;
#X obj 424 159 osc~;
#X obj 179 69 mtof;
#X floatatom 241 70 2 0 0 0 - - -;
#X floatatom 289 69 2 0 0 0 - - -;
#X floatatom 338 69 2 0 0 0 - - -;
#X floatatom 395 71 2 0 0 0 - - -;
#X floatatom 445 72 2 0 0 0 - - -;
#X floatatom 499 73 2 0 0 0 - - -;
#X obj 179 161 osc~;
#X obj 359 328 *~;
#X obj 226 127 * 2;
#X obj 274 127 * 4;
#X obj 323 127 * 8;
#X obj 374 127 * 16;
#X obj 424 127 * 32;
#X obj 478 127 * 64;
#X obj 250 199 /~ 2;
#X obj 298 199 /~ 4;
#X obj 345 198 /~ 8;
#X obj 394 198 /~ 16;
#X obj 448 198 /~ 32;
#X obj 501 197 /~ 64;
#X obj 182 37 hsl 128 15 0 127 0 0 empty empty empty -2 -8 0 10 -262144
-1 -1 20000 1;
#X text 32 234 monophonic organ sound;
#X obj 359 361 dac~;
#X text 540 68 organ tuning;
#X obj 338 36 r finger-ct;
#X obj 542 36 s finger-ct;
#X floatatom 542 10 5 0 0 0 - - -;
#X floatatom 179 9 5 0 0 0 - - -;
#X obj 560 197 line~;
#X msg 560 170 \$1 20;
#X obj 563 109 hsl 128 15 0 20 0 0 empty empty empty -2 -6 0 8 -262144
-1 -1 900 1;
#X obj 560 144 / 200;
#X floatatom 178 128 5 0 0 0 - - -;
#X connect 0 0 21 0;
#X connect 1 0 26 0;
#X connect 2 0 24 0;
#X connect 3 0 22 0;
#X connect 4 0 23 0;
#X connect 5 0 25 0;
#X connect 6 0 15 0;
#X connect 6 0 16 0;
#X connect 6 0 17 0;
#X connect 6 0 18 0;
#X connect 6 0 19 0;
#X connect 6 0 20 0;
#X connect 6 0 39 0;
#X connect 7 0 15 1;
#X connect 7 0 21 1;
#X connect 8 0 16 1;
#X connect 8 0 22 1;
#X connect 9 0 17 1;
#X connect 9 0 23 1;
#X connect 10 0 18 1;
#X connect 10 0 24 1;
#X connect 11 0 19 1;
#X connect 11 0 25 1;
#X connect 12 0 20 1;
#X connect 12 0 26 1;
#X connect 13 0 14 0;
#X connect 14 0 29 0;
#X connect 14 0 29 1;
#X connect 15 0 0 0;
#X connect 16 0 3 0;
#X connect 17 0 4 0;
#X connect 18 0 2 0;
#X connect 19 0 5 0;
#X connect 20 0 1 0;
#X connect 21 0 14 0;
#X connect 22 0 14 0;
#X connect 23 0 14 0;
#X connect 24 0 14 0;
#X connect 25 0 14 0;
#X connect 26 0 14 0;
#X connect 27 0 6 0;
#X connect 31 0 7 0;
#X connect 31 0 8 0;
#X connect 31 0 9 0;
#X connect 31 0 10 0;
#X connect 31 0 11 0;
#X connect 31 0 12 0;
#X connect 33 0 32 0;
#X connect 34 0 27 0;
#X connect 35 0 14 1;
#X connect 36 0 35 0;
#X connect 37 0 38 0;
#X connect 38 0 36 0;
#X connect 39 0 13 0;
