#N canvas 907 40 675 698 10;
#X floatatom 150 158 8 0 0 0 dur: - -;
#X floatatom 150 176 5 0 0 0 id: - -;
#X obj 149 65 symbol;
#X symbolatom 149 123 10 0 0 0 type: - -;
#X obj 215 65 symbol;
#X symbolatom 150 141 10 0 0 0 state: - -;
#X obj 149 29 route type state duration id;
#X obj 149 3 route \$1;
#X obj 149 -25 r gesture;
#X obj 150 302 dial;
#X obj 150 258 sel 0 1 2 3 4 5 6 7 8;
#X obj 150 214 mod 9;
#X connect 1 0 11 0;
#X connect 2 0 3 0;
#X connect 4 0 5 0;
#X connect 6 0 2 0;
#X connect 6 1 4 0;
#X connect 6 2 0 0;
#X connect 6 3 1 0;
#X connect 7 0 6 0;
#X connect 8 0 7 0;
#X connect 10 0 9 0;
#X connect 10 1 9 1;
#X connect 10 2 9 2;
#X connect 10 3 9 3;
#X connect 10 4 9 4;
#X connect 10 5 9 5;
#X connect 10 6 9 6;
#X connect 10 7 9 7;
#X connect 10 8 9 8;
#X connect 11 0 10 0;
#X coords 0 -1 1 1 120 100 1 100 100;
