#N canvas 752 27 786 766 12;
#X obj 406 407 osc~;
#X obj 658 406 osc~;
#X obj 554 406 osc~;
#X obj 454 407 osc~;
#X obj 503 406 osc~;
#X obj 604 405 osc~;
#X obj 360 316 mtof;
#X floatatom 424 317 2 0 0 0 - - -;
#X floatatom 472 316 2 0 0 0 - - -;
#X floatatom 521 316 2 0 0 0 - - -;
#X floatatom 579 317 2 0 0 0 - - -;
#X floatatom 629 317 2 0 0 0 - - -;
#X floatatom 683 316 2 0 0 0 - - -;
#X obj 360 407 osc~;
#X obj 406 373 * 2;
#X obj 454 373 * 4;
#X obj 503 373 * 8;
#X obj 554 373 * 16;
#X obj 604 373 * 32;
#X obj 658 373 * 64;
#X obj 430 445 /~ 2;
#X obj 478 445 /~ 4;
#X obj 525 444 /~ 8;
#X obj 574 444 /~ 16;
#X obj 628 444 /~ 32;
#X obj 681 443 /~ 64;
#X floatatom 360 374 5 0 0 0 - - -;
#X obj 424 281 mod 5;
#X obj 472 281 mod 5;
#X obj 521 281 mod 5;
#X obj 579 281 mod 5;
#X obj 629 281 mod 5;
#X obj 683 281 mod 5;
#X obj 424 252 +;
#X obj 424 222 random 5;
#X obj 472 193 random 5;
#X obj 521 222 random 5;
#X obj 579 194 random 5;
#X obj 472 252 +;
#X obj 521 251 +;
#X obj 579 250 +;
#X obj 629 250 +;
#X obj 683 251 +;
#X obj 629 221 random 5;
#X obj 682 193 random 5;
#X floatatom 563 113 5 0 0 0 - - -;
#X obj 327 176 bng 15 250 50 0 empty empty empty 0 -6 0 8 -262144 -1
-1;
#X obj 327 103 tgl 15 0 empty empty empty 17 7 0 10 -262144 -1 -1 0
1;
#X obj 327 138 metro 400;
#X obj 117 131 vsl 15 85 50 300 0 0 empty empty y 0 -9 0 10 -262144
-1 -1 3700 1;
#X obj 147 129 vradio 15 1 0 6 empty empty finger 0 -8 0 10 -262144
-1 -1 1;
#X obj 97 65 inlet;
#X obj 539 626 outlet~;
#X obj 147 65 inlet;
#X floatatom 360 253 5 0 0 0 - - -;
#X obj 621 627 dac~;
#X obj 360 282 / 5;
#X obj 539 574 *~ 0.5;
#X connect 0 0 20 0;
#X connect 1 0 25 0;
#X connect 2 0 23 0;
#X connect 3 0 21 0;
#X connect 4 0 22 0;
#X connect 5 0 24 0;
#X connect 6 0 14 0;
#X connect 6 0 15 0;
#X connect 6 0 16 0;
#X connect 6 0 17 0;
#X connect 6 0 18 0;
#X connect 6 0 19 0;
#X connect 6 0 26 0;
#X connect 7 0 14 1;
#X connect 7 0 20 1;
#X connect 8 0 15 1;
#X connect 8 0 21 1;
#X connect 9 0 16 1;
#X connect 9 0 22 1;
#X connect 10 0 17 1;
#X connect 10 0 23 1;
#X connect 11 0 18 1;
#X connect 11 0 24 1;
#X connect 12 0 19 1;
#X connect 12 0 25 1;
#X connect 13 0 57 0;
#X connect 14 0 0 0;
#X connect 15 0 3 0;
#X connect 16 0 4 0;
#X connect 17 0 2 0;
#X connect 18 0 5 0;
#X connect 19 0 1 0;
#X connect 20 0 57 0;
#X connect 21 0 57 0;
#X connect 22 0 57 0;
#X connect 23 0 57 0;
#X connect 24 0 57 0;
#X connect 25 0 57 0;
#X connect 26 0 13 0;
#X connect 27 0 7 0;
#X connect 28 0 8 0;
#X connect 29 0 9 0;
#X connect 30 0 10 0;
#X connect 31 0 11 0;
#X connect 32 0 12 0;
#X connect 33 0 27 0;
#X connect 34 0 33 0;
#X connect 35 0 38 0;
#X connect 36 0 39 0;
#X connect 37 0 40 0;
#X connect 38 0 28 0;
#X connect 39 0 29 0;
#X connect 40 0 30 0;
#X connect 41 0 31 0;
#X connect 42 0 32 0;
#X connect 43 0 41 0;
#X connect 44 0 42 0;
#X connect 45 0 39 1;
#X connect 45 0 40 1;
#X connect 45 0 41 1;
#X connect 45 0 42 1;
#X connect 45 0 38 1;
#X connect 45 0 33 1;
#X connect 46 0 34 0;
#X connect 46 0 35 0;
#X connect 46 0 36 0;
#X connect 46 0 37 0;
#X connect 46 0 43 0;
#X connect 46 0 44 0;
#X connect 47 0 48 0;
#X connect 48 0 46 0;
#X connect 49 0 54 0;
#X connect 50 0 45 0;
#X connect 50 0 48 0;
#X connect 51 0 49 0;
#X connect 53 0 50 0;
#X connect 54 0 56 0;
#X connect 56 0 6 0;
#X connect 57 0 52 0;
#X coords 0 -1 1 1 80 130 1 100 100;
