#N canvas 0 23 334 412 12;
#X obj 115 327 line~;
#X msg 115 300 \$1 20;
#X obj 115 274 / 300;
#X obj 115 133 vsl 15 85 30 110 0 0 empty empty r 0 -9 0 10 -262144
-1 -1 0 1;
#X floatatom 115 245 5 0 0 0 - - -;
#X obj 114 54 inlet;
#X obj 115 378 outlet~;
#X connect 0 0 6 0;
#X connect 1 0 0 0;
#X connect 2 0 1 0;
#X connect 3 0 4 0;
#X connect 4 0 2 0;
#X connect 5 0 3 0;
#X coords 0 -1 1 1 45 130 1 100 100;
