#N canvas 648 123 780 448 12;
#X msg 52 200 100;
#X msg 99 201 200;
#X msg 146 201 300;
#X msg 191 201 400;
#X msg 234 201 500;
#X msg 282 201 600;
#X msg 330 200 700;
#X msg 378 200 800;
#X obj 86 149 bng 15 250 50 0 empty empty empty 0 -6 0 8 -262144 -1
-1;
#X obj 160 150 bng 15 250 50 0 empty empty empty 0 -6 0 8 -262144 -1
-1;
#X obj 266 148 bng 15 250 50 0 empty empty empty 0 -6 0 8 -262144 -1
-1;
#X obj 339 147 bng 15 250 50 0 empty empty empty 0 -6 0 8 -262144 -1
-1;
#X floatatom 119 60 5 0 0 0 - - -;
#X text 119 1 x-coord;
#X floatatom 301 55 5 0 0 0 - - -;
#X obj 86 94 < 0;
#X obj 160 93 > 0;
#X obj 266 93 < 0;
#X obj 339 93 > 0;
#X obj 55 245 osc~;
#X obj 150 245 osc~;
#X obj 237 245 osc~;
#X obj 332 243 osc~;
#X text 282 -1 z-coord;
#X obj 436 67 s x-coord;
#X floatatom 436 29 5 0 0 0 - - -;
#X floatatom 549 29 5 0 0 0 - - -;
#X obj 119 30 r x-coord;
#X obj 301 23 r z-coord;
#X obj 431 274 line~;
#X msg 431 247 \$1 20;
#X obj 434 186 hsl 128 15 0 20 0 0 empty empty empty -2 -6 0 8 -262144
-1 -1 4445 1;
#X floatatom 649 27 5 0 0 0 - - -;
#X obj 649 65 s z-coord;
#X obj 549 67 s y-coord;
#X obj 339 120 sel 1;
#X obj 266 120 sel 1;
#X obj 86 121 sel 1;
#X obj 160 120 sel 1;
#X obj 168 328 *~;
#X obj 167 361 dac~;
#X obj 431 152 r y-coord;
#X obj 431 221 / 200;
#X connect 0 0 19 0;
#X connect 1 0 19 0;
#X connect 2 0 20 0;
#X connect 3 0 20 0;
#X connect 4 0 21 0;
#X connect 5 0 21 0;
#X connect 6 0 22 0;
#X connect 7 0 22 0;
#X connect 8 0 0 0;
#X connect 8 0 2 0;
#X connect 9 0 1 0;
#X connect 9 0 3 0;
#X connect 10 0 4 0;
#X connect 10 0 6 0;
#X connect 11 0 5 0;
#X connect 11 0 7 0;
#X connect 12 0 15 0;
#X connect 12 0 16 0;
#X connect 14 0 17 0;
#X connect 14 0 18 0;
#X connect 15 0 37 0;
#X connect 16 0 38 0;
#X connect 17 0 36 0;
#X connect 18 0 35 0;
#X connect 19 0 39 0;
#X connect 20 0 39 0;
#X connect 21 0 39 0;
#X connect 22 0 39 0;
#X connect 25 0 24 0;
#X connect 26 0 34 0;
#X connect 27 0 12 0;
#X connect 28 0 14 0;
#X connect 29 0 39 1;
#X connect 30 0 29 0;
#X connect 31 0 42 0;
#X connect 32 0 33 0;
#X connect 35 0 11 0;
#X connect 36 0 10 0;
#X connect 37 0 8 0;
#X connect 38 0 9 0;
#X connect 39 0 40 0;
#X connect 39 0 40 1;
#X connect 41 0 31 0;
#X connect 42 0 30 0;
