#N canvas 626 0 1293 1026 12;
#X obj 147 313 bng 15 250 50 0 empty empty empty 0 -6 0 8 -262144 -1
-1;
#X obj 223 314 bng 15 250 50 0 empty empty empty 0 -6 0 8 -262144 -1
-1;
#X obj 329 315 bng 15 250 50 0 empty empty empty 0 -6 0 8 -262144 -1
-1;
#X obj 402 315 bng 15 250 50 0 empty empty empty 0 -6 0 8 -262144 -1
-1;
#X floatatom 90 162 5 0 0 0 - - -;
#X floatatom 472 156 5 0 0 0 - - -;
#X obj 115 404 osc~;
#X obj 209 407 osc~;
#X obj 298 407 osc~;
#X obj 393 406 osc~;
#X obj -113 71 s x-coord;
#X floatatom -113 33 5 0 0 0 - - -;
#X floatatom -20 33 5 0 0 0 - - -;
#X obj 90 127 r x-coord;
#X obj 472 124 r z-coord;
#X obj 475 687 line~;
#X msg 475 660 \$1 20;
#X obj 478 596 hsl 128 15 0 300 0 0 empty empty empty -2 -6 0 8 -262144
-1 -1 0 1;
#X floatatom 80 31 5 0 0 0 - - -;
#X obj 80 70 s z-coord;
#X obj -20 71 s y-coord;
#X obj 223 279 sel 1;
#X obj 256 470 *~;
#X obj 526 319 bng 15 250 50 0 empty empty empty 0 -6 0 8 -262144 -1
-1;
#X obj 599 318 bng 15 250 50 0 empty empty empty 0 -6 0 8 -262144 -1
-1;
#X obj 494 404 osc~;
#X obj 590 402 osc~;
#X obj -38 310 bng 15 250 50 0 empty empty empty 0 -6 0 8 -262144 -1
-1;
#X obj 29 311 bng 15 250 50 0 empty empty empty 0 -6 0 8 -262144 -1
-1;
#X obj -72 402 osc~;
#X obj 22 405 osc~;
#X obj -38 278 sel 1;
#X text 5 220 -50 < x < 0;
#X text -89 219 x <= -50;
#X msg -72 357 100;
#X msg -25 358 200;
#X msg 22 358 300;
#X msg 67 358 400;
#X msg 115 359 500;
#X msg 162 360 600;
#X msg 209 360 700;
#X msg 254 360 800;
#X msg 298 360 900;
#X msg 345 360 1000;
#X msg 393 359 1100;
#X msg 446 359 1200;
#X msg 494 360 1300;
#X msg 542 359 1400;
#X msg 590 359 1500;
#X msg 644 359 1600;
#X text 218 219 50 <= x;
#X text 118 219 0 <= x < 50;
#X obj -38 251 <= -50;
#X obj 29 251 moses 0;
#X obj 29 279 moses -50;
#X obj 147 252 moses 50;
#X obj 147 279 moses 0;
#X obj 223 252 >= 50;
#X obj -355 10 sel 1;
#X obj -355 10 sel 1;
#X obj -351 11 <= -50;
#X obj -355 10 moses 0;
#X obj -355 10 moses -50;
#X obj -355 10 moses 50;
#X obj -355 10 moses 0;
#X obj -355 10 >= 50;
#X obj 599 277 sel 1;
#X obj 329 279 sel 1;
#X obj 329 252 <= -50;
#X obj 402 251 moses 0;
#X obj 402 279 moses -50;
#X obj 526 250 moses 50;
#X obj 526 277 moses 0;
#X obj 599 250 >= 50;
#X floatatom 181 32 5 0 0 0 - - -;
#X obj 181 70 s sphere-r;
#X text 405 31 x: left-right -150-150 y: height 50-300 z: front-back
-100-100 radius: closed-open 30-110;
#X obj 783 344 osc~;
#X obj 1035 343 osc~;
#X obj 931 343 osc~;
#X obj 831 344 osc~;
#X obj 880 343 osc~;
#X obj 981 342 osc~;
#X obj 737 253 mtof;
#X floatatom 799 254 2 0 0 0 - - -;
#X floatatom 847 253 2 0 0 0 - - -;
#X floatatom 896 253 2 0 0 0 - - -;
#X floatatom 953 255 2 0 0 0 - - -;
#X floatatom 1003 256 2 0 0 0 - - -;
#X floatatom 1057 257 2 0 0 0 - - -;
#X obj 738 343 osc~;
#X obj 916 511 *~;
#X obj 783 310 * 2;
#X obj 831 310 * 4;
#X obj 880 310 * 8;
#X obj 931 310 * 16;
#X obj 981 310 * 32;
#X obj 1035 310 * 64;
#X obj 807 382 /~ 2;
#X obj 855 382 /~ 4;
#X obj 902 381 /~ 8;
#X obj 951 381 /~ 16;
#X obj 1005 381 /~ 32;
#X obj 1058 380 /~ 64;
#X obj 740 220 hsl 128 15 0 300 0 0 empty empty empty -2 -8 0 10 -262144
-1 -1 7900 1;
#X obj 896 220 r finger-ct;
#X obj 293 71 s finger-ct;
#X floatatom 293 32 5 0 0 0 - - -;
#X floatatom 737 193 5 0 0 0 - - -;
#X floatatom 737 311 5 0 0 0 - - -;
#X obj 737 150 r y-coord;
#X obj 475 558 r sphere-r;
#X obj 475 634 / 300;
#X obj 257 530 +~;
#X obj 256 578 *~;
#X obj 256 619 dac~;
#X connect 0 0 38 0;
#X connect 0 0 40 0;
#X connect 1 0 39 0;
#X connect 1 0 41 0;
#X connect 2 0 42 0;
#X connect 2 0 44 0;
#X connect 3 0 43 0;
#X connect 3 0 45 0;
#X connect 4 0 52 0;
#X connect 4 0 53 0;
#X connect 4 0 55 0;
#X connect 4 0 57 0;
#X connect 5 0 68 0;
#X connect 5 0 69 0;
#X connect 5 0 71 0;
#X connect 5 0 73 0;
#X connect 6 0 22 0;
#X connect 7 0 22 0;
#X connect 8 0 22 0;
#X connect 9 0 22 0;
#X connect 11 0 10 0;
#X connect 12 0 20 0;
#X connect 13 0 4 0;
#X connect 14 0 5 0;
#X connect 15 0 114 1;
#X connect 16 0 15 0;
#X connect 17 0 112 0;
#X connect 18 0 19 0;
#X connect 21 0 1 0;
#X connect 22 0 113 0;
#X connect 23 0 46 0;
#X connect 23 0 48 0;
#X connect 24 0 47 0;
#X connect 24 0 49 0;
#X connect 25 0 22 0;
#X connect 26 0 22 0;
#X connect 27 0 34 0;
#X connect 27 0 36 0;
#X connect 28 0 35 0;
#X connect 28 0 37 0;
#X connect 29 0 22 0;
#X connect 30 0 22 0;
#X connect 31 0 27 0;
#X connect 34 0 29 0;
#X connect 35 0 29 0;
#X connect 36 0 30 0;
#X connect 37 0 30 0;
#X connect 38 0 6 0;
#X connect 39 0 6 0;
#X connect 40 0 7 0;
#X connect 41 0 7 0;
#X connect 42 0 8 0;
#X connect 43 0 8 0;
#X connect 44 0 9 0;
#X connect 45 0 9 0;
#X connect 46 0 25 0;
#X connect 47 0 25 0;
#X connect 48 0 26 0;
#X connect 49 0 26 0;
#X connect 52 0 31 0;
#X connect 53 0 54 0;
#X connect 54 1 28 0;
#X connect 55 0 56 0;
#X connect 56 1 0 0;
#X connect 57 0 21 0;
#X connect 60 0 59 0;
#X connect 61 0 62 0;
#X connect 63 0 64 0;
#X connect 65 0 58 0;
#X connect 66 0 24 0;
#X connect 67 0 2 0;
#X connect 68 0 67 0;
#X connect 69 0 70 0;
#X connect 70 1 3 0;
#X connect 71 0 72 0;
#X connect 72 1 23 0;
#X connect 73 0 66 0;
#X connect 74 0 75 0;
#X connect 77 0 98 0;
#X connect 78 0 103 0;
#X connect 79 0 101 0;
#X connect 80 0 99 0;
#X connect 81 0 100 0;
#X connect 82 0 102 0;
#X connect 83 0 92 0;
#X connect 83 0 93 0;
#X connect 83 0 94 0;
#X connect 83 0 95 0;
#X connect 83 0 96 0;
#X connect 83 0 97 0;
#X connect 83 0 109 0;
#X connect 84 0 92 1;
#X connect 84 0 98 1;
#X connect 85 0 93 1;
#X connect 85 0 99 1;
#X connect 86 0 94 1;
#X connect 86 0 100 1;
#X connect 87 0 95 1;
#X connect 87 0 101 1;
#X connect 88 0 96 1;
#X connect 88 0 102 1;
#X connect 89 0 97 1;
#X connect 89 0 103 1;
#X connect 90 0 91 0;
#X connect 91 0 113 1;
#X connect 92 0 77 0;
#X connect 93 0 80 0;
#X connect 94 0 81 0;
#X connect 95 0 79 0;
#X connect 96 0 82 0;
#X connect 97 0 78 0;
#X connect 98 0 91 0;
#X connect 99 0 91 0;
#X connect 100 0 91 0;
#X connect 101 0 91 0;
#X connect 102 0 91 0;
#X connect 103 0 91 0;
#X connect 104 0 83 0;
#X connect 105 0 84 0;
#X connect 105 0 85 0;
#X connect 105 0 86 0;
#X connect 105 0 87 0;
#X connect 105 0 88 0;
#X connect 105 0 89 0;
#X connect 107 0 106 0;
#X connect 108 0 104 0;
#X connect 109 0 90 0;
#X connect 110 0 108 0;
#X connect 111 0 17 0;
#X connect 112 0 16 0;
#X connect 113 0 114 0;
#X connect 114 0 115 0;
#X connect 114 0 115 1;
