#N canvas 296 23 1289 775 12;
#X obj 168 480 bng 15 250 50 0 empty empty empty 0 -6 0 8 -262144 -1
-1;
#X obj 244 481 bng 15 250 50 0 empty empty empty 0 -6 0 8 -262144 -1
-1;
#X obj 350 482 bng 15 250 50 0 empty empty empty 0 -6 0 8 -262144 -1
-1;
#X obj 423 482 bng 15 250 50 0 empty empty empty 0 -6 0 8 -262144 -1
-1;
#X floatatom 130 339 5 0 0 0 - - -;
#X floatatom 490 349 5 0 0 0 - - -;
#X obj 136 571 osc~;
#X obj 230 574 osc~;
#X obj 319 574 osc~;
#X obj 414 573 osc~;
#X obj 281 193 s x-coord;
#X floatatom 281 155 5 0 0 0 - - -;
#X floatatom 364 155 5 0 0 0 - - -;
#X obj 280 222 r x-coord;
#X obj 448 224 r z-coord;
#X obj 758 724 line~;
#X msg 758 697 \$1 20;
#X floatatom 448 154 5 0 0 0 - - -;
#X obj 448 193 s z-coord;
#X obj 364 193 s y-coord;
#X obj 244 446 sel 1;
#X obj 547 486 bng 15 250 50 0 empty empty empty 0 -6 0 8 -262144 -1
-1;
#X obj 620 485 bng 15 250 50 0 empty empty empty 0 -6 0 8 -262144 -1
-1;
#X obj 515 571 osc~;
#X obj 611 569 osc~;
#X obj -17 477 bng 15 250 50 0 empty empty empty 0 -6 0 8 -262144 -1
-1;
#X obj 50 478 bng 15 250 50 0 empty empty empty 0 -6 0 8 -262144 -1
-1;
#X obj -51 569 osc~;
#X obj 43 572 osc~;
#X obj -17 445 sel 1;
#X msg -51 524 100;
#X msg -4 525 200;
#X msg 43 525 300;
#X msg 88 525 400;
#X msg 136 526 500;
#X msg 183 527 600;
#X msg 230 527 700;
#X msg 275 527 800;
#X msg 319 527 900;
#X msg 366 527 1000;
#X msg 414 526 1100;
#X msg 467 526 1200;
#X msg 515 527 1300;
#X msg 563 526 1400;
#X msg 611 526 1500;
#X msg 662 526 1600;
#X obj 50 418 moses 0;
#X obj 168 446 moses 0;
#X obj -355 10 sel 1;
#X obj -355 10 sel 1;
#X obj -351 11 <= -50;
#X obj -355 10 moses 0;
#X obj -355 10 moses -50;
#X obj -355 10 moses 50;
#X obj -355 10 moses 0;
#X obj -355 10 >= 50;
#X obj 620 444 sel 1;
#X obj 350 446 sel 1;
#X obj 423 418 moses 0;
#X obj 423 446 moses -50;
#X obj 547 417 moses 50;
#X obj 547 444 moses 0;
#X obj 620 417 >= 50;
#X floatatom 532 154 5 0 0 0 - - -;
#X obj 532 192 s sphere-r;
#X obj 830 465 osc~;
#X obj 1082 464 osc~;
#X obj 978 464 osc~;
#X obj 878 465 osc~;
#X obj 927 464 osc~;
#X obj 1028 463 osc~;
#X obj 784 374 mtof;
#X floatatom 848 375 2 0 0 0 - - -;
#X floatatom 896 374 2 0 0 0 - - -;
#X floatatom 945 374 2 0 0 0 - - -;
#X floatatom 1003 375 2 0 0 0 - - -;
#X floatatom 1053 375 2 0 0 0 - - -;
#X floatatom 1107 374 2 0 0 0 - - -;
#X obj 784 465 osc~;
#X obj 830 431 * 2;
#X obj 878 431 * 4;
#X obj 927 431 * 8;
#X obj 978 431 * 16;
#X obj 1028 431 * 32;
#X obj 1082 431 * 64;
#X obj 854 503 /~ 2;
#X obj 902 503 /~ 4;
#X obj 949 502 /~ 8;
#X obj 998 502 /~ 16;
#X obj 1052 502 /~ 32;
#X obj 1105 501 /~ 64;
#X obj 624 226 r finger-ct;
#X obj 622 191 s finger-ct;
#X floatatom 622 152 5 0 0 0 - - -;
#X floatatom 364 258 5 0 0 0 - - -;
#X floatatom 784 432 5 0 0 0 - - -;
#X obj 363 223 r y-coord;
#X obj 532 226 r sphere-r;
#X obj 758 671 / 300;
#X obj 304 781 dac~;
#X text -68 386 x <= -150;
#X obj -17 418 <= -150;
#X obj 50 446 moses -75;
#X text 26 387 -75 < x < 0;
#X text 139 386 0 <= x < 75;
#X obj 168 419 moses 75;
#X text 239 386 75 <= x;
#X obj 244 419 >= 75;
#X obj 155 128 vsl 15 128 50 300 0 0 empty empty y 0 -9 0 10 -262144
-1 -1 2467 1;
#X obj 848 339 mod 5;
#X obj 896 339 mod 5;
#X obj 945 339 mod 5;
#X obj 1003 339 mod 5;
#X obj 1053 339 mod 5;
#X obj 1107 339 mod 5;
#X obj 848 310 +;
#X obj 848 280 random 5;
#X obj 896 251 random 5;
#X obj 945 280 random 5;
#X obj 1003 252 random 5;
#X obj 896 310 +;
#X obj 945 309 +;
#X obj 1003 308 +;
#X obj 1053 308 +;
#X obj 1107 309 +;
#X obj 1053 279 random 5;
#X obj 1106 251 random 5;
#X floatatom 991 169 5 0 0 0 - - -;
#X obj 751 230 bng 15 250 50 0 empty empty empty 0 -6 0 8 -262144 -1
-1;
#X obj 751 161 tgl 15 0 empty empty empty 17 7 0 10 -262144 -1 -1 1
1;
#X obj 751 196 metro 400;
#X msg 994 51 \; pd dsp \$1;
#X obj 994 28 tgl 15 0 empty empty Master_Switch 17 7 0 10 -262144
-1 -1 0 1;
#X text 577 26 x: left-right -150-150 y: height 50-300 z: front-back
-100-100 radius: closed-open 30-110;
#X floatatom 532 257 5 0 0 0 - - -;
#X obj 963 670 dac~;
#X obj 963 632 *~;
#X obj 130 128 vsl 15 128 -150 150 0 0 empty empty x 0 -9 0 10 -262144
-1 -1 12334 1;
#X obj 179 128 vsl 15 128 -100 100 0 0 empty empty z 0 -9 0 10 -262144
-1 -1 9398 1;
#X obj 204 129 vsl 15 128 30 110 0 0 empty empty r 0 -9 0 10 -262144
-1 -1 8976 1;
#X obj 130 269 hradio 15 1 0 6 empty empty empty 0 -8 0 10 -262144
-1 -1 3;
#X obj 350 419 <= -50;
#X obj 281 118 inlet;
#X obj 364 117 inlet;
#X obj 448 117 inlet;
#X obj 532 116 inlet;
#X obj 622 116 inlet;
#X obj 304 740 *~ 0.1;
#X connect 0 0 34 0;
#X connect 0 0 36 0;
#X connect 1 0 35 0;
#X connect 1 0 37 0;
#X connect 2 0 38 0;
#X connect 2 0 40 0;
#X connect 3 0 39 0;
#X connect 3 0 41 0;
#X connect 4 0 46 0;
#X connect 4 0 101 0;
#X connect 4 0 105 0;
#X connect 4 0 107 0;
#X connect 5 0 58 0;
#X connect 5 0 60 0;
#X connect 5 0 62 0;
#X connect 5 0 141 0;
#X connect 6 0 147 0;
#X connect 7 0 147 0;
#X connect 8 0 147 0;
#X connect 9 0 147 0;
#X connect 11 0 10 0;
#X connect 12 0 19 0;
#X connect 13 0 137 0;
#X connect 14 0 138 0;
#X connect 15 0 136 1;
#X connect 16 0 15 0;
#X connect 17 0 18 0;
#X connect 20 0 1 0;
#X connect 21 0 42 0;
#X connect 21 0 44 0;
#X connect 22 0 43 0;
#X connect 22 0 45 0;
#X connect 23 0 147 0;
#X connect 24 0 147 0;
#X connect 25 0 30 0;
#X connect 25 0 32 0;
#X connect 26 0 31 0;
#X connect 26 0 33 0;
#X connect 27 0 147 0;
#X connect 28 0 147 0;
#X connect 29 0 25 0;
#X connect 30 0 27 0;
#X connect 31 0 27 0;
#X connect 32 0 28 0;
#X connect 33 0 28 0;
#X connect 34 0 6 0;
#X connect 35 0 6 0;
#X connect 36 0 7 0;
#X connect 37 0 7 0;
#X connect 38 0 8 0;
#X connect 39 0 8 0;
#X connect 40 0 9 0;
#X connect 41 0 9 0;
#X connect 42 0 23 0;
#X connect 43 0 23 0;
#X connect 44 0 24 0;
#X connect 45 0 24 0;
#X connect 46 0 102 0;
#X connect 47 1 0 0;
#X connect 50 0 49 0;
#X connect 51 0 52 0;
#X connect 53 0 54 0;
#X connect 55 0 48 0;
#X connect 56 0 22 0;
#X connect 57 0 2 0;
#X connect 58 0 59 0;
#X connect 59 1 3 0;
#X connect 60 0 61 0;
#X connect 61 1 21 0;
#X connect 62 0 56 0;
#X connect 63 0 64 0;
#X connect 65 0 85 0;
#X connect 66 0 90 0;
#X connect 67 0 88 0;
#X connect 68 0 86 0;
#X connect 69 0 87 0;
#X connect 70 0 89 0;
#X connect 71 0 79 0;
#X connect 71 0 80 0;
#X connect 71 0 81 0;
#X connect 71 0 82 0;
#X connect 71 0 83 0;
#X connect 71 0 84 0;
#X connect 71 0 95 0;
#X connect 72 0 79 1;
#X connect 72 0 85 1;
#X connect 73 0 80 1;
#X connect 73 0 86 1;
#X connect 74 0 81 1;
#X connect 74 0 87 1;
#X connect 75 0 82 1;
#X connect 75 0 88 1;
#X connect 76 0 83 1;
#X connect 76 0 89 1;
#X connect 77 0 84 1;
#X connect 77 0 90 1;
#X connect 78 0 136 0;
#X connect 79 0 65 0;
#X connect 80 0 68 0;
#X connect 81 0 69 0;
#X connect 82 0 67 0;
#X connect 83 0 70 0;
#X connect 84 0 66 0;
#X connect 85 0 136 0;
#X connect 86 0 136 0;
#X connect 87 0 136 0;
#X connect 88 0 136 0;
#X connect 89 0 136 0;
#X connect 90 0 136 0;
#X connect 91 0 140 0;
#X connect 93 0 92 0;
#X connect 94 0 108 0;
#X connect 95 0 78 0;
#X connect 96 0 94 0;
#X connect 97 0 134 0;
#X connect 98 0 16 0;
#X connect 101 0 29 0;
#X connect 102 1 26 0;
#X connect 105 0 47 0;
#X connect 107 0 20 0;
#X connect 108 0 71 0;
#X connect 109 0 72 0;
#X connect 110 0 73 0;
#X connect 111 0 74 0;
#X connect 112 0 75 0;
#X connect 113 0 76 0;
#X connect 114 0 77 0;
#X connect 115 0 109 0;
#X connect 116 0 115 0;
#X connect 117 0 120 0;
#X connect 118 0 121 0;
#X connect 119 0 122 0;
#X connect 120 0 110 0;
#X connect 121 0 111 0;
#X connect 122 0 112 0;
#X connect 123 0 113 0;
#X connect 124 0 114 0;
#X connect 125 0 123 0;
#X connect 126 0 124 0;
#X connect 127 0 121 1;
#X connect 127 0 122 1;
#X connect 127 0 123 1;
#X connect 127 0 124 1;
#X connect 127 0 120 1;
#X connect 127 0 115 1;
#X connect 128 0 116 0;
#X connect 128 0 117 0;
#X connect 128 0 118 0;
#X connect 128 0 119 0;
#X connect 128 0 125 0;
#X connect 128 0 126 0;
#X connect 129 0 130 0;
#X connect 130 0 108 0;
#X connect 130 0 128 0;
#X connect 132 0 131 0;
#X connect 134 0 139 0;
#X connect 136 0 135 0;
#X connect 136 0 135 1;
#X connect 137 0 4 0;
#X connect 138 0 5 0;
#X connect 139 0 98 0;
#X connect 140 0 93 0;
#X connect 140 0 127 0;
#X connect 141 0 57 0;
#X connect 142 0 11 0;
#X connect 143 0 12 0;
#X connect 144 0 17 0;
#X connect 145 0 63 0;
#X connect 146 0 93 0;
#X coords 0 -1 10 1 150 200 1 100 100;
