#N canvas -9 -9 1920 1026 12;
#X obj 308 291 bng 15 250 50 0 empty empty empty 0 -6 0 8 -262144 -1
-1;
#X obj 384 292 bng 15 250 50 0 empty empty empty 0 -6 0 8 -262144 -1
-1;
#X obj 490 293 bng 15 250 50 0 empty empty empty 0 -6 0 8 -262144 -1
-1;
#X obj 563 293 bng 15 250 50 0 empty empty empty 0 -6 0 8 -262144 -1
-1;
#X floatatom 251 140 5 0 0 0 - - -;
#X floatatom 633 134 5 0 0 0 - - -;
#X obj 276 382 osc~;
#X obj 370 385 osc~;
#X obj 459 385 osc~;
#X obj 554 384 osc~;
#X obj 48 49 s x-coord;
#X floatatom 48 11 5 0 0 0 - - -;
#X floatatom 141 11 5 0 0 0 - - -;
#X obj 251 105 r x-coord;
#X obj 633 102 r z-coord;
#X obj 957 594 line~;
#X msg 957 567 \$1 20;
#X obj 960 510 hsl 128 15 0 20 0 0 empty empty empty -2 -6 0 8 -262144
-1 -1 0 1;
#X floatatom 241 9 5 0 0 0 - - -;
#X obj 241 48 s z-coord;
#X obj 141 49 s y-coord;
#X obj 384 257 sel 1;
#X obj 417 448 *~;
#X obj 417 487 dac~;
#X obj 957 472 r y-coord;
#X obj 957 541 / 200;
#X obj 687 297 bng 15 250 50 0 empty empty empty 0 -6 0 8 -262144 -1
-1;
#X obj 760 296 bng 15 250 50 0 empty empty empty 0 -6 0 8 -262144 -1
-1;
#X obj 655 382 osc~;
#X obj 751 380 osc~;
#X obj 123 288 bng 15 250 50 0 empty empty empty 0 -6 0 8 -262144 -1
-1;
#X obj 190 289 bng 15 250 50 0 empty empty empty 0 -6 0 8 -262144 -1
-1;
#X obj 89 380 osc~;
#X obj 183 383 osc~;
#X obj 123 256 sel 1;
#X text 166 198 -50 < x < 0;
#X text 72 197 x <= -50;
#X msg 89 335 100;
#X msg 136 336 200;
#X msg 183 336 300;
#X msg 228 336 400;
#X msg 276 337 500;
#X msg 323 338 600;
#X msg 370 338 700;
#X msg 415 338 800;
#X msg 459 338 900;
#X msg 506 338 1000;
#X msg 554 337 1100;
#X msg 607 337 1200;
#X msg 655 338 1300;
#X msg 703 337 1400;
#X msg 751 337 1500;
#X msg 805 337 1600;
#X text 379 197 50 <= x;
#X text 279 197 0 <= x < 50;
#X obj 123 229 <= -50;
#X obj 190 229 moses 0;
#X obj 190 257 moses -50;
#X obj 308 230 moses 50;
#X obj 308 257 moses 0;
#X obj 384 230 >= 50;
#X obj -355 10 sel 1;
#X obj -355 10 sel 1;
#X obj -351 11 <= -50;
#X obj -355 10 moses 0;
#X obj -355 10 moses -50;
#X obj -355 10 moses 50;
#X obj -355 10 moses 0;
#X obj -355 10 >= 50;
#X obj 760 255 sel 1;
#X obj 490 257 sel 1;
#X obj 490 230 <= -50;
#X obj 563 229 moses 0;
#X obj 563 257 moses -50;
#X obj 687 228 moses 50;
#X obj 687 255 moses 0;
#X obj 760 228 >= 50;
#X obj 174 658 r y-coord;
#X obj 102 659 < 50;
#X floatatom 102 548 5 0 0 0 - - -;
#X obj 102 574 s sphere-r;
#X obj 102 630 r sphere-r;
#X floatatom 102 688 5 0 0 0 - - -;
#X obj 103 732 sel 1;
#X floatatom 174 696 5 0 0 0 - - -;
#X floatatom 95 796 5 0 0 0 - - -;
#X connect 0 0 41 0;
#X connect 0 0 43 0;
#X connect 1 0 42 0;
#X connect 1 0 44 0;
#X connect 2 0 45 0;
#X connect 2 0 47 0;
#X connect 3 0 46 0;
#X connect 3 0 48 0;
#X connect 4 0 55 0;
#X connect 4 0 56 0;
#X connect 4 0 58 0;
#X connect 4 0 60 0;
#X connect 5 0 71 0;
#X connect 5 0 72 0;
#X connect 5 0 74 0;
#X connect 5 0 76 0;
#X connect 6 0 22 0;
#X connect 7 0 22 0;
#X connect 8 0 22 0;
#X connect 9 0 22 0;
#X connect 11 0 10 0;
#X connect 12 0 20 0;
#X connect 13 0 4 0;
#X connect 14 0 5 0;
#X connect 15 0 22 1;
#X connect 16 0 15 0;
#X connect 17 0 25 0;
#X connect 18 0 19 0;
#X connect 21 0 1 0;
#X connect 22 0 23 0;
#X connect 22 0 23 1;
#X connect 25 0 16 0;
#X connect 26 0 49 0;
#X connect 26 0 51 0;
#X connect 27 0 50 0;
#X connect 27 0 52 0;
#X connect 28 0 22 0;
#X connect 29 0 22 0;
#X connect 30 0 37 0;
#X connect 30 0 39 0;
#X connect 31 0 38 0;
#X connect 31 0 40 0;
#X connect 32 0 22 0;
#X connect 33 0 22 0;
#X connect 34 0 30 0;
#X connect 37 0 32 0;
#X connect 38 0 32 0;
#X connect 39 0 33 0;
#X connect 40 0 33 0;
#X connect 41 0 6 0;
#X connect 42 0 6 0;
#X connect 43 0 7 0;
#X connect 44 0 7 0;
#X connect 45 0 8 0;
#X connect 46 0 8 0;
#X connect 47 0 9 0;
#X connect 48 0 9 0;
#X connect 49 0 28 0;
#X connect 50 0 28 0;
#X connect 51 0 29 0;
#X connect 52 0 29 0;
#X connect 55 0 34 0;
#X connect 56 0 57 0;
#X connect 57 1 31 0;
#X connect 58 0 59 0;
#X connect 59 1 0 0;
#X connect 60 0 21 0;
#X connect 63 0 62 0;
#X connect 64 0 65 0;
#X connect 66 0 67 0;
#X connect 68 0 61 0;
#X connect 69 0 27 0;
#X connect 70 0 2 0;
#X connect 71 0 70 0;
#X connect 72 0 73 0;
#X connect 73 1 3 0;
#X connect 74 0 75 0;
#X connect 75 1 26 0;
#X connect 76 0 69 0;
#X connect 77 0 84 0;
#X connect 78 0 82 0;
#X connect 79 0 80 0;
#X connect 81 0 78 0;
#X connect 82 0 83 0;
#X connect 83 0 85 0;
#X connect 84 0 83 1;
