#N canvas 469 50 1080 744 12;
#X obj 241 366 bng 15 250 50 0 empty empty empty 0 -6 0 8 -262144 -1
-1;
#X obj 317 367 bng 15 250 50 0 empty empty empty 0 -6 0 8 -262144 -1
-1;
#X obj 423 368 bng 15 250 50 0 empty empty empty 0 -6 0 8 -262144 -1
-1;
#X obj 496 368 bng 15 250 50 0 empty empty empty 0 -6 0 8 -262144 -1
-1;
#X floatatom 198 247 5 0 0 0 - - -;
#X floatatom 558 257 5 0 0 0 - - -;
#X obj 317 332 sel 1;
#X obj 620 372 bng 15 250 50 0 empty empty empty 0 -6 0 8 -262144 -1
-1;
#X obj 693 371 bng 15 250 50 0 empty empty empty 0 -6 0 8 -262144 -1
-1;
#X obj 588 457 osc~;
#X obj 684 455 osc~;
#X obj 56 363 bng 15 250 50 0 empty empty empty 0 -6 0 8 -262144 -1
-1;
#X obj 123 364 bng 15 250 50 0 empty empty empty 0 -6 0 8 -262144 -1
-1;
#X obj 22 455 osc~;
#X obj 116 458 osc~;
#X obj 56 331 sel 1;
#X msg 22 410 100;
#X msg 69 411 200;
#X msg 116 411 300;
#X msg 161 411 400;
#X obj 123 304 moses 0;
#X obj 241 332 moses 0;
#X obj 693 330 sel 1;
#X obj 423 332 sel 1;
#X obj 496 304 moses 0;
#X obj 496 332 moses -50;
#X obj 620 303 moses 50;
#X obj 620 330 moses 0;
#X obj 693 303 >= 50;
#X text 19 251 x <= -150;
#X obj 56 304 <= -150;
#X obj 123 332 moses -75;
#X text 100 248 -75 < x < 0;
#X text 241 248 0 <= x < 75;
#X obj 241 305 moses 75;
#X text 338 250 75 <= x;
#X obj 317 305 >= 75;
#X obj 423 305 <= -50;
#X obj 114 128 vsl 15 85 -100 100 0 0 empty empty z 0 -9 0 10 -262144
-1 -1 0 1;
#X obj 149 201 hsl 85 15 -150 150 0 0 empty empty x -2 -8 0 10 -262144
-1 -1 0 1;
#X obj 90 39 inlet;
#X obj 146 38 inlet;
#X obj 352 657 outlet~;
#X floatatom 90 71 5 0 0 0 - - -;
#X floatatom 146 71 5 0 0 0 - - -;
#N canvas 0 22 450 278 (subpatch) 0;
#X array beep 1153 float 2;
#X coords 0 1 1153 -1 200 140 1;
#X restore 824 36 graph;
#N canvas 0 22 450 278 (subpatch) 0;
#X array rhumba 469994 float 2;
#X coords 0 1 469994 -1 200 140 1;
#X restore 824 198 graph;
#N canvas 0 22 450 278 (subpatch) 0;
#X array waltz 643120 float 2;
#X coords 0 1 643120 -1 200 140 1;
#X restore 824 360 graph;
#N canvas 0 22 450 278 (subpatch) 0;
#X array drone 341894 float 2;
#X coords 0 1 341894 -1 200 140 1;
#X restore 825 540 graph;
#X obj 264 119 soundfiler;
#N canvas 379 104 450 300 sampleConversion 0;
#X obj 274 16 inlet;
#X floatatom 274 56 10 0 0 1 number_of_samples - -;
#X obj 153 159 / 44.1;
#X floatatom 153 191 10 0 0 1 milliseconds - -;
#X text 207 156 < sampling rate (by default 44.1 KHz);
#X obj 132 263 pack f f;
#X obj 153 222 t b f;
#X obj 43 202 f;
#X obj 31 120 t f f;
#X text 83 116 < using trigger to make sure order of events happens
correctly;
#X text 202 220 < using trigger to make sure order of events happens
correctly;
#X text 204 264 < pack to format message;
#X obj 87 320 outlet;
#X obj 515 331 outlet;
#X connect 0 0 1 0;
#X connect 1 0 8 0;
#X connect 1 0 13 0;
#X connect 2 0 3 0;
#X connect 3 0 6 0;
#X connect 5 0 12 0;
#X connect 6 0 7 0;
#X connect 6 1 5 1;
#X connect 7 0 5 0;
#X connect 8 0 2 0;
#X connect 8 1 7 1;
#X restore 264 152 pd sampleConversion;
#X text 428 156 taken from example 3_tabread4z_line.pd;
#X msg 264 214 643120 14583.2;
#X msg 264 182 set \$1 \$2;
#X obj 264 38 loadbang;
#X obj 624 596 bng 15 250 50 0 empty empty Print_File_Path 17 7 0 10
-262144 -1 -1;
#X obj 624 628 openpanel;
#X msg 624 661 read -resize \$1 soundfile;
#X obj 570 660 print;
#X msg 359 42 read -resize sample/short-cut-off-beep.wav beep, f 64
;
#X msg 359 66 read -resize sample/rhumba.wav rhumba, f 65;
#X msg 359 90 read -resize sample/waltz.wav waltz, f 65;
#X msg 358 114 read -resize sample/drone-a.wav drone, f 65;
#X obj 203 424 line~;
#X obj 203 453 tabread4~ beep;
#X obj 450 663 dac~;
#X obj 289 480 line~;
#X obj 289 541 *~ 1;
#X obj 289 511 tabread4~ rhumba;
#X msg 289 423 0 \, 469994 10657.5;
#X msg 203 392 0 \, 1153 26.1451;
#X obj 413 457 line~;
#X obj 413 511 *~ 1;
#X obj 413 486 tabread4~ waltz;
#X msg 413 395 0 \, 643120 14583.2;
#X msg 497 435 0 \, 341894 7752.7;
#X obj 497 514 line~;
#X obj 497 568 *~ 1;
#X obj 497 543 tabread4~ drone;
#X msg 588 413 500;
#X msg 636 412 600;
#X msg 684 412 700;
#X msg 735 412 800;
#X obj 352 623 *~ 0.5;
#X obj 22 531 *~ 0.5;
#X obj 116 530 *~ 0.5;
#X obj 203 483 *~ 1;
#X obj 588 506 *~ 0.5;
#X obj 684 505 *~ 0.5;
#X obj 241 277 change;
#X obj 56 278 change;
#X obj 317 278 change;
#X obj 123 278 change;
#X connect 0 0 70 0;
#X connect 1 0 69 0;
#X connect 2 0 74 0;
#X connect 3 0 75 0;
#X connect 4 0 89 0;
#X connect 4 0 92 0;
#X connect 4 0 90 0;
#X connect 4 0 91 0;
#X connect 5 0 24 0;
#X connect 5 0 26 0;
#X connect 5 0 28 0;
#X connect 5 0 37 0;
#X connect 6 0 1 0;
#X connect 7 0 79 0;
#X connect 7 0 81 0;
#X connect 8 0 80 0;
#X connect 8 0 82 0;
#X connect 9 0 87 0;
#X connect 10 0 88 0;
#X connect 11 0 16 0;
#X connect 11 0 18 0;
#X connect 12 0 17 0;
#X connect 12 0 19 0;
#X connect 13 0 84 0;
#X connect 14 0 85 0;
#X connect 15 0 11 0;
#X connect 16 0 13 0;
#X connect 17 0 13 0;
#X connect 18 0 14 0;
#X connect 19 0 14 0;
#X connect 20 0 31 0;
#X connect 21 1 0 0;
#X connect 22 0 8 0;
#X connect 23 0 2 0;
#X connect 24 0 25 0;
#X connect 25 1 3 0;
#X connect 26 0 27 0;
#X connect 27 1 7 0;
#X connect 28 0 22 0;
#X connect 30 0 15 0;
#X connect 31 1 12 0;
#X connect 34 0 21 0;
#X connect 36 0 6 0;
#X connect 37 0 23 0;
#X connect 38 0 4 0;
#X connect 39 0 5 0;
#X connect 40 0 43 0;
#X connect 41 0 44 0;
#X connect 43 0 39 0;
#X connect 44 0 38 0;
#X connect 49 0 50 0;
#X connect 50 0 53 0;
#X connect 53 0 52 0;
#X connect 54 0 59 0;
#X connect 54 0 62 0;
#X connect 54 0 60 0;
#X connect 54 0 61 0;
#X connect 55 0 56 0;
#X connect 56 0 57 0;
#X connect 56 0 58 0;
#X connect 59 0 49 0;
#X connect 60 0 49 0;
#X connect 61 0 49 0;
#X connect 62 0 49 0;
#X connect 63 0 64 0;
#X connect 64 0 86 0;
#X connect 66 0 68 0;
#X connect 67 0 83 0;
#X connect 68 0 67 0;
#X connect 69 0 66 0;
#X connect 70 0 63 0;
#X connect 71 0 73 0;
#X connect 72 0 83 0;
#X connect 73 0 72 0;
#X connect 74 0 71 0;
#X connect 75 0 76 0;
#X connect 76 0 78 0;
#X connect 77 0 83 0;
#X connect 78 0 77 0;
#X connect 79 0 9 0;
#X connect 80 0 9 0;
#X connect 81 0 10 0;
#X connect 82 0 10 0;
#X connect 83 0 42 0;
#X connect 84 0 83 0;
#X connect 85 0 83 0;
#X connect 86 0 83 0;
#X connect 87 0 83 0;
#X connect 88 0 83 0;
#X connect 89 0 34 0;
#X connect 90 0 30 0;
#X connect 91 0 36 0;
#X connect 92 0 20 0;
#X coords 0 -1 1 1 150 130 1 100 100;
