#N canvas 326 49 1080 744 12;
#X obj 241 366 bng 15 250 50 0 empty empty empty 0 -6 0 8 -262144 -1
-1;
#X obj 317 367 bng 15 250 50 0 empty empty empty 0 -6 0 8 -262144 -1
-1;
#X obj 423 368 bng 15 250 50 0 empty empty empty 0 -6 0 8 -262144 -1
-1;
#X obj 496 368 bng 15 250 50 0 empty empty empty 0 -6 0 8 -262144 -1
-1;
#X floatatom 198 247 5 0 0 0 - - -;
#X floatatom 558 257 5 0 0 0 - - -;
#X obj 317 332 sel 1;
#X obj 620 372 bng 15 250 50 0 empty empty empty 0 -6 0 8 -262144 -1
-1;
#X obj 693 371 bng 15 250 50 0 empty empty empty 0 -6 0 8 -262144 -1
-1;
#X obj 56 363 bng 15 250 50 0 empty empty empty 0 -6 0 8 -262144 -1
-1;
#X obj 123 364 bng 15 250 50 0 empty empty empty 0 -6 0 8 -262144 -1
-1;
#X obj 22 455 osc~;
#X obj 734 456 osc~;
#X obj 56 331 sel 1;
#X msg 22 410 100;
#X msg 69 411 200;
#X msg 707 409 300;
#X msg 761 408 400;
#X obj 123 304 moses 0;
#X obj 241 332 moses 0;
#X obj 693 330 sel 1;
#X obj 423 332 sel 1;
#X obj 496 304 moses 0;
#X obj 496 332 moses -50;
#X obj 620 303 moses 50;
#X obj 620 330 moses 0;
#X obj 693 303 >= 50;
#X text 19 251 x <= -150;
#X obj 56 304 <= -150;
#X obj 123 332 moses -75;
#X text 100 248 -75 < x < 0;
#X text 241 248 0 <= x < 75;
#X obj 241 305 moses 75;
#X text 338 250 75 <= x;
#X obj 317 305 >= 75;
#X obj 423 305 <= -50;
#X obj 114 129 vsl 15 85 -100 100 0 0 empty empty z 0 -9 0 10 -262144
-1 -1 0 1;
#X obj 148 200 hsl 85 15 -150 150 0 0 empty empty x -2 -8 0 10 -262144
-1 -1 0 1;
#X obj 90 39 inlet;
#X obj 146 38 inlet;
#X obj 352 662 outlet~;
#X floatatom 90 71 5 0 0 0 - - -;
#X floatatom 146 71 5 0 0 0 - - -;
#N canvas 0 22 450 278 (subpatch) 0;
#X array beep 1153 float 2;
#X coords 0 1 1153 -1 200 140 1;
#X restore 824 189 graph;
#N canvas 0 22 450 278 (subpatch) 0;
#X array waltz 643120 float 2;
#X coords 0 1 643120 -1 200 140 1;
#X restore 824 360 graph;
#N canvas 0 22 450 278 (subpatch) 0;
#X array drone 341894 float 2;
#X coords 0 1 341894 -1 200 140 1;
#X restore 825 540 graph;
#X obj 264 119 soundfiler;
#N canvas 379 104 450 300 sampleConversion 0;
#X obj 274 16 inlet;
#X floatatom 274 56 10 0 0 1 number_of_samples - -;
#X obj 153 159 / 44.1;
#X floatatom 153 191 10 0 0 1 milliseconds - -;
#X text 207 156 < sampling rate (by default 44.1 KHz);
#X obj 132 263 pack f f;
#X obj 153 222 t b f;
#X obj 43 202 f;
#X obj 31 120 t f f;
#X text 83 116 < using trigger to make sure order of events happens
correctly;
#X text 202 220 < using trigger to make sure order of events happens
correctly;
#X text 204 264 < pack to format message;
#X obj 87 320 outlet;
#X obj 515 331 outlet;
#X connect 0 0 1 0;
#X connect 1 0 8 0;
#X connect 1 0 13 0;
#X connect 2 0 3 0;
#X connect 3 0 6 0;
#X connect 5 0 12 0;
#X connect 6 0 7 0;
#X connect 6 1 5 1;
#X connect 7 0 5 0;
#X connect 8 0 2 0;
#X connect 8 1 7 1;
#X restore 264 152 pd sampleConversion;
#X msg 264 214 643120 14583.2;
#X msg 264 182 set \$1 \$2;
#X obj 264 38 loadbang;
#X obj 624 596 bng 15 250 50 0 empty empty Print_File_Path 17 7 0 10
-262144 -1 -1;
#X obj 624 628 openpanel;
#X msg 624 661 read -resize \$1 soundfile;
#X obj 570 660 print;
#X msg 360 49 read -resize sample/short-cut-off-beep.wav beep, f 64
;
#X msg 360 80 read -resize sample/waltz.wav waltz, f 65;
#X msg 359 111 read -resize sample/drone-a.wav drone, f 65;
#X obj 203 424 line~;
#X obj 203 453 tabread4~ beep;
#X obj 450 663 dac~;
#X obj 413 457 line~;
#X obj 413 486 tabread4~ waltz;
#X obj 497 514 line~;
#X obj 497 543 tabread4~ drone;
#X obj 203 483 *~ 1;
#N canvas 0 23 993 592 pour 0;
#X obj 453 177 line;
#N canvas 202 87 227 371 waterflow 0;
#X obj 5 173 osc~;
#X obj 5 146 line~;
#X obj 46 290 *~;
#X obj 62 269 *~;
#X obj 5 44 metro 6;
#X obj 5 105 + 800;
#X obj 62 244 *~ 0.9;
#X obj 62 224 lop~ 10;
#N canvas 0 0 450 300 bilexp 0;
#X obj 56 166 expr exp($f1);
#X obj 55 71 random 8192;
#X obj 56 139 * 9;
#X obj 55 116 / 4096;
#X obj 123 91 > 4096;
#X obj 123 113 sel 0 1;
#X msg 115 141 -1;
#X msg 147 141 1;
#X obj 56 199 *;
#X obj 56 224 / 23000;
#X obj 55 45 t b;
#X obj 55 21 inlet;
#X obj 56 248 outlet;
#X obj 55 92 mod 4096;
#X connect 0 0 8 0;
#X connect 1 0 4 0;
#X connect 1 0 13 0;
#X connect 2 0 0 0;
#X connect 3 0 2 0;
#X connect 4 0 5 0;
#X connect 5 0 6 0;
#X connect 5 1 7 0;
#X connect 6 0 8 1;
#X connect 7 0 8 1;
#X connect 8 0 9 0;
#X connect 9 0 12 0;
#X connect 10 0 1 0;
#X connect 11 0 10 0;
#X connect 13 0 3 0;
#X restore 5 64 pd bilexp;
#X obj 62 204 clip~ 0 1;
#X obj 5 125 pack 1 2.689;
#X obj 5 85 * 1600;
#X msg 5 24 1;
#X obj 5 4 loadbang;
#X obj 62 183 fexpr~ $x1 - $x1[-1];
#X obj 46 316 *~ 0.3;
#X obj 46 338 outlet~;
#X obj 69 3 inlet rate;
#X obj 143 3 inlet depth;
#X connect 0 0 2 0;
#X connect 1 0 0 0;
#X connect 1 0 14 0;
#X connect 2 0 15 0;
#X connect 3 0 2 1;
#X connect 4 0 8 0;
#X connect 5 0 10 0;
#X connect 6 0 3 0;
#X connect 6 0 3 1;
#X connect 7 0 6 0;
#X connect 8 0 11 0;
#X connect 9 0 7 0;
#X connect 10 0 1 0;
#X connect 11 0 5 0;
#X connect 12 0 4 0;
#X connect 13 0 12 0;
#X connect 14 0 9 0;
#X connect 15 0 16 0;
#X connect 17 0 4 1;
#X connect 18 0 5 1;
#X restore 384 344 pd waterflow;
#X msg 453 155 0 \, 1 9000;
#X obj 453 221 swap 1;
#X obj 453 244 -;
#X obj 453 264 * 300;
#X obj 453 284 + 600;
#X obj 453 199 trigger float float;
#X obj 583 247 + 100;
#X obj 583 227 * 2000;
#X obj 302 132 trigger bang bang bang;
#X obj 376 155 del 9000;
#X obj 354 210 line;
#X msg 376 178 1 800;
#X msg 302 156 0 800;
#X obj 354 233 * 24;
#X obj 354 254 + 4;
#X obj 583 268 s cavitylength;
#X obj 457 366 r cavitylength;
#N canvas 266 175 309 287 openpipe 0;
#X obj 146 117 * 3;
#X obj 179 117 * 5;
#X obj 213 117 * 7;
#X obj 113 117 * 1;
#X obj 63 71 inlet~;
#X obj 63 237 outlet~;
#X obj 113 71 inlet length;
#X obj 63 142 bp~ 1 30;
#X obj 74 161 bp~ 1 30;
#X obj 84 181 bp~ 1 30;
#X obj 97 201 bp~ 1 30;
#X obj 113 93 trigger f f f f;
#X connect 0 0 8 1;
#X connect 1 0 9 1;
#X connect 2 0 10 1;
#X connect 3 0 7 1;
#X connect 4 0 7 0;
#X connect 4 0 8 0;
#X connect 4 0 9 0;
#X connect 4 0 10 0;
#X connect 6 0 11 0;
#X connect 7 0 5 0;
#X connect 8 0 5 0;
#X connect 9 0 5 0;
#X connect 10 0 5 0;
#X connect 11 0 3 0;
#X connect 11 1 0 0;
#X connect 11 2 1 0;
#X connect 11 3 2 0;
#X restore 383 392 pd openpipe;
#N canvas 202 87 227 371 waterflow 0;
#X obj 5 173 osc~;
#X obj 5 146 line~;
#X obj 46 290 *~;
#X obj 62 269 *~;
#X obj 5 44 metro 6;
#X obj 5 105 + 800;
#X obj 62 244 *~ 0.9;
#X obj 62 224 lop~ 10;
#N canvas 0 0 450 300 bilexp 0;
#X obj 56 166 expr exp($f1);
#X obj 55 71 random 8192;
#X obj 56 139 * 9;
#X obj 55 116 / 4096;
#X obj 123 91 > 4096;
#X obj 123 113 sel 0 1;
#X msg 115 141 -1;
#X msg 147 141 1;
#X obj 56 199 *;
#X obj 56 224 / 23000;
#X obj 55 45 t b;
#X obj 55 21 inlet;
#X obj 56 248 outlet;
#X obj 55 92 mod 4096;
#X connect 0 0 8 0;
#X connect 1 0 4 0;
#X connect 1 0 13 0;
#X connect 2 0 0 0;
#X connect 3 0 2 0;
#X connect 4 0 5 0;
#X connect 5 0 6 0;
#X connect 5 1 7 0;
#X connect 6 0 8 1;
#X connect 7 0 8 1;
#X connect 8 0 9 0;
#X connect 9 0 12 0;
#X connect 10 0 1 0;
#X connect 11 0 10 0;
#X connect 13 0 3 0;
#X restore 5 64 pd bilexp;
#X obj 62 204 clip~ 0 1;
#X obj 5 125 pack 1 2.689;
#X obj 5 85 * 1600;
#X msg 5 24 1;
#X obj 5 4 loadbang;
#X obj 62 183 fexpr~ $x1 - $x1[-1];
#X obj 46 316 *~ 0.3;
#X obj 46 338 outlet~;
#X obj 69 3 inlet rate;
#X obj 143 3 inlet depth;
#X connect 0 0 2 0;
#X connect 1 0 0 0;
#X connect 1 0 14 0;
#X connect 2 0 15 0;
#X connect 3 0 2 1;
#X connect 4 0 8 0;
#X connect 5 0 10 0;
#X connect 6 0 3 0;
#X connect 6 0 3 1;
#X connect 7 0 6 0;
#X connect 8 0 11 0;
#X connect 9 0 7 0;
#X connect 10 0 1 0;
#X connect 11 0 5 0;
#X connect 12 0 4 0;
#X connect 13 0 12 0;
#X connect 14 0 9 0;
#X connect 15 0 16 0;
#X connect 17 0 4 1;
#X connect 18 0 5 1;
#X restore 354 322 pd waterflow;
#X obj 384 479 *~;
#X obj 402 457 lop~ 0.5;
#X obj 402 434 sig~;
#X obj 151 108 trigger bang bang bang;
#X obj 225 157 del 9000;
#X obj 203 212 line;
#X msg 151 158 1 300;
#X msg 225 180 0 1200;
#X obj 203 254 s amplitude;
#X obj 402 413 r amplitude;
#N canvas 0 0 394 492 bubblefactory 0;
#X obj 49 13 tgl 15 0 empty empty empty 0 -6 0 8 -262144 -1 -1 0 1
;
#N canvas 0 0 570 560 bubble 0;
#X obj 60 405 osc~;
#X obj 60 444 *~;
#X obj 30 61 inlet;
#X obj 60 469 outlet~;
#N canvas 231 126 209 211 env4pow 0;
#X obj 54 61 vline~;
#X obj 53 87 *~;
#X obj 53 112 *~;
#X obj 5 149 -~;
#X obj 5 173 outlet~;
#X msg 54 34 1 0 0 \, 0 \$1 0;
#X obj 54 10 inlet;
#X obj 4 111 sig~ 1;
#X obj 63 173 outlet~;
#X connect 0 0 1 0;
#X connect 0 0 1 1;
#X connect 1 0 2 0;
#X connect 1 0 2 1;
#X connect 2 0 3 1;
#X connect 2 0 8 0;
#X connect 3 0 4 0;
#X connect 5 0 0 0;
#X connect 6 0 5 0;
#X connect 7 0 3 0;
#X restore 60 325 pd env4pow;
#X obj 30 83 unpack f f;
#X obj 125 347 *~;
#X obj 30 146 spigot;
#X obj 67 123 != 0;
#X obj 30 240 swap 1;
#X obj 124 369 lop~ 120;
#X obj 30 263 /;
#X obj 30 189 + 0.4;
#X obj 124 395 *~;
#X obj 186 325 swap 1;
#X obj 186 348 -;
#X obj 30 168 t f f f;
#X obj 186 369 + 0.1;
#X obj 141 179 / 3;
#X obj 141 199 + 0.6;
#X obj 60 370 +~;
#X obj 60 347 *~ 2000;
#X obj 306 88 inlet base;
#X obj 306 138 * 2;
#X obj 76 274 *;
#X obj 76 296 +;
#X obj 306 113 * 800;
#X obj 225 128 swap 1;
#X obj 226 153 -;
#X obj 29 287 *;
#X obj 224 177 * 80;
#X connect 0 0 1 0;
#X connect 1 0 3 0;
#X connect 2 0 5 0;
#X connect 4 0 21 0;
#X connect 4 1 6 0;
#X connect 5 0 7 0;
#X connect 5 1 8 0;
#X connect 5 1 18 0;
#X connect 6 0 10 0;
#X connect 7 0 16 0;
#X connect 8 0 7 1;
#X connect 9 0 11 0;
#X connect 9 1 11 1;
#X connect 10 0 13 0;
#X connect 11 0 29 0;
#X connect 12 0 9 0;
#X connect 13 0 1 1;
#X connect 14 0 15 0;
#X connect 14 1 15 1;
#X connect 15 0 17 0;
#X connect 16 0 12 0;
#X connect 16 1 24 0;
#X connect 16 2 14 0;
#X connect 17 0 13 1;
#X connect 18 0 19 0;
#X connect 19 0 6 1;
#X connect 20 0 0 0;
#X connect 21 0 20 0;
#X connect 22 0 26 0;
#X connect 22 0 27 0;
#X connect 23 0 24 1;
#X connect 24 0 25 0;
#X connect 25 0 20 1;
#X connect 26 0 23 0;
#X connect 26 0 25 1;
#X connect 27 0 28 0;
#X connect 27 1 28 0;
#X connect 28 0 30 0;
#X connect 29 0 4 0;
#X connect 30 0 29 1;
#X restore 28 345 pd bubble;
#X obj 99 104 random 1000;
#X obj 99 127 / 1000;
#X obj 28 295 pack f f f;
#X obj 28 167 pack f f;
#X obj 28 254 poly 4 1;
#X obj 28 320 route 1 2 3 4;
#X obj 14 104 random 1000;
#X obj 14 127 / 1000;
#X obj 28 199 spigot;
#X obj 183 103 random 100;
#X obj 49 59 t b b b;
#X obj 49 33 metro 20;
#X obj 183 148 > 70;
#N canvas 0 0 570 560 bubble 0;
#X obj 60 405 osc~;
#X obj 60 444 *~;
#X obj 30 61 inlet;
#X obj 60 469 outlet~;
#N canvas 0 0 450 300 env4pow 0;
#X obj 210 157 vline~;
#X obj 209 183 *~;
#X obj 209 208 *~;
#X obj 161 245 -~;
#X obj 161 269 outlet~;
#X msg 210 130 1 0 0 \, 0 \$1 0;
#X obj 210 106 inlet;
#X obj 160 207 sig~ 1;
#X obj 219 269 outlet~;
#X connect 0 0 1 0;
#X connect 0 0 1 1;
#X connect 1 0 2 0;
#X connect 1 0 2 1;
#X connect 2 0 3 1;
#X connect 2 0 8 0;
#X connect 3 0 4 0;
#X connect 5 0 0 0;
#X connect 6 0 5 0;
#X connect 7 0 3 0;
#X restore 60 325 pd env4pow;
#X obj 30 83 unpack f f;
#X obj 125 347 *~;
#X obj 30 146 spigot;
#X obj 67 123 != 0;
#X obj 30 240 swap 1;
#X obj 124 369 lop~ 120;
#X obj 30 263 /;
#X obj 30 189 + 0.4;
#X obj 124 395 *~;
#X obj 186 325 swap 1;
#X obj 186 348 -;
#X obj 30 168 t f f f;
#X obj 186 369 + 0.1;
#X obj 141 179 / 3;
#X obj 141 199 + 0.6;
#X obj 60 370 +~;
#X obj 60 347 *~ 2000;
#X obj 306 88 inlet base;
#X obj 306 138 * 2;
#X obj 76 274 *;
#X obj 76 296 +;
#X obj 306 113 * 800;
#X obj 225 128 swap 1;
#X obj 226 153 -;
#X obj 29 287 *;
#X obj 224 177 * 80;
#X connect 0 0 1 0;
#X connect 1 0 3 0;
#X connect 2 0 5 0;
#X connect 4 0 21 0;
#X connect 4 1 6 0;
#X connect 5 0 7 0;
#X connect 5 1 8 0;
#X connect 5 1 18 0;
#X connect 6 0 10 0;
#X connect 7 0 16 0;
#X connect 8 0 7 1;
#X connect 9 0 11 0;
#X connect 9 1 11 1;
#X connect 10 0 13 0;
#X connect 11 0 29 0;
#X connect 12 0 9 0;
#X connect 13 0 1 1;
#X connect 14 0 15 0;
#X connect 14 1 15 1;
#X connect 15 0 17 0;
#X connect 16 0 12 0;
#X connect 16 1 24 0;
#X connect 16 2 14 0;
#X connect 17 0 13 1;
#X connect 18 0 19 0;
#X connect 19 0 6 1;
#X connect 20 0 0 0;
#X connect 21 0 20 0;
#X connect 22 0 26 0;
#X connect 22 0 27 0;
#X connect 23 0 24 1;
#X connect 24 0 25 0;
#X connect 25 0 20 1;
#X connect 26 0 23 0;
#X connect 26 0 25 1;
#X connect 27 0 28 0;
#X connect 27 1 28 0;
#X connect 28 0 30 0;
#X connect 29 0 4 0;
#X connect 30 0 29 1;
#X restore 38 355 pd bubble;
#N canvas 0 0 570 560 bubble 0;
#X obj 60 405 osc~;
#X obj 60 444 *~;
#X obj 30 61 inlet;
#X obj 60 469 outlet~;
#N canvas 0 0 450 300 env4pow 0;
#X obj 210 157 vline~;
#X obj 209 183 *~;
#X obj 209 208 *~;
#X obj 161 245 -~;
#X obj 161 269 outlet~;
#X msg 210 130 1 0 0 \, 0 \$1 0;
#X obj 210 106 inlet;
#X obj 160 207 sig~ 1;
#X obj 219 269 outlet~;
#X connect 0 0 1 0;
#X connect 0 0 1 1;
#X connect 1 0 2 0;
#X connect 1 0 2 1;
#X connect 2 0 3 1;
#X connect 2 0 8 0;
#X connect 3 0 4 0;
#X connect 5 0 0 0;
#X connect 6 0 5 0;
#X connect 7 0 3 0;
#X restore 60 325 pd env4pow;
#X obj 30 83 unpack f f;
#X obj 125 347 *~;
#X obj 30 146 spigot;
#X obj 67 123 != 0;
#X obj 30 240 swap 1;
#X obj 124 369 lop~ 120;
#X obj 30 263 /;
#X obj 30 189 + 0.4;
#X obj 124 395 *~;
#X obj 186 325 swap 1;
#X obj 186 348 -;
#X obj 30 168 t f f f;
#X obj 186 369 + 0.1;
#X obj 141 179 / 3;
#X obj 141 199 + 0.6;
#X obj 60 370 +~;
#X obj 60 347 *~ 2000;
#X obj 306 88 inlet base;
#X obj 306 138 * 2;
#X obj 76 274 *;
#X obj 76 296 +;
#X obj 306 113 * 800;
#X obj 225 128 swap 1;
#X obj 226 153 -;
#X obj 29 287 *;
#X obj 224 177 * 80;
#X connect 0 0 1 0;
#X connect 1 0 3 0;
#X connect 2 0 5 0;
#X connect 4 0 21 0;
#X connect 4 1 6 0;
#X connect 5 0 7 0;
#X connect 5 1 8 0;
#X connect 5 1 18 0;
#X connect 6 0 10 0;
#X connect 7 0 16 0;
#X connect 8 0 7 1;
#X connect 9 0 11 0;
#X connect 9 1 11 1;
#X connect 10 0 13 0;
#X connect 11 0 29 0;
#X connect 12 0 9 0;
#X connect 13 0 1 1;
#X connect 14 0 15 0;
#X connect 14 1 15 1;
#X connect 15 0 17 0;
#X connect 16 0 12 0;
#X connect 16 1 24 0;
#X connect 16 2 14 0;
#X connect 17 0 13 1;
#X connect 18 0 19 0;
#X connect 19 0 6 1;
#X connect 20 0 0 0;
#X connect 21 0 20 0;
#X connect 22 0 26 0;
#X connect 22 0 27 0;
#X connect 23 0 24 1;
#X connect 24 0 25 0;
#X connect 25 0 20 1;
#X connect 26 0 23 0;
#X connect 26 0 25 1;
#X connect 27 0 28 0;
#X connect 27 1 28 0;
#X connect 28 0 30 0;
#X connect 29 0 4 0;
#X connect 30 0 29 1;
#X restore 48 365 pd bubble;
#N canvas 0 0 570 560 bubble 0;
#X obj 60 405 osc~;
#X obj 60 444 *~;
#X obj 30 61 inlet;
#X obj 60 469 outlet~;
#N canvas 0 0 450 300 env4pow 0;
#X obj 210 157 vline~;
#X obj 209 183 *~;
#X obj 209 208 *~;
#X obj 161 245 -~;
#X obj 161 269 outlet~;
#X msg 210 130 1 0 0 \, 0 \$1 0;
#X obj 210 106 inlet;
#X obj 160 207 sig~ 1;
#X obj 219 269 outlet~;
#X connect 0 0 1 0;
#X connect 0 0 1 1;
#X connect 1 0 2 0;
#X connect 1 0 2 1;
#X connect 2 0 3 1;
#X connect 2 0 8 0;
#X connect 3 0 4 0;
#X connect 5 0 0 0;
#X connect 6 0 5 0;
#X connect 7 0 3 0;
#X restore 60 325 pd env4pow;
#X obj 30 83 unpack f f;
#X obj 125 347 *~;
#X obj 30 146 spigot;
#X obj 67 123 != 0;
#X obj 30 240 swap 1;
#X obj 124 369 lop~ 120;
#X obj 30 263 /;
#X obj 30 189 + 0.4;
#X obj 124 395 *~;
#X obj 186 325 swap 1;
#X obj 186 348 -;
#X obj 30 168 t f f f;
#X obj 186 369 + 0.1;
#X obj 141 179 / 3;
#X obj 141 199 + 0.6;
#X obj 60 370 +~;
#X obj 60 347 *~ 2000;
#X obj 306 88 inlet base;
#X obj 306 138 * 2;
#X obj 76 274 *;
#X obj 76 296 +;
#X obj 306 113 * 800;
#X obj 225 128 swap 1;
#X obj 226 153 -;
#X obj 29 287 *;
#X obj 224 177 * 80;
#X connect 0 0 1 0;
#X connect 1 0 3 0;
#X connect 2 0 5 0;
#X connect 4 0 21 0;
#X connect 4 1 6 0;
#X connect 5 0 7 0;
#X connect 5 1 8 0;
#X connect 5 1 18 0;
#X connect 6 0 10 0;
#X connect 7 0 16 0;
#X connect 8 0 7 1;
#X connect 9 0 11 0;
#X connect 9 1 11 1;
#X connect 10 0 13 0;
#X connect 11 0 29 0;
#X connect 12 0 9 0;
#X connect 13 0 1 1;
#X connect 14 0 15 0;
#X connect 14 1 15 1;
#X connect 15 0 17 0;
#X connect 16 0 12 0;
#X connect 16 1 24 0;
#X connect 16 2 14 0;
#X connect 17 0 13 1;
#X connect 18 0 19 0;
#X connect 19 0 6 1;
#X connect 20 0 0 0;
#X connect 21 0 20 0;
#X connect 22 0 26 0;
#X connect 22 0 27 0;
#X connect 23 0 24 1;
#X connect 24 0 25 0;
#X connect 25 0 20 1;
#X connect 26 0 23 0;
#X connect 26 0 25 1;
#X connect 27 0 28 0;
#X connect 27 1 28 0;
#X connect 28 0 30 0;
#X connect 29 0 4 0;
#X connect 30 0 29 1;
#X restore 58 375 pd bubble;
#X obj 163 268 inlet average pitch;
#X obj 71 13 loadbang;
#X obj 29 460 outlet~;
#X obj 206 124 inlet bubble intensity;
#X connect 0 0 13 0;
#X connect 1 0 20 0;
#X connect 2 0 3 0;
#X connect 3 0 5 1;
#X connect 4 0 7 0;
#X connect 5 0 10 0;
#X connect 6 0 4 0;
#X connect 6 1 4 1;
#X connect 6 2 4 2;
#X connect 7 0 1 0;
#X connect 7 1 15 0;
#X connect 7 2 16 0;
#X connect 7 3 17 0;
#X connect 8 0 9 0;
#X connect 9 0 5 0;
#X connect 10 0 6 0;
#X connect 11 0 14 0;
#X connect 12 0 8 0;
#X connect 12 1 2 0;
#X connect 12 2 11 0;
#X connect 13 0 12 0;
#X connect 14 0 10 1;
#X connect 15 0 20 0;
#X connect 16 0 20 0;
#X connect 17 0 20 0;
#X connect 18 0 1 1;
#X connect 18 0 15 1;
#X connect 18 0 16 1;
#X connect 18 0 17 1;
#X connect 19 0 13 0;
#X connect 21 0 14 1;
#X restore 234 322 pd bubblefactory;
#X obj 35 132 line;
#X obj 35 82 trigger bang bang;
#X msg 35 108 0 \, 1 9000;
#X obj 35 153 s bubblesize;
#X obj 234 301 r bubblesize;
#X obj 234 344 *~ 0.05;
#X obj 35 20 inlet;
#X obj 384 514 outlet~;
#X obj 35 52 bng 15 250 50 0 empty empty empty 17 7 0 10 -262144 -1
-1;
#X floatatom 203 233 5 0 0 0 - - -;
#X connect 0 0 7 0;
#X connect 1 0 19 0;
#X connect 2 0 0 0;
#X connect 3 0 4 0;
#X connect 3 1 4 1;
#X connect 4 0 5 0;
#X connect 5 0 6 0;
#X connect 6 0 1 1;
#X connect 6 0 20 1;
#X connect 7 0 3 0;
#X connect 7 1 9 0;
#X connect 8 0 17 0;
#X connect 9 0 8 0;
#X connect 10 0 14 0;
#X connect 10 1 11 0;
#X connect 10 2 2 0;
#X connect 11 0 13 0;
#X connect 12 0 15 0;
#X connect 13 0 12 0;
#X connect 14 0 12 0;
#X connect 15 0 16 0;
#X connect 16 0 1 0;
#X connect 16 0 20 0;
#X connect 18 0 19 1;
#X connect 19 0 21 0;
#X connect 20 0 19 0;
#X connect 21 0 39 0;
#X connect 22 0 21 1;
#X connect 23 0 22 0;
#X connect 24 0 27 0;
#X connect 24 1 25 0;
#X connect 24 2 10 0;
#X connect 25 0 28 0;
#X connect 26 0 41 0;
#X connect 27 0 26 0;
#X connect 28 0 26 0;
#X connect 30 0 23 0;
#X connect 31 0 37 0;
#X connect 32 0 35 0;
#X connect 33 0 34 0;
#X connect 33 1 24 0;
#X connect 34 0 32 0;
#X connect 36 0 31 0;
#X connect 37 0 19 0;
#X connect 38 0 40 0;
#X connect 40 0 33 0;
#X connect 41 0 29 0;
#X restore 113 413 pd pour;
#X obj 113 454 *~ 10;
#N canvas 438 122 450 414 rolling 0;
#X obj 10 315 hip~ 200;
#X obj 10 198 *~ 0.1;
#X obj 10 221 sqrt~;
#X obj 10 56 vline~;
#X obj 10 122 cos~;
#X obj 10 144 lop~ 0.1;
#X obj 10 100 -~ 0.25;
#X obj 10 78 *~ 0.5;
#X msg 10 34 0 \, 1 500;
#X obj 10 166 *~ 5;
#X text 81 34 press repeatedly;
#N canvas 216 38 368 237 regular-roll 0;
#X obj 74 193 rzero~ 0.9;
#X obj -2 66 phasor~ 1;
#X obj -2 139 wrap~;
#X obj 51 139 wrap~;
#X obj 102 139 wrap~;
#X obj 155 138 wrap~;
#X obj 68 66 unpack f f f f f f f f;
#X msg 89 44 2 0.1 3 0.05 4.2 0.02 5.6 0.012;
#X msg 107 23 1.3 0.1 1.7 0.05 2.4 0.02 8.1 0.012;
#X obj 89 -2 loadbang;
#X text 179 2 roll pattern;
#X obj 74 216 outlet~;
#X obj -2 -2 inlet~ speed;
#X obj -2 119 *~;
#X obj 51 119 *~;
#X obj 102 119 *~;
#X obj 155 118 *~;
#X obj -2 160 *~;
#X obj 51 160 *~;
#X obj 102 160 *~;
#X obj 155 160 *~;
#X connect 0 0 11 0;
#X connect 1 0 13 0;
#X connect 1 0 14 0;
#X connect 1 0 15 0;
#X connect 1 0 16 0;
#X connect 2 0 17 0;
#X connect 3 0 18 0;
#X connect 4 0 19 0;
#X connect 5 0 20 0;
#X connect 6 0 13 1;
#X connect 6 1 17 1;
#X connect 6 2 14 1;
#X connect 6 3 18 1;
#X connect 6 4 15 1;
#X connect 6 5 19 1;
#X connect 6 6 16 1;
#X connect 6 7 20 1;
#X connect 7 0 6 0;
#X connect 8 0 6 0;
#X connect 9 0 7 0;
#X connect 12 0 1 0;
#X connect 13 0 2 0;
#X connect 14 0 3 0;
#X connect 15 0 4 0;
#X connect 16 0 5 0;
#X connect 17 0 0 0;
#X connect 18 0 0 0;
#X connect 19 0 0 0;
#X connect 20 0 0 0;
#X restore 63 199 pd regular-roll;
#N canvas 672 161 414 498 irregular-ground 0;
#X obj 18 -50 noise~;
#X obj 18 -13 max~ 0;
#X msg 938 99 0.54;
#X obj 19 109 samphold~;
#X obj 19 132 rzero~ 0.99;
#X obj 20 208 outlet~;
#X obj 141 6 phasor~ 12;
#X obj 76 56 +~;
#X obj 76 9 *~ 0.001;
#X obj 19 182 *~;
#X obj 142 -23 *~ 100;
#X obj 142 -70 inlet~ speed;
#X obj 19 155 *~ 0.05;
#X connect 0 0 1 0;
#X connect 0 0 8 0;
#X connect 1 0 3 0;
#X connect 3 0 4 0;
#X connect 4 0 12 0;
#X connect 6 0 7 1;
#X connect 7 0 3 1;
#X connect 8 0 7 0;
#X connect 9 0 5 0;
#X connect 10 0 6 0;
#X connect 11 0 10 0;
#X connect 11 0 9 1;
#X connect 12 0 9 0;
#X restore 63 256 pd irregular-ground;
#X obj 10 292 *~;
#X obj 63 231 *~ 0.5;
#N canvas 231 301 272 275 tincan 0;
#X obj 76 190 *~ 1000;
#X obj 76 232 *~ 0.4;
#X obj -2 0 inlet~;
#X obj 94 1 loadbang;
#X obj 76 253 outlet~;
#X msg 94 23 359 426 1748 3000 123;
#X obj 94 45 unpack f f f f f;
#X obj -2 135 bp~ 1 1;
#X obj 76 135 bp~ 1 1;
#X obj 143 136 bp~ 1 1;
#X obj 213 136 bp~ 1 1;
#X obj 76 157 *~ 0.3;
#X obj 213 157 *~ 0.2;
#X obj -2 158 *~ 0.2;
#X obj 143 157 *~ 0.3;
#X obj 76 211 clip~ -0.3 0.3;
#X connect 0 0 15 0;
#X connect 1 0 4 0;
#X connect 2 0 7 0;
#X connect 2 0 8 0;
#X connect 2 0 9 0;
#X connect 2 0 10 0;
#X connect 3 0 5 0;
#X connect 5 0 6 0;
#X connect 6 0 7 1;
#X connect 6 1 8 1;
#X connect 6 2 9 1;
#X connect 6 3 10 1;
#X connect 6 4 8 2;
#X connect 6 4 7 2;
#X connect 6 4 9 2;
#X connect 6 4 10 2;
#X connect 7 0 13 0;
#X connect 8 0 11 0;
#X connect 9 0 14 0;
#X connect 10 0 12 0;
#X connect 11 0 0 0;
#X connect 12 0 0 0;
#X connect 13 0 0 0;
#X connect 14 0 0 0;
#X connect 15 0 1 0;
#X coords 0 0 1 1 240 160 0;
#X restore 10 337 pd tincan;
#X obj 10 363 outlet~;
#X obj 10 8 inlet;
#X connect 0 0 15 0;
#X connect 1 0 2 0;
#X connect 2 0 13 0;
#X connect 3 0 7 0;
#X connect 4 0 5 0;
#X connect 5 0 9 0;
#X connect 6 0 4 0;
#X connect 7 0 6 0;
#X connect 8 0 3 0;
#X connect 9 0 1 0;
#X connect 9 0 11 0;
#X connect 9 0 14 0;
#X connect 11 0 13 1;
#X connect 12 0 13 1;
#X connect 13 0 0 0;
#X connect 14 0 12 0;
#X connect 15 0 16 0;
#X connect 17 0 8 0;
#X restore 620 406 pd rolling;
#X obj 620 457 *~ 15;
#X obj 22 531 *~ 0.1;
#X obj 734 500 *~ 0.1;
#X msg 302 418 0 \, 643120 1453.2;
#X msg 413 395 0 \, 64320 14583.2;
#X obj 497 568 *~ 0.8;
#X msg 203 392 0 \, 1153 260.145;
#X obj 413 511 *~ 1;
#X msg 497 435 0 \, 341894 7752.7;
#X obj 352 624 *~ 0.6;
#X connect 0 0 75 0;
#X connect 1 0 72 0;
#X connect 2 0 73 0;
#X connect 3 0 77 0;
#X connect 4 0 28 0;
#X connect 4 0 18 0;
#X connect 4 0 32 0;
#X connect 4 0 34 0;
#X connect 5 0 22 0;
#X connect 5 0 24 0;
#X connect 5 0 26 0;
#X connect 5 0 35 0;
#X connect 6 0 1 0;
#X connect 7 0 68 0;
#X connect 8 0 17 0;
#X connect 8 0 15 0;
#X connect 9 0 14 0;
#X connect 9 0 16 0;
#X connect 10 0 66 0;
#X connect 11 0 70 0;
#X connect 12 0 71 0;
#X connect 13 0 9 0;
#X connect 14 0 11 0;
#X connect 15 0 11 0;
#X connect 16 0 12 0;
#X connect 17 0 12 0;
#X connect 18 0 29 0;
#X connect 19 1 0 0;
#X connect 20 0 8 0;
#X connect 21 0 2 0;
#X connect 22 0 23 0;
#X connect 23 1 3 0;
#X connect 24 0 25 0;
#X connect 25 1 7 0;
#X connect 26 0 20 0;
#X connect 28 0 13 0;
#X connect 29 1 10 0;
#X connect 32 0 19 0;
#X connect 34 0 6 0;
#X connect 35 0 21 0;
#X connect 36 0 4 0;
#X connect 37 0 5 0;
#X connect 38 0 41 0;
#X connect 39 0 42 0;
#X connect 41 0 37 0;
#X connect 42 0 36 0;
#X connect 46 0 47 0;
#X connect 47 0 49 0;
#X connect 49 0 48 0;
#X connect 50 0 55 0;
#X connect 50 0 57 0;
#X connect 50 0 56 0;
#X connect 51 0 52 0;
#X connect 52 0 53 0;
#X connect 52 0 54 0;
#X connect 55 0 46 0;
#X connect 56 0 46 0;
#X connect 57 0 46 0;
#X connect 58 0 59 0;
#X connect 59 0 65 0;
#X connect 61 0 62 0;
#X connect 62 0 76 0;
#X connect 63 0 64 0;
#X connect 64 0 74 0;
#X connect 65 0 78 0;
#X connect 66 0 67 0;
#X connect 67 0 78 0;
#X connect 68 0 69 0;
#X connect 69 0 78 0;
#X connect 70 0 78 0;
#X connect 71 0 78 0;
#X connect 72 0 61 0;
#X connect 73 0 61 0;
#X connect 74 0 78 0;
#X connect 75 0 58 0;
#X connect 76 0 78 0;
#X connect 77 0 63 0;
#X connect 78 0 40 0;
#X coords 0 -1 1 1 150 130 1 100 100;
