#N canvas 24 152 743 462 12;
#X obj 64 397 dac~;
#X obj 64 359 *~ 0.5;
#X obj 532 176 bng 15 250 50 0 empty empty empty 17 7 0 10 -262144
-1 -1;
#X obj 532 203 t b b;
#X obj 532 240 openpanel;
#X obj 532 276 pack s s;
#X obj 532 339 soundfiler;
#X msg 532 305 read -resize \$1 \$2;
#X obj 469 25 bng 15 250 50 0 empty empty empty 17 7 0 10 -262144 -1
-1;
#X obj 469 45 f \$0;
#X floatatom 469 68 5 0 0 0 - - -;
#X obj 64 61 metro 500;
#X obj 64 30 tgl 15 0 empty empty empty 17 7 0 10 -262144 -1 -1 0 1
;
#X msg 357 50 \; pd dsp \$1;
#X obj 357 27 tgl 15 0 empty empty Master_Switch 17 7 0 10 -262144
-1 -1 0 1;
#X msg 64 99 0;
#X floatatom 116 174 5 0 0 0 - - -;
#X obj 116 266 delread4~ \$0-delay;
#N canvas 0 22 450 278 (subpatch) 0;
#X array \$0-sample 12288 float 2;
#X coords 0 1 12288 -1 200 140 1;
#X restore 533 23 graph;
#X obj 610 239 symbol \$0-sample;
#X obj 64 133 tabplay~ \$0-sample;
#X obj 64 321 +~;
#X text 178 61 sample playback;
#X floatatom 190 173 5 0 0 0 - - -;
#X obj 116 203 pack f 1000;
#X obj 116 235 line~;
#X text 221 212 delay time;
#X obj 326 160 hsl 128 15 0 100 0 0 empty empty empty -2 -8 0 10 -262144
-1 -1 7500 1;
#X floatatom 323 190 5 0 0 0 - - -;
#X obj 323 218 * 0.01;
#X obj 323 250 pack f 50;
#X obj 323 281 line~;
#X floatatom 406 250 5 0 0 0 - - -;
#X obj 222 326 *~;
#X obj 222 357 clip~ -1 1;
#X obj 222 388 delwrite~ \$0-delay 5000;
#X text 396 207 delay feedback;
#X connect 1 0 0 0;
#X connect 1 0 0 1;
#X connect 2 0 3 0;
#X connect 3 0 4 0;
#X connect 3 1 19 0;
#X connect 4 0 5 0;
#X connect 5 0 7 0;
#X connect 7 0 6 0;
#X connect 8 0 9 0;
#X connect 9 0 10 0;
#X connect 11 0 15 0;
#X connect 12 0 11 0;
#X connect 14 0 13 0;
#X connect 15 0 20 0;
#X connect 16 0 24 0;
#X connect 17 0 21 1;
#X connect 19 0 5 1;
#X connect 20 0 21 0;
#X connect 21 0 1 0;
#X connect 21 0 33 0;
#X connect 23 0 24 1;
#X connect 24 0 25 0;
#X connect 25 0 17 0;
#X connect 27 0 28 0;
#X connect 28 0 29 0;
#X connect 29 0 30 0;
#X connect 29 0 32 0;
#X connect 30 0 31 0;
#X connect 31 0 33 1;
#X connect 33 0 34 0;
#X connect 34 0 35 0;
